<svg width="26" height="26" viewBox="0 0 26 26" fill="none" xmlns="http://www.w3.org/2000/svg">
<circle cx="13" cy="13" r="12.25" transform="matrix(0 1 1 0 0 0)" fill="url(#paint0_linear_2009_24550)" stroke="#EDEFF2" stroke-width="1.5"/>
<path d="M18.1797 18.6894L7.5519 14.2935C7.00242 14.0456 6.73438 13.677 6.73438 13.1912V12.8025C6.73438 12.3167 7.00242 11.9481 7.5519 11.7002L12.1823 9.78705V8.33962C12.1857 7.90741 12.5341 7.5556 12.9697 7.55225H12.9797C13.412 7.5556 13.7638 7.90741 13.7671 8.33962V9.11694L18.1797 7.29091C18.2769 7.25741 18.3774 7.2373 18.4813 7.2373C18.7292 7.2373 18.9235 7.31437 19.0743 7.45174C19.2251 7.58911 19.2988 7.78679 19.2988 8.03473C19.2955 8.1989 19.2452 8.35638 19.148 8.48705C19.0509 8.62777 18.9101 8.72493 18.7493 8.802L13.7638 10.8123V12.2061C13.7604 12.6383 13.412 12.9901 12.9764 12.9935H12.9563C12.5241 12.9901 12.1723 12.6383 12.1689 12.2061V11.4623L8.34597 12.9968L18.746 17.1783C18.9068 17.2553 19.0475 17.3525 19.1447 17.4932C19.2418 17.6239 19.2921 17.7847 19.2955 17.9456C19.2955 18.1935 19.2217 18.3878 19.071 18.5285C18.9202 18.6693 18.7259 18.743 18.4779 18.743C18.3774 18.7463 18.2735 18.7296 18.1797 18.6894Z" fill="white"/>
<defs>
<linearGradient id="paint0_linear_2009_24550" x1="14.5546" y1="-4.82761" x2="-4.78939" y2="11.4484" gradientUnits="userSpaceOnUse">
<stop stop-color="#B6509E"/>
<stop offset="1" stop-color="#2EBAC6"/>
</linearGradient>
</defs>
</svg>
