<svg width="26" height="26" viewBox="0 0 26 26" fill="none" xmlns="http://www.w3.org/2000/svg">
<circle cx="13" cy="13" r="12.25" transform="matrix(0 1 1 0 0 0)" fill="#EDF0F4" stroke="#EDEFF2" stroke-width="1.5"/>
<path d="M12.9338 9.08495C13.5763 9.04798 14.1263 9.54253 14.1632 10.185C14.1632 10.2081 14.1632 10.2312 14.1632 10.2543C14.1632 10.9014 13.641 11.4237 12.9939 11.4191C12.3468 11.4191 11.8245 10.8968 11.8291 10.2497C11.8291 9.63035 12.3144 9.11731 12.9338 9.08495Z" fill="#0033AD"/>
<path d="M12.6336 4.73089C12.6198 4.5229 12.7815 4.34264 12.9895 4.3334C13.1975 4.32415 13.3778 4.4813 13.387 4.68929C13.4009 4.89728 13.2391 5.07292 13.0311 5.08678C12.8231 5.10065 12.6475 4.93888 12.6336 4.73089Z" fill="#0033AD"/>
<path d="M6.15797 9.01111C6.06553 9.19599 5.83443 9.26994 5.64955 9.1775C5.46467 9.08506 5.39072 8.85396 5.48316 8.66908C5.5756 8.4842 5.80208 8.41025 5.98696 8.50269C6.17646 8.59513 6.25503 8.82161 6.15797 9.01111C6.15797 9.01111 6.15797 9.00649 6.15797 9.01111Z" fill="#0033AD"/>
<path d="M8.2245 10.1942C8.08121 10.4807 7.72994 10.5963 7.44337 10.453C7.15681 10.3097 7.04126 9.95846 7.18454 9.67189C7.32782 9.38533 7.6791 9.26978 7.96566 9.41306C8.25223 9.55634 8.36778 9.90761 8.2245 10.1942Z" fill="#0033AD"/>
<path d="M9.64261 6.21004C9.78589 6.43189 9.72581 6.7277 9.50395 6.87561C9.28209 7.01889 8.98628 6.9588 8.83838 6.73695C8.6951 6.51509 8.75518 6.21928 8.97704 6.07138C9.1989 5.92347 9.49933 5.98818 9.64261 6.21004Z" fill="#0033AD"/>
<path d="M12.4258 6.91698C12.4073 6.59344 12.6523 6.32074 12.9758 6.30225C13.2993 6.28376 13.572 6.52873 13.5905 6.85227C13.609 7.17581 13.3641 7.44851 13.0405 7.467C12.7216 7.48549 12.4443 7.24052 12.4258 6.91698Z" fill="#0033AD"/>
<path d="M16.3407 6.27453C16.4609 6.0388 16.7475 5.94174 16.9878 6.06191C17.2235 6.18209 17.3206 6.46865 17.2004 6.709C17.0802 6.94472 16.7937 7.04178 16.5533 6.92161C16.3176 6.80144 16.2206 6.51025 16.3407 6.27453Z" fill="#0033AD"/>
<path d="M11.2189 8.53944C11.4269 8.85836 11.3391 9.28359 11.0201 9.48696C10.7012 9.69495 10.276 9.60713 10.0726 9.28821C9.86464 8.96929 9.95246 8.54407 10.2714 8.3407C10.5857 8.13271 11.0109 8.22053 11.2189 8.53944Z" fill="#0033AD"/>
<path d="M8.17793 15.7268C8.35357 15.9949 8.27962 16.36 8.01154 16.5357C7.74346 16.7113 7.37833 16.6373 7.20269 16.3693C7.02705 16.1012 7.101 15.736 7.36908 15.5604C7.64178 15.3801 8.0023 15.4541 8.17793 15.7268Z" fill="#0033AD"/>
<path d="M6.12127 16.9193C6.23682 17.0949 6.18598 17.326 6.01034 17.4416C5.8347 17.5571 5.6036 17.5063 5.48805 17.3306C5.3725 17.155 5.42335 16.9239 5.59436 16.8084C5.77 16.6974 6.00572 16.7483 6.12127 16.9193Z" fill="#0033AD"/>
<path d="M11.8203 15.8144C11.7833 15.1719 12.2779 14.6173 12.9203 14.585C13.5628 14.548 14.1174 15.0425 14.1498 15.685C14.1498 15.7081 14.1498 15.7312 14.1498 15.7497C14.1498 16.3922 13.6275 16.9144 12.9804 16.9144C12.3657 16.9191 11.8527 16.4338 11.8203 15.8144Z" fill="#0033AD"/>
<path d="M11.1358 10.578C11.5287 10.7768 11.7783 11.1789 11.7783 11.6226C11.7783 12.265 11.256 12.7873 10.6089 12.7873C10.4287 12.7873 10.2484 12.7457 10.082 12.6625C9.50425 12.3713 9.27315 11.6688 9.56433 11.0957C9.86014 10.5179 10.5627 10.2868 11.1358 10.578Z" fill="#0033AD"/>
<path d="M9.64305 19.7248C9.52288 19.9605 9.23169 20.0529 8.99597 19.9328C8.76025 19.8126 8.66781 19.5214 8.78798 19.2857C8.90815 19.05 9.19472 18.9575 9.43044 19.0731C9.66616 19.1979 9.76322 19.4844 9.64305 19.7248Z" fill="#0033AD"/>
<path d="M10.0127 16.7666C10.1838 16.4292 10.5951 16.2905 10.9325 16.4615C11.2699 16.6326 11.4086 17.0439 11.2376 17.3813C11.0666 17.7187 10.6552 17.8574 10.3178 17.6864C9.98038 17.5154 9.84634 17.104 10.0127 16.7666Z" fill="#0033AD"/>
<path d="M5.94546 12.9536C5.95933 13.2171 5.75596 13.4436 5.4925 13.462C5.22905 13.4805 5.00257 13.2725 4.98408 13.0091C4.97022 12.7456 5.16896 12.5192 5.43242 12.5007C5.70049 12.4868 5.92697 12.6902 5.94546 12.9536Z" fill="#0033AD"/>
<path d="M8.96315 12.9487C8.98626 13.3277 8.69508 13.6513 8.31607 13.6697C7.93707 13.6929 7.61352 13.4017 7.59504 13.0227C7.57193 12.6437 7.86311 12.3201 8.24212 12.3016C8.62112 12.2831 8.94466 12.5697 8.96315 12.9487Z" fill="#0033AD"/>
<path d="M15.9701 9.23289C15.7991 9.57029 15.3877 9.70895 15.0503 9.53794C14.7129 9.36692 14.5742 8.95556 14.7452 8.61816C14.9162 8.28075 15.3276 8.14209 15.665 8.3131C16.0024 8.48412 16.1411 8.89548 15.9701 9.23289Z" fill="#0033AD"/>
<path d="M9.96636 13.3925C10.5071 13.0412 11.2282 13.1891 11.5794 13.7299C11.9307 14.2706 11.7828 14.9917 11.242 15.3429C10.7013 15.6942 9.98023 15.5463 9.62896 15.0055C9.50416 14.816 9.43945 14.5942 9.43945 14.3677C9.43945 13.9748 9.6382 13.6097 9.96636 13.3925Z" fill="#0033AD"/>
<path d="M14.8476 15.4218C14.2699 15.1306 14.0388 14.4281 14.33 13.8549C14.6211 13.2772 15.3237 13.0461 15.8968 13.3373C16.4746 13.6285 16.7057 14.331 16.4145 14.9041C16.1279 15.4773 15.4346 15.713 14.8569 15.4264C14.8522 15.4264 14.8522 15.4264 14.8476 15.4218Z" fill="#0033AD"/>
<path d="M14.764 17.4601C14.556 17.1412 14.6439 16.7159 14.9628 16.5126C15.2817 16.3046 15.7069 16.3924 15.9103 16.7113C16.1183 17.0302 16.0305 17.4555 15.7116 17.6588C15.3973 17.8668 14.972 17.779 14.764 17.4601Z" fill="#0033AD"/>
<path d="M13.0122 19.697C12.6887 19.7155 12.416 19.4705 12.3975 19.147C12.379 18.8234 12.6239 18.5507 12.9475 18.5322C13.271 18.5137 13.5437 18.7587 13.5622 19.0823C13.5807 19.4012 13.3311 19.6785 13.0122 19.697Z" fill="#0033AD"/>
<path d="M12.5965 21.31C12.5827 21.102 12.7444 20.9217 12.9524 20.9125C13.1604 20.9033 13.3407 21.0604 13.3499 21.2684C13.3638 21.4764 13.202 21.652 12.994 21.6659C12.786 21.6751 12.6104 21.518 12.5965 21.31Z" fill="#0033AD"/>
<path d="M16.3403 19.7896C16.197 19.5677 16.2571 19.2719 16.479 19.124C16.7008 18.9807 16.9967 19.0408 17.1446 19.2627C17.2878 19.4845 17.2278 19.7803 17.0059 19.9283C16.784 20.0762 16.4836 20.0114 16.3403 19.7896Z" fill="#0033AD"/>
<path d="M19.8621 9.07577C19.7465 8.90013 19.7974 8.66903 19.9684 8.55348C20.144 8.43793 20.3751 8.48878 20.4907 8.65979C20.6062 8.83543 20.5554 9.06653 20.3844 9.18208C20.2134 9.30225 19.9776 9.25141 19.8621 9.07577Z" fill="#0033AD"/>
<path d="M19.8249 16.9884C19.9174 16.8035 20.1485 16.7296 20.3333 16.822C20.5182 16.9145 20.5922 17.1456 20.4997 17.3304C20.4073 17.5153 20.1808 17.5893 19.9959 17.4968C19.8064 17.4044 19.7279 17.1779 19.8249 16.9884C19.8249 16.993 19.8249 16.9884 19.8249 16.9884Z" fill="#0033AD"/>
<path d="M16.017 12.6069C15.4762 12.9582 14.7552 12.8103 14.3993 12.2695C14.048 11.7287 14.1959 11.0077 14.7367 10.6518C15.2775 10.2959 15.9985 10.4485 16.3544 10.9892C16.4792 11.1787 16.5439 11.4006 16.5439 11.6271C16.5485 12.0246 16.3498 12.3897 16.017 12.6069Z" fill="#0033AD"/>
<path d="M17.8052 10.2728C17.6296 10.0047 17.7035 9.63956 17.9716 9.46392C18.2397 9.28828 18.6048 9.36223 18.7805 9.63031C18.9561 9.89839 18.8822 10.2635 18.6141 10.4392C18.346 10.6194 17.9809 10.5455 17.8052 10.2728Z" fill="#0033AD"/>
<path d="M20.0378 12.9949C20.0239 12.7315 20.2273 12.505 20.4907 12.4865C20.7542 12.468 20.9807 12.676 20.9992 12.9395C21.013 13.2029 20.8143 13.4294 20.5508 13.4479C20.2827 13.4617 20.0563 13.2584 20.0378 12.9949Z" fill="#0033AD"/>
<path d="M17.0198 12.9997C16.9967 12.6207 17.2879 12.2971 17.6669 12.2786C18.0459 12.2555 18.3695 12.5467 18.388 12.9257C18.4064 13.3047 18.1199 13.6283 17.7409 13.6467C17.3665 13.6699 17.0383 13.3787 17.0198 12.9997Z" fill="#0033AD"/>
<path d="M17.7588 15.8055C17.9067 15.519 18.258 15.4034 18.5446 15.5513C18.8311 15.6992 18.9467 16.0505 18.7988 16.337C18.6555 16.6236 18.3042 16.7392 18.0177 16.5959C17.7311 16.448 17.6109 16.0967 17.7588 15.8055Z" fill="#0033AD"/>
</svg>
