<svg width="26" height="26" viewBox="0 0 26 26" fill="none" xmlns="http://www.w3.org/2000/svg">
<mask id="path-2-inside-1_2009_26154" fill="white">
<path fill-rule="evenodd" clip-rule="evenodd" d="M13 26C5.85 26 0 20.1501 0 12.9353C0.065 5.78542 5.85 -0.0644622 13.065 0.000536471C20.215 0.0655351 26 5.85042 26 13.1303C25.935 20.2151 20.15 26 13 26Z"/>
</mask>
<path fill-rule="evenodd" clip-rule="evenodd" d="M13 26C5.85 26 0 20.1501 0 12.9353C0.065 5.78542 5.85 -0.0644622 13.065 0.000536471C20.215 0.0655351 26 5.85042 26 13.1303C25.935 20.2151 20.15 26 13 26Z" fill="black"/>
<path d="M0 12.9353L-1 12.9262V12.9353H0ZM13.065 0.000536471L13.0741 -0.999422L13.074 -0.999423L13.065 0.000536471ZM26 13.1303L27 13.1394V13.1303H26ZM13 26V25C6.40551 25 1 19.6011 1 12.9353H0H-1C-1 20.6992 5.29449 27 13 27V26ZM0 12.9353L0.999959 12.9444C1.06006 6.3329 6.40696 0.940596 13.056 1.0005L13.065 0.000536471L13.074 -0.999423C5.29304 -1.06952 -0.930064 5.23793 -0.999959 12.9262L0 12.9353ZM13.065 0.000536471L13.0559 1.0005C19.656 1.06049 25 6.39798 25 13.1303H26H27C27 5.30285 20.774 -0.929425 13.0741 -0.999422L13.065 0.000536471ZM26 13.1303L25 13.1211C24.9401 19.6593 19.5992 25 13 25V26V27C20.7008 27 26.9299 20.7709 27 13.1394L26 13.1303Z" fill="#EDEFF2" mask="url(#path-2-inside-1_2009_26154)"/>
<path d="M8.74691 19.5L10.627 16.2443L12.5071 13L14.3757 9.74427L14.6852 9.22839L14.8228 9.74427L15.3959 11.888L14.754 13L12.8739 16.2443L11.0053 19.5H13.2522L15.1323 16.2443L16.1067 14.5591L16.5653 16.2443L17.4365 19.5H19.4541L18.5829 16.2443L17.7116 13L17.4824 12.1631L18.881 9.74427H16.8404L16.7716 9.50353L16.0608 6.84392L15.9691 6.5H14.0088L13.963 6.56878L12.1287 9.74427L10.2487 13L8.38007 16.2443L6.5 19.5H8.74691Z" fill="white"/>
</svg>
