<svg width="26" height="26" viewBox="0 0 26 26" fill="none" xmlns="http://www.w3.org/2000/svg">
<g clip-path="url(#clip0_2009_23951)">
<path d="M26 13C26 5.81358 20.1724 0 13 0C5.81358 0 0 5.81358 0 13C0 20.1724 5.81358 26 13 26C20.1724 26 26 20.1724 26 13Z" fill="url(#paint0_radial_2009_23951)"/>
<path d="M21.8392 8.93742C21.7831 9.25962 21.7271 9.41372 21.643 9.58182C21.559 9.77794 21.4749 9.98807 21.3909 10.4363C21.3629 10.6044 21.3349 10.7445 21.3209 10.8566V10.8706C21.2928 11.0527 21.2788 11.1788 21.2088 11.3889C21.1527 11.571 21.0547 11.8652 20.8165 12.1734C20.6204 12.4256 20.2982 12.8598 19.864 12.9159C19.8219 12.9159 19.7519 12.9159 19.7099 12.9019C18.4771 12.2715 17.4265 11.8092 17.0622 11.7111C16.642 11.5851 16.698 10.6605 16.74 9.84798C16.768 9.48376 16.7821 9.13354 16.768 8.83936C16.712 7.80273 16.5299 6.68204 15.6334 6.1357C15.101 5.8135 14.4006 5.71544 13.7422 5.71544C13.8683 5.65941 13.9943 5.57536 14.1484 5.4913C14.5407 5.26717 15.017 4.98699 15.5073 4.93096C15.6614 4.91695 15.8155 4.90294 15.9696 4.87492C16.9362 4.76286 17.7767 4.66479 18.6592 4.97298C19.0655 5.11307 19.878 5.56135 20.0881 5.99561C20.2422 6.28979 20.4943 6.52794 20.9846 6.99023C21.2508 7.22837 21.4189 7.36846 21.545 7.48053C21.7271 7.62061 21.7551 7.66264 21.8112 7.7607C21.9793 8.09691 21.9232 8.44712 21.8392 8.93742Z" fill="white"/>
<path d="M17.3707 13.1821C17.4267 13.1961 17.4547 13.2662 17.4127 13.3222C17.2866 13.5183 17.1325 13.7985 16.9504 14.1207C16.8664 14.2748 16.7823 14.4289 16.7123 14.541C16.4741 14.9472 16.4601 15.2974 16.4461 15.5636C16.4321 15.8578 16.4181 15.9839 16.236 16.0959C16.0959 16.194 15.9418 16.222 14.9332 16.3761C14.7511 16.4041 14.681 16.4321 14.611 16.4742C14.597 16.4882 14.5689 16.4882 14.5549 16.5022C14.4989 16.5302 14.4429 16.4742 14.4429 16.4181C14.4569 16.278 14.4569 16.0959 14.4569 15.8578V15.8157C14.4569 15.6196 14.4569 15.4515 14.4429 15.3254C14.4289 15.0733 14.4289 14.9612 14.4989 14.8492C14.583 14.7091 14.653 14.667 14.7511 14.597C14.9052 14.4989 15.1153 14.3729 15.4095 13.9526C15.5776 13.7285 15.6056 13.6024 15.6336 13.5043C15.6476 13.4623 15.6476 13.4483 15.7737 13.3502C15.8998 13.2522 16.306 12.944 16.8243 13.028C16.9924 13.056 17.1745 13.1121 17.3707 13.1821Z" fill="white"/>
<path d="M13.3501 17.8329C13.322 17.8609 13.308 17.8749 13.266 17.8749C13.1539 17.8749 13.0839 17.8469 13.0419 17.7909C12.9438 17.6648 12.9578 17.4126 12.9718 17.2586L13.4061 17.1465C13.4341 17.3846 13.4481 17.7068 13.3501 17.8329Z" fill="white"/>
<path d="M13.3779 16.2921C13.3639 16.3481 13.3639 16.4181 13.3639 16.5022C13.3639 16.5302 13.3639 16.5582 13.3639 16.5862C13.3639 16.6563 13.3639 16.7684 13.3639 16.8244C13.2238 16.8664 13.1118 16.8664 12.9717 16.8664C12.9717 16.8244 12.9717 16.7543 12.9717 16.7123C12.9717 16.6843 12.9717 16.6423 12.9717 16.6143C12.9717 16.5722 12.9717 16.5442 12.9717 16.5022C12.9717 16.4181 12.9717 16.2921 12.9857 16.25C13.0277 16.25 13.0697 16.236 13.1118 16.222C13.1958 16.208 13.3219 16.18 13.3919 16.194C13.3919 16.222 13.3919 16.264 13.3779 16.2921Z" fill="white"/>
<path d="M12.594 17.7068C12.5799 17.9309 12.5099 18.1971 12.2998 18.2391C12.2017 18.2531 12.1597 18.2251 12.1317 18.1971C11.9916 18.071 11.9776 17.6788 11.9916 17.3986C12.0896 17.3986 12.2017 17.3846 12.3418 17.3566C12.4259 17.3426 12.5099 17.3145 12.5799 17.3005C12.594 17.4126 12.608 17.5527 12.594 17.7068Z" fill="white"/>
<path d="M12.4955 16.9224L12.0332 17.0905C12.0612 16.9084 12.0892 16.6562 12.1032 16.4881C12.1173 16.376 12.1453 16.334 12.1593 16.32C12.1593 16.32 12.1733 16.306 12.1873 16.306C12.1873 16.306 12.1873 16.306 12.2013 16.306H12.2153L12.5095 16.292C12.4955 16.4321 12.4955 16.7403 12.4955 16.9224Z" fill="white"/>
<path d="M11.7391 16.7821C11.7111 16.8522 11.6831 17.0483 11.6691 17.1884L11.0947 17.1744C11.1227 16.9923 11.1788 16.8102 11.2208 16.6701C11.2768 16.53 11.3189 16.4179 11.3749 16.3899C11.4309 16.3619 11.557 16.3479 11.6411 16.4179C11.7671 16.502 11.7952 16.628 11.7391 16.7821Z" fill="white"/>
<path d="M11.5293 18.5613C11.4873 18.6173 11.4313 18.6594 11.3752 18.6594C11.3052 18.6734 11.2632 18.6453 11.2212 18.6173C11.039 18.4492 11.053 17.9029 11.0671 17.6367C11.3052 17.5807 11.5714 17.5387 11.6974 17.5247C11.6974 17.7348 11.7115 18.3091 11.5293 18.5613Z" fill="white"/>
<path d="M10.7723 17.1465C10.7442 17.2166 10.7162 17.2866 10.7022 17.3566C10.6322 17.3847 10.422 17.3566 10.2119 17.3146L10.352 16.4041C10.5901 16.334 10.8703 16.32 10.9264 16.39C11.0244 16.4881 10.8423 16.9504 10.7723 17.1465Z" fill="white"/>
<path d="M10.5063 18.6875C10.3942 18.8276 10.2261 18.8976 9.98797 18.8836C9.81987 18.8836 9.76383 18.8136 9.73582 18.7716C9.60974 18.5614 9.73582 18.0711 9.86189 17.7629L10.6464 17.805C10.6604 17.861 10.6604 17.931 10.6604 18.0011C10.6744 18.2392 10.6464 18.5194 10.5063 18.6875Z" fill="white"/>
<path d="M17.0063 12.0614C16.2919 11.8653 16.3619 10.8286 16.4179 9.82002C16.4319 9.4698 16.46 9.1336 16.446 8.85342C16.3899 7.91485 16.2358 6.89222 15.4794 6.42993C14.6669 5.93963 13.336 6.0517 12.5235 6.14976C12.2294 6.23381 11.9492 6.30385 11.725 6.28985C11.2488 6.26183 10.8705 6.06571 10.5343 5.8836C10.2822 5.74351 10.058 5.61743 9.83388 5.61743C9.81987 5.61743 9.80587 5.61743 9.80587 5.61743C9.17548 5.65946 8.8813 5.81355 8.61513 6.0517C8.54509 6.10773 8.46104 6.27584 8.19487 7.04631C8.05479 7.43855 8.04078 7.64868 8.01276 7.8448C7.98475 8.02691 7.97074 8.22304 7.87268 8.51722C7.80263 8.71334 7.7466 8.88144 7.70457 9.04954C7.5785 9.48381 7.46643 9.83403 7.15824 10.2543C7.11621 10.2963 7.07418 10.3804 7.01815 10.4504C6.94811 10.5625 6.86406 10.7026 6.73798 10.8567C6.65393 10.9687 6.47181 11.389 6.48582 11.5151C6.49983 11.7252 6.56987 11.8513 6.63992 11.9914C6.70996 12.1314 6.80802 12.2995 6.82203 12.5377V12.5797C6.85005 12.9439 6.79401 13.1261 6.10759 13.7424C5.67332 14.1347 5.35112 14.5129 5.141 14.7931C5.12699 14.8211 5.141 14.8491 5.18302 14.8491C5.19703 14.8491 5.19703 14.8491 5.19703 14.8491C5.21104 14.8491 5.22505 14.8491 5.23906 14.8491C5.25306 14.8491 5.26707 14.8491 5.28108 14.8491C5.29509 14.8491 5.3091 14.8491 5.32311 14.8491C5.49121 14.8631 5.65931 14.9332 5.77138 15.0592C5.78539 15.0873 5.82742 15.0873 5.85543 15.0733C5.9675 15.0312 6.09358 15.0312 6.20565 15.0452C6.34574 15.0592 6.49983 15.1013 6.59789 15.1993C6.62591 15.2273 6.66794 15.2414 6.70996 15.2273C6.82203 15.1993 6.94811 15.1993 7.06018 15.2414C7.14423 15.2694 7.22828 15.3254 7.28431 15.3954C7.32634 15.4375 7.39638 15.4515 7.45242 15.4235C7.48044 15.4095 7.52246 15.3814 7.56449 15.3674C7.71858 15.3114 7.88668 15.3394 8.02677 15.3954C8.09681 15.4235 8.16686 15.4375 8.2369 15.4935C8.34897 15.5776 8.43302 15.6896 8.47505 15.8157C8.50306 15.8858 8.60112 15.9138 8.65716 15.8577C8.76923 15.7737 8.85328 15.7597 8.93733 15.7877C8.97936 15.8017 9.00737 15.8297 9.03539 15.8717C9.07742 15.9278 9.14746 15.9838 9.2035 15.9558C9.44164 15.8858 9.72181 15.9278 9.93194 16.0398C10.002 16.0819 10.086 16.1379 10.1281 16.222V16.1799C10.1281 16.1659 10.1421 16.1519 10.1561 16.1379L10.1981 16.1239C10.3102 16.0819 10.8985 15.9138 11.1227 16.1519C11.1367 16.1659 11.1507 16.1659 11.1647 16.1519C11.1927 16.1239 11.2207 16.0959 11.2347 16.0959C11.3888 16.0118 11.641 15.9978 11.8091 16.1519C11.8371 16.1799 11.8931 16.1659 11.9212 16.1379C11.9352 16.1099 11.9492 16.0959 11.9772 16.0819C12.0332 16.0258 12.1173 16.0118 12.2013 16.0118L12.5235 15.9978C12.6076 15.9978 12.8597 15.9698 12.9298 15.9558H12.9438C12.9718 15.9558 13.0138 15.9418 13.0559 15.9278C13.21 15.8998 13.3921 15.8577 13.5322 15.9278C13.6722 15.9978 13.6582 16.1519 13.6442 16.292C13.6442 16.348 13.6302 16.4041 13.6302 16.4601C13.6302 16.4881 13.6302 16.5161 13.6302 16.5442C13.6302 16.6702 13.6302 16.7823 13.6162 16.8664L13.6302 16.9364C13.6302 16.9364 13.6302 16.9364 13.6302 16.9504C13.6442 17.0064 13.7143 17.0485 13.7563 17.0064C13.8684 16.9364 13.9804 16.8523 14.0225 16.7963V16.7823C14.0225 16.7683 14.0365 16.7403 14.0505 16.6842C14.0645 16.5582 14.0925 16.32 14.0925 15.8297C14.0925 15.8017 14.0925 15.7877 14.0925 15.7737C14.0925 15.5916 14.0925 15.4375 14.0785 15.3114C14.0645 15.0452 14.0505 14.8351 14.1906 14.625C14.3166 14.4148 14.4427 14.3448 14.5688 14.2608C14.7089 14.1767 14.863 14.0786 15.1291 13.7144C15.2552 13.5323 15.2692 13.4623 15.2832 13.4062C15.3113 13.2661 15.3533 13.1821 15.5634 13.042C15.7315 12.9159 16.2218 12.5377 16.8942 12.6498C17.1184 12.6918 17.4686 12.8039 17.8328 12.9439C17.8468 12.9439 17.8608 12.9579 17.8748 12.9579H17.8888C18.211 13.084 18.5052 13.2241 18.7153 13.3362C18.7574 13.3642 18.8134 13.3502 18.8554 13.3082C18.9255 13.2241 18.9955 13.1821 19.0656 13.1261C19.0936 13.112 19.1216 13.098 19.1356 13.084C19.1496 13.084 19.1496 13.07 19.1496 13.07C19.2057 13.028 19.2057 12.9159 19.1356 12.8879C18.197 12.4256 17.3005 12.1454 17.0063 12.0614ZM10.2541 12.2715C10.03 13.2241 8.54509 14.2888 7.87268 14.2888H7.85867C7.84466 14.2888 7.83065 14.2888 7.83065 14.2888C7.81664 14.2888 7.80263 14.2888 7.78862 14.2748C7.77462 14.2748 7.77462 14.2748 7.76061 14.2748C7.63453 14.2327 7.46643 14.1487 7.34035 14.0226C7.2563 13.9386 7.18625 13.8265 7.15824 13.7284C7.15824 13.7144 7.14423 13.6864 7.14423 13.6724C7.1022 13.5043 7.06018 13.3082 7.20026 12.972C7.21427 12.9299 7.24229 12.8879 7.2563 12.8459C7.2563 12.8319 7.27031 12.8179 7.27031 12.8039C7.28431 12.7618 7.29832 12.7338 7.31233 12.7058C7.32634 12.6498 7.35436 12.6077 7.36837 12.5797C7.36837 12.5657 7.38237 12.5517 7.38237 12.5377C7.4244 12.4256 7.4244 12.3836 7.43841 12.3416C7.43841 12.3136 7.45242 12.2575 7.46643 12.2015C7.50845 12.0194 7.53647 11.8653 7.55048 11.7392C7.5785 11.5011 7.62052 11.2909 7.7466 11.0948C7.77462 11.0668 7.78862 11.0388 7.81664 11.0108C7.83065 10.9967 7.83065 10.9967 7.84466 10.9827C7.85867 10.9687 7.85867 10.9687 7.87268 10.9547C7.90069 10.9267 7.94272 10.9127 7.97074 10.8987C7.98475 10.8987 7.99875 10.8847 8.01276 10.8847C8.04078 10.8707 8.0688 10.8707 8.09681 10.8567C8.22289 10.8286 8.36298 10.8286 8.53108 10.8426C8.71319 10.8567 8.8813 10.8847 9.02138 10.9267C9.14746 10.9547 9.25953 10.9967 9.34358 11.0388C9.35759 11.0388 9.35759 11.0528 9.3716 11.0528C9.38561 11.0668 9.39962 11.0668 9.42763 11.0808C9.45565 11.0948 9.46966 11.0948 9.49768 11.1088C9.52569 11.1228 9.55371 11.1368 9.58173 11.1508L9.60975 11.1648C9.70781 11.2069 9.80587 11.2629 9.87591 11.3189C9.91793 11.347 9.94595 11.375 9.97397 11.403C9.98798 11.417 10.002 11.417 10.002 11.431C10.016 11.445 10.016 11.445 10.03 11.459C10.3242 11.7112 10.3102 12.0614 10.2541 12.2715ZM10.9546 8.64329L10.9266 8.8114C10.8565 9.20364 10.7024 9.73597 10.1421 9.87605C9.59574 10.0021 9.46966 10.0301 9.09143 10.0582C9.07742 10.0582 9.07742 10.0582 9.06341 10.0582C8.78324 10.0582 8.2369 9.87605 8.13884 9.44179C8.08281 9.16161 8.20888 8.95148 8.405 8.61528C8.43302 8.55924 8.47505 8.50321 8.51707 8.43316C8.79725 7.97088 8.89531 7.63467 8.97936 7.36851C9.06341 7.10235 9.13345 6.89222 9.31556 6.7101C9.35759 6.66808 9.39962 6.62605 9.45565 6.59804C9.48367 6.57002 9.52569 6.55601 9.56772 6.52799C9.62375 6.49997 9.67979 6.48597 9.73582 6.45795C9.8619 6.41592 10.002 6.40191 10.1281 6.40191C10.3942 6.40191 10.6604 6.47196 10.8425 6.62605C10.9266 6.6961 11.0526 6.82217 11.1227 7.22842C11.1507 7.43855 11.0947 7.81679 10.9546 8.64329ZM14.975 9.76398C14.7789 10.1002 14.6809 10.2823 14.5128 10.4224C14.1766 10.7026 13.7983 10.7586 13.4761 10.7586C13.252 10.7586 13.0559 10.7166 12.9298 10.7026C12.5936 10.6465 11.9912 10.5345 11.7811 10.0442C11.7391 9.94609 11.7391 9.89006 11.7391 9.80601C11.7391 9.73597 11.7391 9.59588 11.697 9.3017V9.28769C11.683 9.1476 11.669 8.99351 11.697 8.79739V8.76937C11.8091 8.18101 11.8511 8.09696 11.8651 8.04092C11.9212 7.92885 12.0613 7.87282 12.1873 7.94286C12.2994 7.9989 12.3414 8.13898 12.2994 8.25105C12.2854 8.27907 12.2574 8.40515 12.1593 8.86743V8.89545C12.1313 9.02153 12.1453 9.11959 12.1593 9.24566V9.25967C12.2013 9.59588 12.2013 9.73597 12.2013 9.82002C12.2013 9.83403 12.2013 9.84804 12.2013 9.86204V9.87605C12.2434 9.97411 12.3274 10.0301 12.4255 10.0862C12.4955 10.1142 12.5656 10.0582 12.5516 9.98812C12.4535 9.4698 12.4535 8.86743 12.6496 8.4892C12.7197 8.36312 12.8317 8.167 12.9438 7.97088C12.9578 7.95687 12.9718 7.92885 12.9718 7.91485C12.9858 7.90084 12.9858 7.88683 12.9998 7.87282C13.0559 7.78877 13.0979 7.71872 13.1399 7.64868C13.1399 7.63467 13.1539 7.63467 13.1539 7.62066L13.1679 7.60666C13.1819 7.59265 13.1819 7.57864 13.196 7.56463C13.196 7.56463 13.196 7.55062 13.21 7.55062L13.224 7.53661C13.224 7.5226 13.238 7.5226 13.238 7.5086C13.28 7.45256 13.322 7.39653 13.35 7.34049C13.4061 7.27045 13.336 7.1864 13.266 7.21441C13.0699 7.29847 12.9438 7.39653 12.9158 7.41054C12.8177 7.49459 12.6636 7.48058 12.5796 7.36851C12.4955 7.27045 12.5095 7.11635 12.6216 7.0323C12.7477 6.93424 13.3921 6.47196 14.1625 6.68209C14.7229 6.83618 15.0031 7.27045 15.1151 7.42454C15.1992 7.55062 15.4794 7.94286 15.4653 8.50321C15.4653 8.90946 15.2972 9.21765 14.975 9.76398Z" fill="white"/>
<path d="M9.9602 6.89209C9.91818 6.99015 9.87615 7.10222 9.82012 7.2283C9.70805 7.52248 9.56796 7.85868 9.49792 7.98476C9.38585 8.19489 9.3018 8.33498 9.23176 8.43304C9.1477 8.55912 9.09167 8.65718 9.03563 8.79726C8.95158 9.03541 8.93757 9.30157 8.99361 9.59575C8.83951 9.58174 8.60137 9.48368 8.57335 9.3436C8.55934 9.24554 8.61538 9.14748 8.78348 8.8533C8.8115 8.79726 8.85352 8.72722 8.89555 8.67118C9.18973 8.16687 9.31581 7.78864 9.39986 7.50847C9.49792 7.21429 9.53994 7.08821 9.69404 6.97614C9.7921 6.93412 9.87615 6.9061 9.9602 6.89209Z" fill="white"/>
<path d="M9.66566 17.4827C9.49756 17.8189 9.30144 18.1271 9.17536 18.2812C9.06329 18.001 8.88118 17.3426 8.93722 16.8243C8.93722 16.8103 8.93722 16.7963 8.93722 16.7823C8.95122 16.6142 8.99325 16.4741 9.0773 16.348C9.13334 16.2639 9.27342 16.2219 9.42752 16.2219C9.53959 16.2219 9.66566 16.2499 9.77773 16.306C9.83377 16.334 9.91782 16.404 9.91782 16.5861C9.94584 16.8383 9.81976 17.1745 9.66566 17.4827Z" fill="white"/>
<path d="M18.6318 13.7423C18.6458 13.7563 18.6458 13.7703 18.6458 13.7843C18.6038 13.8824 18.5337 13.9524 18.4637 14.0365C18.3796 14.1345 18.2816 14.2466 18.1975 14.4287C18.0715 14.6809 18.0294 14.905 18.0154 15.4934C17.9874 16.1798 18.0154 16.558 18.0434 16.8382C18.0574 17.1044 18.0715 17.2725 18.0294 17.5386C17.9314 18.071 17.7072 18.4212 17.4131 18.8694C17.0488 19.4298 16.6846 20.0041 16.0682 20.1863C16.0122 20.2003 16.0122 20.2003 15.8441 20.2003C15.704 20.2003 15.4659 20.2003 15.0316 20.2143C14.2191 20.2423 13.8128 20.2563 13.4766 20.3263C13.1124 20.3964 12.9303 20.4804 12.7342 20.5505C12.5661 20.6205 12.412 20.6766 12.1178 20.7466C11.9357 20.7886 11.6695 20.8166 10.759 20.8307C9.80637 20.8307 9.23202 20.8307 8.48956 20.7466C7.45292 20.6345 6.9346 20.5645 6.58439 20.3824C5.77189 19.9481 5.42167 19.1636 4.86133 17.8748C4.86133 17.8608 4.87534 17.8468 4.88935 17.8468C4.91736 17.8608 4.94538 17.8748 4.9734 17.8888C5.00141 17.9029 5.02943 17.9029 5.04344 17.9029C5.09947 17.9169 5.15551 17.9169 5.21154 17.9029C5.22555 17.9029 5.22555 17.9029 5.23956 17.8888C5.25357 17.8888 5.26758 17.8888 5.26758 17.9029C5.3096 18.0009 5.36564 18.085 5.4637 18.141C5.56176 18.197 5.67383 18.197 5.77189 18.197C5.88396 18.197 5.99603 18.183 6.1081 18.169C6.16413 18.169 6.22016 18.197 6.24818 18.2391C6.34624 18.4912 6.47232 18.6593 6.66844 18.6873C6.68245 18.6873 6.69646 18.6873 6.71047 18.6873C6.75249 18.6873 6.82253 18.6733 6.90659 18.6173C6.97663 18.5613 7.0887 18.6033 7.14473 18.6733C7.18676 18.7434 7.24279 18.7854 7.29883 18.8274C7.49495 19.0235 7.97124 19.1216 8.36348 19.1216C8.57361 19.1216 8.76973 19.0936 8.8818 19.0375C9.04991 18.9535 9.04991 18.8414 9.0359 18.7854C9.02189 18.7013 9.00788 18.6033 8.99387 18.5192C8.99387 18.5052 9.00788 18.5052 9.00788 18.5192C9.0359 18.5753 9.06391 18.6313 9.13396 18.6453C9.14797 18.6453 9.14797 18.6453 9.16197 18.6453C9.27404 18.6453 9.44215 18.6873 9.47016 18.7854C9.48417 18.8414 9.51219 18.8835 9.54021 18.9395C9.61025 19.0375 9.73633 19.1636 10.0025 19.1776H10.0165C10.3247 19.1776 10.5628 19.0796 10.7169 18.8835C10.7309 18.8694 10.7309 18.8554 10.7449 18.8414C10.801 18.7574 10.9691 18.7574 11.0391 18.8274C11.1232 18.8975 11.2212 18.9395 11.3333 18.9395C11.3473 18.9395 11.3753 18.9395 11.3893 18.9395C11.5294 18.9255 11.6415 18.8554 11.7396 18.7294C11.7956 18.6453 11.8376 18.5472 11.8656 18.4352C11.8796 18.4072 11.9217 18.3932 11.9497 18.4212C12.0057 18.4772 12.1038 18.5332 12.2439 18.5332C12.2719 18.5332 12.3139 18.5332 12.3559 18.5192C12.6221 18.4632 12.7622 18.2391 12.8182 18.0009C12.8182 17.9869 12.8322 17.9869 12.8322 18.0009C12.9023 18.085 13.0284 18.183 13.2385 18.183C13.2525 18.183 13.2665 18.183 13.2665 18.183C13.3786 18.183 13.4766 18.127 13.5467 18.0429C13.6307 17.9309 13.6587 17.7628 13.6728 17.6087C13.6728 17.5666 13.7008 17.5246 13.7568 17.4966C13.9809 17.3985 14.2611 17.1884 14.3452 17.0483C14.3452 17.0483 14.3452 17.0343 14.3592 17.0343C14.3732 16.9923 14.4152 16.9643 14.4432 16.9643C14.6253 16.9363 14.6954 16.8942 14.7654 16.8662C14.8215 16.8382 14.8635 16.8242 15.0036 16.7962C16.0262 16.6421 16.2223 16.6001 16.4465 16.46C16.7827 16.2358 16.7967 15.9276 16.8107 15.6335C16.8247 15.3813 16.8387 15.1011 17.0348 14.7649C17.1049 14.6388 17.1889 14.4988 17.273 14.3307C17.4271 14.0505 17.6372 13.6582 17.7913 13.4481C17.8193 13.4061 17.8753 13.3921 17.9174 13.4201C18.2676 13.5462 18.5758 13.6863 18.6318 13.7423Z" fill="white"/>
<path d="M8.68504 16.7963C8.64302 17.1465 8.615 17.6228 8.67103 18.2392C8.68504 18.4073 8.71306 18.5894 8.74108 18.7715C8.69905 18.7996 8.54496 18.8416 8.2928 18.8276C7.92858 18.8136 7.56435 18.7295 7.45228 18.6034L7.43827 18.5894C7.35422 18.5194 7.28418 18.4633 7.28418 18.3373C7.28418 18.2952 7.29819 18.2532 7.34021 18.1832C7.36823 18.1552 7.39625 18.1131 7.42427 18.0571C7.4803 17.973 7.56435 17.875 7.6484 17.7349C7.88655 17.3427 7.9706 17.2166 8.08267 17.0625C8.09668 17.0485 8.09668 17.0345 8.11069 17.0205C8.18073 16.9364 8.25077 16.8243 8.37685 16.6422C8.4609 16.5161 8.53095 16.4041 8.60099 16.32C8.69905 16.1799 8.76909 16.1099 8.81112 16.0679C8.81112 16.1239 8.79711 16.208 8.7831 16.292C8.72707 16.4601 8.69905 16.6142 8.68504 16.7963Z" fill="white"/>
<path d="M8.50285 11.2768C8.50285 11.2908 8.50285 11.2908 8.50285 11.2768C8.44682 11.3468 8.39078 11.4309 8.32074 11.571C8.13863 11.9632 8.13863 12.1874 8.13863 12.3695C8.13863 12.4675 8.13863 12.5376 8.11061 12.6216C8.0966 12.6777 8.06858 12.7477 8.02656 12.8177C7.9285 13.0559 7.78841 13.3641 7.84445 13.7843C7.76039 13.7423 7.63432 13.6443 7.6063 13.6022C7.6063 13.5742 7.59229 13.5602 7.59229 13.5322C7.56427 13.4061 7.55027 13.3221 7.62031 13.1259C7.84445 12.6216 7.87246 12.4955 7.88647 12.3555C7.88647 12.3274 7.90048 12.2994 7.90048 12.2574C7.94251 12.0613 7.97052 11.8932 7.98453 11.7531C8.01255 11.543 8.04057 11.4029 8.11061 11.3048C8.13863 11.2628 8.20867 11.2488 8.30673 11.2488C8.34876 11.2488 8.39078 11.2488 8.44682 11.2628H8.46083C8.50285 11.2768 8.50285 11.2768 8.50285 11.2768Z" fill="white"/>
<path d="M8.22303 16.278C8.20902 16.1519 8.19501 16.0398 8.13897 15.9137C8.13897 15.9137 8.12497 15.8857 8.12497 15.8717C8.11096 15.8577 8.11096 15.8437 8.09695 15.8297L8.08294 15.8157C8.06893 15.8017 8.06893 15.8017 8.05492 15.8017L8.04092 15.7877C8.02691 15.7877 8.02691 15.7737 8.0129 15.7737H7.99889C7.92885 15.7456 7.8588 15.7176 7.77475 15.7036C7.76074 15.7036 7.74673 15.7036 7.74673 15.7036C7.73273 15.7036 7.73272 15.7036 7.71872 15.7036H7.70471C7.6907 15.7036 7.67669 15.7176 7.64867 15.7176C7.63466 15.7176 7.63467 15.7316 7.62066 15.7316L7.60665 15.7456C7.59264 15.7596 7.59264 15.7596 7.57863 15.7737L7.56462 15.7877V15.8017C7.5366 15.8437 7.50859 15.8857 7.48057 15.9278C7.41053 16.0258 7.34048 16.1379 7.27044 16.2359C7.2004 16.334 7.14436 16.4181 7.07432 16.5161C7.03229 16.5721 7.00428 16.6142 6.96225 16.6702C6.96225 16.6842 6.94824 16.6842 6.94824 16.6982C6.99027 16.7122 7.03229 16.7122 7.07432 16.7262C7.17238 16.7403 7.27044 16.7543 7.35449 16.7683C7.55061 16.7963 7.76074 16.8103 7.95686 16.7963C7.97087 16.7963 7.97087 16.7963 7.98488 16.7963C8.02691 16.7262 8.09695 16.6422 8.16699 16.5301C8.20902 16.4741 8.25104 16.4181 8.27906 16.362C8.23704 16.348 8.22303 16.306 8.22303 16.278Z" fill="white"/>
<path d="M7.50835 17.1045C7.49434 17.2586 7.32624 17.6508 7.06008 18.029C6.83594 18.3372 6.69585 18.4213 6.66784 18.4213C6.55577 18.4073 6.45771 18.1411 6.37365 17.8749C6.34564 17.7629 6.30361 17.6648 6.2896 17.5668C6.23357 17.3706 6.21956 17.0905 6.23357 16.9224C6.45771 17.0484 6.84995 17.0765 7.41029 17.0765C7.43831 17.0905 7.48034 17.0905 7.50835 17.1045Z" fill="white"/>
<path d="M7.11641 15.8437C7.01835 15.9978 6.92029 16.1379 6.82223 16.278C6.7662 16.3481 6.72417 16.4181 6.66814 16.4881C6.64012 16.5302 6.59809 16.5722 6.57008 16.6142C6.48603 16.6002 6.41598 16.5722 6.33193 16.5582C6.26189 16.5442 6.20585 16.5162 6.13581 16.4881C6.1218 16.4881 6.10779 16.4741 6.09378 16.4741C6.07977 16.4601 6.06577 16.4321 6.05176 16.4181C6.07978 16.3761 6.09378 16.32 6.1218 16.278C6.16383 16.194 6.20585 16.1099 6.26189 16.0259C6.34594 15.8858 6.444 15.7317 6.59809 15.6336C6.6121 15.6336 6.6121 15.6196 6.62611 15.6196C6.68215 15.5916 6.73818 15.5636 6.80822 15.5496C6.82223 15.5496 6.86426 15.5496 6.89228 15.5496H6.90628C6.90628 15.5496 6.90628 15.5496 6.92029 15.5496C6.9343 15.5496 6.94831 15.5636 6.97633 15.5636C6.97633 15.5636 6.99034 15.5636 6.99034 15.5776C7.00434 15.5916 7.01835 15.5916 7.03236 15.6056C7.00434 15.5916 7.06038 15.6476 7.06038 15.6336C7.0884 15.7177 7.1024 15.7597 7.11641 15.8437Z" fill="white"/>
<path d="M6.35951 15.4375C6.1774 15.5775 6.05132 15.7737 5.95326 15.9838C5.89722 16.0959 5.84119 16.2079 5.78516 16.32C5.78516 16.334 5.77115 16.348 5.77115 16.348C5.71511 16.334 5.65908 16.32 5.61705 16.306C5.56102 16.292 5.50498 16.264 5.44895 16.25C5.42093 16.2359 5.40692 16.2219 5.37891 16.2079C5.43494 16.1099 5.49098 16.0118 5.56102 15.9138C5.64507 15.7877 5.74313 15.6476 5.84119 15.5355C5.88322 15.4935 5.92524 15.4375 5.96727 15.4094C6.0233 15.3814 6.07934 15.3814 6.14938 15.3954C6.21942 15.3954 6.28947 15.3954 6.3455 15.4234C6.33149 15.4234 6.3455 15.4375 6.35951 15.4375Z" fill="white"/>
<path d="M6.07912 17.8188C6.06511 17.8328 6.06511 17.8328 6.0511 17.8469H6.03709C5.99507 17.8469 5.95304 17.8609 5.91102 17.8609C5.82696 17.8609 5.74291 17.8749 5.65886 17.8609C5.61683 17.8609 5.57481 17.8469 5.54679 17.8188C5.51877 17.7768 5.50477 17.6928 5.49076 17.6367C5.43472 17.3285 5.43472 17.0203 5.46274 16.7122C5.61683 16.7682 5.78494 16.8102 5.95304 16.8382C5.91101 17.1184 5.98106 17.5247 6.00908 17.6367C6.0511 17.6928 6.06511 17.7628 6.07912 17.8188Z" fill="white"/>
<path d="M5.57523 15.3394C5.43514 15.5075 5.30906 15.6896 5.197 15.8858C5.15497 15.9558 5.09894 16.0399 5.05691 16.1239C5.00088 16.1099 4.94484 16.0819 4.90282 16.0539C4.86079 16.0258 4.81876 15.9978 4.79075 15.9698C4.77674 15.9558 4.74872 15.9418 4.73471 15.9278C4.73471 15.9278 4.7207 15.9278 4.7207 15.9138C4.73471 15.8718 4.76273 15.8437 4.76273 15.8157C4.79075 15.7457 4.81876 15.6896 4.86079 15.6336C4.93083 15.5215 5.00088 15.4095 5.08493 15.2974C5.11294 15.2554 5.14096 15.2133 5.197 15.1993C5.23902 15.1853 5.29506 15.1993 5.33708 15.1993C5.42113 15.2133 5.50519 15.2694 5.57523 15.3394Z" fill="white"/>
<path d="M4.49662 16.0818C4.49662 16.0678 4.51063 16.0678 4.49662 16.0818C4.55265 16.1378 4.59468 16.1799 4.65071 16.2219C4.67873 16.2359 4.69274 16.2639 4.72076 16.2779C4.72076 16.2779 4.72076 16.2779 4.72076 16.2919C4.66472 16.5301 4.6227 16.7822 4.6227 17.0344C4.6227 17.0484 4.60869 17.0484 4.60869 17.0344C4.53864 16.7402 4.45459 16.2639 4.49662 16.0818Z" fill="white"/>
<path d="M5.18326 16.6001C5.15525 16.8102 5.14124 17.0204 5.15525 17.2305C5.15525 17.3426 5.16926 17.4546 5.18326 17.5807C5.15525 17.5807 5.12723 17.5807 5.09921 17.5807H5.0852H5.0712C5.04318 17.5667 5.04318 17.5667 5.01516 17.5527C4.98714 17.5387 4.95913 17.4967 4.93111 17.4546C4.87507 17.3566 4.86107 17.2445 4.86107 17.1324C4.84706 16.9223 4.87507 16.6982 4.9171 16.488C4.94512 16.502 4.98714 16.5161 5.02917 16.5301C5.0852 16.5581 5.12723 16.5861 5.18326 16.6001Z" fill="white"/>
<mask id="mask0_2009_23951" style="mask-type:luminance" maskUnits="userSpaceOnUse" x="0" y="0" width="26" height="26">
<path d="M26 13C26 5.81358 20.1724 0 13 0C5.81358 0 0 5.81358 0 13C0 20.1724 5.81358 26 13 26C20.1724 26 26 20.1724 26 13Z" fill="white"/>
</mask>
<g mask="url(#mask0_2009_23951)">
<g opacity="0.8">
<path opacity="0.8" d="M10.7027 27.5268C9.7501 27.5268 8.85355 27.4708 8.09708 27.4148L7.88696 27.4008L7.67683 27.3727C7.57877 27.3587 7.4667 27.3447 7.34062 27.3307C6.61217 27.2467 5.25333 27.1066 3.75441 26.4061L3.51627 26.2941L3.30614 26.168C0.420361 24.543 -0.644294 22.1195 -1.23266 20.8167C-1.27468 20.7327 -1.31671 20.6346 -1.35873 20.5365C-1.65291 19.9342 -1.83503 19.4018 -1.98912 18.8975L-2.01714 18.7855L-2.04516 18.6734C-2.46541 17.1885 -2.56347 15.9137 -2.38136 14.6389C-2.18524 13.3641 -1.72296 12.2154 -0.896449 10.9967L-0.476191 10.3102C-0.392139 10.1702 -0.336104 10.0161 -0.294078 9.86197C0.0281198 8.26499 0.756568 7.13029 1.12079 6.58395C1.21885 5.92555 1.38696 5.28115 1.61109 4.65076L1.63911 4.5527L1.68114 4.45464C1.68114 4.44063 1.69515 4.41261 1.70915 4.37059C1.87726 3.88029 2.25549 2.74559 3.22208 1.54085L3.58631 1.12059L3.96454 0.784382C4.91713 -0.0841527 6.06583 -0.728549 7.29859 -1.09277C7.98501 -1.3029 8.69946 -1.42898 9.4279 -1.47101H9.49795H9.59601C9.72208 -1.47101 9.84816 -1.48501 9.96023 -1.48501C10.4085 -1.48501 10.8568 -1.44299 11.3051 -1.37295C11.5852 -1.33092 11.8654 -1.35894 12.1316 -1.47101C12.902 -1.7932 13.7005 -2.00333 14.527 -2.1154C14.5971 -2.12941 14.6531 -2.12941 14.7092 -2.14342C14.8352 -2.15743 15.0454 -2.18545 15.2975 -2.21346C15.7318 -2.25549 16.4042 -2.31152 17.1186 -2.31152C18.5335 -2.31152 19.7523 -2.12941 20.8449 -1.75118L20.943 -1.72316L21.027 -1.69514C23.4365 -0.784584 24.6553 0.490201 25.5378 1.59688L25.5798 1.65292L25.7059 1.76499C26.5044 2.38136 27.1768 3.15184 27.7092 4.00636L27.8773 4.27253L28.0173 4.5527C29.1941 6.94817 28.8158 9.17555 28.6757 10.0021L28.6617 10.0441C28.5637 10.6605 28.3956 11.2628 28.1854 11.8512C28.1014 12.4115 27.9753 12.9719 27.7932 13.5042C27.485 14.4568 27.0227 15.3674 26.4344 16.1799C26.0982 16.6561 25.7059 17.1184 25.2857 17.5247C25.1316 17.6648 25.0335 17.8609 25.0055 18.071C24.9915 18.1971 24.9635 18.3232 24.9495 18.4493C24.5992 20.2984 23.8007 21.5872 23.4645 22.1055L22.4699 23.5344C21.2652 25.0333 19.8363 26.0139 18.1132 26.5462L17.693 26.6723L17.2447 26.7564C16.7264 26.8544 16.2081 26.8965 15.6757 26.8965C15.6057 26.8965 15.5357 26.8965 15.4516 26.8965H15.4236H15.3395H15.2415C15.0454 26.8965 14.8492 26.9385 14.6531 26.9945C13.5044 27.3587 12.2436 27.5268 10.7027 27.5268Z" stroke="url(#paint1_linear_2009_23951)" stroke-width="1.0554" stroke-miterlimit="10"/>
<path opacity="0.8" d="M10.7025 26.5321C9.79191 26.5321 8.90937 26.4761 8.18092 26.4201L8.01282 26.406L7.84471 26.378C7.73265 26.364 7.60657 26.35 7.48049 26.336C6.76605 26.266 5.58933 26.1259 4.27252 25.5095L4.0764 25.4114L3.89428 25.3134C1.33071 23.8985 0.392128 21.7832 -0.168217 20.5224C-0.210243 20.4384 -0.252269 20.3263 -0.308303 20.2282C-0.574467 19.6959 -0.74257 19.1916 -0.882657 18.7433L-0.910674 18.6453L-0.938691 18.5612C-1.30292 17.2304 -1.40098 16.1097 -1.23287 15.003C-1.06477 13.9104 -0.64451 12.8877 0.0839383 11.8231L0.630275 10.9405C0.728335 10.7864 0.798378 10.6043 0.826395 10.4222C1.09256 8.90928 1.807 7.84463 2.1292 7.35432L2.17122 7.29829L2.18523 7.27027C2.18523 7.25626 2.19924 7.24225 2.19924 7.22825C2.21325 7.1582 2.24127 7.10217 2.25527 7.04613C2.33933 6.42975 2.49342 5.81338 2.70355 5.22501L2.73157 5.14096L2.75958 5.05691C2.77359 5.02889 2.77359 5.00088 2.80161 4.91682C2.95571 4.45454 3.2779 3.48794 4.11842 2.45131L4.42661 2.08708L4.7348 1.80691C5.56131 1.05044 6.55592 0.4901 7.62058 0.18191C8.23696 -0.000202089 8.85334 -0.112271 9.49773 -0.140288H9.55377H9.63782C9.74989 -0.140288 9.84795 -0.154297 9.94601 -0.154297C10.4083 -0.154297 10.8566 -0.280374 11.3048 -0.196323C11.6551 -0.12628 12.0053 -0.168306 12.3275 -0.308392C12.9298 -0.574556 13.7423 -0.672616 14.6669 -0.798693C14.737 -0.812702 14.793 -0.812702 14.835 -0.826711C14.9611 -0.840719 15.1572 -0.868737 15.3814 -0.882745C15.7876 -0.924771 16.418 -0.966797 17.1044 -0.966797C18.3932 -0.966797 19.4859 -0.798693 20.4525 -0.476495L20.5365 -0.448478L20.6066 -0.420461C22.7359 0.392039 23.7865 1.45669 24.613 2.50734C24.6551 2.56338 24.7111 2.61941 24.7251 2.64743L24.7391 2.66144L24.8932 2.80152L24.9072 2.82954C25.6217 3.37588 26.224 4.04829 26.6863 4.80475L26.8264 5.02889L26.9385 5.26704C27.9471 7.32631 27.6389 9.21747 27.4988 10.016L27.4848 10.058C27.3867 10.6464 27.2326 11.2067 27.0225 11.767C26.9525 12.2994 26.8264 12.8317 26.6583 13.336C26.3781 14.1765 25.9719 14.975 25.4535 15.7035C25.1033 16.2078 24.6831 16.6701 24.2348 17.0763C24.0247 17.2724 23.8846 17.5246 23.8566 17.8188C23.8286 18.0289 23.8005 18.225 23.7725 18.4351C23.4643 20.0742 22.7639 21.1948 22.4277 21.6991L21.6152 22.8759C20.5365 24.2627 19.2617 25.1593 17.7208 25.6356L17.3706 25.7476L16.9923 25.8177C16.5441 25.9017 16.0818 25.9438 15.6335 25.9298C15.5635 25.9298 15.4934 25.9298 15.4234 25.9298H15.4094H15.3673C15.3673 25.9298 15.3533 25.9298 15.3253 25.9298H15.2413H15.1572H15.0031C14.793 25.9438 14.5829 25.9718 14.3727 26.0418C13.3501 26.378 12.1594 26.5321 10.7025 26.5321Z" stroke="url(#paint2_linear_2009_23951)" stroke-width="1.0554" stroke-miterlimit="10"/>
<path opacity="0.8" d="M10.7031 25.3695C9.83457 25.3695 8.98005 25.3135 8.26561 25.2575L8.12552 25.2435L7.98543 25.2295C7.85936 25.2154 7.71927 25.2014 7.57918 25.1874C6.90677 25.1174 5.88414 25.0053 4.73543 24.459L4.58134 24.3889L4.44125 24.3049C2.2419 23.0721 1.4294 21.251 0.897073 20.0463C0.855047 19.9482 0.799013 19.8221 0.756987 19.7241C0.51884 19.2478 0.364746 18.7995 0.238668 18.3792L0.210651 18.3092L0.196642 18.2391C-0.125556 17.0904 -0.209608 16.1098 -0.0695216 15.1853C0.0705646 14.2467 0.448797 13.3641 1.09319 12.4256L1.17725 12.3135L1.2613 12.2014C1.31733 12.1314 1.35936 12.0613 1.41539 12.0053L1.73759 11.4029C1.84966 11.2068 1.9197 10.9967 1.94772 10.7726C2.15785 9.42773 2.80225 8.46113 3.09643 8.01285C3.11044 7.98484 3.13845 7.95682 3.15246 7.94281L3.2225 7.84475C3.25052 7.78872 3.27854 7.71867 3.30656 7.63462C3.33457 7.55057 3.3766 7.42449 3.40462 7.31242C3.47466 6.73807 3.61475 6.17773 3.81087 5.63139L3.83888 5.56135L3.8669 5.4913C3.88091 5.43527 3.90893 5.39324 3.93694 5.29518C4.07703 4.86092 4.34319 4.06242 5.05763 3.19389L5.29578 2.89971L5.54793 2.67557C6.24837 2.03117 7.08888 1.56889 7.99944 1.28872C8.53177 1.13462 9.0641 1.03656 9.62444 1.00854H9.66647H9.73651C9.82056 1.00854 9.90462 1.00854 10.0027 1.00854C10.479 1.00854 10.9413 1.06458 11.4035 1.19066C11.7958 1.28872 12.216 1.24669 12.5803 1.06458C13.1686 0.784407 13.9531 0.476217 14.8637 0.364148C14.9197 0.35014 14.9757 0.35014 15.0178 0.336131C15.1298 0.322123 15.3119 0.294105 15.5361 0.280097C15.9143 0.238071 16.5167 0.196045 17.1471 0.196045C18.2958 0.196045 19.2624 0.336131 20.1169 0.630312L20.1729 0.658329L20.229 0.686347C22.1902 1.4288 23.0587 2.3954 23.7311 3.24992C23.8852 3.43204 23.8992 3.46005 23.9973 3.55811L24.1234 3.67018L24.1654 3.72622C24.4876 3.97837 25.146 4.49669 25.7203 5.43527L25.8324 5.61738L25.9305 5.79949C26.785 7.52255 26.5188 9.09152 26.3928 9.84798L26.3788 9.89001C26.2947 10.4363 26.1406 10.9827 25.9165 11.501V11.543C25.8604 12.0333 25.7484 12.5236 25.5943 12.9859C25.3561 13.7284 25.0059 14.4148 24.5436 15.0452C24.1654 15.5915 23.7031 16.0818 23.1848 16.5021C23.0587 16.6001 22.9606 16.7262 22.8906 16.8663C22.8206 17.0064 22.7785 17.1605 22.7645 17.3146C22.7505 17.6228 22.7085 17.931 22.6525 18.2391C22.3863 19.654 21.7699 20.6346 21.4617 21.1249L20.8313 22.0495C19.8928 23.3103 18.7721 24.1228 17.4132 24.543L17.1331 24.6271L16.8249 24.6831C16.4466 24.7532 16.0544 24.7812 15.6622 24.7812C15.6061 24.7812 15.5361 24.7812 15.466 24.7812H15.452H15.382C15.368 24.7812 15.34 24.7812 15.2699 24.7812H15.1999H15.1438L14.8216 24.7952C14.5975 24.8092 14.3734 24.8372 14.1632 24.9213C13.1966 25.2294 12.09 25.3695 10.7031 25.3695Z" stroke="url(#paint3_linear_2009_23951)" stroke-width="0.9894" stroke-miterlimit="10"/>
<path opacity="0.8" d="M10.703 24.2069C9.87646 24.2069 9.04996 24.1509 8.36353 24.0948L8.26547 24.0808L8.16741 24.0668C8.02733 24.0528 7.87323 24.0248 7.73315 24.0108C7.10276 23.9407 6.23422 23.8427 5.25362 23.3944L5.14155 23.3384L5.02948 23.2823C3.16633 22.2317 2.47991 20.6907 1.9756 19.5701C1.91957 19.458 1.86353 19.3319 1.82151 19.2198C1.61138 18.7856 1.47129 18.3793 1.35922 18.0291L1.34521 17.9731L1.30319 17.9311C0.756852 15.9979 0.966981 14.639 2.03164 13.0841L2.08767 13L2.14371 12.916C2.21375 12.8319 2.28379 12.7339 2.35383 12.6498C2.45189 12.5237 2.54996 12.3836 2.66202 12.2576C2.73207 12.1735 2.7881 12.0754 2.83013 11.9774L2.95621 11.6692C3.01224 11.5291 3.04026 11.389 3.05427 11.2489C3.16633 10.0022 3.76871 9.10562 4.06289 8.65734C4.0909 8.62933 4.11892 8.57329 4.13293 8.55928L4.20297 8.44721L4.23099 8.4192C4.27302 8.34915 4.34306 8.18105 4.39909 8.01295C4.42711 7.90088 4.48315 7.71877 4.53918 7.56467V7.55066C4.59521 7.03234 4.72129 6.51403 4.9034 6.02372L4.91741 5.9817L4.93142 5.93967C4.95944 5.85562 4.98746 5.78558 5.01547 5.68752C5.14155 5.30928 5.35168 4.66489 5.92603 3.95045L6.10814 3.72631L6.29026 3.55821C7.64909 2.32545 9.16202 2.22739 9.66633 2.18536H9.69435H9.75039C9.82043 2.18536 9.89047 2.18536 9.96052 2.18536C10.5629 2.18536 11.1512 2.31144 11.7116 2.54959C11.8097 2.59161 11.9217 2.60562 12.0198 2.60562C12.1319 2.60562 12.2299 2.5776 12.328 2.52157C12.8463 2.22739 13.7849 1.68105 14.9896 1.54097C15.0456 1.52696 15.1017 1.52696 15.1437 1.52696C15.2558 1.51295 15.4239 1.49894 15.62 1.47092C15.9842 1.4429 16.5306 1.40088 17.1189 1.40088C18.1415 1.40088 18.9821 1.52696 19.6965 1.7651L19.7385 1.77911L19.7806 1.79312C21.4616 2.42351 22.176 3.222 22.7784 3.97847C22.9325 4.18859 23.0165 4.27265 23.1847 4.44075L23.2827 4.5248L23.3528 4.60885L23.4088 4.65088C23.689 4.87502 24.2213 5.28127 24.6976 6.05174L24.7816 6.19183L24.8517 6.33191C25.5381 7.73278 25.314 8.99355 25.2019 9.66596V9.70799C25.1178 10.1983 24.9778 10.6886 24.7816 11.1509L24.7676 11.1929C24.7676 11.2069 24.7676 11.2069 24.7536 11.2349C24.7396 11.277 24.7396 11.319 24.7396 11.361L24.7256 11.417C24.6836 11.8373 24.5855 12.2436 24.4454 12.6358C24.2353 13.2662 23.9411 13.8545 23.5489 14.3869C23.1706 14.9332 22.7364 15.3815 22.2601 15.7317C22.05 15.8858 21.8819 16.0819 21.7558 16.3201C21.6297 16.5582 21.5737 16.8104 21.5737 17.0765C21.5737 17.3987 21.5316 17.7349 21.4756 18.0571C21.2515 19.2619 20.7472 20.0744 20.425 20.5647L19.9627 21.2511C19.1502 22.3858 18.1836 23.1142 17.0209 23.4785L16.9648 23.4925C16.8668 23.5205 16.7687 23.5485 16.6706 23.5625L16.6006 23.5765C16.2784 23.6326 15.9562 23.6606 15.634 23.6606C15.578 23.6606 15.5219 23.6606 15.4659 23.6606H15.4519C15.4239 23.6606 15.3959 23.6606 15.3678 23.6606C15.3398 23.6606 15.2838 23.6606 15.1717 23.6606H15.1297H15.0877C14.9336 23.6606 14.7375 23.6746 14.5694 23.6746C14.3312 23.6886 14.1071 23.7306 13.8829 23.8147C13.0424 24.0668 12.0198 24.2069 10.703 24.2069Z" stroke="url(#paint4_linear_2009_23951)" stroke-width="0.9235" stroke-miterlimit="10"/>
<path opacity="0.8" d="M10.7025 23.0442C9.90402 23.0442 9.11954 22.9881 8.44713 22.9321H8.37708L8.30704 22.9181C8.15294 22.8901 7.98484 22.8761 7.83075 22.8621C7.24238 22.792 6.51394 22.722 5.72945 22.3437L5.6454 22.3017L5.57536 22.2597C4.04842 21.4052 3.47407 20.1164 3.02579 19.0797C2.96975 18.9537 2.91372 18.8276 2.85769 18.6875C2.67557 18.3233 2.5495 17.959 2.45144 17.6509L2.43743 17.6088L2.42342 17.5668C1.97514 15.9698 2.12924 14.9612 2.99777 13.7004L3.0398 13.6444L3.08182 13.5884C3.15187 13.4903 3.22191 13.4062 3.29195 13.3082C3.51609 13.014 3.74023 12.7198 4.06243 12.3696C4.13247 12.2996 4.1745 12.1875 4.1885 12.0894L4.20251 11.7672L4.1885 11.6412V11.5151C4.21652 10.4784 4.73484 9.70797 5.01501 9.28771C5.04303 9.24568 5.08506 9.18965 5.09907 9.16163L5.14109 9.09159L5.18312 9.03555C5.23915 8.9515 5.36523 8.65732 5.4773 8.39116C5.51932 8.27909 5.57536 8.05495 5.6454 7.87284C5.65941 7.8168 5.65941 7.80279 5.67342 7.67672C5.71544 7.24245 5.82751 6.80818 5.9676 6.40193L5.98161 6.37391L5.99562 6.3459C6.03764 6.23383 6.06566 6.14978 6.10769 6.03771C6.21975 5.7015 6.38786 5.2112 6.82213 4.66486L6.9482 4.51077L7.07428 4.3987C8.02687 3.54417 9.0495 3.37607 9.74993 3.33404H9.77794H9.80596C9.862 3.33404 9.90402 3.33404 9.96006 3.33404C10.5484 3.33404 11.2629 3.61422 11.6411 3.79633C11.7251 3.83835 11.8232 3.86637 11.9213 3.86637C12.0193 3.86637 12.1174 3.85236 12.2154 3.82434C12.4536 3.74029 12.6777 3.64223 12.8879 3.53016C13.3642 3.24999 14.1486 2.80172 15.1292 2.68965C15.1853 2.67564 15.2273 2.67564 15.2693 2.67564C15.3674 2.66163 15.5215 2.64762 15.7176 2.6196C16.0538 2.59159 16.5581 2.54956 17.1045 2.54956C17.987 2.54956 18.7154 2.64762 19.3038 2.85775L19.3318 2.87176L19.3598 2.88577C20.7607 3.41809 21.321 4.02047 21.8534 4.70689C22.0215 4.93103 22.1476 5.08512 22.3997 5.30926L22.4557 5.36529L22.5118 5.42133C22.5678 5.47736 22.6238 5.51939 22.6799 5.56141C22.918 5.74353 23.3243 6.06572 23.6745 6.65409L23.7305 6.73814L23.7726 6.8362C24.2909 7.88684 24.1228 8.88146 24.0247 9.46982V9.51184C23.9547 9.91809 23.8426 10.3103 23.6745 10.6886C23.6325 10.7866 23.6045 10.8847 23.5764 10.9968C23.5624 11.0668 23.5484 11.1368 23.5484 11.1929L23.5344 11.2489C23.4924 11.5851 23.4223 11.9213 23.3103 12.2435C23.1422 12.7618 22.89 13.2521 22.5818 13.6864C22.1055 14.3588 21.5592 14.8351 20.9008 15.1433C20.7467 15.2134 20.6066 15.3254 20.5085 15.4795C20.4105 15.6196 20.3545 15.8017 20.3404 15.9698C20.3404 16.0399 20.3404 16.0959 20.3404 16.1379C20.3685 16.6422 20.4105 17.2166 20.2984 17.819C20.1163 18.7996 19.696 19.458 19.3879 19.9483C19.3879 19.9483 17.959 21.9375 16.6562 22.3437L16.5161 22.3858L16.362 22.4138C16.1098 22.4558 15.8577 22.4838 15.5915 22.4838C15.5495 22.4838 15.4935 22.4838 15.4374 22.4838C15.4094 22.4838 15.3674 22.4838 15.3254 22.4838C15.2693 22.4838 15.1853 22.4838 15.0592 22.4978H15.0312H15.0032C14.4988 22.5118 14.0366 22.5259 13.8965 22.5539C13.8264 22.5679 13.7564 22.5819 13.6863 22.6099C12.9999 22.9041 12.0333 23.0442 10.7025 23.0442Z" stroke="url(#paint5_linear_2009_23951)" stroke-width="0.8575" stroke-miterlimit="10"/>
<path opacity="0.8" d="M10.7025 21.8953C9.94602 21.8953 9.18956 21.8392 8.54516 21.7972H8.51714H8.48913C8.30702 21.7692 8.13891 21.7552 7.98482 21.7412C7.43848 21.6851 6.86413 21.6151 6.24775 21.3349L6.20572 21.3209L6.1637 21.3069C4.97296 20.6345 4.52469 19.6399 4.10443 18.6733C4.04839 18.5332 3.97835 18.3931 3.90831 18.253C3.76822 17.9728 3.65615 17.6647 3.5721 17.3705V17.3565V17.3425C3.20788 16.0677 3.30594 15.4233 3.97835 14.4427L3.99236 14.4147L4.00637 14.3866C4.09042 14.2886 4.16046 14.1905 4.23051 14.1065C4.55271 13.6862 4.83288 13.322 5.46327 12.7336C5.50529 12.6916 5.54732 12.6356 5.56133 12.5655C5.57533 12.5095 5.57533 12.4394 5.54732 12.3834L5.43525 12.0612C5.40723 11.9631 5.39322 11.8511 5.39322 11.753V11.669V11.5989C5.42124 10.8985 5.78546 10.3522 6.02361 9.98793C6.06564 9.93189 6.09365 9.87586 6.12167 9.83383L6.14969 9.79181L6.17771 9.74978C6.30378 9.58168 6.51391 9.09138 6.62598 8.79719C6.654 8.69913 6.72404 8.46099 6.79408 8.27888C6.83611 8.13879 6.86413 7.9987 6.87814 7.85862C6.92016 7.5084 6.99021 7.15819 7.11628 6.83599V6.82198V6.80797C7.17232 6.66788 7.21434 6.55582 7.24236 6.44375C7.34042 6.14957 7.45249 5.81336 7.76068 5.43513L7.81671 5.36508L7.87275 5.30905C8.54516 4.69267 9.28762 4.5806 9.84796 4.53857H9.86197H9.87598C9.904 4.53857 9.94602 4.53857 9.97404 4.53857C10.5344 4.53857 10.9546 4.76271 11.2348 4.91681L11.3049 4.94482H11.3189C11.4029 4.98685 11.459 5.02888 11.529 5.05689C11.6971 5.14094 11.9072 5.16896 12.0893 5.11293C12.4816 5.01487 13.084 4.77672 13.4762 4.55258H13.4902C13.9105 4.30043 14.5549 3.9362 15.3113 3.85215C15.3534 3.83814 15.4094 3.83814 15.4514 3.83814C15.5355 3.82413 15.6896 3.81013 15.8577 3.79612C16.1659 3.7681 16.6421 3.72607 17.1324 3.72607C17.8889 3.72607 18.4913 3.81013 18.9536 3.96422H18.9676H18.9816C20.1023 4.38448 20.5225 4.83276 20.9708 5.42112C21.1529 5.65926 21.335 5.8834 21.6712 6.17758L21.6993 6.2056L21.7273 6.23362C21.8113 6.31767 21.9094 6.40172 22.0215 6.48577C22.2176 6.63987 22.4977 6.85 22.7359 7.25625L22.7639 7.29827L22.7919 7.3403C23.1421 8.06875 23.0301 8.75517 22.946 9.27349V9.31551C22.89 9.63771 22.8059 9.9459 22.6659 10.2541C22.5958 10.4222 22.5398 10.6043 22.5118 10.7864C22.4977 10.8985 22.4837 10.9825 22.4697 11.0526L22.4557 11.1086C22.4277 11.3748 22.3717 11.6269 22.2876 11.8791C22.1615 12.2853 21.9654 12.6636 21.7133 13.0138C21.293 13.6302 20.8167 14.0084 20.1863 14.2045C19.8781 14.3026 19.626 14.4987 19.4579 14.7649L19.4018 14.8349L19.3458 14.905C19.1917 15.0871 19.2337 15.7875 19.2618 16.2078C19.2898 16.67 19.3178 17.1463 19.2337 17.5946C19.0937 18.3651 18.7574 18.8834 18.4633 19.3317C18.4633 19.3317 17.3706 20.9147 16.376 21.2088L16.3059 21.2369L16.2359 21.2509C16.0538 21.2789 15.8577 21.3069 15.6615 21.3069C15.6195 21.3069 15.5775 21.3069 15.5215 21.3069C15.4794 21.3069 15.4374 21.3069 15.3814 21.3069C15.3113 21.3069 15.2133 21.3069 15.0452 21.3209H15.0312H15.0171C14.3587 21.3489 13.9525 21.3629 13.7284 21.405C13.5743 21.433 13.4342 21.475 13.2941 21.531C12.6917 21.7692 11.8792 21.8953 10.7025 21.8953Z" stroke="url(#paint6_linear_2009_23951)" stroke-width="0.8575" stroke-miterlimit="10"/>
</g>
</g>
<circle cx="13" cy="13" r="12.25" stroke="#EDEFF2" stroke-width="1.5"/>
</g>
<defs>
<radialGradient id="paint0_radial_2009_23951" cx="0" cy="0" r="1" gradientUnits="userSpaceOnUse" gradientTransform="translate(13.0005 14.3582) rotate(90) scale(14.6033)">
<stop offset="0.1667" stop-color="#073183"/>
<stop offset="1" stop-color="#0054F9"/>
</radialGradient>
<linearGradient id="paint1_linear_2009_23951" x1="-1.82049" y1="-2.92299" x2="27.9657" y2="28.3394" gradientUnits="userSpaceOnUse">
<stop offset="0.2057" stop-color="#89D0FF"/>
<stop offset="0.3984" stop-color="#EBBF9A"/>
<stop offset="0.6015" stop-color="#EB8280"/>
<stop offset="0.8411" stop-color="#A281FF"/>
</linearGradient>
<linearGradient id="paint2_linear_2009_23951" x1="-0.665663" y1="-1.57795" x2="26.794" y2="27.3604" gradientUnits="userSpaceOnUse">
<stop offset="0.2057" stop-color="#89D0FF"/>
<stop offset="0.3984" stop-color="#EBBF9A"/>
<stop offset="0.6015" stop-color="#EB80DA"/>
<stop offset="0.8411" stop-color="#A281FF"/>
</linearGradient>
<linearGradient id="paint3_linear_2009_23951" x1="0.50154" y1="-0.414788" x2="25.6341" y2="26.199" gradientUnits="userSpaceOnUse">
<stop offset="0.2057" stop-color="#89D0FF"/>
<stop offset="0.3984" stop-color="#EBBF9A"/>
<stop offset="0.6015" stop-color="#EB8280"/>
<stop offset="0.8411" stop-color="#A281FF"/>
</linearGradient>
<linearGradient id="paint4_linear_2009_23951" x1="1.66638" y1="0.752378" x2="24.4667" y2="25.0344" gradientUnits="userSpaceOnUse">
<stop offset="0.2057" stop-color="#89D0FF"/>
<stop offset="0.3984" stop-color="#EBBF9A"/>
<stop offset="0.6015" stop-color="#EB80E7"/>
<stop offset="0.8411" stop-color="#A281FF"/>
</linearGradient>
<linearGradient id="paint5_linear_2009_23951" x1="2.82409" y1="1.92167" x2="23.2965" y2="23.8701" gradientUnits="userSpaceOnUse">
<stop offset="0.2057" stop-color="#89D0FF"/>
<stop offset="0.3984" stop-color="#EBBF9A"/>
<stop offset="0.6015" stop-color="#EB80D3"/>
<stop offset="0.8411" stop-color="#A281FF"/>
</linearGradient>
<linearGradient id="paint6_linear_2009_23951" x1="3.99729" y1="3.0767" x2="22.1398" y2="22.7005" gradientUnits="userSpaceOnUse">
<stop offset="0.2057" stop-color="#89D0FF"/>
<stop offset="0.3984" stop-color="#EBBF9A"/>
<stop offset="0.6015" stop-color="#A280EB"/>
<stop offset="0.8411" stop-color="#A281FF"/>
</linearGradient>
<clipPath id="clip0_2009_23951">
<rect width="26" height="26" fill="white"/>
</clipPath>
</defs>
</svg>
