<svg width="26" height="26" viewBox="0 0 26 26" fill="none" xmlns="http://www.w3.org/2000/svg">
<g clip-path="url(#clip0_2009_24023)">
<path d="M20.136 8.69901H17.836C17.5702 8.69901 17.3153 8.58554 17.1362 8.38563L16.2032 7.33741C16.0622 7.18072 15.8669 7.08887 15.6553 7.08887C15.4438 7.08887 15.2485 7.18072 15.1074 7.33741L14.3046 8.23974C14.0442 8.53151 13.6645 8.70441 13.2739 8.70441H0.683497C0.325475 9.7148 0.0922178 10.79 0 11.9085H11.8852C12.0968 11.9085 12.2921 11.822 12.4386 11.6707L13.5452 10.5199C13.6808 10.374 13.8761 10.2929 14.0714 10.2929H14.1148C14.3263 10.2929 14.5216 10.3848 14.6626 10.5415L15.5957 11.5897C15.7747 11.7896 16.0296 11.9031 16.2954 11.9031H25.9946C25.9024 10.79 25.6691 9.7094 25.3111 8.69361L20.136 8.69901Z" fill="black"/>
<path d="M7.19269 18.6518C7.40425 18.6518 7.59953 18.5654 7.746 18.4141L8.85261 17.2632C8.99365 17.1173 9.18351 17.0363 9.38422 17.0363H9.42762C9.63917 17.0363 9.83988 17.1281 9.9755 17.2794L10.9085 18.3276C11.0875 18.5275 11.3425 18.641 11.6083 18.641H24.7575C25.2511 17.6252 25.6091 16.5392 25.8261 15.3991H13.2031C12.9373 15.3991 12.6824 15.2856 12.5034 15.0857L11.5703 14.0483C11.4293 13.8916 11.234 13.8052 11.0224 13.8052C10.8109 13.8052 10.6102 13.897 10.4746 14.0483L9.67172 14.9506C9.41134 15.2478 9.03162 15.4153 8.63563 15.4153H0.178711C0.395694 16.5554 0.753716 17.6414 1.24735 18.6572L7.19269 18.6518Z" fill="black"/>
<path d="M16.5174 5.19244C16.729 5.19244 16.9243 5.10598 17.0708 4.9547L18.1774 3.80382C18.313 3.65794 18.5083 3.57689 18.709 3.57689H18.7524C18.9639 3.57689 19.1592 3.66874 19.3003 3.82544L20.2333 4.87905C20.4123 5.07897 20.6672 5.19244 20.9331 5.19244H23.4338C21.0524 2.03699 17.266 0 13.0023 0C8.7386 0 4.94682 2.03699 2.56543 5.19244H16.5174Z" fill="black"/>
<path d="M11.5002 21.8667H8.08268C7.81687 21.8667 7.56192 21.7532 7.38291 21.5533L6.44988 20.5051C6.30884 20.3484 6.11356 20.262 5.902 20.262C5.69044 20.262 5.48973 20.3538 5.35411 20.5051L4.55128 21.4074C4.2909 21.7046 3.91118 21.8721 3.51518 21.8721H3.46094C5.84233 24.4116 9.23269 26.0055 13.0028 26.0055C16.7729 26.0055 20.1578 24.4116 22.5446 21.8721L11.5002 21.8667Z" fill="black"/>
<circle cx="13" cy="13" r="12.25" stroke="#EDEFF2" stroke-width="1.5"/>
</g>
<defs>
<clipPath id="clip0_2009_24023">
<rect width="26" height="26" fill="white"/>
</clipPath>
</defs>
</svg>
