<svg width="26" height="26" viewBox="0 0 26 26" fill="none" xmlns="http://www.w3.org/2000/svg">
<g clip-path="url(#clip0_2009_26240)">
<circle cx="13" cy="13" r="12.25" fill="#EDF0F4" stroke="#EDEFF2" stroke-width="1.5"/>
<path d="M13 23C18.5228 23 23 18.5228 23 13C23 7.47715 18.5228 3 13 3C7.47715 3 3 7.47715 3 13C3 18.5228 7.47715 23 13 23Z" stroke="#222326" stroke-width="2.5"/>
<path d="M14.9067 16.605C14.8387 16.537 14.8387 16.4009 14.7707 16.2649C14.7707 16.1288 14.7026 15.9928 14.7026 15.8567C14.5666 15.9928 14.4305 16.0608 14.2945 16.1968C14.1584 16.3329 13.9543 16.4009 13.8183 16.4689C13.6142 16.537 13.4782 16.605 13.206 16.673C13.002 16.7411 12.7299 16.7411 12.5258 16.7411C12.1176 16.7411 11.7775 16.673 11.4373 16.537C11.0972 16.4009 10.8251 16.2649 10.553 16.0608C10.2809 15.8567 10.1448 15.5846 10.0088 15.3125C9.87271 15.0404 9.80469 14.7002 9.80469 14.3601C9.80469 13.5438 10.1448 12.8635 10.7571 12.4553C11.3693 11.9792 12.3217 11.7751 13.5462 11.7751H14.7026V11.2989C14.7026 10.8907 14.5666 10.6186 14.3625 10.4145C14.0904 10.2104 13.7503 10.0744 13.2741 10.0744C12.8659 10.0744 12.5938 10.1424 12.3897 10.3465C12.1856 10.5506 12.1176 10.7547 12.1176 11.0268H10.0768C10.0768 10.6866 10.1448 10.3465 10.2809 10.0744C10.4169 9.80228 10.621 9.53017 10.9612 9.25806C11.2333 9.05398 11.5734 8.8499 11.9816 8.71385C12.3897 8.57779 12.8659 8.50977 13.4101 8.50977C13.8863 8.50977 14.2945 8.57779 14.7026 8.71385C15.1108 8.8499 15.4509 8.98596 15.7911 9.25806C16.0632 9.46215 16.3353 9.80228 16.4714 10.1424C16.6074 10.4826 16.7435 10.8907 16.7435 11.3669V14.7683C16.7435 15.1764 16.7435 15.5166 16.8115 15.7887C16.8795 16.0608 16.9475 16.3329 17.0156 16.4689V16.605H14.9067ZM12.9339 15.1764C13.138 15.1764 13.3421 15.1764 13.4782 15.1084C13.6822 15.0404 13.8183 14.9724 13.9543 14.9043C14.0904 14.8363 14.2265 14.7683 14.2945 14.6322C14.3625 14.5642 14.4986 14.4281 14.5666 14.3601V12.9996H13.5462C13.206 12.9996 12.9339 12.9996 12.7299 13.0676C12.5258 13.1356 12.3217 13.2036 12.1856 13.3397C12.0496 13.4758 11.9135 13.5438 11.8455 13.7479C11.7775 13.8839 11.7775 14.088 11.7775 14.2241C11.7775 14.4962 11.8455 14.7002 12.0496 14.9043C12.2537 15.1084 12.5938 15.1764 12.9339 15.1764Z" fill="#222326"/>
</g>
<defs>
<clipPath id="clip0_2009_26240">
<rect width="26" height="26" fill="white"/>
</clipPath>
</defs>
</svg>
