<svg width="26" height="26" viewBox="0 0 26 26" fill="none" xmlns="http://www.w3.org/2000/svg">
<g clip-path="url(#clip0_2009_23992)">
<path d="M2.35059 7.90395V18.096C2.35059 18.7512 2.69379 19.344 3.26579 19.6768L12.0954 24.7728C12.657 25.0952 13.3538 25.0952 13.9154 24.7728L22.745 19.6768C23.3066 19.3544 23.6602 18.7512 23.6602 18.096V7.90395C23.6602 7.24875 23.317 6.65595 22.745 6.32315L13.9154 1.22715C13.3538 0.904752 12.657 0.904752 12.0954 1.22715L3.26579 6.32315C2.70419 6.64555 2.36099 7.24875 2.36099 7.90395H2.35059Z" fill="#213147"/>
<path d="M14.9234 14.9761L13.665 18.4289C13.6338 18.5225 13.6338 18.6265 13.665 18.7305L15.8282 24.6689L18.3346 23.2233L15.329 14.9761C15.2562 14.7889 14.9962 14.7889 14.9234 14.9761Z" fill="#12AAFF"/>
<path d="M17.4511 9.17287C17.3783 8.98567 17.1183 8.98567 17.0455 9.17287L15.7871 12.6257C15.7559 12.7193 15.7559 12.8233 15.7871 12.9273L19.3335 22.6513L21.8399 21.2057L17.4511 9.18327V9.17287Z" fill="#12AAFF"/>
<path d="M12.9998 1.612C13.0622 1.612 13.1246 1.6328 13.1766 1.664L22.7238 7.176C22.8382 7.2384 22.9006 7.3632 22.9006 7.488V18.512C22.9006 18.6368 22.8278 18.7616 22.7238 18.824L13.1766 24.336C13.1246 24.3672 13.0622 24.388 12.9998 24.388C12.9374 24.388 12.875 24.3672 12.823 24.336L3.27576 18.824C3.16136 18.7616 3.09896 18.6368 3.09896 18.512V7.4776C3.09896 7.3528 3.17176 7.228 3.27576 7.1656L12.823 1.6536C12.875 1.6224 12.9374 1.6016 12.9998 1.6016V1.612ZM12.9998 0C12.6566 0 12.3238 0.0832 12.0118 0.26L2.46456 5.772C1.85096 6.1256 1.47656 6.7704 1.47656 7.4776V18.5016C1.47656 19.2088 1.85096 19.8536 2.46456 20.2072L12.0118 25.7192C12.3134 25.896 12.6566 25.9792 12.9998 25.9792C13.343 25.9792 13.6758 25.896 13.9878 25.7192L23.535 20.2072C24.1486 19.8536 24.523 19.2088 24.523 18.5016V7.4776C24.523 6.7704 24.1486 6.1256 23.535 5.772L13.9774 0.26C13.6758 0.0832 13.3326 0 12.9894 0H12.9998Z" fill="#9DCCED"/>
<path d="M6.67676 22.6616L7.56076 20.2488L9.32876 21.7152L7.67516 23.2336L6.67676 22.6616Z" fill="#213147"/>
<path d="M12.1883 6.69766H9.76512C9.58832 6.69766 9.42192 6.81206 9.35952 6.97846L4.16992 21.2057L6.67632 22.6513L12.3963 6.97846C12.4483 6.83286 12.3443 6.68726 12.1987 6.68726L12.1883 6.69766Z" fill="white"/>
<path d="M16.4316 6.69766H14.0084C13.8316 6.69766 13.6652 6.81206 13.6028 6.97846L7.6748 23.2233L10.1812 24.6689L16.6292 6.97846C16.6812 6.83286 16.5772 6.68726 16.4316 6.68726V6.69766Z" fill="white"/>
<circle cx="13" cy="13" r="12.25" stroke="#EDEFF2" stroke-width="1.5"/>
</g>
<defs>
<clipPath id="clip0_2009_23992">
<rect width="26" height="26" fill="white"/>
</clipPath>
</defs>
</svg>
