<svg width="26" height="26" viewBox="0 0 26 26" fill="none" xmlns="http://www.w3.org/2000/svg">
<g clip-path="url(#clip0_2009_24048)">
<circle cx="13" cy="13" r="12.25" fill="#EDF0F4" stroke="#EDEFF2" stroke-width="1.5"/>
<path d="M25.9567 12.1334C25.4801 4.98336 19.2834 -0.43331 12.0901 0.0433568C8.53672 0.260023 5.41672 1.95002 3.25005 4.42002L3.20672 4.46336C1.04005 6.97669 -0.173279 10.3134 0.0433872 13.8667C0.0867205 14.2134 0.0867205 14.56 0.173387 14.8634V14.9067C0.216721 15.1234 0.260054 15.34 0.303387 15.5567C0.346721 15.7734 0.390054 15.9467 0.433387 16.1634C1.90672 22.1434 7.49672 26.39 13.8667 25.9567C21.0601 25.48 26.4767 19.2834 25.9567 12.1334ZM23.1401 12.3067C23.1834 13.1734 23.1401 14.04 22.9667 14.8634C22.0134 12.5667 20.1501 10.8767 18.5034 9.96669C18.8501 6.06669 17.5067 4.42002 15.9901 4.16002C14.8201 3.94336 13.6934 4.72336 13.4767 5.89336C13.4767 5.93669 13.4767 5.98002 13.4767 6.02336C13.3034 7.19336 14.1701 8.32002 15.3401 8.45002C15.4267 8.45002 15.5567 8.45002 15.6434 8.45002C15.6434 8.58002 15.6434 8.71002 15.6434 8.88336C14.2567 8.53669 12.9567 8.45002 11.7867 8.58002C11.3534 8.62336 10.9201 8.66669 10.4434 8.75336C10.5734 7.45336 11.0934 5.93669 12.0467 4.85336C12.9567 3.81336 14.3434 3.20669 15.8601 3.38002C16.1634 3.42336 16.4667 3.46669 16.7267 3.55336H16.7701C20.2801 5.02669 22.8801 8.32002 23.1401 12.3067ZM14.0834 14.3C13.7367 14.7767 13.3901 15.21 12.9567 15.6C12.3501 14.95 11.7867 14.2134 11.3967 13.39C11.3967 13.3467 11.3534 13.3034 11.3534 13.26C11.0934 12.74 10.9201 12.1767 10.7901 11.6567C11.7001 11.44 12.6101 11.3534 13.4767 11.3967H13.6067C14.1701 11.44 14.7334 11.5267 15.2967 11.7C14.9934 12.61 14.6034 13.52 14.0834 14.3ZM9.62005 3.42336C8.10339 5.41669 7.58339 7.84336 7.58339 9.70669C4.03005 11.3534 3.29339 13.3467 3.81339 14.7767C3.81339 14.82 3.85672 14.8634 3.85672 14.9067C4.33339 16.0334 5.59005 16.5534 6.71672 16.0767C7.84339 15.6 8.36339 14.3434 7.88672 13.2167C7.84339 13.13 7.80005 13.0434 7.75672 12.9567C7.88672 12.87 7.97339 12.8267 8.10339 12.74C8.49339 14.1267 9.10005 15.2534 9.75005 16.25C10.0101 16.5967 10.2701 16.9867 10.5734 17.29C9.36005 17.81 7.84339 18.1134 6.41339 17.8534C5.02672 17.5934 3.85672 16.6834 3.20672 15.2967C3.07672 15.0367 2.99005 14.7334 2.94672 14.4734C2.90339 14.2134 2.90339 13.9534 2.86005 13.7367C2.55672 9.01336 5.41672 4.89669 9.62005 3.42336ZM13.6934 23.14C10.9201 23.3134 8.36339 22.4034 6.37005 20.7134C8.84005 21.06 11.2234 20.28 12.8267 19.3267C16.0334 21.58 18.1134 21.2334 19.1101 20.0634C19.8901 19.1534 19.8034 17.7667 18.8934 16.9867C18.8501 16.9434 18.8067 16.9434 18.8067 16.9C17.8534 16.1634 16.5101 16.3367 15.7734 17.29C15.7301 17.3767 15.6434 17.4634 15.6001 17.55C15.4701 17.5067 15.3401 17.42 15.2101 17.3334C16.1201 16.38 16.8567 15.34 17.4201 14.1267C17.6367 13.7367 17.8101 13.3034 17.9401 12.9134C19.0234 13.6934 20.0634 14.8634 20.4967 16.25C20.9301 17.5934 20.7567 19.0667 19.8901 20.28C19.7167 20.4967 19.5001 20.7567 19.2834 20.93C17.6801 22.2734 15.7301 23.01 13.6934 23.14Z" fill="url(#paint0_linear_2009_24048)"/>
<path opacity="0.9" d="M16.0333 4.15994C15.7733 4.11661 15.5566 4.11661 15.2966 4.15994C16.5533 4.85327 17.4633 6.71661 16.9866 10.4433C16.8133 11.6566 16.4666 12.8266 15.9466 13.9099C15.4699 14.9066 14.8633 15.8166 14.1699 16.6833C14.5166 16.9433 14.8633 17.1599 15.2533 17.3766C16.1633 16.4233 16.8999 15.3833 17.4633 14.1699C17.9833 13.0866 18.3733 11.9166 18.5033 10.7033C19.0233 6.28328 17.6366 4.46327 16.0333 4.15994Z" fill="url(#paint1_radial_2009_24048)"/>
<path opacity="0.8" d="M16.9871 10.4432C17.4637 6.71658 16.5537 4.85325 15.2971 4.15991C15.2537 4.15991 15.2104 4.15991 15.1671 4.20325C16.3804 4.89658 17.2471 6.80325 16.7704 10.4432C16.5971 11.6566 16.2504 12.8266 15.7304 13.9099C15.2971 14.8632 14.6904 15.7732 13.9971 16.5966C14.0404 16.6399 14.0837 16.6399 14.1271 16.6832C14.8637 15.8599 15.4704 14.9066 15.9037 13.9099C16.4671 12.8266 16.8137 11.6566 16.9871 10.4432Z" fill="white"/>
<path opacity="0.5" d="M12.263 18.8933C12.133 18.8066 12.0464 18.72 11.9164 18.6333C10.0964 19.4133 7.5397 19.89 5.02637 19.2833C5.41637 19.8033 5.89303 20.28 6.41303 20.7133C8.88303 21.06 11.2664 20.28 12.8697 19.3266C12.653 19.1533 12.4364 19.0233 12.263 18.8933Z" fill="url(#paint2_radial_2009_24048)"/>
<path opacity="0.6" d="M11.9162 18.59C11.8729 18.5466 11.7862 18.5033 11.7429 18.46C9.87957 19.1966 7.3229 19.63 4.80957 19.0233C4.8529 19.11 4.93957 19.1966 4.9829 19.2833C7.53957 19.8466 10.0529 19.37 11.9162 18.59Z" fill="url(#paint3_linear_2009_24048)"/>
<path opacity="0.9" d="M3.81357 14.7766C3.81357 14.82 3.8569 14.8633 3.8569 14.9066C3.94357 15.1233 4.03024 15.2966 4.16024 15.4266C4.1169 13.9966 5.2869 12.2633 8.75357 10.8333C9.88024 10.3566 11.0936 10.0966 12.3069 10.01C13.3902 9.92332 14.5169 9.96665 15.6002 10.1833C15.6436 9.70665 15.6869 9.27332 15.6869 8.88332C14.4302 8.57998 13.1302 8.44998 11.8302 8.57998C10.6169 8.66665 9.40357 8.92665 8.2769 9.40332C4.16024 11.1366 3.29357 13.26 3.81357 14.7766Z" fill="url(#paint4_radial_2009_24048)"/>
<path opacity="0.8" d="M8.79664 10.8333C5.32997 12.2633 4.15997 13.9967 4.2033 15.4267C4.24664 15.47 4.24664 15.5133 4.28997 15.5567C4.28997 14.17 5.45997 12.4367 8.8833 11.0067C10.01 10.53 11.2233 10.27 12.4366 10.1833C13.4766 10.0967 14.56 10.14 15.6 10.3567C15.6 10.3133 15.6 10.27 15.6 10.2267C14.5166 10.01 13.4333 9.96666 12.3066 10.0533C11.1366 10.0967 9.9233 10.3567 8.79664 10.8333Z" fill="white"/>
<path opacity="0.4" d="M18.4597 10.7032C18.4597 10.8332 18.4164 11.0066 18.373 11.1366C19.933 12.3499 21.623 14.2999 22.403 16.7699C22.663 16.1632 22.8364 15.5132 22.9664 14.8632C22.013 12.5666 20.1497 10.9199 18.503 9.96655C18.503 10.2266 18.503 10.4432 18.4597 10.7032Z" fill="url(#paint5_radial_2009_24048)"/>
<path opacity="0.5" d="M18.3734 11.1367C18.3734 11.2234 18.3301 11.2667 18.3301 11.3534C19.8901 12.5667 21.5367 14.5601 22.2734 17.0734C22.3167 16.9867 22.3601 16.9001 22.4034 16.7701C21.6667 14.3001 19.9767 12.3501 18.3734 11.1367Z" fill="url(#paint6_linear_2009_24048)"/>
<path opacity="0.9" d="M19.1102 20.0633C19.2835 19.89 19.4135 19.6733 19.5002 19.4133C18.2868 20.15 16.2068 19.9766 13.2168 17.7233C12.2635 16.9866 11.3968 16.0766 10.7468 15.08C10.0968 14.17 9.62018 13.1733 9.27352 12.1333C8.84018 12.3066 8.45018 12.5233 8.10352 12.6966C8.45018 13.9533 9.01352 15.1233 9.79352 16.2066C10.4435 17.2033 11.3102 18.1133 12.2635 18.85C15.8168 21.58 18.0702 21.2766 19.1102 20.0633Z" fill="url(#paint7_radial_2009_24048)"/>
<path opacity="0.8" d="M13.2168 17.7234C16.2068 19.9768 18.2868 20.1501 19.5001 19.4134C19.5001 19.3701 19.5434 19.3268 19.5434 19.2834C18.3301 19.9768 16.2501 19.8034 13.3034 17.5501C12.3501 16.8134 11.4834 15.9034 10.8334 14.9068C10.2268 14.0401 9.7501 13.0868 9.40344 12.0901C9.3601 12.0901 9.31677 12.1334 9.27344 12.1334C9.6201 13.1734 10.1401 14.1701 10.7468 15.0801C11.3968 16.0768 12.2201 16.9868 13.2168 17.7234Z" fill="white"/>
<path opacity="0.3" d="M8.27686 9.40332C8.40686 9.35999 8.53686 9.31665 8.66686 9.22999C8.92686 7.27999 9.79353 4.80999 11.5269 2.90332C10.8769 2.98999 10.2269 3.16332 9.57686 3.37999C8.0602 5.32999 7.5402 7.79999 7.58353 9.66332C7.84353 9.61999 8.0602 9.48999 8.27686 9.40332Z" fill="url(#paint8_radial_2009_24048)"/>
<path opacity="0.4" d="M8.70996 9.27332C8.79663 9.22999 8.83996 9.22999 8.92663 9.18665C9.22996 7.19332 10.0966 4.76665 11.9166 2.90332C11.83 2.90332 11.7 2.94665 11.6133 2.94665C9.79329 4.85332 8.92663 7.27999 8.70996 9.27332Z" fill="url(#paint9_linear_2009_24048)"/>
<path opacity="0.4" d="M12.1337 0.0434126C8.53703 0.260079 5.41703 1.95008 3.25036 4.42008L3.20703 4.46341C3.64036 4.89675 5.02703 5.72008 5.59036 6.06675C6.71703 4.85341 8.1037 3.94341 9.6637 3.38008C9.7937 3.25008 9.88036 3.07675 10.0104 2.94675C11.4837 1.30008 13.477 0.433413 15.817 0.433413C16.077 0.433413 16.597 0.476746 16.597 0.476746C15.1237 0.086746 13.607 -0.0865874 12.1337 0.0434126Z" fill="url(#paint10_linear_2009_24048)"/>
<path opacity="0.4" d="M13.6933 23.14C10.92 23.3133 8.36335 22.4033 6.37001 20.7133C6.19668 20.67 6.02335 20.67 5.80668 20.6267C3.64001 20.1933 1.86335 18.8933 0.693346 16.8567C0.563346 16.64 0.433346 16.4233 0.34668 16.1633C1.90668 22.1433 7.49668 26.39 13.8667 25.9567C13.91 25.3067 13.7367 23.79 13.6933 23.14Z" fill="url(#paint11_linear_2009_24048)"/>
<path opacity="0.4" d="M25.957 12.1334C25.567 12.09 23.617 12.2634 23.1403 12.3067C23.1837 13.1734 23.1403 14.04 22.967 14.8634C23.0537 15.0367 23.097 15.21 23.1403 15.3834C23.8337 17.4634 23.617 19.6734 22.447 21.6667C22.317 21.8834 22.187 22.1 22.0137 22.3167C24.7003 19.76 26.217 16.0767 25.957 12.1334Z" fill="url(#paint12_linear_2009_24048)"/>
<path opacity="0.5" d="M15.9029 3.37999C16.2063 3.42332 16.5096 3.46665 16.7696 3.55332H16.8129C17.9396 4.02999 18.9362 4.63665 19.8462 5.45999C20.2796 4.98332 21.1029 4.41999 21.1029 4.41999C21.1029 4.41999 19.8463 3.11999 17.9396 2.72999C16.5963 2.46999 13.5629 2.16665 11.6562 5.45999C11.7862 5.24332 11.9596 5.02665 12.1329 4.85332C13.0429 3.81332 14.4296 3.20665 15.9029 3.37999Z" fill="url(#paint13_linear_2009_24048)"/>
<path opacity="0.5" d="M19.8905 20.3233C19.7172 20.54 19.5005 20.8 19.2838 20.9733C19.2838 20.9733 19.2838 20.9733 19.2405 21.0166C18.2872 21.7533 17.2038 22.3166 16.0771 22.6633C16.2938 23.27 16.3371 24.2666 16.3371 24.2666C16.3371 24.2666 18.0705 23.8333 19.3705 22.36C20.2805 21.32 22.0571 18.85 20.1938 15.5566C20.1938 15.5566 20.1938 15.5566 20.1938 15.6C20.3238 15.8166 20.4105 16.0766 20.4971 16.2933C20.9305 17.5933 20.7572 19.11 19.8905 20.3233Z" fill="url(#paint14_linear_2009_24048)"/>
<path opacity="0.5" d="M3.20652 15.2967C3.07652 15.0367 2.98985 14.7334 2.94652 14.4734V14.43C2.77318 13.2167 2.81652 12.0034 3.07652 10.8334C2.42652 10.7034 1.55985 10.27 1.55985 10.27C1.55985 10.27 1.08318 12.0034 1.68985 13.8667C2.12318 15.1667 3.42318 17.94 7.19318 17.9834C7.19318 17.9834 7.19318 17.9834 7.14985 17.9834C6.88985 17.9834 6.62985 17.94 6.36985 17.8967C5.02652 17.55 3.81318 16.6834 3.20652 15.2967Z" fill="url(#paint15_linear_2009_24048)"/>
<path opacity="0.6" d="M15.3834 8.44993C15.4701 8.44993 15.6001 8.44993 15.6868 8.44993C15.6868 8.44993 15.6001 7.10659 15.4701 6.41326C15.2968 5.71993 15.0368 5.24326 14.7768 4.98326C14.6034 4.80993 13.9968 4.54993 13.5201 5.97993C13.3468 7.19326 14.1701 8.31993 15.3834 8.44993Z" fill="url(#paint16_linear_2009_24048)"/>
<path opacity="0.5" d="M7.88659 13.2168C7.84326 13.1301 7.79993 13.0435 7.75659 12.9568C7.75659 12.9568 6.62993 13.6935 6.10993 14.1701C5.58993 14.6468 5.32993 15.1235 5.24326 15.4701C5.19993 15.7301 5.28659 16.3801 6.75993 16.0768C7.84326 15.6001 8.36326 14.3435 7.88659 13.2168Z" fill="url(#paint17_linear_2009_24048)"/>
<path opacity="0.6" d="M15.73 17.3332C15.6866 17.4199 15.6 17.5066 15.5566 17.5932C15.5566 17.5932 16.77 18.1999 17.4633 18.4166C18.1566 18.6332 18.6766 18.6332 19.0233 18.5466C19.2833 18.4599 19.8033 18.0699 18.8066 16.9432C17.8533 16.1632 16.4666 16.3799 15.73 17.3332Z" fill="url(#paint18_linear_2009_24048)"/>
<path opacity="0.3" d="M15.297 11.7C15.037 12.61 14.647 13.4333 14.1704 14.17C14.127 14.2133 14.127 14.2566 14.0837 14.3C13.737 14.7766 13.3904 15.21 12.957 15.6C13.2604 15.9033 13.5637 16.2066 13.9104 16.51C14.3004 16.8133 14.7337 17.1166 15.167 17.3766C16.077 16.4233 16.8137 15.3833 17.377 14.17C17.5937 13.78 17.7237 13.3466 17.897 12.9566C17.4204 12.61 16.987 12.35 16.5537 12.1766C16.1637 12.0033 15.7304 11.83 15.297 11.7Z" fill="url(#paint19_linear_2009_24048)"/>
<path opacity="0.3" d="M6.36999 20.7134C8.83999 21.0601 11.2233 20.2801 12.8267 19.3267C12.61 19.1967 12.4367 19.0667 12.22 18.8934C11.6133 18.4167 11.05 17.8967 10.53 17.2901C9.31665 17.8101 7.79999 18.1134 6.36999 17.8534C4.98332 17.5934 3.81332 16.6834 3.16332 15.2967C3.03332 15.0367 2.94665 14.7334 2.90332 14.4734C3.29332 16.9434 4.54999 19.1534 6.36999 20.7134Z" fill="url(#paint20_linear_2009_24048)"/>
<path opacity="0.3" d="M12.9565 15.6001C12.3498 14.9501 11.7865 14.2134 11.3965 13.3901C11.3965 13.3467 11.3532 13.3034 11.3532 13.2601C11.0932 12.7401 10.9198 12.1767 10.7898 11.6567C10.3565 11.7434 9.92315 11.8734 9.53315 12.0467C9.05648 12.2201 8.57982 12.4801 8.14648 12.6967C8.53648 14.0834 9.14315 15.2101 9.79315 16.2067C10.0532 16.5534 10.3132 16.9434 10.6165 17.2467C11.1365 17.0301 11.6132 16.7701 11.9598 16.4667C12.3065 16.2501 12.6532 15.9467 12.9565 15.6001Z" fill="url(#paint21_linear_2009_24048)"/>
<path opacity="0.3" d="M9.61983 3.4233C8.10317 5.3733 7.58317 7.84329 7.6265 9.70663C7.84317 9.61996 8.05983 9.48996 8.2765 9.4033C8.96983 9.09996 9.74983 8.8833 10.4865 8.7533C10.6165 7.4533 11.1365 5.93663 12.0898 4.8533C12.9998 3.8133 14.3865 3.20663 15.9032 3.37996C16.2065 3.4233 16.5098 3.46663 16.7698 3.5533H16.8132C15.3832 2.98996 13.8232 2.72996 12.3065 2.81663C11.3532 2.9033 10.4865 3.11996 9.61983 3.4233Z" fill="url(#paint22_linear_2009_24048)"/>
<path opacity="0.3" d="M22.9671 14.8632C22.0571 12.5666 20.1938 10.9199 18.5471 9.96655C18.5471 10.1832 18.5038 10.4432 18.4604 10.7032C18.3738 11.4832 18.2004 12.2199 17.9404 12.9566C19.0238 13.7366 20.0638 14.9066 20.4971 16.2932C20.9304 17.6366 20.7571 19.1099 19.8904 20.3232C19.7171 20.5399 19.5004 20.7999 19.2838 20.9732C21.1904 19.4999 22.5338 17.3332 22.9671 14.8632Z" fill="url(#paint23_linear_2009_24048)"/>
<path opacity="0.3" d="M10.4867 10.3134C10.53 10.7468 10.6167 11.2234 10.7467 11.6568C11.6567 11.4401 12.5667 11.3534 13.4334 11.3968H13.5634C14.1267 11.4401 14.69 11.5268 15.2534 11.7001C15.3834 11.2668 15.47 10.8334 15.5567 10.4001C15.6434 9.83675 15.6434 9.31675 15.6434 8.88342C14.2567 8.53675 12.9567 8.45008 11.7867 8.58008C11.3534 8.62342 10.92 8.66675 10.4434 8.75342C10.4434 9.31675 10.4434 9.83675 10.4867 10.3134Z" fill="url(#paint24_linear_2009_24048)"/>
<circle cx="13" cy="13" r="12.25" stroke="#EDEFF2" stroke-width="1.5"/>
</g>
<defs>
<linearGradient id="paint0_linear_2009_24048" x1="4.12799" y1="21.8716" x2="20.7026" y2="5.29488" gradientUnits="userSpaceOnUse">
<stop stop-color="#E6007A"/>
<stop offset="0.21" stop-color="#703AC2"/>
<stop offset="0.46" stop-color="#0070EB"/>
<stop offset="0.77" stop-color="#0297FB"/>
<stop offset="1" stop-color="#0AE2FF"/>
</linearGradient>
<radialGradient id="paint1_radial_2009_24048" cx="0" cy="0" r="1" gradientUnits="userSpaceOnUse" gradientTransform="translate(16.705 10.3675) scale(4.94347)">
<stop stop-color="white"/>
<stop offset="1" stop-color="white" stop-opacity="0"/>
</radialGradient>
<radialGradient id="paint2_radial_2009_24048" cx="0" cy="0" r="1" gradientUnits="userSpaceOnUse" gradientTransform="translate(9.39722 19.5366) scale(2.87664)">
<stop stop-color="white"/>
<stop offset="1" stop-color="white" stop-opacity="0"/>
</radialGradient>
<linearGradient id="paint3_linear_2009_24048" x1="5.08227" y1="19.0511" x2="7.85473" y2="19.013" gradientUnits="userSpaceOnUse">
<stop stop-color="white" stop-opacity="0"/>
<stop offset="1" stop-color="white"/>
</linearGradient>
<radialGradient id="paint4_radial_2009_24048" cx="0" cy="0" r="1" gradientUnits="userSpaceOnUse" gradientTransform="translate(8.87147 11.1038) rotate(-120) scale(4.94346)">
<stop stop-color="white"/>
<stop offset="1" stop-color="white" stop-opacity="0"/>
</radialGradient>
<radialGradient id="paint5_radial_2009_24048" cx="0" cy="0" r="1" gradientUnits="userSpaceOnUse" gradientTransform="translate(20.4652 12.8491) rotate(-120) scale(2.87663)">
<stop stop-color="white"/>
<stop offset="1" stop-color="white" stop-opacity="0"/>
</radialGradient>
<linearGradient id="paint6_linear_2009_24048" x1="22.1965" y1="16.829" x2="20.7773" y2="14.4474" gradientUnits="userSpaceOnUse">
<stop stop-color="white" stop-opacity="0"/>
<stop offset="1" stop-color="white"/>
</linearGradient>
<radialGradient id="paint7_radial_2009_24048" cx="0" cy="0" r="1" gradientUnits="userSpaceOnUse" gradientTransform="translate(13.1878 17.2966) rotate(120) scale(4.94346)">
<stop stop-color="white"/>
<stop offset="1" stop-color="white" stop-opacity="0"/>
</radialGradient>
<radialGradient id="paint8_radial_2009_24048" cx="0" cy="0" r="1" gradientUnits="userSpaceOnUse" gradientTransform="translate(9.13563 6.61579) rotate(120) scale(2.87663)">
<stop stop-color="white"/>
<stop offset="1" stop-color="white" stop-opacity="0"/>
</radialGradient>
<linearGradient id="paint9_linear_2009_24048" x1="11.7111" y1="3.11583" x2="10.3595" y2="5.53686" gradientUnits="userSpaceOnUse">
<stop stop-color="white" stop-opacity="0"/>
<stop offset="1" stop-color="white"/>
</linearGradient>
<linearGradient id="paint10_linear_2009_24048" x1="12.3186" y1="1.88751" x2="8.08233" y2="3.11991" gradientUnits="userSpaceOnUse">
<stop stop-color="#231F20"/>
<stop offset="1" stop-color="white"/>
</linearGradient>
<linearGradient id="paint11_linear_2009_24048" x1="4.31454" y1="18.0395" x2="7.85661" y2="21.7367" gradientUnits="userSpaceOnUse">
<stop stop-color="#231F20"/>
<stop offset="1" stop-color="white"/>
</linearGradient>
<linearGradient id="paint12_linear_2009_24048" x1="23.3243" y1="17.4824" x2="24.5567" y2="13.7358" gradientUnits="userSpaceOnUse">
<stop stop-color="#231F20"/>
<stop offset="1" stop-color="white"/>
</linearGradient>
<linearGradient id="paint13_linear_2009_24048" x1="14.2466" y1="4.03059" x2="19.9246" y2="5.33016" gradientUnits="userSpaceOnUse">
<stop stop-color="#231F20"/>
<stop offset="1" stop-color="white"/>
</linearGradient>
<linearGradient id="paint14_linear_2009_24048" x1="20.1443" y1="18.5643" x2="16.1772" y2="22.8326" gradientUnits="userSpaceOnUse">
<stop stop-color="#231F20"/>
<stop offset="1" stop-color="white"/>
</linearGradient>
<linearGradient id="paint15_linear_2009_24048" x1="4.60705" y1="16.4071" x2="2.89538" y2="10.8392" gradientUnits="userSpaceOnUse">
<stop stop-color="#231F20"/>
<stop offset="1" stop-color="white"/>
</linearGradient>
<linearGradient id="paint16_linear_2009_24048" x1="15.4877" y1="6.12401" x2="13.6924" y2="7.92191" gradientUnits="userSpaceOnUse">
<stop stop-color="#231F20"/>
<stop offset="1" stop-color="white"/>
</linearGradient>
<linearGradient id="paint17_linear_2009_24048" x1="5.80126" y1="14.282" x2="8.2548" y2="14.9411" gradientUnits="userSpaceOnUse">
<stop stop-color="#231F20"/>
<stop offset="1" stop-color="white"/>
</linearGradient>
<linearGradient id="paint18_linear_2009_24048" x1="17.7069" y1="18.5916" x2="17.0496" y2="16.1389" gradientUnits="userSpaceOnUse">
<stop stop-color="#231F20"/>
<stop offset="1" stop-color="white"/>
</linearGradient>
<linearGradient id="paint19_linear_2009_24048" x1="13.9701" y1="16.4086" x2="15.0491" y2="14.9205" gradientUnits="userSpaceOnUse">
<stop stop-color="#231F20"/>
<stop offset="1" stop-color="white"/>
</linearGradient>
<linearGradient id="paint20_linear_2009_24048" x1="10.2601" y1="15.7642" x2="8.10427" y2="16.7921" gradientUnits="userSpaceOnUse">
<stop stop-color="#231F20"/>
<stop offset="1" stop-color="white"/>
</linearGradient>
<linearGradient id="paint21_linear_2009_24048" x1="9.47942" y1="12.1752" x2="10.1468" y2="13.5614" gradientUnits="userSpaceOnUse">
<stop stop-color="#231F20"/>
<stop offset="1" stop-color="white"/>
</linearGradient>
<linearGradient id="paint22_linear_2009_24048" x1="12.5793" y1="7.89625" x2="12.1187" y2="6.30548" gradientUnits="userSpaceOnUse">
<stop stop-color="#231F20"/>
<stop offset="1" stop-color="white"/>
</linearGradient>
<linearGradient id="paint23_linear_2009_24048" x1="17.5607" y1="15.1809" x2="18.8954" y2="15.4881" gradientUnits="userSpaceOnUse">
<stop stop-color="#231F20"/>
<stop offset="1" stop-color="white"/>
</linearGradient>
<linearGradient id="paint24_linear_2009_24048" x1="15.4664" y1="10.6719" x2="13.7734" y2="10.3647" gradientUnits="userSpaceOnUse">
<stop stop-color="#231F20"/>
<stop offset="1" stop-color="white"/>
</linearGradient>
<clipPath id="clip0_2009_24048">
<rect width="26" height="26" fill="white"/>
</clipPath>
</defs>
</svg>
