<svg width="26" height="26" viewBox="0 0 26 26" fill="none" xmlns="http://www.w3.org/2000/svg">
<circle cx="13" cy="13" r="12.25" fill="#2E3148" stroke="#EDEFF2" stroke-width="1.5"/>
<circle cx="13.0003" cy="12.9998" r="7.54322" fill="#1B1E36"/>
<path fill-rule="evenodd" clip-rule="evenodd" d="M10.4854 13.027C10.4854 6.74845 11.6232 1.65869 13.0265 1.65869C14.4298 1.65869 15.5676 6.74845 15.5676 13.027C15.5676 19.3056 14.4298 24.3954 13.0265 24.3954C11.6232 24.3954 10.4854 19.3056 10.4854 13.027ZM12.881 23.8073C12.881 23.8073 13.0415 23.9678 13.2019 23.7538C13.2019 23.7538 13.9557 23.1113 14.4939 20.062C14.4939 20.062 15.1931 16.0497 15.0861 12.4653C15.0861 12.4653 15.1931 8.34599 14.0114 3.95917C14.0114 3.95917 13.6112 2.54519 13.134 2.20708C13.0546 2.15059 12.9461 2.15937 12.8767 2.22788C12.5479 2.55309 11.5815 4.01793 11.0503 10.2188C11.0503 10.2188 10.7812 18.0295 11.9116 21.6674C11.9116 21.6674 12.2347 23.0585 12.881 23.8073Z" fill="#6F7390"/>
<path fill-rule="evenodd" clip-rule="evenodd" d="M11.7598 10.8219C17.2085 7.69757 22.1891 6.15151 22.8878 7.36914C23.586 8.58625 19.7425 12.1063 14.2939 15.2307C8.8452 18.3551 3.86401 19.9006 3.16586 18.6835C2.46771 17.4664 6.31113 13.9463 11.7598 10.8219ZM3.60339 18.2629C3.60339 18.2629 3.54297 18.4828 3.81045 18.5165H3.81056C3.81056 18.5165 4.7425 18.8508 7.65544 17.8012C7.65544 17.8012 11.4837 16.4118 14.5395 14.5346C14.5395 14.5346 18.1661 12.5771 21.3809 9.36781C21.3809 9.36781 22.4109 8.31741 22.4643 7.73501C22.4745 7.63771 22.4129 7.54728 22.3187 7.52098C21.8741 7.39857 20.1215 7.28781 14.4791 9.91298C14.4791 9.91298 7.56974 13.5664 4.97567 16.3573C4.97567 16.3573 3.93151 17.3299 3.60339 18.2629Z" fill="#6F7390"/>
<path fill-rule="evenodd" clip-rule="evenodd" d="M14.3037 10.8256C19.7332 13.9735 23.567 17.5097 22.8629 18.7241C22.1594 19.9407 17.1856 18.3754 11.753 15.2275C6.32033 12.0796 2.4872 8.5455 3.19065 7.32901C3.89411 6.11253 8.87415 7.67773 14.3037 10.8256ZM3.77274 7.49229C3.77274 7.49229 3.5532 7.55168 3.6572 7.79826L3.65793 7.80097C3.65793 7.80097 3.83597 8.77409 6.20593 10.7695C6.20593 10.7695 9.32489 13.3872 12.4791 15.0885C12.4791 15.0885 15.9896 17.2449 20.3792 18.4219C20.3792 18.4219 21.8033 18.7846 22.3351 18.5411C22.424 18.5008 22.471 18.4024 22.4464 18.3079C22.3291 17.8617 21.5471 16.29 16.4476 12.7216C16.4476 12.7216 9.8244 8.57285 6.11004 7.72702C6.11004 7.72702 4.74473 7.30873 3.77274 7.49229Z" fill="#6F7390"/>
<circle cx="12.9995" cy="13" r="1.33744" fill="#B7B9C8"/>
<ellipse cx="18.4837" cy="7.86399" rx="0.775736" ry="0.802464" fill="#B7B9C8"/>
<ellipse cx="5.75132" cy="10.5925" rx="0.775736" ry="0.802464" fill="#B7B9C8"/>
<ellipse cx="11.4222" cy="20.4363" rx="0.775736" ry="0.802464" fill="#B7B9C8"/>
</svg>
