<svg width="26" height="26" viewBox="0 0 26 26" fill="none" xmlns="http://www.w3.org/2000/svg">
<g clip-path="url(#clip0_2009_23813)">
<circle cx="13" cy="13" r="12.25" fill="#EDF0F4" stroke="#EDEFF2" stroke-width="1.5"/>
<path d="M10.8483 22.9971C10.5916 22.898 10.3489 22.7771 10.1225 22.6174C10.0478 22.5642 9.95446 22.5908 9.86811 22.5884C9.5017 22.5787 9.13529 22.615 8.77121 22.5642C8.14808 22.4796 7.74666 22.1023 7.52495 21.5146C7.37092 21.1034 7.24489 20.6777 7.22155 20.2303C7.21688 20.1336 7.14687 20.1142 7.09086 20.0755C6.00329 19.3306 5.44784 18.2906 5.50386 16.929C5.52953 16.3267 5.70923 15.7705 6.02897 15.265C6.10598 15.1441 6.176 15.0159 6.34637 15.0473C6.52374 15.0788 6.51907 15.236 6.54008 15.3666C6.70344 16.2808 7.17254 16.9725 7.94037 17.449C8.0804 17.536 8.08273 17.5336 8.09207 17.3619C8.12008 16.7863 8.30912 16.2735 8.65919 15.8237C8.78288 15.6641 8.7292 15.3714 8.56117 15.2795C6.89015 14.3532 6.06631 12.7569 6.24368 10.7906C6.29502 10.2271 6.38838 9.67327 6.56575 9.13635C6.60542 9.01542 6.61709 8.89691 6.58675 8.76631C6.23668 7.29098 6.20634 5.81566 6.60542 4.34275C6.6731 4.0888 6.76179 3.83969 6.89015 3.61234C7.22622 3.02221 7.52962 2.9158 8.12241 3.05607C8.68953 3.19151 9.1633 3.52286 9.6324 3.85904C9.86578 4.02834 10.0875 4.21215 10.2975 4.41289C10.3582 4.47093 10.4072 4.48061 10.4842 4.44433C11.5181 3.98238 12.5964 3.76471 13.7236 3.82034C14.5871 3.86387 15.411 4.08155 16.2021 4.42982C16.3071 4.47577 16.3702 4.4661 16.4565 4.3887C16.9863 3.91708 17.5441 3.48658 18.1929 3.19635C18.4566 3.07784 18.7273 2.99561 19.019 3.00045C19.2548 3.00287 19.4508 3.09719 19.6095 3.281C19.9526 3.67523 20.1019 4.16378 20.2093 4.66442C20.4964 6.02607 20.4777 7.38531 20.1486 8.73728C20.1183 8.85821 20.1183 8.96947 20.1556 9.09281C20.3587 9.75308 20.487 10.4303 20.4987 11.1268C20.5174 12.2055 20.2863 13.2068 19.6142 14.063C19.2151 14.5733 18.7297 14.9772 18.1672 15.2795C18.0178 15.3617 17.9385 15.6641 18.0505 15.7995C18.6036 16.467 18.7016 17.2531 18.6153 18.0875C18.6013 18.2253 18.6316 18.2979 18.7483 18.3777C19.1334 18.6389 19.3505 19.0283 19.4485 19.4878C19.6328 20.344 19.4228 21.1348 19.019 21.8701C18.7763 22.3127 18.3632 22.5328 17.8685 22.5691C17.5137 22.5957 17.1567 22.5836 16.7996 22.5812C16.6946 22.5812 16.6059 22.6029 16.5195 22.6731C16.3095 22.8399 16.0621 22.9173 15.8054 22.9609C15.7844 22.9633 15.7657 22.9681 15.761 22.9923C15.516 22.9923 15.2733 22.9923 15.0282 22.9923C14.9442 22.9609 14.8532 22.9705 14.7668 22.9488C14.6361 22.8907 14.5101 22.8254 14.4097 22.7142C14.3491 22.6489 14.2767 22.6247 14.1904 22.6247C13.6419 22.6247 13.0958 22.6247 12.5473 22.6247C12.468 22.6247 12.3956 22.6416 12.3373 22.6997C12.1763 22.8617 11.9896 22.9681 11.7632 22.9899C11.7328 22.9899 11.7025 22.9899 11.6722 22.9899C11.6465 22.9633 11.6161 22.9778 11.5858 22.973C11.5625 22.9754 11.5368 22.9681 11.5181 22.9899C11.4574 22.9899 11.3968 22.9899 11.3361 22.9899C11.2754 22.9633 11.2147 22.9633 11.1541 22.9899C11.1144 22.9899 11.0724 22.9899 11.0327 22.9899C11.0117 22.9705 10.993 22.9705 10.972 22.9899C10.93 22.9971 10.888 22.9971 10.8483 22.9971Z" fill="#31201B"/>
<path d="M11.7627 22.9979C11.9961 22.9133 12.2131 22.7972 12.3835 22.6061C12.4138 22.5723 12.4605 22.5892 12.5002 22.5892C13.0743 22.5892 13.6484 22.5916 14.2225 22.5916C14.3089 22.5916 14.3766 22.6085 14.4349 22.6859C14.5236 22.8044 14.6566 22.8649 14.785 22.9302C14.7967 22.9786 14.8877 22.9181 14.8737 23.0004C13.8398 22.9979 12.8012 22.9979 11.7627 22.9979Z" fill="#FEFEFE"/>
<path d="M14.8758 22.9969C14.8571 22.9582 14.7988 22.9751 14.7871 22.9268C14.8688 22.9461 14.9598 22.934 15.0298 22.9969C14.9785 22.9969 14.9271 22.9969 14.8758 22.9969Z" fill="#EEEDED"/>
<path d="M11.1543 22.9972C11.215 22.9488 11.2757 22.9488 11.3363 22.9972C11.2757 22.9972 11.215 22.9972 11.1543 22.9972Z" fill="#4B3C37"/>
<path d="M11.5825 22.9708C11.6151 22.9733 11.6548 22.9442 11.6735 22.9974C11.6431 22.9974 11.6128 22.9974 11.5825 22.9974C11.5731 22.9902 11.5685 22.9854 11.5731 22.9781C11.5755 22.9733 11.5801 22.9708 11.5825 22.9708Z" fill="#AAA3A1"/>
<path d="M10.9717 22.9976C10.9927 22.9517 11.0114 22.9589 11.0324 22.9976C11.0137 22.9976 10.9927 22.9976 10.9717 22.9976Z" fill="#978F8C"/>
<path d="M11.5816 22.9707C11.5816 22.9803 11.5816 22.9876 11.5792 22.9973C11.5582 22.9973 11.5396 22.9973 11.5186 22.9973C11.5302 22.9634 11.5559 22.9634 11.5816 22.9707Z" fill="#8E8683"/>
<path d="M17.7555 4.33774C17.5385 4.60862 17.2911 4.85531 17.1137 5.15763C17.0063 5.33903 17.0227 5.43093 17.1861 5.55912C18.7824 6.8071 19.7136 8.46381 20.0123 10.5051C20.08 10.9598 20.0427 11.4193 20.038 11.8764C20.038 11.9103 20.0287 11.9393 20.003 11.9611C19.7183 12.2561 19.3845 12.4569 18.9784 12.498C18.1639 12.5802 17.4918 12.2513 16.8943 11.7095C16.3389 11.2065 15.8418 10.6405 15.27 10.1568C14.9152 9.85691 14.5512 9.56184 14.0961 9.4385C13.3236 9.22566 12.5954 9.32482 11.9233 9.79402C11.5639 10.0456 11.2488 10.3527 10.9244 10.6478C10.4646 11.0686 10.0702 11.5693 9.5661 11.9369C9.23704 12.1763 8.88696 12.3916 8.47854 12.4472C7.88108 12.527 7.29762 12.5173 6.81686 12.0554C6.78185 12.0264 6.75151 11.9949 6.7305 11.9538C6.65349 11.6757 6.66516 11.3927 6.67916 11.1097C6.72817 10.0262 6.99656 9.00315 7.489 8.0454C7.9721 7.10216 8.60924 6.29436 9.43308 5.6486C9.75514 5.39465 9.75514 5.33661 9.51943 4.99317C9.32339 4.7102 9.05966 4.49011 8.87062 4.19988C8.95231 4.15151 9.01766 4.20472 9.08534 4.23616C9.3654 4.36918 9.60345 4.5675 9.83216 4.77792C9.95119 4.88676 10.0749 4.98834 10.1939 5.09233C10.3083 5.19391 10.4203 5.20842 10.558 5.14554C10.9384 4.97141 11.3281 4.82145 11.7366 4.71746C12.4134 4.54332 13.0972 4.45867 13.7903 4.51188C14.5722 4.56992 15.3237 4.76099 16.0425 5.08992C16.0938 5.1141 16.1475 5.13345 16.1965 5.15522C16.3249 5.21568 16.4182 5.1794 16.5256 5.08508C16.8476 4.79485 17.2001 4.54574 17.5455 4.28211C17.6295 4.21923 17.7065 4.23132 17.7555 4.33774Z" fill="#FDA524"/>
<path d="M6.81011 12.0199C6.93381 12.1021 7.04816 12.2037 7.18119 12.2666C7.75298 12.5447 8.33644 12.5012 8.91056 12.2762C9.51268 12.0392 9.94444 11.5628 10.3949 11.1153C10.857 10.6558 11.3191 10.1963 11.8372 9.80447C12.7194 9.13694 13.9866 9.12727 14.8642 9.78995C15.3846 10.1842 15.8467 10.6389 16.3088 11.0984C16.5258 11.3136 16.7452 11.5241 16.9693 11.7321C17.4594 12.1868 18.0335 12.448 18.6916 12.4794C19.0487 12.4963 19.3871 12.4117 19.6835 12.1843C19.7839 12.1045 19.8819 12.0199 20.0009 11.9667C19.9916 12.1263 19.9589 12.2835 19.9076 12.4334C19.3918 13.2799 18.7033 13.9136 17.8211 14.332C16.9179 14.7625 15.9681 14.9899 14.9878 15.1035C14.3414 15.1785 13.6926 15.2196 13.0414 15.1954C11.8652 15.1543 10.7006 15.0237 9.58037 14.6126C8.82654 14.3369 8.12873 13.962 7.55694 13.3839C7.24187 13.0671 6.94547 12.7188 6.79844 12.2714C6.77511 12.2013 6.77044 12.1263 6.75877 12.0561C6.74943 12.0078 6.77511 11.9981 6.81011 12.0199Z" fill="#FDFEFD"/>
<path d="M6.8096 12.0192C6.74892 12.0893 6.79093 12.1594 6.8096 12.2272C6.89128 12.5125 7.08265 12.7278 7.25069 12.9576C7.77813 13.6759 8.49462 14.1209 9.28579 14.445C10.0046 14.74 10.7491 14.9335 11.5169 15.0254C11.9137 15.0738 12.3128 15.0956 12.7118 15.1246C13.0409 15.1464 13.3723 15.156 13.7014 15.1439C14.7703 15.1052 15.8298 14.9988 16.8567 14.6627C17.5242 14.4426 18.1543 14.1548 18.7214 13.7242C19.1205 13.4243 19.4356 13.0446 19.718 12.6311C19.7717 12.5537 19.8324 12.4859 19.9047 12.4255C19.6923 13.3349 19.1695 14.0217 18.4414 14.549C17.6596 15.1125 16.7774 15.4197 15.8508 15.6011C14.0328 15.9566 12.2217 15.9445 10.42 15.4946C9.54718 15.277 8.72567 14.9359 8.02085 14.3434C7.31604 13.7509 6.89128 12.989 6.73258 12.0627C6.72558 12.0264 6.72791 11.9901 6.72791 11.9539C6.75592 11.9756 6.78159 11.9974 6.8096 12.0192Z" fill="#DEDEDE"/>
<path d="M12.1226 20.1895C12.1296 20.7434 12.1366 21.2948 12.118 21.8487C12.0433 21.8874 11.9686 21.868 11.8939 21.8487C11.7562 21.8172 11.6185 21.7761 11.4785 21.7447C11.1984 21.6842 10.9231 21.7108 10.6523 21.8027C10.5917 21.8245 10.531 21.8607 10.461 21.839C10.4446 21.8293 10.4376 21.8148 10.4376 21.7954C10.5356 21.6697 10.5123 21.5463 10.4353 21.4206C10.0525 20.7772 9.78882 20.0734 9.50642 19.3817C9.24037 18.7263 9.12368 18.0297 9.12601 17.3187C9.12601 17.0768 9.19369 16.8398 9.22637 16.6004C9.23337 16.5472 9.25671 16.4964 9.32439 16.5036C9.44808 16.5423 9.56477 16.5955 9.67679 16.6608C9.64879 17.0236 9.76315 17.3501 9.93818 17.65C10.1319 17.9789 10.3816 18.2643 10.622 18.557C10.9977 19.0117 11.4528 19.3769 11.8426 19.8171C11.9476 19.9331 12.062 20.0396 12.1226 20.1895Z" fill="#FDA524"/>
<path d="M17.1039 16.646C17.1949 16.5928 17.2836 16.5372 17.3862 16.5106C17.4796 16.4815 17.4889 16.5614 17.4983 16.6146C17.5636 16.9604 17.6126 17.3014 17.5893 17.6618C17.552 18.2084 17.4446 18.7356 17.2626 19.246C17.0012 19.9764 16.7164 20.6971 16.322 21.3646C16.2473 21.4904 16.2007 21.6307 16.119 21.7492C15.9323 21.7661 15.7502 21.7056 15.5612 21.7105C15.3255 21.7153 15.0968 21.7443 14.8727 21.8193C14.819 21.8362 14.7677 21.8604 14.7093 21.8459C14.6557 21.8169 14.6417 21.7661 14.637 21.7105C14.602 21.5799 14.644 21.4469 14.6113 21.3163C14.6113 21.2872 14.6113 21.2606 14.6113 21.2316C14.6347 21.1953 14.6183 21.1494 14.6347 21.1107C14.6463 20.8688 14.637 20.627 14.6393 20.3851C14.6393 20.3682 14.6393 20.3513 14.637 20.3343C14.6393 20.298 14.644 20.2618 14.6463 20.2279C14.7514 19.9256 14.9614 19.7031 15.1878 19.4975C15.7502 18.992 16.2637 18.4382 16.6931 17.8069C16.9125 17.4853 17.0432 17.1297 17.0758 16.7379C17.0735 16.6992 17.0805 16.6702 17.1039 16.646Z" fill="#FDA524"/>
<path d="M11.1569 17.1084C11.5396 17.1544 11.9247 17.2003 12.3075 17.2487C12.4125 17.2632 12.3425 17.3212 12.3261 17.3599C12.1207 17.834 12.2024 18.3757 12.5338 18.7264C12.9049 19.1206 13.5024 19.198 13.9808 18.9126C14.4266 18.6466 14.6249 18.0807 14.4779 17.522C14.4546 17.4325 14.3636 17.3261 14.4149 17.2632C14.4592 17.21 14.5876 17.2342 14.6763 17.2221C14.968 17.1858 15.2597 17.1471 15.5538 17.1108C15.6168 17.2172 15.5375 17.2922 15.4931 17.3672C15.3764 17.5631 15.2201 17.7324 15.108 17.9331C14.8933 18.3201 14.6996 18.7192 14.5689 19.1472C14.5503 19.2077 14.5363 19.2682 14.5036 19.3238C14.4872 19.3528 14.4732 19.4133 14.4849 19.4254C14.2235 19.3867 14.1652 19.4326 14.1582 19.7301C14.1488 20.1558 14.1535 20.5839 14.1512 21.0095C14.1512 21.0628 14.1465 21.1135 14.1442 21.1668C13.9785 21.3094 13.7731 21.324 13.5747 21.353C13.2807 21.3965 12.9889 21.3506 12.7089 21.249C12.6575 21.2296 12.6038 21.2079 12.5805 21.1474C12.5758 20.6758 12.5735 20.2017 12.5665 19.7301C12.5618 19.4496 12.5595 19.4496 12.2864 19.3915C12.2048 19.2924 12.1861 19.1618 12.1441 19.0457C11.934 18.4701 11.661 17.9331 11.2969 17.4446C11.2246 17.3478 11.1382 17.2511 11.1569 17.1084Z" fill="#DEDEDE"/>
<path d="M11.1567 17.1081C11.3014 17.4539 11.5675 17.7176 11.7379 18.0465C11.9619 18.477 12.1673 18.9147 12.2863 19.3888C12.165 19.4783 12.1253 19.604 12.1253 19.754C12.1229 19.8991 12.1533 20.0442 12.1276 20.1893C11.4531 19.396 10.6363 18.743 10.0388 17.8748C9.82179 17.5579 9.68409 17.2145 9.63508 16.8324C9.62808 16.7767 9.58141 16.6921 9.68176 16.6606C10.1345 16.8372 10.6036 16.9509 11.0704 17.0766C11.1007 17.0863 11.1287 17.0984 11.1567 17.1081Z" fill="#FDFEFD"/>
<path d="M14.4792 19.4249C14.4769 19.3911 14.4045 19.4032 14.4512 19.3209C14.5562 19.1371 14.5912 18.9194 14.6752 18.7211C14.869 18.2689 15.0837 17.8311 15.3894 17.4465C15.4641 17.3498 15.5434 17.2482 15.5481 17.1128C15.8025 17.0451 16.0569 16.9822 16.3089 16.9072C16.575 16.8274 16.8387 16.7355 17.1024 16.646C17.1141 17.0741 16.9647 17.4514 16.7384 17.7972C16.3929 18.3196 15.9869 18.7913 15.5341 19.2169C15.2074 19.5241 14.8713 19.824 14.6426 20.2231C14.5586 20.0271 14.6146 19.8192 14.5959 19.6184C14.5866 19.5289 14.5726 19.4539 14.4792 19.4249Z" fill="#FDFEFD"/>
<path d="M16.1254 21.7324C16.0927 21.6066 16.179 21.522 16.2304 21.4325C16.7555 20.5183 17.1639 19.5533 17.4206 18.5254C17.5747 17.9086 17.612 17.275 17.465 16.6437C17.4533 16.5929 17.458 16.5204 17.381 16.5083C17.4183 16.4841 17.4556 16.4551 17.4953 16.4333C17.8967 16.2205 17.8244 16.1673 18.0204 16.6244C18.2538 17.1686 18.2258 17.7393 18.1278 18.315C17.9924 19.101 17.6844 19.8217 17.3716 20.5424C17.1452 21.0624 16.8885 21.5631 16.5384 22.0057C16.4568 22.0008 16.4194 21.9162 16.3471 21.892C16.2701 21.8461 16.1744 21.8219 16.1254 21.7324Z" fill="#F08102"/>
<path d="M9.32915 16.5038C9.29648 16.5232 9.2708 16.5474 9.26614 16.5885C9.22413 16.9972 9.13778 17.3987 9.19379 17.822C9.2638 18.3589 9.35015 18.891 9.55786 19.3916C9.85426 20.1051 10.132 20.8307 10.5241 21.4958C10.6011 21.6264 10.5847 21.7231 10.4541 21.7957C10.321 21.9263 10.188 21.8585 10.055 21.7981C9.93828 21.6651 9.84493 21.5151 9.76324 21.3579C9.31281 20.4848 8.89739 19.5948 8.66868 18.6273C8.52398 18.0179 8.45396 17.4035 8.65467 16.7892C8.69668 16.6586 8.75503 16.5377 8.81104 16.4119C8.86238 16.2934 8.9324 16.2523 9.04676 16.3273C9.13778 16.3878 9.23346 16.4458 9.32915 16.5038Z" fill="#F08102"/>
<path d="M17.043 22.1149C17.5424 21.353 17.8878 20.5452 18.1982 19.7205C18.2916 19.4714 18.3662 19.2126 18.4479 18.9586C18.4643 18.9103 18.4549 18.8425 18.5156 18.828C18.5833 18.8111 18.63 18.8571 18.672 18.9079C18.9194 19.2005 19.0407 19.5488 19.0641 19.9309C19.1014 20.5162 18.9217 21.0531 18.6836 21.5707C18.5273 21.9093 18.2356 22.0641 17.8878 22.1076C17.6148 22.1415 17.3417 22.1197 17.043 22.1149Z" fill="#F08102"/>
<path d="M9.64773 22.1141C9.29766 22.1141 8.95459 22.1624 8.61852 22.0512C8.36413 21.9665 8.16109 21.8117 8.04673 21.5626C7.81335 21.0499 7.64298 20.5178 7.67098 19.9373C7.68732 19.577 7.80635 19.2601 8.01172 18.9748C8.03506 18.9409 8.0654 18.9095 8.09574 18.8829C8.21243 18.7861 8.24977 18.7958 8.28945 18.9433C8.52983 19.8358 8.90091 20.6702 9.31633 21.4876C9.42135 21.6932 9.58939 21.8625 9.64773 22.1141Z" fill="#F08102"/>
<path d="M19.4227 7.40259C19.075 6.85599 18.7016 6.33358 18.2441 5.87889C18.0528 5.69024 17.8521 5.51127 17.6513 5.33471C17.5977 5.28634 17.5837 5.2549 17.6327 5.19444C18.0341 4.69138 18.4845 4.2512 19.026 3.9126C19.222 4.35036 19.3317 4.8123 19.404 5.28634C19.4951 5.89582 19.5137 6.51014 19.4997 7.12445C19.4974 7.22119 19.4974 7.32519 19.4227 7.40259Z" fill="#C74F02"/>
<path d="M7.74092 3.9436C8.25669 4.26285 8.70246 4.66192 9.06653 5.15772C9.12955 5.24237 9.13888 5.29074 9.04553 5.37056C8.49241 5.85185 8.00464 6.40328 7.55655 6.98858C7.50987 6.99825 7.49587 7.04904 7.45853 7.07081C7.43519 7.09741 7.41652 7.13127 7.38851 7.15304C7.3325 7.19415 7.29516 7.17723 7.27649 7.10951C7.26949 7.0829 7.26715 7.05872 7.26715 7.03211C7.27415 6.40812 7.22981 5.78171 7.34884 5.16256C7.43052 4.73931 7.53788 4.32332 7.74092 3.9436Z" fill="#C74F02"/>
<path d="M17.7533 4.33772C17.6716 4.27242 17.6109 4.27242 17.5176 4.34981C17.1652 4.64004 16.7801 4.88915 16.451 5.21082C16.395 5.26645 16.3297 5.25194 16.2666 5.22533C16.0123 5.12375 15.7579 5.01492 15.5012 4.9206C14.6283 4.59409 13.7228 4.478 12.8056 4.56507C12.1054 4.63037 11.4076 4.7779 10.7705 5.10682C10.4601 5.26645 10.2407 5.23985 9.99099 4.98831C9.72493 4.71744 9.43787 4.45865 9.0948 4.29177C9.02245 4.25549 8.9431 4.2313 8.86841 4.20228C8.61169 4.00396 8.35497 3.80322 8.10059 3.6049C8.10992 3.52508 8.16127 3.56136 8.20094 3.5662C8.53001 3.66052 8.81007 3.84917 9.09246 4.03782C9.46821 4.29177 9.81595 4.582 10.145 4.89641C10.271 5.01492 10.3877 5.02217 10.5324 4.94962C12.0074 4.22163 13.5361 4.1007 15.1091 4.52153C15.4778 4.62069 15.8349 4.76097 16.178 4.93753C16.339 5.01976 16.4674 5.00766 16.6074 4.87948C17.0648 4.45865 17.5433 4.06684 18.0824 3.76452C18.2574 3.66778 18.4371 3.58071 18.6331 3.53476C18.6682 3.52025 18.6985 3.51057 18.6962 3.56862C18.3578 3.79596 18.0497 4.05959 17.7533 4.33772Z" fill="#E8C587"/>
<path d="M6.06094 16.3516C6.07728 16.279 6.08895 16.2065 6.10995 16.1388C6.12396 16.0928 6.12162 16.0178 6.18464 16.0178C6.23598 16.0178 6.26399 16.0807 6.28266 16.1291C6.39235 16.4072 6.52304 16.6733 6.70041 16.9151C7.05049 17.394 7.49391 17.7544 8.00735 18.0276C8.06803 18.0615 8.13571 18.0784 8.13805 18.1776C8.14038 18.2743 8.10071 18.3155 8.02836 18.359C7.81831 18.4848 7.65495 18.6637 7.52659 18.8766C7.50325 18.9153 7.49858 18.9709 7.44257 18.9806C7.24419 18.9201 7.10416 18.7701 6.96413 18.6299C6.59072 18.2526 6.31066 17.8124 6.17297 17.2827C6.11929 17.0167 6.04927 16.7531 6.05394 16.4773C6.05161 16.4338 6.06794 16.3927 6.06094 16.3516Z" fill="#F08102"/>
<path d="M7.738 3.94324C7.75667 3.98919 7.76367 4.0303 7.73566 4.07626C7.51395 4.45839 7.44393 4.88648 7.36925 5.31698C7.26423 5.92404 7.32724 6.53352 7.30624 7.15509C7.39726 7.13574 7.42526 7.04626 7.49294 7.01723C7.50928 7.03658 7.51161 7.05593 7.49294 7.07528C7.31091 7.41871 7.12887 7.76215 6.93283 8.13461C6.86514 7.95564 6.85114 7.80085 6.83714 7.64848C6.74379 6.54803 6.75545 5.45484 7.07052 4.38342C7.12653 4.19719 7.20355 4.02063 7.28057 3.84166C7.33424 3.71831 7.39726 3.7038 7.50228 3.77394C7.58163 3.82956 7.66798 3.8731 7.738 3.94324Z" fill="#DF6D03"/>
<path d="M19.4251 7.40207C19.5114 6.31614 19.4414 5.24713 19.1007 4.20715C19.0704 4.11041 18.991 4.02334 19.0283 3.90967C19.04 3.89999 19.0517 3.8879 19.0634 3.88064C19.3761 3.67265 19.3948 3.67507 19.5395 4.03785C19.7565 4.58203 19.8709 5.15281 19.9175 5.7381C19.9572 6.23149 19.9805 6.72488 19.9455 7.22068C19.9245 7.50849 19.8849 7.79388 19.8008 8.12523C19.6631 7.86402 19.5441 7.63426 19.4251 7.40207Z" fill="#DF6D03"/>
<path d="M12.6213 16.5539C12.6213 16.5902 12.6166 16.6289 12.6213 16.6651C12.6353 16.7715 12.5909 16.7982 12.4929 16.7982C12.1288 16.803 11.7764 16.7183 11.4217 16.6603C10.7986 16.5587 10.1941 16.3749 9.61297 16.1185C9.50094 16.0702 9.39359 16.0073 9.28857 15.9468C9.24656 15.9226 9.19288 15.9009 9.19521 15.8331C9.19755 15.7606 9.17654 15.6566 9.21388 15.6203C9.26289 15.5744 9.32124 15.6663 9.37725 15.6953C9.47994 15.7533 9.58496 15.8041 9.70399 15.8162C9.79501 15.8259 9.88603 15.8404 9.97004 15.8743C10.4041 16.0484 10.8616 16.121 11.3167 16.1887C11.6924 16.2443 12.0728 16.2733 12.4532 16.2903C12.6026 16.2975 12.6329 16.3556 12.6189 16.4862C12.6166 16.5128 12.6189 16.5345 12.6213 16.5539C12.6189 16.5539 12.6189 16.5539 12.6213 16.5539Z" fill="#C74F02"/>
<path d="M12.5725 21.1472C13.0323 21.3649 13.5014 21.3697 13.9775 21.2174C14.0312 21.2004 14.0825 21.1835 14.1362 21.1666C14.1269 21.4592 14.2132 21.7519 14.1152 22.0445C14.0965 22.0953 14.0965 22.1243 14.0428 22.1243C13.5761 22.1243 13.1093 22.1243 12.6425 22.1243C12.5772 22.1243 12.5515 22.1001 12.5539 22.03C12.5609 21.7349 12.5679 21.4399 12.5725 21.1472Z" fill="#F08102"/>
<path d="M13.1608 18.5926C12.8994 18.5249 12.6683 18.2201 12.6497 17.9202C12.631 17.6082 12.8294 17.3083 13.1188 17.2019C13.4198 17.0931 13.7442 17.1801 13.9123 17.4172C13.8936 17.5405 13.8772 17.6638 13.8772 17.792C13.8749 18.1838 13.5318 18.5611 13.1608 18.5926Z" fill="#F2E156"/>
<path d="M16.0985 16.0689C16.4999 15.977 16.8967 15.8657 17.2818 15.7158C17.3144 15.7037 17.3495 15.6892 17.3845 15.6843C17.4428 15.6746 17.5292 15.6118 17.5548 15.6988C17.5805 15.7835 17.6038 15.8947 17.4801 15.9552C16.927 16.2237 16.3552 16.4389 15.7578 16.5719C15.4357 16.6421 15.1136 16.7122 14.7846 16.7412C14.6445 16.7606 14.5092 16.8138 14.3668 16.8114C14.2688 16.809 14.1544 16.8235 14.1031 16.705C14.0704 16.6276 14.1684 16.4389 14.2618 16.3833C14.3341 16.3397 14.4135 16.3277 14.4952 16.3131C14.8313 16.2527 15.172 16.2406 15.5081 16.185C15.7018 16.1487 15.9001 16.11 16.0985 16.0689Z" fill="#C74F02"/>
<path d="M6.21348 17.2941C6.42586 18.01 6.85762 18.5517 7.44341 18.975C7.38973 19.1564 7.32905 19.3329 7.28237 19.5167C7.2567 19.6159 7.22636 19.6183 7.15168 19.5627C6.48187 19.0427 6.08045 18.3582 5.96376 17.4972C5.92409 17.2094 5.93109 16.9216 5.99877 16.6362C6.07812 16.6483 6.07812 16.7185 6.08512 16.7765C6.10146 16.9095 6.13647 17.0401 6.1248 17.1756C6.11779 17.2385 6.1458 17.2868 6.21348 17.2941Z" fill="#DEDEDE"/>
<path d="M16.1269 21.7326C16.2085 21.7761 16.2902 21.8196 16.3696 21.8632C16.3252 21.9696 16.2435 21.9091 16.1899 21.8898C16.0708 21.8487 15.9915 21.8777 15.9145 21.9817C15.8048 22.1316 15.6624 22.2526 15.5271 22.3904C15.5994 22.4461 15.7068 22.3856 15.7814 22.5065C15.4827 22.5017 15.2097 22.5234 14.9366 22.492C14.7172 22.3977 14.6192 22.2115 14.6355 21.9164C14.6659 21.8946 14.6192 21.8148 14.6962 21.8245C14.9646 21.7471 15.2283 21.66 15.5107 21.6576C15.7208 21.6552 15.9238 21.6866 16.1269 21.7326Z" fill="#FDFEFD"/>
<path d="M12.0367 22.2411C11.983 22.3693 11.906 22.4685 11.7636 22.4951C11.6096 22.5096 11.4416 22.5555 11.3062 22.4612C11.0961 22.3161 10.9024 22.142 10.7811 21.9025C10.7274 21.7985 10.7647 21.755 10.8744 21.7332C11.2362 21.6607 11.5769 21.7502 11.9153 21.8638C12.0974 21.9243 12.1067 21.9509 12.0553 22.1516C12.0483 22.1807 12.0577 22.2145 12.0367 22.2411Z" fill="#FDFEFD"/>
<path d="M12.0404 22.2404C12.0544 21.9526 12.0544 21.9526 11.765 21.8534C11.4733 21.7519 11.1769 21.718 10.8711 21.7615C10.7871 21.7736 10.7778 21.8099 10.8128 21.8752C10.9551 22.1267 11.1605 22.313 11.3939 22.4653C11.5036 22.5355 11.6436 22.4726 11.7696 22.4919C11.0275 22.5935 10.6027 22.5548 10.213 22.0106C10.1733 21.9284 10.234 21.897 10.2853 21.8752C10.339 21.8534 10.3927 21.8244 10.4534 21.822C10.9108 21.6309 11.3706 21.6285 11.8373 21.7857C11.9283 21.8172 12.0264 21.8268 12.1197 21.8462C12.1221 21.984 12.1081 22.1171 12.0404 22.2404Z" fill="#DEDEDD"/>
<path d="M14.9404 22.4894C15.2042 22.4894 15.4679 22.4894 15.7316 22.4894C15.6592 22.4434 15.5846 22.4652 15.5122 22.4579C15.4889 22.4555 15.4585 22.4628 15.4469 22.4313C15.4352 22.3999 15.4585 22.3805 15.4772 22.366C15.6639 22.2185 15.8273 22.0444 15.9696 21.8533C16.0117 21.7953 16.0607 21.8073 16.119 21.8243C16.203 21.8485 16.2824 21.9065 16.3781 21.863C16.4527 21.8896 16.4994 21.95 16.5461 22.0081C16.2707 22.3685 15.9206 22.5619 15.4679 22.5281C15.2882 22.5136 15.1108 22.5571 14.9404 22.4894Z" fill="#DEDEDE"/>
<path d="M13.1592 18.5929C13.3832 18.5155 13.5816 18.3946 13.717 18.1842C13.8057 18.0439 13.85 17.894 13.843 17.7247C13.8383 17.6207 13.8197 17.5022 13.913 17.4199C14.1207 17.6956 14.1347 18.0342 13.9527 18.3124C13.7823 18.5736 13.4742 18.6824 13.1592 18.5929Z" fill="#FCFCFB"/>
<path d="M16.1018 16.0681C15.838 16.2035 15.5487 16.2181 15.2639 16.2567C14.9675 16.2954 14.6711 16.3172 14.3771 16.3777C14.2137 16.4115 14.174 16.53 14.1344 16.6631C14.111 16.7429 14.174 16.738 14.2114 16.7477C14.3467 16.7767 14.4844 16.7695 14.6198 16.7501C14.6758 16.7429 14.7295 16.7284 14.7855 16.738C14.5848 16.7985 14.3934 16.9025 14.1694 16.8324C14.0457 16.7937 14.0083 16.7187 14.027 16.5978C14.027 16.5929 14.0293 16.5881 14.0293 16.5833C14.076 16.2713 14.0993 16.235 14.4144 16.2301C14.8952 16.2229 15.3713 16.16 15.8427 16.0729C15.9267 16.0584 16.0154 16.0681 16.1018 16.0681Z" fill="#613F36"/>
<path d="M13.3597 16.6823C13.3504 16.6823 13.3387 16.6823 13.3294 16.6823C13.0867 16.6896 13.0913 16.6896 13.096 16.4405C13.0983 16.3389 13.1193 16.2832 13.2314 16.2953C13.3107 16.305 13.3924 16.2953 13.4741 16.2978C13.6071 16.3002 13.6678 16.3485 13.6561 16.5082C13.6468 16.6436 13.6281 16.7162 13.4788 16.6847C13.4437 16.6751 13.4017 16.6823 13.3597 16.6823Z" fill="#DCDCDC"/>
<path d="M6.21318 17.2946C6.20618 17.3261 6.20151 17.3599 6.15717 17.3285C6.10582 17.2922 6.06615 17.2608 6.07782 17.1785C6.10349 16.9923 6.07315 16.8085 5.99613 16.6368C5.9798 16.5691 6.0078 16.5062 6.02647 16.4433C6.04514 16.4264 6.06381 16.4264 6.07782 16.4481C6.10116 16.7359 6.1595 17.0141 6.21318 17.2946Z" fill="#FBF5EE"/>
<path d="M10.4499 21.8239C10.3775 21.8965 10.2352 21.8723 10.2095 22.0102C10.1418 21.9497 10.0928 21.8747 10.0508 21.7973C10.1838 21.7949 10.3192 21.8651 10.4499 21.7949C10.4499 21.8022 10.4499 21.8143 10.4499 21.8239Z" fill="#F4A025"/>
<path d="M14.6351 21.1299C14.6328 21.1662 14.6398 21.2049 14.6024 21.2291C14.6188 20.9292 14.5768 20.6292 14.6281 20.3293C14.6328 20.3342 14.6374 20.3414 14.6398 20.3487C14.6468 20.6099 14.6584 20.8711 14.6351 21.1299Z" fill="#988F8D"/>
<path d="M14.6073 21.314C14.6726 21.4373 14.6073 21.5776 14.6563 21.7009C14.6376 21.73 14.6633 21.7687 14.6306 21.7928C14.5699 21.6381 14.5956 21.476 14.6073 21.314Z" fill="#DBBD93"/>
<path d="M14.6309 21.7958C14.6402 21.7643 14.6262 21.728 14.6565 21.7039C14.6705 21.745 14.6845 21.7837 14.6962 21.8248C14.6752 21.8562 14.6565 21.8877 14.6355 21.9167C14.6332 21.8756 14.6332 21.8345 14.6309 21.7958Z" fill="#FAD8A5"/>
<path d="M8.19707 3.56636C8.16206 3.57603 8.12005 3.56152 8.09671 3.60506C8.06871 3.59054 8.0407 3.57845 8.0127 3.56394C8.03837 3.4938 8.08504 3.52524 8.12939 3.53734C8.15506 3.54701 8.17606 3.55668 8.19707 3.56636Z" fill="#C6A774"/>
<path d="M8.13356 3.53796C8.09389 3.54764 8.04721 3.51862 8.01687 3.56457C7.99353 3.55006 7.93052 3.54038 7.9982 3.50894C8.03554 3.48959 8.09389 3.49927 8.13356 3.53796Z" fill="#937955"/>
<path d="M6.08055 16.4483C6.06422 16.4459 6.04555 16.4459 6.02921 16.4434C6.01987 16.4047 6.04788 16.3806 6.06188 16.3491C6.08756 16.3806 6.08989 16.4144 6.08055 16.4483Z" fill="#D9B690"/>
<path d="M7.48926 7.07618C7.48926 7.05683 7.48926 7.03749 7.48926 7.01814C7.50326 6.99395 7.51026 6.948 7.55227 6.98911C7.53593 7.02297 7.52893 7.06409 7.48926 7.07618Z" fill="#CB6105"/>
<path d="M18.6948 3.57104C18.6832 3.54202 18.6552 3.54443 18.6318 3.53718C18.6645 3.50574 18.7065 3.49123 18.7369 3.52267C18.7532 3.5396 18.7229 3.56378 18.6948 3.57104Z" fill="#9A7F59"/>
<path d="M17.049 10.3486C16.8086 10.3389 16.6149 10.3292 16.4306 10.2639C15.8914 10.0801 15.7094 9.60847 15.9755 9.08606C16.2065 8.63137 16.7363 8.42337 17.2171 8.59993C17.6862 8.77407 17.9592 9.2602 17.8682 9.76568C17.8122 10.0753 17.6208 10.2712 17.3057 10.3268C17.2054 10.3437 17.105 10.3437 17.049 10.3486Z" fill="#31201B"/>
<path d="M9.69395 10.3431C9.6006 10.3407 9.48858 10.3503 9.37889 10.3213C8.9728 10.2173 8.78843 9.87146 8.87245 9.36598C8.96113 8.82906 9.49325 8.44935 10.016 8.54609C10.5738 8.64767 10.9356 9.15557 10.8492 9.71184C10.8165 9.92225 10.6905 10.0577 10.5201 10.1617C10.3078 10.2899 10.0767 10.3431 9.69395 10.3431Z" fill="#31201B"/>
<path d="M10.7359 6.76382C11.1794 6.71545 11.5154 7.29591 11.3241 7.74818C11.2774 7.86185 11.1887 7.93441 11.0813 7.97552C10.7733 8.09403 10.4652 8.09887 10.1688 7.93199C9.86542 7.76269 9.79307 7.40716 10.0101 7.12902C10.1945 6.89442 10.4302 6.74931 10.7359 6.76382Z" fill="#FDFEFD"/>
<path d="M16.0423 8.06277C15.9747 8.05551 15.914 8.05068 15.8533 8.041C15.3165 7.9491 15.2582 7.47264 15.4519 7.09293C15.6666 6.67209 16.1474 6.68661 16.4974 6.91637C16.5441 6.94781 16.5861 6.98651 16.6258 7.02762C16.7775 7.18483 16.9035 7.36139 16.8265 7.60082C16.7518 7.83542 16.5745 7.96361 16.3504 8.02165C16.2501 8.04826 16.1404 8.05068 16.0423 8.06277Z" fill="#FDFEFD"/>
<path d="M12.1926 10.6843C12.1832 10.3529 12.3046 10.1449 12.601 10.0167C13.0911 9.8039 13.5905 9.79664 14.0853 9.99738C14.2954 10.082 14.4867 10.2078 14.5357 10.469C14.5778 10.6335 14.5497 10.7907 14.4891 10.9406C14.3537 11.272 14.111 11.4921 13.8029 11.6444C13.7679 11.6614 13.7236 11.6638 13.7002 11.7073C13.7469 11.792 13.8636 11.7944 13.9009 11.8887C14.2907 12.1475 14.5544 12.1015 14.8391 11.7291C14.9302 11.6081 15.0025 11.4751 15.0725 11.3397C15.1402 11.2115 15.2429 11.197 15.3573 11.255C15.4623 11.3107 15.5183 11.3881 15.4623 11.5235C15.3222 11.8718 15.1285 12.1765 14.8065 12.3676C14.7014 12.4305 14.6548 12.5127 14.6314 12.6385C14.5474 13.1052 14.3654 13.5237 13.9966 13.8284C13.5952 14.1622 13.0771 14.1525 12.6827 13.8066C12.3139 13.4825 12.1412 13.052 12.0526 12.5756C12.0339 12.4788 11.9942 12.4208 11.9149 12.3676C11.6161 12.1668 11.4061 11.8887 11.2754 11.5453C11.2217 11.4002 11.2614 11.301 11.3827 11.2478C11.5204 11.1873 11.6045 11.2212 11.6745 11.3663C11.7352 11.4945 11.8052 11.6154 11.8915 11.7291C12.1739 12.0991 12.4423 12.1451 12.8297 11.8863C12.8671 11.792 12.9767 11.7799 13.0398 11.6952C12.8927 11.6178 12.748 11.5453 12.622 11.4413C12.4726 11.3179 12.3513 11.1728 12.2673 10.9963C12.2206 10.8995 12.1926 10.7979 12.1926 10.6843Z" fill="#31201B"/>
<path d="M13.8974 11.8916C13.7923 11.8408 13.6967 11.7779 13.5986 11.6933C14.1424 11.4659 14.5252 11.1201 14.5322 10.4695C14.6979 10.8685 14.5532 11.3958 14.2171 11.6643C14.1144 11.7465 13.9837 11.7852 13.8974 11.8916Z" fill="#DEDEDD"/>
<path d="M12.1929 10.6843C12.3165 11.1995 12.655 11.5042 13.1311 11.688C13.033 11.7775 12.935 11.838 12.8323 11.8912C12.7273 11.8114 12.6269 11.7291 12.5196 11.6542C12.3072 11.5042 12.1999 11.2841 12.1392 11.0374C12.1088 10.9165 12.1695 10.8028 12.1929 10.6843Z" fill="#DDDDDD"/>
<path d="M14.6377 21.1308C14.64 20.8696 14.6424 20.6084 14.6447 20.3496C14.6774 20.6108 14.6844 20.872 14.6377 21.1308Z" fill="#E5BA7E"/>
<path d="M17.0527 9.20496C17.055 9.38877 16.9244 9.54597 16.7633 9.55081C16.5673 9.55565 16.4296 9.42021 16.4249 9.21221C16.4202 9.03566 16.5673 8.87845 16.7423 8.87119C16.8893 8.86636 17.048 9.03807 17.0527 9.20496Z" fill="#FCFDFC"/>
<path d="M10.2988 9.21887C10.2988 9.42445 10.1798 9.54054 9.97672 9.54054C9.78534 9.53812 9.68032 9.41962 9.68266 9.20194C9.68266 9.02539 9.81102 8.88511 9.97438 8.88269C10.1658 8.87786 10.2988 9.0133 10.2988 9.21887Z" fill="#FCFDFC"/>
<path d="M13.3741 10.7573C13.1851 10.7283 12.9891 10.7356 12.814 10.6316C12.73 10.5832 12.653 10.5179 12.6553 10.4163C12.6577 10.3099 12.737 10.2373 12.8304 10.1986C13.1851 10.056 13.5398 10.0584 13.8946 10.1986C13.9856 10.2349 14.0696 10.2954 14.0813 10.4066C14.0906 10.5276 13.9973 10.5784 13.9156 10.6292C13.7499 10.7356 13.5608 10.738 13.3741 10.7573Z" fill="#614037"/>
<path d="M13.9351 13.1951C13.9188 13.2217 13.9025 13.2483 13.8838 13.2725C13.5057 13.7369 13.1346 13.7175 12.7822 13.2217C12.8079 13.1637 12.8616 13.1419 12.9153 13.125C13.2443 13.0258 13.5687 13.0548 13.8908 13.1564C13.9095 13.1612 13.9235 13.1782 13.9351 13.1951Z" fill="#F28B7E"/>
<path d="M13.9346 13.1954C13.6148 13.1276 13.2927 13.0599 12.966 13.1542C12.903 13.1736 12.8423 13.1978 12.7816 13.2195C12.6743 13.0744 12.6743 13.072 12.8377 13.0188C13.1854 12.9051 13.5331 12.9051 13.8855 13.0115C14.0116 13.0527 14.0326 13.101 13.9346 13.1954Z" fill="#DDDBDB"/>
</g>
<defs>
<clipPath id="clip0_2009_23813">
<rect width="26" height="26" fill="white"/>
</clipPath>
</defs>
</svg>
