<svg width="26" height="26" viewBox="0 0 26 26" fill="none" xmlns="http://www.w3.org/2000/svg">
<circle cx="13" cy="13" r="12.25" fill="#8DC351" stroke="#EDEFF2" stroke-width="1.5"/>
<path fill-rule="evenodd" clip-rule="evenodd" d="M17.2362 8.62146C16.5855 7.00454 15.0402 6.9237 13.1695 7.24708L12.5188 4.9834L11.1361 5.38763L11.7868 7.57046C11.655 7.60322 11.5098 7.64924 11.3567 7.69778C11.1319 7.76905 10.89 7.84575 10.6481 7.89385L9.99741 5.63016L8.61471 6.03439L9.26539 8.29808C9.10272 8.3385 8.96038 8.37892 8.81805 8.41934C8.67571 8.45977 8.53338 8.50019 8.37071 8.54061L6.5 9.18738L6.90668 10.6426C6.90668 10.6426 7.96403 10.3192 7.8827 10.3192C8.45204 10.1575 8.69605 10.4001 8.85872 10.7234L9.59073 13.3105H9.7534L9.59073 13.3914L10.6481 17.0294C10.6481 17.1911 10.6481 17.5145 10.2414 17.6762L9.26539 17.9996L9.42806 19.6973L11.2174 19.2123L12.1935 18.9697L12.8441 21.2334L14.2268 20.8292L13.5761 18.5655C13.9828 18.4846 14.3082 18.4038 14.7148 18.2421L15.3655 20.5058L16.7482 20.1016L16.0975 17.8379C18.3749 17.0294 19.8389 15.9784 19.4323 13.7147C19.1069 11.9361 18.0496 11.3702 16.5855 11.4511C17.3989 10.6426 17.7242 9.83414 17.2362 8.62146ZM16.7482 14.119C17.1784 15.6156 14.8908 16.2955 13.6742 16.6571C13.5106 16.7057 13.3664 16.7486 13.2508 16.7869L12.3561 13.7147C12.4844 13.6829 12.645 13.6356 12.8285 13.5817L12.8285 13.5817C14.0411 13.225 16.2537 12.5741 16.7482 14.119ZM12.1762 12.2753C13.1487 12.0006 15.245 11.4084 14.7962 9.99584C14.4283 8.53312 12.3964 9.18756 11.41 9.50524C11.306 9.53873 11.2137 9.56848 11.1361 9.59161L11.9494 12.3404C12.0148 12.3209 12.0912 12.2993 12.1762 12.2753Z" fill="white"/>
</svg>
