<svg width="26" height="26" viewBox="0 0 26 26" fill="none" xmlns="http://www.w3.org/2000/svg">
<g clip-path="url(#clip0_2009_23876)">
<path d="M13 26C20.1797 26 26 20.1797 26 13C26 5.8203 20.1797 0 13 0C5.8203 0 0 5.8203 0 13C0 20.1797 5.8203 26 13 26Z" fill="#FDDE00"/>
<path d="M6.67311 9.19145C6.67311 9.19145 6.00279 10.0395 6.22623 13.8735C6.22623 13.8735 4.75865 17.6313 5.25631 19.5508C5.75397 21.4653 7.69381 21.3688 7.69381 21.3688C7.69381 21.3688 10.8067 24.1059 13.1934 21.6938C15.5852 19.2766 11.2028 9.91763 11.2028 9.91763L10.6544 6.68286C10.6544 6.68286 10.0551 7.15513 10.1313 10.268C10.2075 13.3809 8.91256 11.1872 8.91256 11.1872L6.67311 9.19145Z" fill="#3C2D0C"/>
<path d="M6.92155 12.5785L6.09889 14.8942L5.79928 16.5141C5.79928 16.5141 4.77858 20.1246 8.98834 20.0739C8.98834 20.0739 12.2739 23.0141 14.4169 21.0438L14.9907 20.4192L15.986 18.8754L17.6313 13.9699C17.6313 13.9699 17.1083 10.6082 13.7973 9.21682C13.7973 9.21682 13.5231 9.06956 13.0255 9.2676C13.0255 9.2676 11.6544 6.18011 10.786 6.55589C10.786 6.55589 10.0395 6.95198 10.6844 9.99378L9.51647 10.5168C9.51647 10.5168 8.23678 8.08948 7.05358 8.57698C5.95162 9.01878 6.92155 12.5785 6.92155 12.5785Z" fill="#E78C19"/>
<path d="M11.1766 8.06907L11.2782 9.41478C11.2782 9.41478 11.3544 10.1867 12.172 9.91243C12.4056 9.83626 12.6087 9.67376 12.5884 9.4097C12.5731 9.21165 12.436 9.02884 12.3446 8.86126C12.177 8.54134 12.0399 8.2011 11.8419 7.89134C11.7403 7.73392 11.5321 7.38353 11.3036 7.42415C11.3036 7.42415 11.1309 7.37337 11.1766 8.06907Z" fill="#EFB99D"/>
<path d="M7.58162 9.58254C7.59686 9.57238 7.93201 9.1509 8.62772 10.1767C9.32342 11.2025 9.25233 11.0704 9.25233 11.0704C9.25233 11.0704 9.62811 11.4818 8.86131 12.0099C8.69373 12.1318 8.51092 12.2333 8.31795 12.3146C8.19608 12.3603 8.06912 12.3857 7.94217 12.3857C7.7949 12.3806 7.72889 12.3044 7.69334 12.1673C7.57654 11.7204 7.44451 11.2736 7.3785 10.8165C7.32772 10.4611 7.22615 9.81105 7.58162 9.58254Z" fill="#EFB99D"/>
<path d="M15.6658 11.6492C15.6658 11.893 15.3104 12.091 14.8686 12.091C14.4268 12.091 14.0713 11.893 14.0713 11.6492C14.0713 11.4055 14.4369 11.0449 14.8736 11.0449C15.3104 11.0449 15.6658 11.4055 15.6658 11.6492Z" fill="#FBFBFB"/>
<path d="M11.0679 13.5567C11.3041 13.1393 11.2779 12.6778 11.0094 12.5258C10.741 12.3739 10.3318 12.5891 10.0956 13.0065C9.85944 13.4239 9.88562 13.8854 10.1541 14.0373C10.4226 14.1893 10.8317 13.9741 11.0679 13.5567Z" fill="#FBFBFB"/>
<path d="M12.1979 15.5746L14.3764 14.4421C14.3764 14.4421 17.0881 13.0253 17.7483 14.1171C18.4084 15.2089 17.7483 16.8796 17.7483 16.8796C17.7483 16.8796 17.4639 18.8347 15.4682 19.0074L14.3967 19.1546L13.0256 19.1902C13.0256 19.1902 10.8217 19.3171 9.20177 18.1187L8.68888 17.4941C8.68888 17.4941 7.65802 16.0773 8.37912 15.0566C9.10021 14.0359 11.5682 15.6152 11.5682 15.6152C11.5682 15.6152 11.9135 15.8031 12.1979 15.5746Z" fill="#FBFBFB"/>
<path d="M17.1383 9.92769C17.4272 9.92769 17.6613 9.69351 17.6613 9.40464C17.6613 9.11577 17.4272 8.88159 17.1383 8.88159C16.8494 8.88159 16.6152 9.11577 16.6152 9.40464C16.6152 9.69351 16.8494 9.92769 17.1383 9.92769Z" fill="#E72D36"/>
<path d="M15.9811 8.64302C16.2699 8.64302 16.5041 8.40884 16.5041 8.11997C16.5041 7.8311 16.2699 7.59692 15.9811 7.59692C15.6922 7.59692 15.458 7.8311 15.458 8.11997C15.458 8.40884 15.6922 8.64302 15.9811 8.64302Z" fill="#E72D36"/>
<path d="M14.1275 8.23164C14.4164 8.23164 14.6506 7.99746 14.6506 7.70859C14.6506 7.41972 14.4164 7.18555 14.1275 7.18555C13.8387 7.18555 13.6045 7.41972 13.6045 7.70859C13.6045 7.99746 13.8387 8.23164 14.1275 8.23164Z" fill="#E72D36"/>
<path d="M14.5387 4.00146C14.6504 5.54521 14.427 6.9417 14.0512 6.9417C13.6754 6.9417 13.1777 5.4335 13.1777 4.00146C13.1777 3.4124 13.4875 3.31592 13.8633 3.31592C14.2441 3.31592 14.498 3.4124 14.5387 4.00146Z" fill="#E72D36"/>
<path d="M18.0024 4.96131C17.4337 6.39842 16.6262 7.56131 16.2911 7.39881C15.9559 7.23631 16.1591 5.66209 16.7837 4.37225C17.0426 3.83905 17.3626 3.88983 17.6977 4.05233C18.0329 4.21991 18.2208 4.41287 18.0024 4.96131Z" fill="#E72D36"/>
<path d="M20.4802 7.76433C19.2259 8.67332 17.9259 9.22176 17.7278 8.90183C17.5298 8.58191 18.5505 7.36824 19.7642 6.6116C20.2669 6.30183 20.5107 6.51511 20.7087 6.82996C20.9017 7.14988 20.9575 7.41394 20.4802 7.76433Z" fill="#E72D36"/>
<path d="M12.096 14.0561C12.0503 14.0612 12.0046 14.0663 11.9589 14.0714C11.964 14.0866 11.9691 14.1018 11.9691 14.1221C11.9691 14.2796 11.7202 14.4116 11.4105 14.4218C11.4105 14.437 11.4054 14.4471 11.4105 14.4624C11.4257 14.6553 11.7609 14.7874 12.1519 14.7569C12.548 14.7264 12.8577 14.5436 12.8425 14.3507C12.8222 14.1577 12.4921 14.0257 12.096 14.0561Z" fill="black"/>
<path d="M14.848 13.3757C14.8023 13.3808 14.7566 13.3859 14.7109 13.3909C14.7159 13.4062 14.721 13.4214 14.721 13.4417C14.721 13.5991 14.4722 13.7312 14.1624 13.7413C14.1624 13.7566 14.1573 13.7667 14.1624 13.782C14.1776 13.9749 14.5128 14.107 14.9038 14.0765C15.2999 14.046 15.6097 13.8632 15.5944 13.6702C15.5792 13.4773 15.2441 13.3452 14.848 13.3757Z" fill="black"/>
<path d="M15.7523 14.1832C15.7523 14.1832 14.6605 14.5031 14.7265 15.1175C14.7925 15.732 16.1078 16.0519 16.1078 16.0519C16.1078 16.0519 16.4632 16.1941 16.6664 15.8539C16.8695 15.5187 17.1691 15.0617 17.0878 14.4066C17.0878 14.4066 17.0624 13.9191 15.7523 14.1832Z" fill="black"/>
<circle cx="13" cy="13" r="12.25" stroke="#EDEFF2" stroke-width="1.5"/>
</g>
<defs>
<clipPath id="clip0_2009_23876">
<rect width="26" height="26" fill="white"/>
</clipPath>
</defs>
</svg>
