<svg width="26" height="26" viewBox="0 0 26 26" fill="none" xmlns="http://www.w3.org/2000/svg">
<circle cx="13" cy="13" r="13" fill="white"/>
<path d="M15.5015 13.6244C15.5015 13.4515 15.5015 13.3651 15.3293 13.2786C14.7268 12.8464 14.0383 12.4142 13.4358 11.9821C13.3055 11.8947 13.1357 11.8947 13.0054 11.9821L11.1118 13.3651C10.9505 13.4477 10.8503 13.6154 10.8536 13.7972C10.8496 13.9836 10.7896 14.1644 10.6815 14.3159C10.5945 14.4467 10.5945 14.6173 10.6815 14.7481C11.3701 16.1311 11.9725 17.5141 12.6611 18.8971C12.9193 19.3293 13.0915 19.8479 13.3497 20.3665C13.4358 20.2801 13.4358 20.1936 13.5218 20.1072C14.2965 18.3784 14.985 16.6497 15.7597 14.9209C15.8457 14.7481 15.8457 14.6616 15.6736 14.5752C15.4777 14.3 15.4145 13.9512 15.5015 13.6244Z" fill="#CD0124"/>
<path d="M12.5662 11.351C10.8329 10.1384 9.09954 8.92579 7.45288 7.7998L7.36621 7.88642C7.45288 8.05965 7.45288 8.14626 7.53954 8.31949L9.35954 12.2171C9.53288 12.5636 9.61954 12.91 10.1395 12.9967C10.2893 13.0101 10.4398 12.9801 10.5729 12.91C11.0929 12.477 11.6995 12.1305 12.2195 11.6974L12.5662 11.351Z" fill="#CD0124"/>
<path fill-rule="evenodd" clip-rule="evenodd" d="M0 13C0 5.8203 5.8203 0 13 0C16.4478 0 19.7544 1.36964 22.1924 3.80761C24.6304 6.24558 26 9.55219 26 13C26 20.1797 20.1797 26 13 26C5.8203 26 0 20.1797 0 13ZM19.6733 7.8C19.76 7.62667 19.8467 7.54 20.02 7.54C20.5738 7.45382 20.98 6.97373 20.9733 6.41333C20.9366 5.94488 20.6328 5.53972 20.1933 5.37333C19.7373 5.20182 19.2242 5.38509 18.98 5.80667C18.8933 6.06667 18.72 6.06667 18.5467 6.06667H7.54C7.28 6.06667 7.19333 6.06667 7.10666 5.89333C6.83356 5.45552 6.28784 5.27361 5.80666 5.46C5.359 5.66323 5.05931 6.09612 5.02666 6.58667C5.05467 7.11678 5.45432 7.55276 5.98 7.62667C6.24 7.62667 6.32666 7.71333 6.32666 7.8C7.19333 9.53333 7.97333 11.18 8.75333 12.9133C8.84096 13.0445 8.84096 13.2155 8.75333 13.3467C8.5724 13.6618 8.55726 14.0455 8.71282 14.3739C8.86837 14.7023 9.17489 14.9337 9.53333 14.9933C9.72526 15.0322 9.88663 15.1613 9.96666 15.34C10.4 16.2067 10.8117 17.0733 11.2233 17.94C11.635 18.8067 12.0467 19.6733 12.48 20.54C12.5663 20.7026 12.5663 20.8974 12.48 21.06C12.3303 21.2783 12.2737 21.5471 12.3224 21.8073C12.3712 22.0674 12.5214 22.2974 12.74 22.4467C13.159 22.7681 13.751 22.7311 14.1267 22.36C14.5604 21.9895 14.6359 21.3477 14.3 20.8867C14.2124 20.7555 14.2124 20.5845 14.3 20.4533C14.9933 18.72 15.7733 16.9 16.5533 15.1667C16.64 14.9933 16.7267 14.9067 16.8133 14.9067C17.1273 14.812 17.3844 14.5852 17.5175 14.2856C17.6507 13.9859 17.6467 13.6431 17.5067 13.3467V13C17.8533 12.1333 18.2217 11.2667 18.59 10.4C18.9583 9.53333 19.3267 8.66667 19.6733 7.8Z" fill="#CD0124"/>
<path d="M12.9997 10.767C13.1298 10.8551 13.2995 10.8551 13.4296 10.767C15.0632 9.54714 16.6968 8.41439 18.2444 7.19451C18.3304 7.10737 18.4163 7.10737 18.4163 7.02024V6.93311H7.58301C7.68138 6.96969 7.76979 7.02942 7.84094 7.10737L12.9997 10.767Z" fill="#CD0124"/>
<path d="M13.8662 11.3695C14.5472 11.8853 15.2281 12.3152 15.9091 12.7451C16.0793 12.831 16.3347 12.7451 16.59 12.7451C16.6751 12.7451 16.7603 12.5731 16.7603 12.4871C17.3561 11.1116 17.9519 9.65007 18.5478 8.27452C18.5478 8.18855 18.6329 8.10257 18.6329 8.0166H18.5478C17.1007 9.04827 15.4835 10.1659 13.8662 11.3695Z" fill="#CD0124"/>
<circle cx="13" cy="13" r="12.25" stroke="#EDEFF2" stroke-width="1.5"/>
</svg>
