<svg width="26" height="26" viewBox="0 0 26 26" fill="none" xmlns="http://www.w3.org/2000/svg">
<path d="M13 0.75C19.7657 0.75 25.25 6.23431 25.25 13C25.25 19.7657 19.7657 25.25 13 25.25C6.23431 25.25 0.75 19.7657 0.75 13C0.75 6.23431 6.23431 0.75 13 0.75Z" fill="#070A0E" stroke="#EDEFF2" stroke-width="1.5"/>
<path fill-rule="evenodd" clip-rule="evenodd" d="M7.51039 17.3587C7.12169 17.1208 6.88379 16.6983 6.88379 16.2433V13.7031C6.88379 13.4015 7.12949 13.1571 7.43109 13.1584C7.52729 13.1584 7.62219 13.1844 7.70539 13.2325L13.4371 16.5748C13.7725 16.7698 13.9792 17.1286 13.9792 17.5173V20.1485C13.9805 20.5099 13.688 20.8037 13.3266 20.8037C13.2057 20.8037 13.0861 20.7699 12.9834 20.7075L7.51039 17.3587ZM16.054 12.537C16.3894 12.732 16.5948 13.0921 16.5961 13.4795V18.8199C16.5961 18.9772 16.5116 19.1228 16.3738 19.1995L15.1193 19.9054C15.1037 19.9145 15.0868 19.921 15.0686 19.9262V16.9609C15.0686 16.5774 14.8671 16.2212 14.5369 16.0236L9.50329 13.0128V9.66532C9.50329 9.36372 9.74899 9.11932 10.0506 9.12062C10.1468 9.12062 10.2417 9.14662 10.3249 9.19472L16.054 12.537ZM18.563 8.59282C18.8997 8.78782 19.1064 9.14792 19.1064 9.53662V17.3366C19.1051 17.4965 19.0167 17.6434 18.8763 17.7201L17.6868 18.3623V12.9322C17.6868 12.5487 17.4853 12.1938 17.1577 11.9962L12.0123 8.91002V5.73542C12.0123 5.63922 12.0383 5.54432 12.0851 5.46112C12.2372 5.20112 12.5713 5.11272 12.8313 5.26352L18.563 8.59282Z" fill="#00D395"/>
</svg>
