<svg width="26" height="26" viewBox="0 0 26 26" fill="none" xmlns="http://www.w3.org/2000/svg">
<circle cx="13" cy="13" r="12.25" fill="#EDF0F4" stroke="#EDEFF2" stroke-width="1.5"/>
<path fill-rule="evenodd" clip-rule="evenodd" d="M4.9834 8.30811L13.0001 3.68311L21.0167 8.30811V17.5581L13.0001 22.1831L4.9834 17.5581V8.30811ZM9.83517 7.6818H16.1489L16.904 10.8936H9.09616L9.83517 7.6818ZM11.4417 15.1974L11.6506 13.1901L10.9598 11.3914H15.0404L14.3656 13.1901L14.5584 15.1974H12.984H11.4417ZM16.165 18.5698H15.0243L13.6587 17.3172V16.6749L15.0725 15.3259V13.19L16.92 11.9856L19.0246 13.5755L16.165 18.5698ZM11.0079 18.5859L12.3735 17.3172V16.6749L10.9598 15.3259V13.1901L9.09616 12.0017L6.97552 13.5755L9.85123 18.5859H11.0079Z" fill="#03316C"/>
</svg>
