<svg width="26" height="26" viewBox="0 0 26 26" fill="none" xmlns="http://www.w3.org/2000/svg">
<circle cx="12.9996" cy="13.0001" r="12.5836" fill="#7A6A2A"/>
<circle cx="13" cy="13" r="12.25" fill="#988430" stroke="#EDEFF2" stroke-width="1.5"/>
<circle cx="13.0001" cy="13.0001" r="12.3185" fill="#BA9F33"/>
<path fill-rule="evenodd" clip-rule="evenodd" d="M5.68391 11.6118C5.61027 11.5445 5.53248 11.4771 5.46093 11.4099C5.38938 11.3426 5.31588 11.2752 5.24225 11.208L5.02344 11C4.98766 10.9642 4.9498 10.9327 4.91403 10.8968C4.87825 10.8653 4.83624 10.8295 4.80046 10.7979C4.51009 10.5224 4.21806 10.2469 3.93171 9.97119C4.22832 10.2426 4.51869 10.512 4.8153 10.7874L4.91833 10.8906C4.9541 10.9262 4.99196 10.9578 5.02773 10.9936L5.24641 11.1955C5.32004 11.2627 5.3916 11.3301 5.46523 11.4035C5.53886 11.4768 5.61041 11.5444 5.68404 11.6115L5.68391 11.6118ZM1.83022 11.5702C1.83022 11.5702 2.88617 11.6794 3.40159 11.7531C3.87902 11.8204 5.3726 12.0497 5.3726 12.0497L1.83022 11.5702ZM1.83022 11.5702C2.12682 11.5954 2.42343 11.6269 2.72004 11.6585C2.87146 11.6732 3.01665 11.69 3.16183 11.7047L3.38467 11.73C3.4583 11.7404 3.52985 11.751 3.60349 11.7615L4.48707 11.9024L4.92872 11.976C5.07391 12.0013 5.21909 12.0287 5.37052 12.054C5.22533 12.0393 5.07391 12.0182 4.92872 11.9971L4.48707 11.934L3.60349 11.8037C3.52985 11.7931 3.4583 11.7783 3.38467 11.7679L3.16169 11.7422C3.01651 11.7275 2.86509 11.7065 2.7199 11.6895C2.42329 11.6539 2.12669 11.6159 1.83008 11.5697L1.83022 11.5702ZM5.26749 12.3248C5.26749 12.3248 4.13999 12.611 3.75921 12.7204C3.38481 12.8234 2.25093 13.1684 2.25093 13.1684L5.26735 12.3249L5.26749 12.3248Z" fill="#CFB66C"/>
<path fill-rule="evenodd" clip-rule="evenodd" d="M5.26772 12.3247C5.01743 12.3983 4.76852 12.4699 4.51462 12.5373L3.76153 12.7392C3.51123 12.8128 3.26233 12.8844 3.01273 12.958L2.63833 13.061C2.51422 13.0968 2.38803 13.1283 2.25977 13.1642C2.38373 13.1226 2.51006 13.08 2.63417 13.0442L3.00857 12.9244C3.25886 12.8465 3.50777 12.7729 3.75737 12.6951C4.01182 12.632 4.26225 12.5646 4.5167 12.5036C4.75854 12.4426 5.01313 12.3817 5.26772 12.3248V12.3247ZM2.40911 13.8625C2.53308 13.8162 3.96356 13.1495 4.29595 12.9938C4.46235 12.9158 4.94602 12.7442 4.94602 12.7442L2.40911 13.8625Z" fill="#CFB66C"/>
<path fill-rule="evenodd" clip-rule="evenodd" d="M2.40834 13.8623C2.51761 13.8207 2.62078 13.7698 2.72589 13.7214L3.0372 13.5762L3.66203 13.2754C3.87003 13.1766 4.0722 13.0674 4.28672 12.9745C4.39613 12.9284 4.50554 12.8905 4.61481 12.8547L4.78121 12.8022C4.83792 12.7875 4.89061 12.7706 4.94761 12.7559C4.73961 12.8547 4.52065 12.9389 4.31237 13.0356C4.10437 13.1387 3.89166 13.2229 3.677 13.3154L3.04177 13.5951C2.8285 13.6815 2.6205 13.7739 2.4082 13.8623H2.40834ZM2.54701 14.4447C2.54701 14.4447 3.84271 13.6853 4.28866 13.4413C4.52218 13.3109 5.27736 12.9364 5.27736 12.9364L2.54701 14.4447Z" fill="#CFB66C"/>
<path fill-rule="evenodd" clip-rule="evenodd" d="M2.54785 14.4451C2.76653 14.3104 2.9895 14.1737 3.21248 14.0349L3.54528 13.8328C3.65885 13.7656 3.76826 13.7025 3.88404 13.6352C3.99761 13.5678 4.10702 13.5006 4.22267 13.4375C4.27772 13.4035 4.33541 13.374 4.39517 13.3492L4.57183 13.2608C4.80535 13.1473 5.03886 13.0315 5.28499 12.9326C5.06202 13.0736 4.83266 13.1936 4.60345 13.3176C4.48988 13.3806 4.37409 13.4375 4.26052 13.5006C4.14696 13.5637 4.03755 13.6311 3.92176 13.6921C3.80819 13.7593 3.69878 13.8224 3.58314 13.8835L3.24021 14.0707L2.54813 14.4451H2.54785ZM5.26766 13.1029C5.26766 13.1029 4.46201 13.7214 4.20118 13.9191C3.94034 14.1168 3.17255 14.6722 3.17255 14.6722L5.26766 13.1029Z" fill="#CFB66C"/>
<path fill-rule="evenodd" clip-rule="evenodd" d="M9.89077 18.0906L9.47852 17.3102L9.71827 16.3341L11.4284 15.6736L10.7006 14.1802L11.0603 12.6719L11.7356 11.3213L13.8224 10.9932L15.3558 9.53125L18.6668 9.78154L19.3168 13.3218L18.0652 17.7793L17.3521 20.087L14.4618 20.1964L13.1198 19.2666L11.5484 18.6102L9.89077 18.0906Z" fill="#E2CC85"/>
<path fill-rule="evenodd" clip-rule="evenodd" d="M14.9605 18.0654C14.9605 18.0654 14.5607 18.2484 13.8789 18.2063C13.6816 17.9413 12.2996 17.8172 12.2996 17.8172C12.2996 17.8172 12.1271 17.7646 11.8221 17.8908C11.5151 18.0156 11.2247 18.0002 10.9533 18.0675C10.682 18.1347 10.4125 17.7814 10.2045 17.7078C9.99652 17.63 9.72071 17.4428 9.72071 17.4428L9.13831 17.3859L7.9688 16.8916L6.1108 15.0405L5.60592 15.8309L5.4502 16.8091L6.01193 17.9682L7.52437 19.346L10.4735 20.0948L12.2216 19.5798L14.4114 18.6542L14.9605 18.0653V18.0654Z" fill="#F1D789"/>
<path fill-rule="evenodd" clip-rule="evenodd" d="M4.48277 11.5234L4.85717 10.3897L5.30326 9.65754L6.73984 9.5376L6.30859 10.7956L5.1076 12.9329L5.6061 14.8408L4.72266 15.2824L4.45115 14.866L4.23247 13.911L4.21777 12.8381L4.48277 11.5234Z" fill="#F4ECB4"/>
<path fill-rule="evenodd" clip-rule="evenodd" d="M6.09421 17.9876L5.81868 17.6026C5.81868 17.6026 5.74505 17.4196 5.78721 17.2597C5.82881 17.0978 5.82284 17.0872 5.8019 17.0262C5.78097 16.9652 5.60417 16.7548 5.6147 16.5739C5.6251 16.3908 5.60001 16.3298 5.73451 16.1848C5.8754 16.0439 5.83338 15.7998 5.83338 15.7998L6.01642 15.9134L6.05802 15.8503C6.05802 15.8503 6.12527 15.9029 6.12527 15.985C6.13997 15.8714 6.07896 15.3454 6.21777 15.2256C6.35657 15.1058 6.6027 15.7872 6.6027 15.7872L6.45128 14.7985L6.06204 13.7847L5.36996 12.8591L5.32836 11.8388V11.7505C5.32836 11.7505 5.01067 12.2386 4.92234 12.6241C4.85925 12.8891 5.01067 13.2109 4.97919 13.5917C4.95382 13.9704 4.92234 13.9409 5.01483 14.0909C5.10732 14.2409 5.33252 14.5495 5.24419 14.7725C5.16639 14.9639 4.90126 14.8293 4.90126 14.8293C4.90126 14.8293 4.84871 14.9849 4.77716 15.0417C4.75192 14.9493 4.7246 14.8903 4.67413 14.8337C4.66983 14.8695 4.65943 14.9179 4.65943 14.9179C4.65943 14.9179 4.61311 14.7727 4.5668 14.5897C4.50385 14.3458 4.43645 14.0239 4.37544 13.8514C4.3502 13.9503 4.28711 14.2511 4.28711 14.2511L4.32289 14.7139L4.49539 15.3492L4.66179 15.7652L4.82375 16.2742L4.9645 16.6162L5.07806 16.877L5.17693 17.464L5.65436 17.9687L5.90895 18.0824L6.09394 17.9877L6.09421 17.9876Z" fill="#F3E19D"/>
<path fill-rule="evenodd" clip-rule="evenodd" d="M4.73279 10.5977C4.73279 10.5977 4.38986 11.1801 4.29113 11.7672C4.1924 12.3543 4.10393 12.9747 4.16633 13.774C4.22943 14.5798 4.34937 15.074 4.44616 15.4274C4.61256 16.0144 5.04354 16.8306 5.04354 16.8306L5.05824 16.799C4.9858 16.6617 4.92798 16.5171 4.88574 16.3677C4.82888 16.1448 4.8078 15.8798 4.75525 15.7598C4.70894 15.64 4.63114 15.5369 4.59329 15.3896C4.55751 15.2487 4.55169 15.0257 4.44186 14.8596C4.39555 14.7922 4.3387 14.6156 4.32192 14.4389C4.30084 14.1738 4.33246 13.8772 4.30722 13.6332C4.2609 13.2272 4.22943 12.9517 4.27144 12.7391C4.31346 12.5265 4.53241 11.9231 4.66706 11.4434C4.75539 11.1363 4.7027 10.8775 4.86466 10.6103C5.02662 10.3453 5.12563 10.1118 5.16127 9.94983C5.20287 9.80257 4.73223 10.5977 4.73223 10.5977H4.73279Z" fill="#F2E8B0"/>
<path fill-rule="evenodd" clip-rule="evenodd" d="M6.35917 10.3643C6.35917 10.3643 6.18251 10.417 6.09834 10.5094C6.01417 10.5978 5.97839 10.6714 5.86482 10.8207C5.75125 10.9701 5.74487 11.0921 5.65225 11.2793C5.55975 11.4624 5.35564 11.7379 5.3304 11.8368C5.30516 11.9356 5.26315 12.3984 5.21059 12.6172C5.16428 12.836 5.26315 13.1053 5.26315 13.1053L5.38295 13.0799C5.38295 13.0799 5.38295 13.2356 5.5029 13.3409C5.62271 13.4439 5.64379 12.9916 5.64379 12.9916L6.09182 11.4791L6.76699 11.0206L6.84062 10.6503L6.35889 10.3643H6.35917Z" fill="#F5EEC0"/>
<path fill-rule="evenodd" clip-rule="evenodd" d="M6.68745 11.0499C6.68745 11.0499 6.36976 11.0708 6.21418 11.1845C6.15109 11.2307 6.12585 11.2686 6.0586 11.3254C5.93449 11.4284 5.80816 11.5232 5.74729 11.6582C5.6799 11.7927 5.60627 11.9968 5.55579 12.3818C5.53471 12.5437 5.53471 12.6931 5.52001 12.8236C5.49894 13.0002 5.46746 13.1411 5.48424 13.2396C5.50532 13.4415 5.71359 13.5467 5.73384 13.7759L6.16509 13.5573L6.57111 11.9564L7.43361 11.4156L6.94551 10.8687L6.68689 11.0489L6.68745 11.0499Z" fill="#E6DB9D"/>
<path fill-rule="evenodd" clip-rule="evenodd" d="M4.41225 21.8303C4.41405 21.8145 4.41585 21.7987 4.41766 21.7824C4.48061 21.2416 4.49129 20.8317 4.53746 20.5751C4.60472 20.2112 4.65103 20.0759 4.64049 19.9397C4.62579 19.721 4.60902 19.5611 4.63009 19.3928C4.66157 19.1698 4.88039 18.9048 4.87415 18.7218C4.86985 18.5766 4.79622 18.482 4.73312 18.3937C4.67003 18.3054 4.61955 18.2317 4.61955 18.2317C4.61955 18.2317 5.05081 17.9351 5.04665 16.7402C5.05545 16.7427 5.06393 16.7463 5.07189 16.7508L5.28432 17.3544L5.42951 17.5311L5.98695 18.5702L6.70427 19.2666L7.76438 19.9796L8.42914 20.7031L8.4964 22.632L7.62765 23.7595L7.48538 24.0172C6.35507 23.4497 5.31857 22.7121 4.41211 21.8301L4.41225 21.8303Z" fill="#E5CB7A"/>
<path fill-rule="evenodd" clip-rule="evenodd" d="M7.06543 23.6756C7.06543 23.6756 7.08013 23.4358 7.27787 23.2801C7.30948 23.3327 7.33042 23.3833 7.32418 23.421C7.35996 23.358 7.61025 22.9541 8.17615 22.8489C8.74205 22.7458 8.87877 22.3336 8.87877 22.3336L10.0798 21.2418L11.4534 19.9776L13.1236 19.3906L13.9042 19.1991C13.9042 19.1991 13.9189 19.256 13.8895 19.3822C14.0345 19.3718 14.3564 19.2982 14.6908 19.1803C14.8255 19.1277 14.9518 19.1067 15.0191 19.1761C15.1179 19.2686 15.1326 19.4874 15.1389 19.6178C15.3008 19.582 15.488 19.4264 15.6381 19.4411C15.878 19.4664 16.0904 19.7483 16.3345 19.7483C16.6563 19.7483 16.8014 19.5505 17.0265 19.3948C17.1612 19.3023 17.3546 19.1868 17.464 19.1087C17.7249 18.9172 20.4848 18.0737 20.4848 18.0737L21.4524 18.1368L21.6081 19.176L21.5249 21.8925C21.5146 21.9023 21.5044 21.9126 21.494 21.9224L17.0944 24.2203L10.9958 25.1552C9.6297 24.932 8.31139 24.4785 7.09705 23.8141L7.06585 23.6754L7.06543 23.6756Z" fill="#D8C173"/>
<path fill-rule="evenodd" clip-rule="evenodd" d="M4.78223 22.1756C4.86889 21.9944 4.94682 21.8428 4.96055 21.7886C4.97137 21.8978 4.9912 22.1376 5.03113 22.3925C4.94729 22.3212 4.86432 22.2489 4.78223 22.1755V22.1756Z" fill="#F1D789"/>
<path fill-rule="evenodd" clip-rule="evenodd" d="M9.2373 24.7322L10.026 24.5128L10.0933 24.5339C10.0933 24.5339 10.1291 24.5549 10.1291 24.6263C10.2279 24.5696 10.3121 24.58 10.3731 24.5423C10.4046 24.6096 10.4361 24.8325 10.575 24.8599C10.7201 24.8915 10.8758 24.7968 11.0336 24.677C11.1892 24.5529 11.3664 24.3971 11.5005 24.334C11.5497 24.4245 11.5933 24.5179 11.631 24.6137C11.8076 24.4728 12.1148 23.9007 12.5523 23.9111C12.6787 23.6123 12.89 23.3571 13.1599 23.177C13.5659 22.9015 13.8204 22.8804 14.1381 22.9056C14.2642 22.7417 14.4197 22.6027 14.5966 22.4955C14.6492 22.5165 14.7944 22.6049 14.9753 22.5207C15.1584 22.4367 15.3644 22.1105 15.6358 22.0685C15.782 22.0484 15.9307 22.0796 16.0565 22.1568C16.0565 22.1568 16.8469 21.3721 17.3923 21.1113C17.3712 21.0482 17.3292 20.8105 17.9686 20.2846C18.0044 20.3162 17.9791 20.4045 18.0044 20.4094C18.0148 20.4094 18.1708 20.3421 18.3682 20.1905C18.6123 20.0076 18.9046 19.8161 19.0812 19.7636C19.414 19.6647 19.7671 19.8666 19.7671 19.8666C19.7971 19.8456 19.8306 19.8299 19.866 19.8203C19.95 19.8056 20.011 19.7951 20.0573 19.7787C20.0532 19.8881 20.1142 20.0753 20.0573 20.2373C20.1232 20.2743 20.1929 20.3039 20.2653 20.3256C20.2297 20.4034 20.1518 20.6011 20.0214 20.6958C20.1307 20.7484 20.1454 20.8094 20.3011 20.8622C20.238 20.9506 20.1347 21.1021 20.0887 21.195C20.0423 21.2939 19.8761 21.7041 19.8025 21.8597C19.7247 22.0154 19.6195 22.3015 19.5689 22.3589C19.5183 22.4163 19.3354 22.6596 19.1945 22.7794C19.3193 22.7331 19.8299 22.5775 20.0465 22.5186C19.982 22.6132 19.6552 23.0981 19.341 23.5644C16.2975 25.3886 12.6161 25.8148 9.23633 24.7342L9.2373 24.7322Z" fill="#E0CD81"/>
<path fill-rule="evenodd" clip-rule="evenodd" d="M6.7392 10.9934C6.7392 10.9934 6.5563 10.9934 6.52053 11.0186C6.48475 11.0439 6.70357 11.0966 6.77082 11.1218C6.83807 11.1471 6.98326 11.2627 7.02111 11.3553C7.05689 11.4437 8.33581 11.9589 8.33581 11.9589L9.24033 11.9126L9.5522 11.4818L8.95898 10.9622L9.37498 9.73584L8.82392 9.82417L7.49868 10.6146L6.83391 10.8692L6.7392 10.9934Z" fill="#DFC57C"/>
<path fill-rule="evenodd" clip-rule="evenodd" d="M8.72543 11.3991C8.75204 11.4422 8.79961 11.4678 8.85023 11.4663C9.03743 11.4663 9.20979 11.5127 9.28134 11.6072C9.40129 11.7588 9.73367 12.2426 9.73367 12.2426L10.5288 12.5287L10.5801 11.5924L9.71135 10.9888L8.72266 11.3526V11.3989H8.72487L8.72543 11.3991Z" fill="#E5CC7C"/>
<path fill-rule="evenodd" clip-rule="evenodd" d="M8.5695 11.7464C8.5695 11.7464 8.71454 11.7569 8.89758 11.6895C9.08062 11.6221 9.38139 11.4771 9.51188 11.5339C9.69478 11.6117 9.65692 11.8558 9.8548 12.0747C9.97461 12.2094 10.1934 12.2052 10.3175 12.3504C10.4416 12.4956 10.8686 12.4282 10.8686 12.4282L11.0306 13.3018L10.3806 14.1349L10.168 15.1698H9.28918L8.4863 14.8512L8.09082 13.8944L8.28856 12.9268L8.5695 11.7464Z" fill="#D2C281"/>
<path fill-rule="evenodd" clip-rule="evenodd" d="M10.2701 11.7884C10.2919 11.7952 10.3145 11.7987 10.3373 11.799C10.3121 11.82 10.2594 11.8662 10.2805 11.9862C10.3016 12.1061 10.3688 12.2575 10.3121 12.35C10.3574 12.3995 10.3911 12.4584 10.411 12.5225C10.4468 12.6257 10.4573 12.7203 10.6907 12.7351C10.657 12.7558 10.6259 12.7806 10.5982 12.8087C10.5982 12.8087 10.7601 12.9496 10.8422 13.08C10.9263 13.0764 11.1492 13.007 11.1492 13.007L11.1956 13.0387L11.2944 12.9971C11.2944 12.9971 11.2019 12.9613 11.2692 12.7362C11.3323 12.5385 11.3891 12.549 11.394 12.5343C11.3988 12.5196 11.4403 12.3113 11.4403 12.2272C11.4718 12.1179 11.497 11.7855 11.497 11.7855L11.4298 11.0514L11.0512 10.8221L10.7434 10.5249L10.453 11.0718L10.2618 11.2625L10.2471 11.7357L10.2701 11.7884Z" fill="#E2C270"/>
<path fill-rule="evenodd" clip-rule="evenodd" d="M11.1807 11.1742C11.1807 11.1742 11.2479 11.3656 11.2733 11.5129C11.2822 11.4842 11.2872 11.4545 11.288 11.4245C11.288 11.4245 11.3405 11.7149 11.3509 11.8348C11.372 11.8305 11.3925 11.8243 11.3973 11.8452C11.402 11.8662 11.45 12.0998 11.4389 12.2302C11.5265 12.0857 11.6477 11.9645 11.7922 11.8769C11.8764 11.8242 11.9752 11.7675 12.0784 11.7632C12.2404 11.759 12.3581 11.8663 12.5517 11.8663C13.0186 11.8663 13.4415 11.5234 13.7528 11.4183C13.982 11.3404 14.1797 11.2836 14.3186 11.1573C14.3859 11.1006 14.5059 10.9744 14.6152 10.7871C14.7603 10.5375 14.9118 10.3202 15.0633 10.2929C14.9948 10.3055 14.925 10.3104 14.8553 10.3076C14.8553 10.3076 14.9016 10.2613 14.9801 10.1982C15.0586 10.1351 15.1526 10.0573 15.2871 10.0573C15.527 10.0573 15.6468 10.0929 15.7815 10.0929C15.9161 10.0888 15.9939 10.0573 15.9939 10.0573C15.9939 10.0573 16.1349 10.1561 16.4525 10.1561C16.7702 10.1603 16.9826 10.1876 17.1489 10.2025C17.3151 10.2173 17.8724 10.1561 18.0323 10.1609C18.1366 10.1649 18.2389 10.1899 18.3332 10.2345L17.8178 8.73689L15.9663 7.11865L14.8641 7.89907L13.1685 9.59455L11.5277 10.2025L11.1848 10.5874V11.1742H11.1807Z" fill="#CCB360"/>
<path fill-rule="evenodd" clip-rule="evenodd" d="M14.8621 10.3156C14.8621 10.3156 14.9084 10.2694 14.9861 10.2063C15.0637 10.1432 15.1587 10.0653 15.2932 10.0653C15.533 10.0653 15.6529 10.1011 15.7875 10.1011C15.9222 10.0969 16 10.0653 16 10.0653C16 10.0653 16.1411 10.164 16.4586 10.164C16.7762 10.1682 16.9887 10.1955 17.1549 10.2102C17.3212 10.2249 17.8785 10.164 18.0384 10.1686C18.1426 10.1725 18.2449 10.1976 18.3392 10.2422L18.1056 9.56694L17.8344 9.05165L17.0602 8.20385C17.0602 8.20385 16.1312 7.65694 16.1241 7.65278C16.1199 7.64862 15.8022 7.56445 15.8022 7.56445L14.9608 8.0735L14.1973 10.0488L14.1826 10.4648L14.6768 10.6983C14.8009 10.4903 14.9378 10.3239 15.0661 10.3028C14.9503 10.3155 14.8619 10.3155 14.8619 10.3155L14.8621 10.3156Z" fill="#D5B457"/>
<path fill-rule="evenodd" clip-rule="evenodd" d="M14.8513 10.457C14.7776 10.4612 14.7167 10.4465 14.6998 10.3939C14.6367 10.2172 14.5863 10.192 14.5334 10.192C14.4806 10.192 14.4093 10.3056 14.367 10.316C14.3247 10.3264 14.2745 10.1856 14.2745 10.1856L14.2282 10.1646C14.2282 10.1646 13.9569 10.3412 13.7655 10.5495C13.5741 10.7578 13.2606 11.1112 13.1197 11.1742C12.9788 11.2371 12.4949 11.2584 12.3293 11.2941C12.1638 11.3299 11.9802 11.4499 11.9549 11.4772C11.9297 11.5045 12.0287 11.5339 12.0434 11.5612C12.0581 11.5864 11.8813 11.5759 11.8666 11.6028C11.8562 11.6239 11.9082 11.7437 11.934 11.8047C11.9791 11.7823 12.0286 11.77 12.079 11.7689C12.241 11.7648 12.3589 11.8721 12.5523 11.8721C13.0193 11.8721 13.4421 11.5292 13.7534 11.4239C13.9828 11.3461 14.1805 11.2893 14.3193 11.1631C14.3866 11.1064 14.5065 10.98 14.6159 10.7928C14.6958 10.6646 14.7737 10.5446 14.8517 10.4563L14.8513 10.457Z" fill="#D2B257"/>
<path fill-rule="evenodd" clip-rule="evenodd" d="M8.15333 20.8675C8.15333 20.8675 8.11173 20.7118 7.72624 20.31C7.61683 20.1965 7.54957 20.102 7.47594 20.0345C7.2929 19.8619 7.18557 19.8157 7.05523 19.7168C6.76916 19.5044 6.45785 19.5044 6.2181 19.2435C5.97834 18.9827 5.69893 18.4843 5.5048 17.975C5.31344 17.466 5.26074 17.304 5.26074 17.2893C5.26074 17.2746 5.31344 17.1758 5.38069 17.1905C5.44794 17.2051 5.44794 17.3355 5.46486 17.3671C5.49837 17.4187 5.53637 17.4673 5.57843 17.5122C5.6773 17.6259 5.81818 17.7618 5.88973 17.9645C5.87504 17.792 5.8161 17.6006 5.8161 17.6006C5.8161 17.6006 6.18634 17.8341 6.50181 18.0781C6.81949 18.3221 6.94984 18.4063 7.04261 18.5619C7.13538 18.7174 7.35392 19.1278 7.45861 19.2477C7.5633 19.3677 8.99781 19.8198 8.99781 19.8198L9.68019 20.3286L10.019 21.0712L9.75382 21.4872L9.24477 21.5966L8.41804 21.2263L8.15333 20.8673V20.8675Z" fill="#D2B159"/>
<path fill-rule="evenodd" clip-rule="evenodd" d="M6.31738 18.3093C6.31738 18.3093 6.48988 18.5848 6.9106 18.8457C7.2893 19.075 7.88875 19.2833 8.42317 19.4074C8.73018 19.481 9.03733 19.5377 9.31286 19.542C10.0554 19.5524 10.5665 19.3401 11.1998 19.2707C11.5428 19.2349 11.9635 19.2076 12.401 19.1043C12.9626 18.9696 13.295 18.8181 13.7473 18.6051C14.0754 18.4536 14.3763 18.3401 14.6202 18.1949C14.9631 17.993 15.2134 17.7679 15.5038 17.7007C15.468 17.7996 15.4301 17.9762 15.1441 18.1593C15.2955 18.155 15.5038 18.1446 15.5038 18.1446C15.5038 18.1446 15.3019 18.2644 14.9463 18.5337C14.7275 18.7001 14.4373 18.9817 14.1407 19.1689C13.9492 19.2888 13.7409 19.3769 13.6042 19.4487C13.2714 19.6318 13.1371 19.7242 12.9185 19.9479C12.9963 19.9438 13.0026 19.9479 13.0026 19.9479C13.0026 19.9479 12.727 19.9837 12.5294 20.0888C12.4878 20.0888 12.4157 20.0741 12.2895 20.1099C12.1906 20.1414 12.0601 20.213 11.9256 20.2508C11.7341 20.3076 11.6712 20.2824 11.6712 20.2824L11.7026 20.3455C11.7026 20.3455 11.453 20.3412 11.3698 20.3496C11.3845 20.3538 11.3804 20.3602 11.3804 20.3602C11.3658 20.3626 11.3517 20.3676 11.3388 20.3749C11.2987 20.4008 11.2547 20.42 11.2084 20.4316C11.1832 20.4357 11.1621 20.4357 11.1305 20.4421C11.141 20.4674 11.2231 20.6085 11.261 20.6917C11.2295 20.7128 10.7561 21.0704 10.7561 21.0704C10.7708 21.0935 10.7828 21.1182 10.7919 21.1441C10.8066 21.1902 10.813 21.2576 10.8277 21.2891C10.8633 21.3522 10.8844 21.3627 10.8844 21.3627C10.8844 21.3627 10.8277 21.3733 10.7286 21.3985C10.6446 21.4196 10.5414 21.4552 10.3958 21.4763C10.3512 21.4821 10.3062 21.4856 10.2612 21.4868C10.2823 21.5332 10.3748 21.7098 10.2043 21.9138C10.0339 22.1178 9.98137 22.1474 9.92882 22.2778C9.90236 22.2578 9.8742 22.2402 9.84465 22.2251C9.78793 22.1999 9.71 22.1621 9.68268 22.1115C9.66676 22.179 9.64567 22.2451 9.61959 22.3093C9.56704 22.4502 9.48924 22.5891 9.47455 22.6942C9.41769 22.6311 9.31258 22.507 9.1674 22.5322C9.02221 22.5575 8.90657 22.7552 8.88133 22.8121C8.88133 22.7763 8.85609 22.749 8.84985 22.791C8.84555 22.8373 8.76568 23.321 8.31973 23.7123C8.31557 23.6134 8.31557 23.3946 8.30503 23.3232C8.26343 23.3648 8.21254 23.4262 7.90955 23.5567C7.61295 23.6871 7.65995 23.8175 7.65995 23.8175C7.65995 23.8175 7.63472 23.6095 7.7946 23.3905C7.95656 23.1718 8.05543 23.0686 8.05543 23.0518C8.05282 23.0347 8.04552 23.0187 8.03435 23.0055C8.01328 22.9844 7.97126 22.9592 7.97126 22.9424C7.9965 22.932 8.24679 22.8121 8.23209 22.5637C8.21739 22.3409 8.12282 22.2251 8.05543 22.1431C8.04503 22.1326 8.15444 22.0548 8.1396 22.0296C8.12906 22.0149 7.99456 21.9159 7.97764 21.8632C7.98162 21.8317 7.98867 21.8008 7.99872 21.7707C8.01341 21.7244 8.02395 21.6928 8.01979 21.6613C8.00925 21.6087 7.9524 21.4635 7.93562 21.4488C7.95032 21.453 8.05543 21.4488 8.05543 21.4488C8.05543 21.4488 7.9714 21.3142 7.95656 21.2511C7.94172 21.188 7.91025 21.0218 7.89347 20.9903C7.92924 20.9944 8.01757 21.0007 8.01757 20.9903C8.02187 20.9587 7.93978 20.9061 7.97597 20.8655C8.00121 20.8696 8.04961 20.8907 8.09578 20.9496C8.07055 20.8823 8.02853 20.7519 7.94006 20.6994C7.98166 20.6847 8.1231 20.6467 8.24721 20.7203C8.37131 20.7939 8.41361 20.897 8.41361 20.897C8.41361 20.897 8.48724 20.9538 8.60095 21.038C8.73129 21.141 8.89741 21.2876 9.16255 21.3913C9.2194 21.4229 9.36444 21.4229 9.46969 21.4018C9.51552 21.3909 9.55945 21.3732 9.60004 21.3493C9.61469 21.3406 9.63022 21.3336 9.64635 21.3282C9.62374 21.2828 9.59774 21.2392 9.56856 21.1977C9.60434 21.1977 9.64635 21.202 9.64635 21.202C9.64635 21.202 9.67159 21.1452 9.55802 21.0356C9.58326 21.0104 9.61488 20.994 9.61488 20.9514C9.5791 20.9473 9.51601 20.8947 9.50131 20.8737C9.52225 20.859 9.55386 20.8106 9.58964 20.7959C9.55802 20.7706 9.48023 20.6654 9.44445 20.655C9.47863 20.6423 9.5117 20.6268 9.54332 20.6087C9.54332 20.6087 9.36666 20.5623 9.30981 20.5245C9.25296 20.4829 9.16892 20.4109 9.11845 20.3898C9.06576 20.3688 8.97327 20.3584 8.93541 20.3162C8.97105 20.3268 9.0279 20.3162 9.07005 20.3162C9.10153 20.3162 9.11637 20.3204 9.12677 20.3204C9.12261 20.3057 9.12261 20.2741 9.2047 20.2637C9.24418 20.2577 9.2825 20.2456 9.31827 20.2279C9.31827 20.2279 9.24034 20.2237 9.15187 20.1396C9.0634 20.0554 8.98991 19.9881 8.93943 19.9776C8.88688 19.9671 8.78801 20.0134 8.72699 20.0091C8.64282 19.9987 8.60705 19.9565 8.60705 19.9565C8.60705 19.9565 8.32736 19.9818 7.70682 19.6032C7.17032 19.275 6.93681 18.9847 6.93681 18.9847C6.8866 18.9665 6.83807 18.944 6.79176 18.9173C6.58986 18.8122 6.31003 18.5934 6.31849 18.3072L6.31738 18.3093Z" fill="#C2A44D"/>
<path fill-rule="evenodd" clip-rule="evenodd" d="M14.0559 5.68362C14.1046 5.69943 14.1478 5.72859 14.1807 5.76779C14.2796 5.88136 14.3427 6.09587 14.1176 6.32523C14.206 6.35671 14.2424 6.36683 14.3195 6.35671C14.2417 6.44934 14.0651 6.64707 14.0545 6.81958C14.044 6.96046 14.1323 7.00262 14.1323 7.00262C14.1323 7.00262 13.9977 7.1582 13.9914 7.41862C14.055 7.34691 14.1246 7.28076 14.1994 7.22088C14.3552 7.09677 14.5697 6.95589 14.7149 6.86755C14.7129 6.90458 14.7179 6.94164 14.7296 6.97682C14.7296 6.97682 15.0008 6.75385 15.2288 6.85286C15.3318 6.89917 15.2855 7.04422 15.2855 7.04422C15.2855 7.04422 15.4265 6.99166 15.5254 7.09053C15.6242 7.1894 15.764 7.44441 15.8357 7.54328C15.8672 7.58959 15.9493 7.67792 16.0333 7.81465C16.1481 8.00607 16.244 8.20823 16.3195 8.41826C16.3237 8.30886 16.351 8.13857 16.6624 8.24576C16.9738 8.35517 17.3271 8.58453 17.6237 9.03616C17.9203 9.4878 17.9938 9.99768 18.1431 10.1918C18.2946 10.379 18.4503 10.6903 18.4608 10.8208C18.4714 10.9513 18.4145 11.3719 18.7258 12.5099C18.8141 12.1566 18.9488 11.3719 18.9488 11.3719L19.0224 10.6798L19.1066 8.53835L16.8704 6.68063L15.1224 5.41211L13.9844 5.52152L14.0558 5.68348L14.0559 5.68362Z" fill="#CAA13E"/>
<path fill-rule="evenodd" clip-rule="evenodd" d="M18.2107 8.87085C18.2107 8.87085 18.1791 8.66285 17.6533 8.30925C17.1273 7.96008 16.7171 7.96008 16.3386 7.66348C16.0482 7.42996 15.7454 6.89346 15.5482 6.7168C15.3567 6.54222 15.3252 6.03733 15.3252 6.03733L15.971 5.49653L16.9314 4.10834L17.7433 3.21436L18.1324 3.75516L18.6732 4.39039L18.9739 5.66515L19.0833 7.53105L18.2097 8.87098L18.2107 8.87085Z" fill="#B59544"/>
<path fill-rule="evenodd" clip-rule="evenodd" d="M18.8608 11.107C18.8767 10.824 18.8418 10.5405 18.7577 10.2699C18.619 9.83862 18.316 9.0729 18.1753 8.78614C18.1184 8.46845 18.1606 8.44321 18.2216 8.40744C18.2826 8.37166 18.5119 8.24104 18.6376 7.78274C18.7632 7.32445 19.153 7.30947 19.153 7.30947L19.3928 7.13281L19.7568 8.04358L20.0743 8.86615L20.1732 9.49514L20.2468 10.0315L20.0743 11.1654L19.2225 11.9353L18.8607 11.107H18.8608Z" fill="#C89D3A"/>
<path fill-rule="evenodd" clip-rule="evenodd" d="M6.97363 23.7451V23.7218C6.99133 23.7107 7.00696 23.6966 7.01981 23.6802C7.03451 23.6591 7.04518 23.6339 7.05558 23.6276C7.07666 23.6171 7.17553 23.586 7.22809 23.596C7.28064 23.606 7.41958 23.6633 7.49322 23.6591C7.64464 23.6549 7.8213 23.5392 8.10113 23.5918C8.52185 23.6696 8.62072 23.9557 8.86477 24.1177C9.03117 24.2314 9.20339 24.1808 9.22863 24.1808H9.28534C9.29588 24.1808 9.37368 24.0924 9.41583 24.0967C9.5 24.1009 9.50832 24.1704 9.56088 24.1745C9.68498 24.1892 9.92488 24.1114 10.0448 24.143C10.117 24.1657 10.1736 24.2222 10.1962 24.2943C10.2215 24.3721 10.2004 24.471 10.1394 24.5278C10.009 24.6477 9.88494 24.7614 9.8597 24.8606C9.8918 24.8851 9.92263 24.9112 9.95205 24.9389C8.91125 24.6737 7.90985 24.2727 6.97363 23.7463V23.7451Z" fill="#CEB052"/>
<path fill-rule="evenodd" clip-rule="evenodd" d="M18.1748 19.5421C18.1748 19.5421 18.5029 19.1047 18.6166 18.8879C18.7302 18.6645 18.2569 15.8357 18.2569 15.8357L19.2077 12.7204L19.1824 11.7065C19.1824 11.7065 19.2287 10.7704 19.3381 10.3644C19.4686 10.5979 19.8746 10.8798 19.9629 11.0291C20.0045 10.7429 20.1458 10.1393 20.1249 9.49561C20.2027 9.61541 20.3899 10.8208 20.3899 10.8208L20.5771 11.6327L20.8211 12.4952L21.0925 13.4061L21.2545 14.0351L21.3469 14.1866L21.4249 14.4516L21.4985 14.7378L21.7109 15.4088L21.8357 15.9598L21.9346 16.9591C21.9561 17.0356 21.9716 17.1136 21.9809 17.1926C21.9851 17.302 21.9662 17.3651 21.9662 17.3841C21.9662 17.4031 22.002 17.6238 21.9873 17.7901C21.9662 17.9565 21.9662 18.0867 21.8357 18.2061C21.7053 18.3255 21.6233 19.0391 21.6233 19.0391L21.3898 18.8835C21.3898 18.8835 21.4361 18.6709 21.3267 18.4775C21.2173 18.284 21.0049 18.2439 20.8849 18.2756C20.7651 18.3008 20.5253 18.3385 20.4474 18.4059C20.3738 18.4732 20.193 18.6814 20.0267 18.7761C19.8187 18.9009 19.4798 18.9108 19.299 18.9528C19.1159 18.9944 18.914 19.1192 18.7015 19.2641C18.5348 19.372 18.3588 19.4648 18.1756 19.5415L18.1748 19.5421Z" fill="#CCA847"/>
<path fill-rule="evenodd" clip-rule="evenodd" d="M18.1748 24.1386C18.1748 24.1386 18.1887 24.1476 18.2154 24.1623C19.7099 23.4621 21.049 22.4696 22.1536 21.2433C22.1415 20.8176 22.1258 20.3813 22.1086 20.2196C22.073 19.8766 22.0982 19.5275 22.0877 19.3256C22.0772 19.1237 21.9636 18.3011 21.911 18.0887C21.8542 17.8762 21.7446 17.771 21.728 17.771C21.7133 17.7753 21.6248 18.1708 21.6248 18.2702C21.6248 18.3696 21.6038 18.609 21.6038 18.67C21.5891 18.6657 21.5828 18.6284 21.5828 18.6131C21.5617 18.6657 21.5365 18.7583 21.526 18.7688C21.5154 18.7794 21.5407 18.6805 21.526 18.6594C21.5113 18.6384 21.4844 18.6489 21.4902 18.5963C21.4927 18.5652 21.4976 18.5343 21.5049 18.5038C21.5049 18.5038 21.4418 18.5963 21.3956 18.8319C21.3493 19.0654 21.3493 19.0718 21.3325 19.0928C21.3178 19.1181 21.2337 19.2022 21.2294 19.2338C21.2252 19.2905 21.3073 19.3474 21.3135 19.3788C21.3177 19.4315 21.2399 19.6754 21.2147 19.7948C21.1894 19.9142 21.2 20.1482 21.1731 20.2681C21.152 20.3775 21.1315 20.4406 21.0595 20.4868C21.112 20.4973 21.1625 20.512 21.1625 20.512C21.1625 20.512 21.2361 20.8233 21.0489 21.0885C20.9817 21.1809 20.9649 21.2231 20.8934 21.3073C20.7523 21.4629 20.6429 21.6401 20.6324 21.7553C20.6251 21.7213 20.6202 21.6868 20.6177 21.6521C20.6177 21.6521 20.399 21.9067 20.3064 22.0519C20.1866 22.2391 20.0203 22.2286 19.9736 22.2749C19.9269 22.3212 19.9167 22.4052 19.932 22.4726C19.8904 22.483 19.8122 22.4979 19.7595 22.6598C19.7343 22.7439 19.6712 22.8262 19.5723 22.8828C19.4734 22.9394 19.3535 22.9564 19.2925 22.9711C19.345 22.9858 19.3661 22.9858 19.3913 23.0026C19.3599 23.0552 19.2147 23.1373 19.0527 23.2425C18.8907 23.3414 18.8128 23.4864 18.7729 23.5811C18.7313 23.6695 18.6698 23.7263 18.571 23.7369C18.6126 23.7621 18.6741 23.8209 18.7056 23.8399C18.6593 23.8504 18.5808 23.8504 18.4406 23.9704C18.2934 24.0924 18.2429 24.1282 18.1755 24.1387L18.1748 24.1386Z" fill="#C39D3C"/>
<path fill-rule="evenodd" clip-rule="evenodd" d="M15.2478 25.1132C15.3283 25.0568 15.4156 25.0105 15.5075 24.9755C15.8356 24.8452 16.1827 24.82 16.3194 24.7779C16.4499 24.7363 16.5529 24.6789 16.7149 24.6475C16.7106 24.6843 16.707 24.719 16.7031 24.7517C16.2256 24.9019 15.7393 25.0226 15.2471 25.1132H15.2478Z" fill="#D2BA6B"/>
<path fill-rule="evenodd" clip-rule="evenodd" d="M21.2991 16.4834C21.2991 16.4834 21.2319 16.8472 21.1119 17.0766C20.992 17.306 20.8623 17.6235 20.8623 17.6235C20.8631 17.5519 20.8716 17.4807 20.8876 17.4109C20.7361 17.4993 20.368 17.7118 20.2636 17.8064C20.1647 17.8947 19.9984 18.0505 19.9564 18.1241C20.0553 17.8339 20.1583 17.573 20.1752 17.4531C20.0238 17.5625 19.3169 18.1452 18.9489 18.5301L17.8024 19.4578C17.6701 19.5292 17.5338 19.5929 17.3943 19.6489C17.1967 19.7329 16.9632 19.8044 16.7907 19.8718C16.837 19.7477 16.9105 19.6382 17.0136 19.5331C17.123 19.43 17.4511 19.0745 17.5016 18.9091C17.5479 18.7366 17.5585 18.6335 17.4974 18.4884C17.4406 18.5031 17.3102 18.5094 17.2219 18.5347C17.1336 18.5599 17.0389 18.6545 17.0389 18.6545C17.0389 18.6545 17.1061 18.2695 17.2513 17.9057C17.1419 17.9098 16.9547 17.9413 16.9547 17.9413C16.9547 17.9413 17.2155 17.5038 17.6619 17.1989C17.5252 17.228 17.3914 17.2695 17.2623 17.3229C17.0014 17.4323 16.7154 17.5942 16.5029 17.6826C16.6227 17.5162 17.4642 16.3153 17.9649 15.1961C18.4641 14.0792 18.6506 13.7931 18.76 13.1937C18.8167 12.897 18.8016 12.4587 18.8167 12.0662C18.8314 11.6769 18.8798 11.3278 18.8483 11.0942C18.9787 11.2562 19.4668 11.7127 19.4836 12.733C19.4983 13.7532 19.0167 15.1311 18.5054 15.8735C18.6302 15.9093 18.9536 15.9515 19.2858 15.3743C19.6181 14.7972 19.6141 14.6361 19.734 14.3962C19.7487 14.5161 19.7444 14.5581 19.7444 14.5581C19.7444 14.5581 20.2283 13.9713 20.4576 13.2329C20.5039 13.5506 20.6406 13.8304 20.4259 14.4131C20.2346 14.9389 19.9843 15.0673 19.9843 15.0673C19.9843 15.0673 20.1084 15.0462 20.2913 14.9368C20.3229 15.0146 20.3167 15.1032 20.3692 15.1346C20.4218 15.1659 20.4933 15.2187 20.5039 15.2692C20.5606 15.185 20.6489 15.0777 20.6764 14.9978C20.6553 15.1642 20.6406 15.8918 20.718 16.2621C20.8801 16.2474 21.0462 16.2368 21.1598 15.9444C21.082 16.2306 21.082 16.403 21.1345 16.647C21.2208 16.5882 21.2986 16.483 21.2986 16.483L21.2991 16.4834Z" fill="#C0993A"/>
<path fill-rule="evenodd" clip-rule="evenodd" d="M15.8335 4.88852C15.8335 4.88852 15.6715 4.95577 15.396 4.95577C15.1562 4.95577 15.2235 4.86328 14.8491 4.86328C14.2728 4.86328 12.2596 5.19608 11.9062 5.19137C11.6768 5.18721 12.6802 5.29024 12.6802 5.29024L15.2446 5.32601L15.7598 5.28441L15.9513 4.89476L15.8335 4.88852Z" fill="#A88F33"/>
<path fill-rule="evenodd" clip-rule="evenodd" d="M9.18395 9.90162C9.18395 9.90162 8.85573 10.1519 8.71692 10.3434C8.57811 10.5349 8.50448 10.661 8.34668 10.8167C8.38372 10.8181 8.42073 10.8131 8.45609 10.802C8.45609 10.802 8.45609 10.8436 8.43085 10.8545C8.47502 10.8496 8.51906 10.8649 8.55066 10.8961C8.50434 10.9214 8.37816 11.0477 8.47703 11.197C8.55066 11.3106 8.70638 11.321 8.70638 11.321C8.70638 11.321 8.67061 11.4242 8.81995 11.4136C9.14179 11.3989 9.5015 11.2579 9.66762 11.2937C9.83402 11.3353 9.92859 11.3506 10.0463 11.5547C10.1711 11.7566 10.2798 11.7882 10.2798 11.7882C10.2798 11.7882 10.3535 11.6008 10.3367 11.3212C10.3971 11.1704 10.4305 11.0102 10.4356 10.8479L10.3261 10.0422L9.84872 9.43848L9.23026 9.7814L9.18395 9.90121V9.90162Z" fill="#E3C571"/>
<path fill-rule="evenodd" clip-rule="evenodd" d="M9.77148 9.78161C9.77148 9.78161 9.8178 9.89101 10.0114 9.90141C9.9903 9.94773 9.9903 9.95411 9.99668 9.98975C10.0008 10.0255 10.0071 10.0781 10.0071 10.0781C10.0284 10.0678 10.0477 10.0537 10.0639 10.0365C10.0745 10.0828 10.0534 10.1563 10.0639 10.209C10.0704 10.241 10.081 10.2721 10.0954 10.3015C10.0985 10.2943 10.102 10.2873 10.1059 10.2805C10.1101 10.27 10.1475 10.3941 10.2511 10.4885C10.251 10.474 10.2546 10.4597 10.2615 10.4469C10.2631 10.4733 10.2718 10.4988 10.2868 10.5206C10.279 10.5169 10.2719 10.5119 10.2658 10.5059C10.2658 10.5059 10.2762 10.8387 10.3331 11.0107C10.3426 10.9996 10.351 10.9877 10.3583 10.975C10.3583 10.9646 10.3542 11.0676 10.3436 11.1414C10.3289 11.215 10.3395 11.318 10.3395 11.318C10.3774 11.2882 10.4191 11.2634 10.4634 11.2444C10.5265 11.219 10.6298 11.1412 10.6928 10.9687C10.7293 10.871 10.7575 10.7704 10.777 10.668C10.7973 10.7071 10.8113 10.7492 10.8186 10.7928C10.8229 10.8453 10.9217 10.818 10.9217 10.818L10.9428 10.5886L11.0676 10.0691L11.1812 9.74722L11.7281 8.89539L12.7162 8.13439L13.5787 8.33212L14.3064 7.34343L13.0528 6.59033L11.8663 6.71444L10.7896 8.2058L9.92721 9.55849L9.77148 9.78147L9.77148 9.78161Z" fill="#D8B65B"/>
<path fill-rule="evenodd" clip-rule="evenodd" d="M15.9848 7.62313C15.9848 7.62313 15.9112 7.63783 15.6988 7.74793C15.4863 7.85803 15.3391 7.89298 15.257 8.05494C15.1749 8.2169 15.1686 8.34531 15.1686 8.34531C15.1686 8.34531 15.3138 8.28222 15.398 8.26114C15.4863 8.2402 15.5852 8.24644 15.5747 8.28221C15.5645 8.30675 15.5505 8.32946 15.5331 8.34947C15.5331 8.34947 15.6995 8.34531 15.695 8.4274C15.6906 8.50949 15.6635 8.5999 15.6321 8.63984C15.6005 8.68144 15.4701 8.743 15.4554 8.7914C15.4196 8.89027 15.4701 8.89443 15.4511 8.9743C15.4364 9.05223 15.3671 9.20365 15.1398 9.46865C14.9063 9.73378 14.807 9.92098 14.807 9.92098C14.807 9.92098 14.6934 9.70854 14.6345 9.5255C14.5929 9.54644 14.3695 9.67055 14.3695 9.67055L13.852 7.86788L13.8624 7.74793C13.8624 7.74793 13.9087 7.69122 13.9193 7.58597C13.8415 7.56073 13.8309 7.53966 13.7278 7.44092C13.6246 7.34219 13.5406 7.22211 13.3682 7.14002C13.343 7.0937 13.3113 7.03075 13.1852 7.00537C13.059 6.98 12.9833 6.9592 12.9833 6.9592C12.9833 6.9592 13.0505 6.93382 13.0821 6.88127C13.0042 6.8918 12.9412 6.91704 12.7708 6.91288C12.5983 6.90858 12.5793 6.90234 12.4848 6.91704C12.3902 6.93174 12.2768 6.97389 12.2345 6.82871C12.1881 6.79293 12.0893 6.82455 12.0051 6.94852C11.9209 7.07249 11.8915 7.1715 11.7296 7.21989C11.7182 7.29128 11.6932 7.35982 11.6559 7.42179C11.6096 7.49972 11.536 7.57751 11.4371 7.69316C11.2814 7.8762 11.3066 8.17697 11.0584 8.40632C10.8081 8.63554 11.1 7.77095 11.1 7.77095L11.4997 6.81415L12.6377 5.70135L14.4047 5.58154L14.5772 6.49674L15.4397 6.79335L15.9846 7.62424L15.9848 7.62313Z" fill="#D3AE4D"/>
<path fill-rule="evenodd" clip-rule="evenodd" d="M16.2649 7.82512L15.5224 6.75448L15.0028 6.3547C15.0028 6.3547 14.6325 5.67329 14.6073 5.65221C14.5862 5.63752 14.2371 5.59966 14.0141 5.58496L14.0557 5.68799C14.1044 5.7038 14.1476 5.73296 14.1805 5.77216C14.2794 5.88573 14.3425 6.10025 14.1174 6.3296C14.2057 6.36108 14.2422 6.3712 14.3193 6.36108C14.2415 6.45371 14.0648 6.65145 14.0543 6.82395C14.0438 6.96483 14.1321 7.00685 14.1321 7.00685C14.1321 7.00685 13.9975 7.16257 13.9912 7.42285C14.0548 7.35114 14.1244 7.28499 14.1992 7.22511C14.3549 7.10031 14.5695 6.95998 14.7146 6.87165C14.7127 6.90872 14.7176 6.94583 14.7293 6.98106C14.7293 6.98106 15.0006 6.75808 15.2285 6.85695C15.3316 6.90326 15.2852 7.04845 15.2852 7.04845C15.2852 7.04845 15.4263 6.99589 15.5251 7.09476C15.624 7.19363 15.7649 7.44809 15.8364 7.54709C15.8679 7.59341 15.95 7.68174 16.034 7.81833C16.1489 8.00978 16.2447 8.21199 16.3203 8.42208C16.3244 8.33791 16.3413 8.22018 16.4867 8.22018L16.2658 7.82471L16.2649 7.82512Z" fill="#CAA13E"/>
<path fill-rule="evenodd" clip-rule="evenodd" d="M5.13273 10.8671C5.13273 10.8671 5.08018 10.7367 5.13273 10.4822C5.18529 10.2277 5.26738 10.1078 5.2947 9.7334C5.32201 9.359 5.56607 8.89197 5.56607 8.89197L6.24123 8.58496L6.7188 8.71531L6.85969 9.35484L6.25593 9.68764C6.25593 9.68764 6.22446 9.82852 6.05403 9.94209C5.88361 10.0557 5.64802 10.144 5.5913 10.2598C5.5574 10.3307 5.53266 10.4056 5.51767 10.4828C5.51767 10.4828 5.34517 10.447 5.24214 10.5605C5.13273 10.6763 5.13689 10.7794 5.13273 10.8677V10.8671Z" fill="#F4EFC8"/>
<path fill-rule="evenodd" clip-rule="evenodd" d="M6.49563 10.6968C6.49563 10.6968 6.43878 10.7326 6.39676 10.8216C6.35516 10.7544 6.25574 10.3546 6.25158 9.99492C6.24742 9.63522 6.22592 9.54605 6.30912 9.42209C6.39232 9.29812 6.71861 9.16749 6.67229 8.94424C6.62598 8.7318 6.4324 8.64347 6.19472 8.70449C6.02832 8.74609 5.90449 9.09996 5.73199 9.27662C5.60151 9.41127 5.44592 9.39019 5.40391 9.46382C5.34705 9.56269 5.39961 9.66156 5.38283 9.72466C5.37853 9.74573 5.32598 9.8593 5.23127 9.99603C5.03991 10.2716 4.71598 10.6608 4.67383 11.01C4.68853 10.8122 4.67813 10.8081 4.73068 10.5892L4.69907 10.5367L4.90707 9.85514L5.04171 9.29354L5.34262 8.3531L5.8726 7.39187L6.38803 6.81543L6.92439 6.85121L6.98748 7.65686L7.29463 9.16944L7.9404 9.96455L6.90539 10.6611L6.49521 10.6968H6.49563Z" fill="#EBCC73"/>
<path fill-rule="evenodd" clip-rule="evenodd" d="M6.8172 10.9823C6.8172 10.9823 6.72887 11.0033 6.69725 10.9866C6.66564 10.9698 6.6343 10.9508 6.6447 10.9297C6.6551 10.9086 6.71195 10.873 6.71195 10.8561C6.71438 10.8243 6.69109 10.7963 6.6594 10.793C6.611 10.7867 6.5963 10.8182 6.5963 10.8182C6.5963 10.8182 6.54999 10.7826 6.51227 10.7766C6.53459 10.7739 6.55704 10.7725 6.57952 10.7723C6.52139 10.746 6.45973 10.7283 6.39648 10.7198C6.44904 10.6883 6.55221 10.5957 6.61946 10.5957C6.68671 10.5957 6.72887 10.5853 6.71833 10.5495C6.70779 10.5137 6.65524 10.4612 6.59852 10.4401C6.61946 10.4148 6.6343 10.377 6.58382 10.2737C6.53113 10.1707 6.55221 10.1012 6.56912 10.0761C6.58382 10.0445 6.63638 9.98775 6.66162 9.95198C6.68685 9.9162 6.70793 9.86781 6.74995 9.84257C6.77102 9.82787 6.83828 9.80097 6.90567 9.77532C6.9793 9.75008 7.04031 9.71846 7.08233 9.75008C7.12864 9.78156 7.10757 9.82371 7.10757 9.82371C7.10757 9.82371 7.25275 9.77102 7.3831 9.83841C7.51358 9.90136 7.83127 9.94144 7.83127 9.94144L7.94511 10.1708L7.19202 10.8166L6.88071 10.9723L6.81762 10.9827L6.8172 10.9823Z" fill="#E5C66B"/>
<path fill-rule="evenodd" clip-rule="evenodd" d="M7.86339 9.92658C7.86339 9.92658 7.62987 10.0823 7.57732 10.139C7.60879 10.1433 7.66135 10.1644 7.64027 10.1959C7.61503 10.2273 7.46361 10.3368 7.37944 10.4399C7.29111 10.543 7.20694 10.6734 7.17754 10.7365C7.14606 10.7932 6.90617 10.9595 6.82422 10.9804C6.99672 10.9804 7.3438 10.768 7.47415 10.768C7.46999 10.8311 7.50993 10.9027 7.58356 10.9089C7.65719 10.9151 7.86963 10.9552 8.1557 10.7785C8.44177 10.606 8.34719 10.4776 8.467 10.3936C8.69636 10.242 8.78885 10.1074 8.91503 10.0234C9.04122 9.93934 9.10653 9.9202 9.10653 9.9202C9.10653 9.9202 9.11069 9.85711 9.14813 9.86349C9.16902 9.86588 9.18686 9.87966 9.19445 9.89926C9.19445 9.89926 9.41326 9.74354 9.69365 9.70153C9.68711 9.6986 9.68187 9.69337 9.67895 9.68683C9.67895 9.68683 9.69989 9.67629 9.70419 9.66575C9.70419 9.66575 9.71889 9.64467 9.72942 9.65521C9.73996 9.66575 9.75466 9.74354 9.77574 9.77516C9.82205 9.75408 9.91038 9.55634 9.91038 9.55634L10.123 8.94843V8.39307L9.95656 8.42468L8.70856 8.95467L7.95116 9.73938L7.86283 9.92658H7.86339Z" fill="#E6BD62"/>
<path fill-rule="evenodd" clip-rule="evenodd" d="M11.4563 7.20266C11.5238 7.18628 11.5885 7.16002 11.6483 7.12473C11.6231 7.19212 11.6231 7.26576 11.5137 7.42564C11.4043 7.58552 11.4001 7.60868 11.3118 7.7748C11.2234 7.9473 11.2129 8.19552 11.1287 8.30479C11.1665 8.28645 11.2069 8.27442 11.2485 8.26915C11.2485 8.26915 11.1645 8.34278 11.1287 8.42057C11.093 8.49836 11.0299 8.66033 10.8743 8.75933C10.7187 8.85834 10.5208 8.9213 10.3084 9.15481C10.0958 9.38403 9.87712 9.6744 9.76758 9.77881C9.82443 9.67994 9.90222 9.4822 9.9233 9.35186C9.94438 9.22151 9.919 9.06565 9.95478 8.89329C9.99055 8.72092 9.99055 8.59668 10.1628 8.29577C10.335 7.99487 10.6298 6.94946 10.6298 6.94946L11.265 6.74756L11.4565 7.20197L11.4563 7.20266Z" fill="#B6933F"/>
<path fill-rule="evenodd" clip-rule="evenodd" d="M10.9969 6.81764C10.9969 6.81764 10.8056 7.09317 10.753 7.33722C10.7005 7.58128 10.7487 7.5602 10.7172 7.68015C10.6984 7.75328 10.6984 7.82999 10.7172 7.90312C10.7835 7.79635 10.8743 7.7069 10.982 7.64215C11.1629 7.53288 11.3102 7.45495 11.398 7.36246C11.4863 7.26359 11.5599 7.10163 11.7513 6.97752C11.6735 6.96698 11.5641 6.93121 11.5433 6.93592C11.6212 6.84759 11.8546 6.71295 12.0902 6.55098C12.3237 6.38458 12.309 6.31747 12.6877 6.15135C12.5636 6.17242 12.5047 6.14081 12.4015 6.15135C12.4431 6.06301 12.5887 6.02086 12.7343 5.87581C12.8799 5.73077 12.6418 5.51611 12.6418 5.51611L11.5325 6.18712L10.9961 6.81819L10.9969 6.81764Z" fill="#C49937"/>
<path fill-rule="evenodd" clip-rule="evenodd" d="M7.9873 6.31698L8.01254 6.11508L8.33023 5.60603L8.66261 4.71205V3.48984L8.63737 2.78306L8.68993 2.32019L8.72986 2.17306L8.77202 2.11621L9.04325 2.2571L9.41779 2.76614L9.45357 3.74859L9.08957 5.29889L8.0504 6.43277L7.9873 6.31698Z" fill="#DFC068"/>
<path fill-rule="evenodd" clip-rule="evenodd" d="M8.81403 2.05941C8.81403 2.05941 8.64763 2.06371 8.61213 2.7558C8.57663 3.44788 8.55943 3.81174 8.5342 4.15467C8.50896 4.49759 8.45016 4.70573 8.42063 4.90777C8.39109 5.1098 8.37431 5.38519 8.27974 5.55354C8.23814 5.63133 8.14926 5.87538 7.94098 6.05842C7.70747 6.26032 7.35858 6.40134 7.30575 6.41188C7.21312 6.43282 6.74401 6.47914 6.55265 6.58438C6.4854 6.62016 6.36961 6.66218 6.24134 6.78212C5.98675 7.01134 5.64813 7.42151 5.40407 7.91586C5.02967 8.65426 4.65527 10.7388 4.65527 10.7388L4.73944 10.598C4.73944 10.598 4.74998 10.4108 4.93718 10.0825C5.12022 9.75444 5.06767 9.38628 5.32212 8.75729C5.42099 8.51754 5.5451 8.20623 5.69652 7.9411C5.93641 7.50985 6.22664 7.13961 6.51909 6.93771C6.99652 6.60962 7.52248 6.53807 7.52248 6.53807L8.08838 6.16367C8.08838 6.16367 8.18725 5.97231 8.31774 5.75349C8.50064 5.44649 8.73374 5.10356 8.78463 4.60506C8.86256 3.86666 8.67522 3.38285 8.68576 2.94535C8.6963 2.50786 8.70046 2.18602 8.78893 2.10808C8.8774 2.03015 8.81416 2.05969 8.81416 2.05969L8.81403 2.05941Z" fill="#A88F33"/>
<path fill-rule="evenodd" clip-rule="evenodd" d="M8.81424 5.36175C8.81424 5.36175 9.06384 4.74745 9.1781 4.20263C9.19918 4.09322 9.24119 3.98396 9.25173 3.89562C9.30429 3.3802 9.31899 3.16776 9.25173 2.88585C9.19918 2.67785 8.99728 2.49038 8.89203 2.34505C8.789 2.19349 8.74061 2.13705 8.76169 2.10516C8.78276 2.07327 8.86471 2.02113 8.94459 2.02737C9.11617 2.03236 9.27818 2.10755 9.39276 2.23537C9.55472 2.42257 9.68299 3.05794 9.68299 3.05794L9.81791 3.89632L10.1608 4.95226L8.81452 5.36258L8.81424 5.36175Z" fill="#C99E3D"/>
<path fill-rule="evenodd" clip-rule="evenodd" d="M11.1595 4.7227C11.1595 4.7227 11.1132 4.74364 11.0292 4.7227C11.0365 4.79271 11.004 4.86093 10.945 4.89936C10.8567 4.86358 10.0298 4.93513 10.0298 4.93513C10.0298 4.93513 9.64489 4.86774 9.52494 4.3587C9.44091 4.01993 9.58804 3.55304 9.53964 3.2459C9.46601 2.79357 9.36298 2.7051 9.35244 2.56435C9.3419 2.4236 9.33137 2.38769 9.33137 2.29936C9.28505 2.28882 9.25773 2.27412 9.21156 2.27412C9.20102 2.23252 9.22196 2.19619 9.17578 2.12256C9.20102 2.1331 9.37352 2.15417 9.57542 2.34553C9.74182 2.50126 9.74182 2.55797 9.76692 2.58959C9.79839 2.62107 10.053 2.83919 10.1624 3.05662C10.2718 3.27405 10.4842 3.96738 10.5326 4.08095C10.5473 4.12726 10.5789 4.17358 10.6574 4.27869C10.7795 4.43025 10.9582 4.68082 11.1601 4.72242L11.1595 4.7227Z" fill="#B58634"/>
<path fill-rule="evenodd" clip-rule="evenodd" d="M9.7959 2.6001C9.92333 2.80595 10.0378 3.01954 10.1387 3.23963C10.2628 3.51932 10.3364 3.74867 10.4921 3.93587C10.408 3.69196 10.2586 3.21231 10.1703 3.04189C10.0714 2.86162 9.86953 2.66749 9.7959 2.60024V2.6001Z" fill="#A88F33"/>
<path fill-rule="evenodd" clip-rule="evenodd" d="M8.36581 6.05824C8.36581 6.05824 8.15337 6.1108 7.75789 6.31908C7.62741 6.38633 7.50344 6.44304 7.38349 6.49574C7.07191 6.63662 6.73772 6.76683 6.47259 6.83866C6.49367 6.8639 6.50407 6.8743 6.50407 6.8743C6.50407 6.8743 6.50407 6.97747 6.56092 7.03626C6.52945 7.06788 6.10859 7.35395 6.23284 8.31102C6.31687 8.27955 6.41574 8.23739 6.43044 8.23739C6.45581 8.24169 6.46205 8.31102 6.49353 8.31102C6.52501 8.31102 6.62818 8.26942 6.73758 8.12798C6.73342 8.18484 6.67033 8.75697 7.00896 9.14191C7.07205 9.06828 7.23193 8.82423 7.23193 8.82423L7.23609 8.74644C7.23609 8.74644 7.25079 8.47507 7.33926 8.22685C7.42773 7.97864 7.60009 7.7956 7.60009 7.7956L8.50018 6.5103L8.36553 6.05811L8.36581 6.05824Z" fill="#E6C367"/>
<path fill-rule="evenodd" clip-rule="evenodd" d="M7.52484 7.94555C7.48363 7.97467 7.43823 7.99735 7.39019 8.01281C7.37549 7.96025 7.35442 7.77929 7.47852 7.60263C7.62371 7.39006 7.94125 7.11453 8.02958 6.89543C8.08644 6.75441 8.0612 6.40109 8.56608 5.94875C9.07097 5.49642 9.26857 5.34084 9.26857 5.34084L10.0848 4.93066L11.0882 5.32614L10.5896 7.27995L10.2026 8.19515L8.66343 7.90493L7.5247 7.94555H7.52484Z" fill="#DCBA5A"/>
<path fill-rule="evenodd" clip-rule="evenodd" d="M8.1123 7.41505L8.3038 7.17529V7.00487C8.3038 7.00487 8.51624 6.94802 8.74546 6.71451C8.97467 6.48099 9.29236 6.03296 9.57219 6.06028C9.85202 6.09189 9.87933 6.66819 9.88987 6.83029C9.90041 6.99239 9.93619 7.36028 9.9929 7.55815C10.056 7.75589 9.31136 8.50469 9.31136 8.50469L8.80564 8.88963L8.1123 7.41505Z" fill="#E9CE77"/>
<path fill-rule="evenodd" clip-rule="evenodd" d="M8.7041 9.41124C8.7041 9.41124 8.85982 9.16718 8.7457 9.11463C8.81295 8.9632 8.93706 8.80332 8.93706 8.80332C8.93706 8.80332 9.02539 8.58464 9.31146 8.31535C9.59753 8.04606 9.77433 7.86718 9.82065 7.68636C9.8492 7.56852 9.86473 7.44789 9.86696 7.32666C9.89789 7.35193 9.93097 7.37443 9.96583 7.39391C10.0121 7.41499 10.2308 7.59581 10.1993 7.95981C10.1679 8.32381 10.0329 8.47524 10.0329 8.47524C10.0329 8.47524 9.9026 8.60558 9.81011 8.67297C9.7111 8.74023 9.67546 8.81802 9.5092 8.8244C9.52629 8.81081 9.5455 8.80013 9.56605 8.79278C9.56605 8.79278 9.39355 8.77184 9.30092 8.85588C9.20829 8.93991 9.01139 9.1988 8.91252 9.27673C8.81365 9.33982 8.70452 9.41137 8.70452 9.41137L8.7041 9.41124Z" fill="#CDAE50"/>
<path fill-rule="evenodd" clip-rule="evenodd" d="M15.6994 5.31968C15.4508 5.2291 15.1897 5.17801 14.9253 5.16825C14.4835 5.15355 13.8378 5.17879 13.2046 5.18295C12.5231 5.18711 11.9046 4.94944 11.0464 4.90742C10.9055 4.82325 10.5472 4.45509 9.42871 5.2355C9.49596 5.23134 10.2407 5.063 10.4994 5.38707C10.7602 5.70891 10.6866 6.25581 10.6509 6.38616C10.5835 6.67653 10.3647 7.09932 10.2765 7.39593C10.1883 7.69254 10.2091 7.8484 10.146 8.0564C10.0829 8.2644 9.94413 8.36771 10.0261 8.60746C10.1355 8.54021 10.1925 8.54021 10.3752 8.13003C10.558 7.71986 10.5204 7.42741 10.8234 7.08033C11.12 6.73116 11.6138 6.2536 11.8016 6.13365C11.9893 6.0137 13.4801 5.23966 15.0411 5.97807C15.4176 5.93813 15.6995 5.31954 15.6995 5.31954L15.6994 5.31968Z" fill="#D2A83E"/>
<path fill-rule="evenodd" clip-rule="evenodd" d="M10.057 5.03338C10.0555 5.01757 10.052 5.00202 10.0466 4.98707C10.032 4.9563 10.0129 4.92792 9.98978 4.90289C9.98978 4.90289 9.61954 4.83564 9.43234 4.85658C9.10411 4.89236 8.80751 5.29837 8.6687 5.50665C8.5299 5.71493 8.35739 6.03663 8.17019 6.20289C8.17224 6.1867 8.16851 6.1703 8.15966 6.15658C8.15966 6.15658 8.17019 6.17128 8.14926 6.19236C8.12832 6.21343 8.12818 6.22383 8.13872 6.23396L8.17033 6.26543C8.18073 6.26543 8.4711 6.13495 8.86658 5.76623C9.28729 5.38129 9.60914 5.18383 9.77748 5.11616C9.86725 5.07801 9.96109 5.05024 10.0572 5.03338H10.057Z" fill="#C29637"/>
<path fill-rule="evenodd" clip-rule="evenodd" d="M17.2388 3.45215C17.2388 3.45215 17.1714 3.53618 17.0873 3.62881C16.9001 3.82655 16.656 4.04939 16.4477 4.27874C16.2501 4.49756 16.0272 4.66798 15.7767 4.95405C15.5263 5.24012 15.2359 5.55766 15.1624 5.65029C15.0952 5.74292 15.0426 5.89435 15.0426 5.97214C15.0069 5.9469 14.9648 5.91958 14.9648 5.91958C14.9825 5.95261 15.0037 5.98366 15.0279 6.01221C15.0805 6.08584 15.1624 6.17861 15.2046 6.23519C15.2563 6.30721 15.2934 6.38866 15.3139 6.47494C15.3391 6.4791 15.5011 6.51072 15.7031 6.17834C15.9051 5.84595 16.17 5.48209 16.17 5.48209L16.5907 4.85726L16.8558 4.32727L17.1886 3.73406L17.2393 3.45215H17.2388Z" fill="#AC8132"/>
<path fill-rule="evenodd" clip-rule="evenodd" d="M17.6697 3.02686C17.6697 3.02686 17.4151 3.23486 17.3162 3.35966C17.2173 3.48446 16.9834 3.81199 16.9834 3.81199L17.0676 3.80145L17.4947 3.42289L17.6611 3.12628L17.6695 3.02741L17.6697 3.02686Z" fill="#A88F33"/>
<path fill-rule="evenodd" clip-rule="evenodd" d="M17.5919 19.7443C17.5919 19.7443 17.5878 19.5718 17.6846 19.4687C17.7834 19.3656 18.0337 19.2141 18.2778 18.6462C18.5218 18.0782 18.549 17.9499 18.549 17.9499C18.549 17.9499 18.1115 18.3243 17.8418 18.4127C17.9049 18.2822 17.9407 18.1897 17.9723 18.1223C17.9365 18.0908 17.7851 18.055 17.7704 18.0383C17.8544 17.9541 17.9007 17.7479 18.0712 17.6112C18.29 17.4448 18.6896 17.1588 19.0002 16.904C19.3108 16.6491 19.9215 16.0563 19.9995 15.8838C20.0458 15.951 20.0562 15.9931 20.0562 15.9931C20.0562 15.9931 19.7492 16.3928 19.5893 16.6473C19.4483 16.8661 19.4588 16.9902 19.4588 16.9902L19.7492 16.8654C19.7492 16.8654 19.8332 17.1767 19.4526 17.6501C19.619 17.587 19.6861 17.6249 19.7806 17.5722C19.6249 17.6712 19.4104 17.8058 19.2085 18.1759C19.0108 18.5462 18.7415 18.9774 18.2872 19.2466C17.8454 19.5306 17.5908 19.743 17.5908 19.743L17.5919 19.7443Z" fill="#A67A2E"/>
<path fill-rule="evenodd" clip-rule="evenodd" d="M16.4516 5.53859C16.4516 5.53859 16.2791 5.89815 16.2539 6.17798C16.2497 6.24538 16.2328 6.29793 16.2328 6.37572C16.2286 6.62602 16.2475 6.90585 16.1912 7.03619C16.1701 6.98364 16.1596 6.94786 16.1385 6.92692C16.107 7.01525 16.0502 7.29078 16.0039 7.39381C15.9829 7.32656 15.9366 7.09305 15.9409 6.81751C15.9452 6.54198 15.9513 6.48929 15.9513 6.43258C15.9409 6.51661 15.8841 6.63031 15.863 6.69757C15.8315 6.64085 15.7957 6.56722 15.7536 6.50621C15.7283 6.54781 15.6969 6.60924 15.6695 6.64085C15.6652 6.61562 15.6548 6.54822 15.6485 6.45365C15.6443 6.34425 15.6379 6.20336 15.6443 6.17382C15.6547 6.11711 15.7432 5.89413 15.9304 5.69002C16.1533 5.44596 16.3827 4.97699 16.45 4.83181C16.5172 4.68662 16.8033 4.08301 16.8033 4.08301H17.0221L16.7044 4.80657C16.7044 4.80657 16.513 5.20205 16.4142 5.34737C16.3153 5.49269 16.107 5.90911 16.0144 6.07107C16.0817 5.98274 16.1385 5.93643 16.2059 5.85226C16.2711 5.79332 16.4519 5.53887 16.4519 5.53887L16.4516 5.53859Z" fill="#8C6228"/>
<path fill-rule="evenodd" clip-rule="evenodd" d="M17.674 2.99951C17.6382 3.10952 17.5818 3.21166 17.5076 3.30042C17.3771 3.45614 17.0973 3.66428 16.9607 3.8304C16.8359 3.99237 16.5863 4.43416 16.6997 4.9579C16.7413 4.84433 16.8197 4.61928 17.0279 4.36469C17.2362 4.11009 17.4592 3.81778 17.5687 3.59065C17.678 3.36129 17.6927 3.18047 17.6927 3.18047L17.7343 3.12792L17.7091 3.00797L17.6733 2.99951L17.674 2.99951Z" fill="#CBA94C"/>
<path fill-rule="evenodd" clip-rule="evenodd" d="M21.934 16.9524C21.934 16.9524 21.8498 16.7232 21.8246 16.5149C21.7993 16.3066 21.8662 16.2653 21.7888 16.0269C21.7425 15.8817 21.6585 15.9021 21.6374 15.8817C21.6163 15.8613 21.6016 15.642 21.6058 15.522C21.6099 15.4021 21.6016 15.2465 21.5805 15.1791C21.5491 15.1539 21.528 15.1328 21.4817 14.9772C21.4291 14.8215 21.4039 14.7437 21.3786 14.6975C21.3534 14.6513 21.2796 14.6092 21.2796 14.5629C21.2796 14.4702 21.3638 14.422 21.3638 14.3965C21.3596 14.3439 21.2965 14.3861 21.2796 14.3712C21.2587 14.346 21.3323 14.1946 21.305 14.1735C21.2945 14.1631 21.2208 14.2514 21.2018 14.2262C21.1808 14.2008 21.1555 13.9505 21.1177 13.7844C21.082 13.6224 21.044 13.5047 21.0399 13.4563C21.0357 13.41 20.7495 12.5938 20.6802 12.3961C20.6243 12.229 20.5773 12.0591 20.5393 11.887C20.5182 11.7881 20.5035 11.5861 20.493 11.6072C20.4824 11.6283 20.4888 11.7313 20.4719 11.7271C20.4572 11.7228 20.4046 11.3633 20.3879 11.3064C20.3732 11.2496 20.2847 11.0568 20.2631 10.9173C20.242 10.7763 20.1958 10.4081 20.1642 10.1578C20.1326 9.90755 20.1179 9.80452 20.1179 9.74184C20.123 9.58854 20.1146 9.43508 20.0926 9.28327C20.051 9.01814 19.9678 8.69629 19.8949 8.50923C19.754 8.15577 19.3795 7.25125 19.3125 7.02619C19.3125 6.96934 19.3861 7.00095 19.3861 7.00095C19.3861 7.00095 19.569 7.45952 19.7037 7.81285C19.8342 8.16631 19.9583 8.47761 19.9899 8.50923C20.0151 8.54071 20.2129 8.88779 20.3012 9.45577C20.3895 10.0237 20.421 10.5475 20.4737 10.8967C20.4989 11.0631 20.52 11.2396 20.5726 11.4162C20.6293 11.6077 20.7176 11.8055 20.8334 12.1083C20.9323 12.3629 21.0059 12.5754 21.0458 12.7584C21.0921 12.9919 21.0921 13.1686 21.1195 13.2844C21.1448 13.3832 21.1826 13.5808 21.271 13.8668C21.3595 14.1527 21.4897 14.521 21.578 14.7502C21.7507 15.2088 21.8276 15.5916 21.8537 15.7957C21.8767 16.0061 21.9547 16.734 21.9336 16.9526L21.934 16.9524Z" fill="#A88F33"/>
<path fill-rule="evenodd" clip-rule="evenodd" d="M17.6851 2.97441L17.6745 2.99965C17.6745 2.99965 17.706 3.01019 17.6998 3.05234C17.7002 3.11002 17.6967 3.16765 17.6892 3.22485C17.6788 3.29848 17.6578 3.35519 17.6536 3.40151C17.6536 3.50038 17.6683 3.61394 17.5288 3.89585C17.4872 3.97365 17.4615 4.0409 17.4405 4.08721C17.3879 4.20078 17.3774 4.2177 17.3311 4.27025C17.4047 4.22865 17.6698 4.06225 17.8043 4.08721C17.7118 4.13977 17.5708 4.24294 17.4825 4.37758C17.5036 4.38174 17.5919 4.39866 17.7321 4.37758C17.9656 4.34181 18.2264 4.25763 18.4556 4.27441C18.7061 4.28911 18.6072 3.97365 18.6072 3.97365L18.3182 3.33841L17.7713 2.95361L17.6851 2.97455V2.97441Z" fill="#BE9C44"/>
<path fill-rule="evenodd" clip-rule="evenodd" d="M19.1106 7.73292C19.1106 7.73292 18.8666 7.48887 18.7677 6.65132C18.6688 5.80989 18.6899 4.57132 18.6899 4.57132L18.4922 4.08751C18.4922 4.08751 18.4506 3.76567 18.347 3.64586C18.2434 3.52605 18.04 3.32401 17.9474 3.22514C17.8547 3.12628 17.7496 2.99163 17.6865 2.97055C17.718 2.918 17.859 2.62139 18.3995 2.61723C18.9401 2.61307 19.1067 2.91384 19.1632 3.02325C19.2196 3.13265 19.4745 3.60565 19.5691 4.50698C19.6574 5.4072 19.6617 5.4746 19.647 5.7859C19.6365 5.9584 19.5796 6.35804 19.4806 6.785C19.3902 7.14692 19.2913 7.55085 19.1104 7.73375L19.1106 7.73292Z" fill="#A17C34"/>
<path fill-rule="evenodd" clip-rule="evenodd" d="M18.3456 8.44993C18.427 8.4558 18.5082 8.43746 18.5791 8.39723C18.6569 8.39307 18.9388 8.42885 19.1554 8.15332C19.1701 8.21627 19.2081 8.38683 19.1091 8.53826C19.1618 8.48557 19.2396 8.46463 19.2501 8.44993C19.2543 8.52772 19.3279 8.76747 19.0166 9.35015C19.1007 9.25766 19.1995 9.26182 19.2879 9.25128C19.2922 9.36069 19.351 9.72871 19.1954 9.92659C19.0923 10.0612 18.924 10.0191 18.924 10.0191C18.9265 9.98969 18.9265 9.96014 18.924 9.93075C18.9198 9.8739 18.8988 9.81718 18.9136 9.77933C18.8323 9.74217 18.7582 9.69085 18.6948 9.62776C18.5117 9.45526 18.2741 9.16087 18.2573 8.94206C18.2362 8.698 18.455 8.64545 18.455 8.64545C18.4367 8.62905 18.4211 8.60986 18.4087 8.58859C18.3982 8.55296 18.3876 8.4961 18.3456 8.44993Z" fill="#8C6228"/>
<path fill-rule="evenodd" clip-rule="evenodd" d="M16.7235 5.80352C16.7235 5.80352 16.713 5.78882 16.6562 5.85608C16.6668 5.78882 16.6773 5.72559 16.6815 5.66458C16.7083 5.60809 16.7431 5.55571 16.7847 5.509C16.753 5.57195 16.732 5.6288 16.732 5.6288C16.732 5.6288 16.8099 5.48362 16.9235 5.39529C17.0013 5.3322 17.1001 5.3028 17.1421 5.24386C17.1885 5.18077 17.1779 5.17023 17.1885 5.15969C17.1885 5.15969 17.2916 5.09244 17.4494 4.89456C17.4704 4.86933 17.502 4.84201 17.5231 4.81677C17.5587 4.80207 17.6429 4.76422 17.7417 4.7136C17.8449 4.65689 17.9605 4.5791 18.0321 4.5472C18.173 4.48411 18.3225 4.49049 18.3918 4.39148C18.4444 4.37678 18.5011 4.21898 18.4907 4.08447C18.5685 4.11595 18.9681 4.36416 19.105 4.9069C19.2038 5.29184 19.027 5.88506 18.9534 6.17127C18.8798 6.45748 18.8694 6.66977 18.7662 6.80012C18.6357 6.97276 18.2151 7.21612 18.112 7.33662C18.0236 7.43549 17.7587 7.68578 17.7691 7.86661C17.7796 8.00125 17.9457 8.07461 17.9816 8.10012C18.0175 8.12564 18.0173 8.15697 18.0847 8.14172C18.152 8.12647 18.1771 8.09541 18.2046 8.09541C18.2361 8.09957 18.2361 8.10594 18.2508 8.10594C18.2614 8.10563 18.272 8.10419 18.2824 8.10165C18.2824 8.10165 18.2719 8.29314 17.8238 8.35125C17.7922 8.35555 17.7607 8.36594 17.7207 8.37232C17.7733 8.34709 17.8048 8.34709 17.8617 8.26929C17.7986 8.25876 17.6176 8.24822 17.5713 8.23352C17.586 8.20828 17.6344 8.14089 17.6743 8.10941C17.7101 8.07793 17.6702 8.06781 17.6387 8.08417C17.5845 8.12105 17.5325 8.16105 17.483 8.20398C17.4304 8.2503 17.3841 8.31339 17.2999 8.37038C17.2747 8.28621 17.2789 8.12633 17.3779 8.01068C17.3525 8.01484 17.3041 8.08847 17.2579 8.07377C17.2496 7.99705 17.2545 7.91945 17.2726 7.84442C17.2979 7.74971 17.4346 7.58359 17.4346 7.58359L18.0951 6.4034L18.2359 5.50941L16.7235 5.80325V5.80352Z" fill="#92723A"/>
<path fill-rule="evenodd" clip-rule="evenodd" d="M16.6873 5.8542C16.6873 5.8542 16.6515 5.87943 16.723 5.92783C16.7125 5.94253 16.6873 5.99508 16.6557 6.03086C16.62 6.07246 16.582 6.09825 16.5673 6.13403C16.5358 6.20766 16.5106 6.25813 16.5106 6.28975C16.5106 6.32136 16.5001 6.52326 16.4117 6.65361C16.3801 6.69992 16.3443 6.77772 16.3191 6.83027C16.2666 6.92276 16.2202 6.99667 16.2097 7.03827C16.1888 7.1119 16.1741 7.3138 16.1741 7.3138C16.1741 7.3138 16.2204 7.25695 16.2372 7.23601C16.2118 7.28856 16.1845 7.34528 16.1445 7.38743C16.1698 7.36636 16.2434 7.3138 16.3675 7.20439C16.54 7.05935 16.8093 6.8153 17.1375 6.62199C17.0385 6.65777 16.9545 6.65777 16.8872 6.66831C16.9398 6.61575 17.4131 6.06039 17.6613 6.00784C17.6763 5.98873 17.6838 5.96474 17.6823 5.94045L17.4698 5.91951L17.0385 6.012L16.9756 5.6792L16.6873 5.85378V5.8542Z" fill="#B18E3E"/>
<path fill-rule="evenodd" clip-rule="evenodd" d="M17.3734 7.7473C17.3734 7.7473 17.3166 7.80402 17.264 7.94504C17.2236 7.90279 17.1889 7.85537 17.1609 7.80402C17.0831 7.67367 16.9633 7.50741 16.6834 7.60212C16.6793 7.51379 16.6729 7.46747 16.6834 7.40438C16.7297 7.39398 16.8706 7.28041 17.0115 7.11415C17.1105 7.00058 17.203 6.8701 17.2661 6.70398C17.3077 6.67236 17.3797 6.6198 17.4741 6.55879C17.6087 6.4663 17.7707 6.33998 17.7959 6.19909C17.7329 6.22433 17.5982 6.28742 17.3962 6.27702C17.4741 6.24124 17.5939 6.20339 17.5792 6.04767C17.6108 6.02659 17.6361 6.01189 17.6361 6.01189C17.6124 6.00398 17.5874 6.00041 17.5624 6.00135C17.5581 5.98665 17.5519 5.96571 17.5161 5.97611C17.4803 5.98651 17.4745 5.98665 17.4698 6.00135C17.4551 6.00565 17.4067 6.00135 17.3709 6.02673C17.3352 6.0521 17.2363 6.136 17.1984 6.1507C17.2131 6.12546 17.2341 6.08774 17.2341 6.08774C17.2341 6.08774 17.131 6.09814 17.0574 6.12934C16.9228 6.17566 16.7672 6.25983 16.6094 6.34178C16.6241 6.31654 16.6305 6.30018 16.6409 6.29546C16.6513 6.29075 16.6766 6.28506 16.6766 6.28076C16.6766 6.27647 16.6662 6.23916 16.6725 6.22405C16.7196 6.12411 16.7753 6.0284 16.8389 5.93798C16.9125 5.83897 16.9272 5.69809 16.9272 5.69809L17.249 5.53613L18.1536 5.32812L18.7405 5.3639L18.6669 5.76992L18.3202 6.47878L18.0236 7.12455L17.6849 7.52017L17.3736 7.7473H17.3734Z" fill="#543E26"/>
<path fill-rule="evenodd" clip-rule="evenodd" d="M18.8395 5.99064C18.8395 5.99064 18.4861 6.42813 18.3872 6.49552C18.4503 6.36088 18.8395 5.55939 18.9804 5.33641C18.9489 5.31117 18.9068 5.31117 19.0057 4.92041C18.9216 5.11801 18.8921 5.22118 18.8228 5.27373C18.7534 5.32629 18.7448 5.30951 18.698 5.30951C18.7068 5.2935 18.7104 5.27513 18.7084 5.25695C18.7084 5.25695 18.4117 5.22118 18.2092 5.22118C18.0066 5.22118 17.6055 5.33059 17.3824 5.41892C17.2058 5.49255 17.1069 5.49255 17.0438 5.53872C16.9807 5.59128 16.9449 5.64813 16.9133 5.66283C16.8881 5.67753 16.7683 5.71539 16.7408 5.75532C16.7156 5.79692 16.6736 5.84365 16.6736 5.85419C16.6736 5.86473 16.663 5.87957 16.6946 5.86889C16.705 5.86473 16.783 5.82258 16.8713 5.77002C16.9911 5.70277 17.1363 5.62498 17.2415 5.57866C17.5423 5.45871 17.637 5.47979 17.7715 5.45455C17.9124 5.42932 18.1144 5.37038 18.249 5.37038C18.3836 5.36622 18.6382 5.37038 18.6971 5.38092C18.6719 5.402 18.6508 5.42724 18.6613 5.51557C18.6613 5.5408 18.6403 5.56812 18.6197 5.62914C18.5568 5.80164 18.4368 6.08771 18.3701 6.23289C18.2777 6.43049 18.1725 6.59675 18.1205 6.69978C18.0685 6.80281 17.9541 7.07418 17.8409 7.21936C17.7276 7.36455 17.6684 7.45288 17.6329 7.4845C17.5974 7.51611 17.3425 7.70317 17.3615 7.77056C17.4078 7.75587 17.7002 7.64576 17.9125 7.4067C18.1248 7.16764 18.1671 7.02176 18.3333 6.89128C18.4994 6.76079 18.6299 6.54212 18.7077 6.3613C18.7728 6.19295 18.7581 6.1404 18.8401 5.99106L18.8395 5.99064Z" fill="#806031"/>
<path fill-rule="evenodd" clip-rule="evenodd" d="M11.2224 9.25577C11.2224 9.25577 11.1761 9.44713 11.0708 9.54184C10.9678 9.63447 10.7848 9.71434 10.7638 9.87006C10.7386 10.0256 10.9469 10.1036 10.9469 10.1036C10.9469 10.1036 10.8332 10.2908 10.8332 10.4317C10.8332 10.5768 10.829 10.6042 10.8437 10.743C10.827 10.7537 10.8128 10.7679 10.8021 10.7846C10.8021 10.7846 10.8125 10.9192 10.9157 11.0032C11.0188 11.0873 11.107 11.1379 11.1596 11.1168C11.1676 11.134 11.1747 11.1516 11.1807 11.1695C11.1807 11.1695 11.2586 10.9718 11.3112 10.7993C11.3637 10.6226 11.41 10.6477 11.431 10.41C11.4519 10.1724 11.6806 9.76426 11.6806 9.76426L11.8366 9.41551L11.5821 9.21777L11.2224 9.25563V9.25577Z" fill="#B6903C"/>
<path fill-rule="evenodd" clip-rule="evenodd" d="M11.6955 9.59863C11.643 9.6525 11.5946 9.71015 11.5506 9.77113C11.4834 9.86376 11.4308 9.9478 11.3319 9.98371C11.2331 10.0196 11.17 10.0193 11.1762 10.1184C11.1824 10.2174 11.2751 10.2592 11.3276 10.3097C11.3845 10.3623 11.4308 10.4506 11.4056 10.5496C11.437 10.5349 11.4939 10.518 11.5464 10.4044C11.599 10.2909 11.9666 9.59877 11.9666 9.59877H11.6955V9.59863Z" fill="#685026"/>
<path fill-rule="evenodd" clip-rule="evenodd" d="M13.1456 8.00213C13.1456 8.00213 13.1771 7.9181 13.1456 7.85709C13.114 7.79399 12.9226 7.77292 12.8279 7.70136C12.729 7.62773 12.6091 7.57656 12.5102 7.60887C12.5249 7.5731 12.5839 7.49517 12.5355 7.47839C12.4892 7.46369 12.3168 7.54148 12.2705 7.57726C12.2242 7.61303 12.1189 7.65505 12.098 7.68043C12.077 7.7058 12.0411 7.75406 12.02 7.73298C11.999 7.71828 11.9886 7.68043 11.9528 7.70136C11.917 7.7223 11.7448 7.86333 11.713 7.94542C11.6813 8.02751 11.6099 8.21055 11.3954 8.41869C11.1808 8.62683 11.0882 8.76161 11.1513 8.8394C11.2144 8.91719 11.2439 8.86048 11.2545 8.92773C11.2626 8.99375 11.259 9.06069 11.2439 9.12547C11.2187 9.23488 11.1767 9.33791 11.2334 9.35899C11.3786 9.4053 11.5196 9.31739 11.5511 9.34429C11.6142 9.401 11.5153 9.60512 11.6646 9.64506C11.8162 9.68666 11.9655 9.60928 11.9655 9.60928L12.5166 9.31267L13.0467 9.03298L13.318 8.49648L13.1725 8.04845L13.1448 8.00213H13.1456Z" fill="#D4B968"/>
<path fill-rule="evenodd" clip-rule="evenodd" d="M12.6254 9.28309C12.6254 9.28309 12.5328 9.14221 12.6465 9.01796C12.7602 8.89372 12.922 8.8413 12.9851 8.76351C12.9731 8.7487 12.957 8.73775 12.9388 8.73203C12.9807 8.65709 13.0446 8.59682 13.1218 8.55939C13.0904 8.52792 13.0482 8.50268 13.002 8.50268C12.8989 8.50268 12.8356 8.56577 12.7411 8.56577C12.6486 8.56577 12.638 8.51946 12.638 8.51946C12.638 8.51946 12.7938 8.50476 12.7789 8.43529C12.7642 8.36165 12.7373 8.36165 12.7373 8.36165C12.7373 8.36165 13.0381 8.23685 13.0906 8.17029C13.1432 8.10373 13.137 8.02511 13.1475 7.99363C13.1831 7.99363 13.3914 7.88423 13.4756 7.93054C13.5597 7.97685 13.5008 8.10304 13.5008 8.10304C13.5008 8.10304 13.7555 7.91154 13.8853 7.72379C13.9989 7.73433 14.0517 7.646 14.1349 7.646C14.2381 7.646 14.4001 7.78688 14.4315 8.08765C14.4526 8.26015 14.4841 8.35902 14.4526 8.66409C14.4379 8.83659 14.4421 9.20489 14.4942 9.38765C14.5299 9.53283 14.614 9.51813 14.614 9.51813C14.6011 9.56237 14.5755 9.60186 14.5404 9.6317C14.4835 9.68426 14.4773 9.8232 14.4835 9.87576C14.4919 9.91418 14.5025 9.9521 14.5152 9.98932C14.5152 9.98932 14.4479 10.0671 14.431 10.1198C14.4163 10.1724 14.347 10.2081 14.2963 10.2081C14.2457 10.2081 14.2711 10.2038 14.2039 10.2081C14.1366 10.2124 14.1155 10.2228 14.0734 10.2081C14.0312 10.1934 13.9997 10.1765 14.0167 10.0417C14.0314 9.90709 13.4971 9.59371 13.4971 9.59371L12.6235 9.2824L12.6254 9.28309Z" fill="#CCA849"/>
<path fill-rule="evenodd" clip-rule="evenodd" d="M11.6218 10.6126C11.6218 10.6126 11.8131 10.8672 12.5999 10.8672C12.9743 10.8672 13.1048 10.8314 13.1823 10.8103C13.2665 10.7893 13.582 10.6653 13.8997 10.2908C14.1857 9.95213 14.1226 9.81332 14.1226 9.81332L13.9562 9.78809L13.4154 9.86172L11.8152 10.5433L11.6211 10.6126H11.6218Z" fill="#585136"/>
<path fill-rule="evenodd" clip-rule="evenodd" d="M12.2089 10.6755C12.2089 10.6755 11.5273 10.827 11.5273 10.3958C11.5273 9.97505 11.9481 9.53325 12.0533 9.45546C12.1627 9.37753 12.4235 9.28906 12.4235 9.28906H13.0525L13.1723 9.60675L13.1198 10.2925L12.2089 10.6753V10.6755Z" fill="#252211"/>
<path fill-rule="evenodd" clip-rule="evenodd" d="M12.8382 9.41783C12.8382 9.41783 12.7078 9.29789 12.4112 9.45943C12.1146 9.62098 11.8747 9.95863 11.86 10.2652C11.8453 10.5365 12.083 10.7385 12.4532 10.749C12.7288 10.7594 12.895 10.728 12.9792 10.7074C12.9581 10.6822 12.8487 10.5455 12.8487 10.5455L12.8383 9.41797L12.8382 9.41783Z" fill="#C3B378"/>
<path fill-rule="evenodd" clip-rule="evenodd" d="M12.7097 9.48482C12.7097 9.48482 12.6783 9.45959 12.5849 9.51006C12.5071 9.55166 12.3936 9.66162 12.3052 9.73942C12.2484 9.78573 12.2126 9.80667 12.1804 9.84245C12.05 9.99817 11.9406 10.2528 12.0038 10.3789C12.067 10.5051 12.2752 10.6503 12.8053 10.5514L12.7082 9.48496L12.7097 9.48482Z" fill="#E6D89C"/>
<path fill-rule="evenodd" clip-rule="evenodd" d="M12.5371 9.74599C12.5371 9.74599 12.4529 9.87648 12.4529 10.0848C12.4529 10.2972 12.5728 10.6358 13.0146 10.6611C13.3533 10.6821 13.5804 10.1731 13.8265 9.97535C14.0137 9.82392 14.1273 9.81962 14.1273 9.81962C14.1273 9.81962 13.9359 9.61162 13.4248 9.34219C12.9199 9.07082 12.354 9.03505 12.0469 9.4516C12.1921 9.44106 12.6612 9.32112 12.6612 9.32112L12.8905 9.39475L12.5371 9.74613V9.74599Z" fill="#252211"/>
<path fill-rule="evenodd" clip-rule="evenodd" d="M13.1973 10.0211C13.1826 9.98961 13.1721 9.94746 13.2331 9.93706C13.2941 9.92666 13.3214 9.93276 13.3425 9.97866C13.3636 10.0246 13.3841 10.0628 13.3529 10.0818C13.3214 10.0986 13.2393 10.0818 13.1972 10.0208L13.1973 10.0211ZM13.0985 9.72448C13.0985 9.72448 13.0774 9.73918 13.0879 9.70978C13.0921 9.67415 13.1195 9.61091 13.1868 9.62575C13.254 9.64059 13.2395 9.71408 13.2284 9.73516C13.2173 9.75624 13.1611 9.79187 13.119 9.77676C13.1081 9.77399 13.0993 9.76621 13.0951 9.75583C13.0909 9.74544 13.092 9.7337 13.0979 9.7242L13.0985 9.72448Z" fill="#6F674D"/>
<path fill-rule="evenodd" clip-rule="evenodd" d="M7.40527 9.85915C7.40527 9.85915 7.57167 9.98395 7.76497 9.9791C7.95633 9.9748 8.20247 9.7772 8.31604 9.65088C8.38329 9.57724 8.44084 9.49945 8.50324 9.43844C8.55593 9.38588 8.59157 9.36065 8.6168 9.32487C8.65258 9.28327 8.69044 9.20506 8.70943 9.17969C8.66312 9.21546 8.59587 9.2787 8.52639 9.32071C8.45914 9.36231 8.31396 9.44052 8.25502 9.4616C8.19831 9.48267 7.60925 9.7944 7.60925 9.7944L7.40527 9.85915Z" fill="#AC924C"/>
<path fill-rule="evenodd" clip-rule="evenodd" d="M7.65918 8.30473C7.65918 8.30473 7.75167 8.24164 7.93055 8.20156C8.10305 8.15996 8.45013 8.12793 8.45013 8.12793L8.7362 8.25273L8.84977 8.68398L8.64177 9.13215L8.37678 9.29855L8.07587 8.81475L7.65987 8.30556L7.65918 8.30473Z" fill="#9F8E57"/>
<path fill-rule="evenodd" clip-rule="evenodd" d="M7.28455 8.69006L7.18555 8.76397C7.18555 8.76397 7.21092 8.71766 7.23186 8.57677C7.2528 8.43589 7.36235 8.09296 7.52223 7.89522C7.68211 7.69749 7.67795 7.70802 7.67795 7.70802C7.64819 7.70258 7.61752 7.71021 7.59378 7.72896C7.61486 7.68237 7.7495 7.51597 7.88415 7.43277C8.01879 7.34957 8.07135 7.32336 8.21223 7.39117C8.35312 7.45898 8.3889 7.4942 8.49206 7.49004C8.59523 7.48588 8.68342 7.37647 8.68342 7.37647C8.68342 7.37647 8.7045 7.44373 8.62671 7.59945C8.54892 7.75517 8.24177 8.07272 8.24177 8.07272L7.60224 8.51021L7.28455 8.69048V8.69006Z" fill="#EAC970"/>
<path fill-rule="evenodd" clip-rule="evenodd" d="M7.75739 8.25242C7.75739 8.25242 8.22026 8.31551 8.36115 8.18517C8.36531 8.19987 8.38222 8.19987 8.38222 8.2104C8.38109 8.21835 8.37739 8.2257 8.37168 8.23134C8.38701 8.2289 8.40248 8.22751 8.418 8.22718C8.43652 8.2327 8.45558 8.23623 8.47485 8.23772C8.49037 8.23739 8.50585 8.23595 8.52117 8.23342C8.51821 8.25455 8.5068 8.27357 8.48955 8.28612C8.51063 8.28612 8.53115 8.29028 8.53115 8.30705C8.53115 8.32383 8.53531 8.37445 8.51007 8.38499C8.48917 8.39077 8.46691 8.38925 8.44698 8.38069C8.44865 8.42051 8.45947 8.45942 8.4786 8.49439C8.5202 8.57219 8.60894 8.66079 8.7282 8.63528C8.7282 8.63528 8.79115 8.7867 8.52616 9.12325C8.49052 9.16956 8.45253 9.23266 8.40635 9.28521C8.38811 9.32498 8.37416 9.36658 8.36475 9.40932C8.36475 9.40932 8.81292 9.23681 8.94119 8.84342C9.07167 8.44794 9.09691 8.05884 9.07167 7.69498C9.06737 7.59181 9.0506 7.51832 9.02536 7.46563C8.96227 7.33514 8.78547 7.35622 8.71405 7.42985C8.61088 7.53302 8.43838 7.78955 8.19863 7.96621C7.95457 8.14287 7.94417 8.17421 7.75684 8.25242H7.75739Z" fill="#D7BC6B"/>
<path fill-rule="evenodd" clip-rule="evenodd" d="M7.20239 8.82042C7.20239 8.82042 7.11406 8.87298 7.06774 9.07002C7.02143 9.27192 7.10934 9.51806 7.16023 9.59585C7.21112 9.67364 7.32663 9.88622 7.56625 9.89676C7.62556 9.89644 7.68421 9.88428 7.73875 9.86098C7.8224 9.82262 7.90086 9.77384 7.97226 9.7158C8.07543 9.638 8.15946 9.57075 8.14892 9.56437C8.12369 9.55383 7.51369 9.04895 7.51369 9.04895L7.28434 8.79297L7.20225 8.8207L7.20239 8.82042Z" fill="#585136"/>
<path fill-rule="evenodd" clip-rule="evenodd" d="M7.77941 9.65733C7.77941 9.65733 7.90352 9.64693 7.97715 9.60061C8.05078 9.5543 7.5459 9.05371 7.5459 9.05371L7.58167 9.59451L7.77941 9.65733Z" fill="#453A25"/>
<path fill-rule="evenodd" clip-rule="evenodd" d="M7.24291 8.78254C7.24291 8.78254 7.17982 8.90248 7.17982 8.9341C7.16928 9.03713 7.20089 9.36105 7.22613 9.46408C7.25137 9.57349 7.38809 9.73961 7.56489 9.73961C7.67416 9.73961 7.82573 9.67236 7.82573 9.65558C7.82573 9.6345 7.67 9.61398 7.62799 9.53563C7.60275 9.49404 7.59221 9.39059 7.58639 9.28604C7.58223 9.21878 7.58223 9.14515 7.60747 9.11963C7.66432 9.05654 7.67472 8.87558 7.67472 8.87558L7.87662 8.50049H7.61107L7.29339 8.69823L7.24291 8.78254Z" fill="#84754B"/>
<path fill-rule="evenodd" clip-rule="evenodd" d="M7.16504 8.89822C7.16504 8.89822 7.37304 8.62269 7.56052 8.55945C7.74799 8.49622 7.83189 8.53422 7.83189 8.53422L7.72248 8.81405L7.56676 8.98655L7.5773 9.07488C7.5773 9.07488 7.55192 9.30839 7.70764 9.47036C7.86336 9.63232 7.97901 9.62608 8.0464 9.62608C8.1138 9.62608 8.30724 9.56922 8.40611 9.33571C8.49444 9.11703 8.56807 8.83651 8.39141 8.55529C8.21877 8.27546 7.91384 8.26465 7.85491 8.26465C7.79597 8.26465 7.33324 8.28781 7.16504 8.8978V8.89822Z" fill="#252211"/>
<path fill-rule="evenodd" clip-rule="evenodd" d="M12.5058 9.83431C12.428 9.79854 12.5016 9.57986 12.5794 9.51247C12.6572 9.44507 12.7561 9.36742 12.9287 9.35674C12.9916 9.35258 13.0527 9.39252 13.0423 9.43467C13.0276 9.51247 12.9182 9.62187 12.8193 9.69967C12.6826 9.80699 12.5941 9.87425 12.5058 9.83431Z" fill="#F7F7E7"/>
<path fill-rule="evenodd" clip-rule="evenodd" d="M8.29871 8.64138C8.35556 8.63722 8.42919 8.68298 8.44389 8.74454C8.45859 8.8118 8.40812 8.94644 8.29871 8.94644C8.21038 8.94644 8.16406 8.83703 8.16406 8.80556C8.16506 8.77967 8.17229 8.75441 8.18514 8.73193C8.1893 8.72555 8.19984 8.65191 8.29871 8.64138Z" fill="#F8F6DE"/>
<path fill-rule="evenodd" clip-rule="evenodd" d="M7.47824 8.68994C7.47824 8.68994 7.33305 8.75719 7.2658 8.89794C7.21774 9.00187 7.20321 9.11818 7.2242 9.23074C7.23474 9.2833 7.28729 9.41364 7.32307 9.45996C7.35884 9.50627 7.40724 9.53789 7.44301 9.53359C7.47879 9.52929 7.55228 9.43472 7.55228 9.37801C7.55228 9.32129 7.55658 9.0814 7.62592 8.95091C7.68693 8.82057 7.47865 8.69008 7.47865 8.69008L7.47824 8.68994Z" fill="#D4C38B"/>
<path fill-rule="evenodd" clip-rule="evenodd" d="M7.49891 8.67935C7.47367 8.69405 7.43165 8.71513 7.44205 8.74244C7.45259 8.76768 7.54092 8.78404 7.57254 8.84561C7.60831 8.90871 7.60831 8.97596 7.59778 9.00757C7.62525 8.99452 7.65019 8.97668 7.67141 8.95488C7.71772 8.90233 7.77444 8.83091 7.82283 8.83091C7.85445 8.83091 7.88592 8.84561 7.91546 8.84561C7.96178 8.84561 8.00795 8.83091 8.01433 8.78252C8.02473 8.71943 7.926 8.66257 7.86915 8.67311C7.87968 8.63151 7.89438 8.57008 7.84807 8.52793C7.80175 8.48577 7.65671 8.55954 7.62509 8.58062C7.59348 8.6017 7.49891 8.67949 7.49891 8.67949V8.67935Z" fill="#E2D59D"/>
<path fill-rule="evenodd" clip-rule="evenodd" d="M10.8415 13.0988L11.1528 13.0068L11.2412 13.0699C11.2412 13.0699 11.3041 13.2046 11.4031 13.2214C11.3715 13.2886 11.2894 13.3462 11.2937 13.3939C11.298 13.4416 11.34 13.478 11.34 13.478C11.34 13.478 11.0602 13.9408 11.6114 14.4071C11.4809 14.4596 11.3148 14.5319 11.2265 14.5735C11.2894 14.5882 11.4241 14.6151 11.4809 14.6661C11.5378 14.7172 11.5378 14.7334 11.5903 14.765C11.6429 14.7966 11.6744 14.8386 11.664 14.8575C11.6282 14.8364 11.5082 14.7734 11.4873 14.8322C11.4664 14.891 10.9677 14.868 10.9677 14.868L10.1263 15.03C10.1263 15.03 10.1578 14.9458 10.0694 14.868C9.96641 14.7755 9.84022 14.8722 9.70557 14.7692C9.52891 14.6345 9.52253 14.4788 9.46582 14.42C9.52253 14.3842 9.63832 14.3317 9.91385 14.2952C9.90331 14.2741 9.86754 14.211 9.88861 14.1543C9.91385 14.0807 10.019 14.0344 9.98748 13.9463C10.0338 13.9358 10.0547 13.9358 10.1705 13.7906C10.2799 13.6454 10.3472 13.6139 10.4314 13.6034C10.5155 13.5928 10.566 13.6034 10.7217 13.4582C10.831 13.3552 10.7954 13.2668 10.7954 13.2668C10.7954 13.2668 10.8668 13.2437 10.8417 13.0985L10.8415 13.0988Z" fill="#CBAC5A"/>
<path fill-rule="evenodd" clip-rule="evenodd" d="M9.92285 13.1456C9.92701 13.1246 9.94393 13.114 10.0575 13.1246C10.1711 13.1351 10.8905 13.0573 11.0861 13.0468C11.2839 13.0321 11.9801 13.0425 12.3189 13.114C12.6576 13.1856 13.0004 13.2697 13.1665 13.3118C13.3329 13.3581 13.3854 13.3747 13.379 13.3958C13.3748 13.4169 13.3374 13.4374 13.3159 13.4316C13.2949 13.4274 12.7437 13.2591 12.5735 13.2236C12.4032 13.1881 11.814 13.0931 11.4919 13.0988C11.1911 13.1031 11.0711 13.0946 10.8167 13.124C10.5621 13.1556 10.1414 13.1976 10.0152 13.1809C9.8904 13.1662 9.91619 13.1662 9.92257 13.1451L9.92285 13.1456Z" fill="#D6BC6F"/>
<path fill-rule="evenodd" clip-rule="evenodd" d="M11.6156 14.7944C11.6156 14.7944 12.0469 15.0279 12.2026 15.314C12.3162 15.5264 12.1353 15.6317 12.1353 15.6317C12.1353 15.6317 12.3794 15.6317 12.3478 15.7663C12.3331 15.8504 11.9271 16.0775 11.6557 16.1975C11.3802 16.3174 11.3907 16.3112 11.2561 16.3321C11.1256 16.3532 10.768 16.2905 10.6943 16.3952C10.6207 16.4999 10.6527 16.6078 10.6732 16.6245C10.6943 16.6392 10.8647 16.6603 10.8647 16.6603C10.8647 16.6603 10.829 16.7592 10.4756 16.7697C10.1223 16.7803 10.0339 16.8054 10.0128 16.8434C9.9917 16.879 10.08 16.8581 10.2421 16.885C10.4041 16.9102 10.6312 16.9266 10.6312 16.9266C10.6312 16.9266 10.5576 16.9897 10.3662 17.0401C10.1474 17.0968 9.8045 17.1495 9.70147 17.2126C9.75403 17.2484 9.83196 17.301 9.86787 17.3051C9.77954 17.3262 9.6553 17.3725 9.63436 17.3893C9.66584 17.4104 9.70799 17.4356 9.70799 17.4356C9.70799 17.4356 9.53119 17.648 9.42816 17.7007C9.32513 17.7534 8.73192 18.0288 8.5278 17.9763C8.01875 17.8416 7.95566 17.2842 7.83155 17.2422C7.64435 17.1791 7.55602 17.3051 7.38976 17.2168C7.46339 17.1642 7.50347 17.1328 7.58126 17.097C7.49709 17.0554 7.06168 16.7793 7.06168 16.7793C7.01614 16.6801 6.9656 16.5832 6.91025 16.4891C6.82608 16.3439 6.70225 16.1503 6.60934 15.9799C6.40745 15.6055 6.39691 15.433 6.21387 15.2205C6.24548 15.1789 6.35475 15.1848 6.35475 15.1848L7.88841 15.6897L10.6078 15.7684L11.315 14.7588L11.6158 14.7946L11.6156 14.7944Z" fill="#DFC677"/>
<path fill-rule="evenodd" clip-rule="evenodd" d="M7.58789 16.3341C7.6043 16.3523 7.62343 16.368 7.64461 16.3804C7.6973 16.4162 7.77509 16.4583 7.82765 16.5213C7.84872 16.4898 7.90128 16.4329 7.99405 16.5213C8.08681 16.6096 8.20205 16.5466 8.27374 16.5676C8.34737 16.593 8.35153 16.6034 8.35153 16.6034C8.35153 16.6034 8.39313 16.5676 8.48617 16.5297C8.54303 16.5087 8.61028 16.494 8.68391 16.473C8.75117 16.4583 8.8248 16.4372 8.87541 16.4372C8.92173 16.4687 9.08785 16.6452 9.7547 16.3847C10.3837 16.1406 10.5287 16.1133 10.634 16.151C10.6445 16.1258 10.6551 16.0774 10.817 16.0838C10.817 16.0165 10.6824 15.7872 10.6824 15.7872L9.93982 15.5327H9.53366L8.31575 15.7557L7.64086 16.1408L7.58831 16.3349L7.58789 16.3341Z" fill="#C4A859"/>
<path fill-rule="evenodd" clip-rule="evenodd" d="M7.18164 15.9071C7.18164 15.9071 7.19634 16.0207 7.36468 16.1406C7.53108 16.2604 7.58336 16.332 7.58336 16.332C7.58336 16.332 7.61497 16.2904 7.64021 16.248C7.66545 16.2016 7.68653 16.1491 7.72854 16.1344C7.81271 16.0986 8.00407 16.1659 8.04623 16.1553C8.082 16.1449 8.07146 16.0713 8.10932 16.0713C8.19765 16.067 8.25437 16.128 8.28598 16.128C8.3176 16.128 8.39525 16.1238 8.40579 16.1071C8.41633 16.0903 8.42049 15.9156 8.54044 15.8314C8.67092 15.7389 8.8308 15.7788 8.87324 15.7999C8.87324 15.8314 8.8774 15.9093 8.96157 15.9135C9.04574 15.9176 9.05406 15.9029 9.12797 15.9282C9.20188 15.9534 9.28993 15.924 9.32986 16.048C9.36564 16.0376 9.44981 16.0271 9.42873 15.9071C9.47033 15.8756 9.50666 15.8546 9.59513 15.7304C9.61621 15.699 9.65185 15.6632 9.6793 15.6169C9.75294 15.6169 9.84127 15.6022 9.959 15.7052C9.92322 15.7304 9.90214 15.7468 9.89174 15.7725C9.92253 15.803 9.95065 15.836 9.97577 15.8713C10.0074 15.9129 10.0285 15.964 10.0684 15.9745C10.1567 15.9997 10.3019 15.964 10.4639 15.9745C10.6196 15.985 10.7499 16.0418 10.8068 16.0775C10.8279 16.0671 10.8279 16.0628 10.8804 16.0734C10.933 16.0839 10.9729 16.0881 10.9162 16.0208C10.9477 16.0355 10.9835 16.0671 11.0151 16.0355C11.0467 16.0039 11.0718 15.9577 11.1601 15.9472C11.2485 15.9366 11.2801 15.9513 11.3158 15.8589C11.3622 15.7453 11.2023 15.7453 11.2023 15.7453C11.2023 15.7453 11.2759 15.6779 11.358 15.5896C11.4569 15.4971 11.5704 15.3771 11.5978 15.2299C11.6441 14.9585 11.3791 14.9229 11.3791 14.9229L10.0938 15.3183L8.52241 15.2404L7.18247 15.9072L7.18164 15.9071Z" fill="#927D49"/>
<path fill-rule="evenodd" clip-rule="evenodd" d="M6.02637 12.1946C6.02637 12.1946 5.98477 12.2471 5.95912 12.3712C5.93347 12.4954 5.94442 12.4807 5.92335 12.569C5.90227 12.6573 5.64338 13.5366 5.74044 13.8332C5.83751 14.1298 6.00557 14.2392 6.11068 14.479C6.13176 14.5315 6.15228 14.5632 6.16324 14.6095C6.19901 14.7651 6.16754 14.885 6.20955 15.0407C6.22425 15.0933 6.26225 15.1543 6.31896 15.2174C6.44376 15.3477 6.64719 15.4718 6.73496 15.5602C6.85893 15.6907 7.03573 15.9558 7.26079 15.9809C7.38073 15.9956 7.55115 15.9451 7.69204 15.8611C7.81684 15.7831 7.89394 15.6739 8.02484 15.6115C8.11733 15.5652 8.2162 15.5484 8.30453 15.5273C8.48757 15.4915 8.65383 15.4857 8.7527 15.5062C8.90412 15.5378 9.26175 15.6472 9.4599 15.6472C9.61474 15.6448 9.76871 15.6236 9.91847 15.5842C10.2192 15.4958 10.5831 15.3443 10.823 15.277C10.9639 15.2354 11.0774 15.2245 11.1932 15.1992C11.391 15.1529 11.5571 15.0898 11.6518 14.9699C11.5887 14.8962 11.5109 14.7827 11.0901 14.7868C10.6126 14.7974 10.0614 15.0624 9.79007 15.1045C9.5187 15.1467 9.40097 15.1823 9.09798 15.0729C8.80096 14.9624 8.79111 14.8893 8.79111 14.8893C8.79111 14.8893 8.47925 14.6712 8.34876 14.1151C8.21828 13.5591 8.34876 13.1539 8.68753 12.7688C8.77586 12.6699 8.75478 12.5816 8.75478 12.5816C8.75478 12.5816 8.97776 12.2808 8.91674 11.9992C8.84949 11.7194 8.41824 11.7762 8.41824 11.7762L6.02651 12.1946H6.02637Z" fill="#6E6342"/>
<path fill-rule="evenodd" clip-rule="evenodd" d="M6.38685 13.1304C6.36831 13.1652 6.35959 13.2045 6.36162 13.2439C6.36578 13.3007 6.38269 13.3743 6.55298 13.5405C6.69816 13.6856 6.66654 13.8476 6.66654 13.8476C6.66654 13.8476 6.73962 13.8623 6.93792 13.7695C7.09364 13.6959 7.14592 13.8263 7.14592 13.8263C7.19125 13.8026 7.24038 13.7869 7.2911 13.78C7.33705 13.7758 7.38153 13.7616 7.42145 13.7384C7.42145 13.7384 7.60449 13.9256 7.76437 14.014C7.90955 14.0919 7.99372 14.1444 8.06528 14.0919C8.13253 14.0456 8.13253 13.9509 8.12823 13.9088C8.11154 13.8701 8.09042 13.8334 8.06528 13.7994C8.01896 13.7322 7.94533 13.6543 7.94048 13.5914C7.92994 13.4464 8.04988 13.2738 8.02451 13.2317C7.99913 13.1897 7.9047 13.1792 7.67118 13.2634C7.42935 13.3432 6.38588 13.1308 6.38588 13.1308L6.38685 13.1304Z" fill="#39331F"/>
<path fill-rule="evenodd" clip-rule="evenodd" d="M6.93731 14.0706C6.93731 14.0706 6.8175 13.957 6.85952 13.4058C6.91038 13.4051 6.96117 13.41 7.01094 13.4205C7.01094 13.4205 7.07626 13.8476 6.93731 14.0706Z" fill="#292311"/>
<path fill-rule="evenodd" clip-rule="evenodd" d="M6.08375 11.7735C6.10047 11.7612 6.11598 11.7472 6.13007 11.7319C6.08847 11.8097 5.89641 12.121 6.05213 12.6112C6.20786 13.0992 6.59904 13.4631 7.08076 13.48C7.56249 13.4969 7.8157 13.2612 8.10523 12.9078C8.2188 12.7669 8.34929 12.5901 8.46493 12.4703C8.63744 12.283 8.77208 12.2304 8.77208 12.0496C8.77208 11.6794 8.39338 11.5131 7.83594 11.347C7.2785 11.1809 6.7757 11.2014 6.51487 11.3151C6.26041 11.4391 6.151 11.5696 6.08361 11.7737L6.08375 11.7735Z" fill="#252211"/>
<path fill-rule="evenodd" clip-rule="evenodd" d="M7.87346 14.2368L7.91506 14.2158C7.91506 14.2158 7.92546 14.0494 7.99285 14.0538C8.06011 14.0643 8.09172 14.1528 8.08535 14.1843C8.08119 14.2158 8.06441 14.2685 7.99701 14.2621C7.90868 14.2642 7.87305 14.2368 7.87305 14.2368H7.87346Z" fill="#3F3824"/>
<path fill-rule="evenodd" clip-rule="evenodd" d="M7.68652 13.5303C7.68652 13.5303 7.72812 13.5156 7.77901 13.5661C7.82061 13.5661 8.00199 13.545 8.05884 13.5808C8.1157 13.6166 8.13248 13.648 8.13248 13.648C8.13248 13.648 7.92004 13.6944 7.80425 13.648C7.68652 13.6081 7.68652 13.5303 7.68652 13.5303H7.68652Z" fill="#2D2815"/>
<path fill-rule="evenodd" clip-rule="evenodd" d="M8.62218 13.5618C8.62218 13.5513 8.50861 13.4735 8.38867 13.4481C8.36759 13.4439 8.36329 13.4586 8.34707 13.4586C8.33653 13.4545 8.33237 13.4229 8.33237 13.4229L8.26414 13.4588C8.26414 13.4588 8.25361 13.4735 8.28938 13.5004C8.32086 13.5256 8.37355 13.5467 8.38825 13.5887C8.40295 13.6307 8.40295 13.6454 8.40933 13.6518C8.41349 13.656 8.48712 13.6518 8.5229 13.6307C8.55867 13.6096 8.62606 13.5752 8.62177 13.5614L8.62218 13.5618Z" fill="#82764F"/>
<path fill-rule="evenodd" clip-rule="evenodd" d="M7.56055 13.9889C7.56055 13.9889 7.58149 13.8439 7.72251 13.8375C7.86755 13.8269 7.89501 13.9678 7.89501 13.9678L7.81084 14.052C7.81084 14.0499 7.74775 13.9616 7.56124 13.9889H7.56055Z" fill="#2D2816"/>
<path fill-rule="evenodd" clip-rule="evenodd" d="M8.47572 13.3637C8.47572 13.3637 8.39779 13.4478 8.22543 13.4731C8.21073 13.452 8.17911 13.41 8.22543 13.3427C8.27174 13.2755 8.3243 13.2544 8.37685 13.2753C8.4242 13.283 8.46278 13.3175 8.47572 13.3637Z" fill="#574F35"/>
<path fill-rule="evenodd" clip-rule="evenodd" d="M8.79247 13.4672C8.79677 13.4462 8.78207 13.442 8.79247 13.4315C8.80287 13.4209 8.85987 13.4 8.8704 13.4104C8.87456 13.4147 8.8704 13.4315 8.8704 13.452C8.8704 13.4725 8.8704 13.4936 8.85987 13.5087C8.84517 13.5298 8.80315 13.5403 8.78207 13.5341C8.761 13.5278 8.75684 13.4983 8.75684 13.4925C8.76724 13.4883 8.79247 13.4778 8.79247 13.4672ZM9.15162 13.2401C9.15162 13.2296 9.1874 13.2085 9.20847 13.2085C9.23995 13.2085 9.23995 13.2337 9.24425 13.2401C9.25465 13.2443 9.25465 13.2358 9.26519 13.2548C9.27573 13.2738 9.29056 13.3074 9.27989 13.3284C9.26921 13.3495 9.22733 13.3641 9.21693 13.3599C9.20223 13.3494 9.15592 13.2548 9.15162 13.2401Z" fill="#82764F"/>
<path fill-rule="evenodd" clip-rule="evenodd" d="M8.42871 13.5153C8.42871 13.5153 8.47503 13.5257 8.53812 13.5784C8.51704 13.5931 8.48543 13.6098 8.48543 13.6098C8.48543 13.6098 8.48127 13.5615 8.42871 13.5151V13.5153Z" fill="#6E6342"/>
<path fill-rule="evenodd" clip-rule="evenodd" d="M8.32588 13.0527C8.31534 13.0423 8.35736 13.0171 8.3826 13.0212C8.40783 13.0254 8.41837 13.0423 8.44569 13.0465C8.47301 13.0506 8.47731 13.0359 8.48729 13.0254C8.49727 13.0149 8.5336 13.0212 8.53984 13.0254C8.54373 13.03 8.54725 13.0349 8.55038 13.0401C8.55127 13.0239 8.55886 13.0088 8.57132 12.9985C8.58767 12.9865 8.60861 12.9826 8.62817 12.988C8.63233 13.0026 8.65341 13.0552 8.64925 13.0657C8.64509 13.0763 8.582 13.0911 8.57132 13.0804C8.58186 13.1058 8.62817 13.1584 8.63441 13.1688C8.64065 13.1792 8.5881 13.2045 8.56716 13.2004C8.53776 13.1983 8.3568 13.0931 8.32533 13.0531L8.32588 13.0527ZM8.60141 12.7035C8.59752 12.6929 8.59007 12.684 8.58033 12.6783C8.56564 12.6741 8.51724 12.6783 8.51724 12.7035C8.51724 12.7288 8.55884 12.8699 8.60557 12.9434C8.65826 13.0171 8.6939 13.0779 8.72968 13.0949C8.75298 13.1055 8.78052 13.0963 8.79277 13.0738C8.79693 13.0632 8.80747 12.9855 8.80331 12.8024C8.79915 12.6194 8.79277 12.4427 8.78223 12.4322C8.77169 12.4216 8.72968 12.4218 8.71498 12.4427C8.70028 12.4637 8.60557 12.6721 8.60127 12.7035H8.60141Z" fill="#585136"/>
<path fill-rule="evenodd" clip-rule="evenodd" d="M8.41438 13.7806C8.41438 13.7806 8.34075 13.7343 8.2692 13.7659C8.20195 13.7975 8.20611 13.9216 8.20611 13.9216C8.23682 13.9337 8.2715 13.9297 8.29873 13.9111C8.34505 13.8796 8.40384 13.8271 8.41438 13.7808V13.7806Z" fill="#574F35"/>
<path fill-rule="evenodd" clip-rule="evenodd" d="M8.55332 13.9468C8.54916 13.9052 8.51172 13.9052 8.51172 13.8837C8.51702 13.8626 8.5361 13.8478 8.55789 13.848C8.57897 13.848 8.59949 13.8732 8.62529 13.8896C8.65052 13.9043 8.68838 13.9312 8.69254 13.9632C8.6967 13.9952 8.65094 14.083 8.60005 14.083C8.54916 14.083 8.56427 13.9883 8.55373 13.9463L8.55332 13.9468ZM8.95933 13.89C8.95933 13.89 8.87516 13.9152 8.8814 13.89C8.88764 13.8647 8.90678 13.8585 8.9341 13.8585C8.94798 13.844 8.96664 13.835 8.98665 13.8331C8.9981 13.8326 9.00933 13.8363 9.01813 13.8437C9.01813 13.8437 9.07498 13.8184 9.09176 13.8331C9.10854 13.8478 9.09606 13.8478 9.10646 13.8647C9.1197 13.8835 9.12839 13.9051 9.13184 13.9278C9.13184 13.9446 9.06874 13.9804 9.01813 13.9742C8.95933 13.9615 8.96973 13.9005 8.95933 13.89ZM9.44938 13.7953C9.44938 13.7953 9.47462 13.81 9.45368 13.8269C9.43898 13.8416 9.36535 13.8685 9.30212 13.8732C9.23902 13.8732 9.18231 13.8836 9.18231 13.8627C9.18231 13.8417 9.23486 13.7996 9.26634 13.789C9.27913 13.773 9.29854 13.7637 9.31904 13.7638C9.34427 13.7638 9.443 13.7533 9.47046 13.7491C9.4957 13.7448 9.51677 13.7595 9.50194 13.7806C9.4957 13.7953 9.44938 13.7953 9.44938 13.7953ZM9.59457 13.1458C9.59457 13.1458 9.56295 13.213 9.52731 13.213C9.49154 13.2089 9.49154 13.1983 9.49154 13.1878C9.49154 13.1731 9.52731 13.1352 9.52301 13.1247C9.51261 13.1247 9.48724 13.1247 9.49154 13.0994C9.49154 13.0784 9.52731 13.0531 9.55879 13.0578C9.58257 13.0383 9.61219 13.0272 9.64296 13.0264C9.67874 13.0264 9.71021 13.0368 9.71021 13.0578C9.71021 13.0789 9.66861 13.1251 9.65336 13.1358C9.63658 13.1526 9.6155 13.1635 9.59457 13.1462V13.1458ZM9.11492 14.3889C9.11492 14.3889 9.07332 14.3932 9.07332 14.4141C9.07332 14.4247 9.08372 14.4247 9.09856 14.4184C9.1071 14.418 9.11557 14.4165 9.12379 14.4141C9.12795 14.4184 9.12795 14.4394 9.15957 14.4394C9.18553 14.4359 9.21055 14.4273 9.2332 14.4141C9.25844 14.4037 9.27952 14.3931 9.27952 14.3725C9.26898 14.3368 9.2479 14.3199 9.21642 14.3199C9.20029 14.3188 9.18421 14.3225 9.17011 14.3304C9.17011 14.3304 9.15957 14.3093 9.12379 14.3304C9.08802 14.3515 9.09218 14.3515 9.10272 14.362C9.12157 14.3788 9.11533 14.3897 9.11533 14.3897L9.11492 14.3889ZM8.87724 14.6077C8.87724 14.5972 8.9298 14.5761 8.9445 14.5825C8.9592 14.5866 9.00121 14.6665 9.00121 14.675C9.00121 14.6855 8.94866 14.7108 8.92758 14.7108C8.9065 14.7108 8.87086 14.675 8.87086 14.6692C8.87086 14.665 8.8961 14.6588 8.8961 14.6545C8.90234 14.6441 8.87724 14.6187 8.87724 14.6081V14.6077ZM8.71084 14.3006C8.72138 14.2964 8.72138 14.2859 8.73608 14.2753C8.74541 14.2691 8.75708 14.2676 8.7677 14.2712C8.77521 14.2578 8.78834 14.2485 8.80347 14.2458C8.82871 14.2416 8.84979 14.2458 8.84507 14.2563C8.84507 14.288 8.86615 14.3089 8.86615 14.3341C8.86615 14.3594 8.85145 14.391 8.7989 14.4121C8.74634 14.4268 8.67479 14.4268 8.66425 14.4226C8.65371 14.4184 8.64317 14.3763 8.65371 14.3552C8.66425 14.3341 8.69365 14.3111 8.71057 14.3006H8.71084Z" fill="#82764F"/>
<path fill-rule="evenodd" clip-rule="evenodd" d="M8.77731 14.3149C8.77731 14.3149 8.74154 14.336 8.74154 14.3466C8.73836 14.3567 8.73696 14.3674 8.73738 14.378C8.73738 14.3843 8.78369 14.3739 8.78993 14.3675C8.79201 14.3633 8.77731 14.3259 8.77731 14.3149Z" fill="#6E6342"/>
<path fill-rule="evenodd" clip-rule="evenodd" d="M8.46492 14.2156C8.48586 14.2199 8.52163 14.2156 8.54895 14.2261C8.57003 14.2367 8.58473 14.2577 8.56365 14.283C8.54257 14.3082 8.52205 14.3461 8.47532 14.3397C8.42277 14.3355 8.37229 14.3082 8.37229 14.2871C8.37051 14.2602 8.3796 14.2337 8.39753 14.2135C8.41861 14.1967 8.42901 14.2073 8.46478 14.2156H8.46492Z" fill="#585136"/>
<path fill-rule="evenodd" clip-rule="evenodd" d="M8.43955 14.2368C8.43955 14.2368 8.3723 14.2894 8.35538 14.3147C8.3343 14.34 8.23127 14.4703 8.1998 14.4976C8.21025 14.4792 8.22217 14.4616 8.23543 14.4451C8.19383 14.4717 8.16264 14.5118 8.1471 14.5587C8.12186 14.6366 8.28813 14.6786 8.3974 14.7102C8.50666 14.7418 8.54896 14.7518 8.54896 14.7518C8.50873 14.6914 8.47419 14.6273 8.44579 14.5605C8.40419 14.4616 8.3827 14.4511 8.41001 14.4047C8.43109 14.3584 8.46271 14.3269 8.46271 14.2912C8.45009 14.2579 8.43955 14.2368 8.43955 14.2368Z" fill="#574F35"/>
<path fill-rule="evenodd" clip-rule="evenodd" d="M6.04129 14.4031C6.0566 14.4059 6.0723 14.4059 6.08761 14.4031C6.11908 14.3988 6.44731 14.2783 6.79023 14.3C7.04695 14.3155 7.30139 14.3573 7.54957 14.4248C7.98082 14.5383 8.51719 14.7634 8.86427 14.8918C8.95676 14.9274 9.04731 14.9907 9.11387 15.0158C9.379 15.1189 9.3894 15.1189 9.54512 15.1462C9.72816 15.1715 9.91536 15.1105 10.111 15.0685C10.3508 15.0158 10.761 14.9905 11.1207 14.938C11.237 14.9218 11.3517 14.8958 11.4636 14.8602C11.4636 14.8602 11.1775 15.1462 10.4917 15.2493C10.2144 15.2914 9.93272 15.2949 9.65453 15.2598C9.43571 15.2387 9.29067 15.2071 9.18126 15.1756C9.05715 15.1399 8.80256 15.0452 8.48918 14.9676C8.27036 14.9108 8.02631 14.8688 7.74662 14.8162C7.05661 14.6899 6.30781 14.5448 6.04102 14.404L6.04129 14.4031Z" fill="#252211"/>
<path fill-rule="evenodd" clip-rule="evenodd" d="M5.26765 13.103C5.10125 13.2439 4.92472 13.3786 4.75236 13.5089L4.23278 13.9081C4.05612 14.0385 3.88362 14.1731 3.70682 14.3036C3.53002 14.4341 3.35349 14.5581 3.16602 14.678C3.33242 14.5371 3.50894 14.4066 3.6856 14.2784C3.86226 14.1501 4.04544 14.0243 4.21586 13.8943L4.73544 13.4945C4.91419 13.3641 5.08669 13.2295 5.26765 13.1033V13.103ZM4.34842 14.5755C4.34842 14.5755 4.53562 14.4198 4.76914 14.2011C5.05937 13.9299 5.41491 13.5827 5.52848 13.5197L4.34829 14.5757L4.34842 14.5755Z" fill="#CFB66C"/>
<path fill-rule="evenodd" clip-rule="evenodd" d="M4.34766 14.5754C4.44029 14.4829 4.53915 14.3925 4.63802 14.304L4.78945 14.1737C4.83576 14.1321 4.88846 14.0853 4.93463 14.039C5.02712 13.9465 5.11767 13.8475 5.21016 13.753C5.25601 13.7054 5.30448 13.6604 5.35535 13.6183C5.38078 13.5958 5.40903 13.5767 5.43938 13.5615C5.46475 13.5468 5.49207 13.5199 5.52771 13.5151C5.50677 13.5468 5.48153 13.5615 5.46046 13.5888C5.43522 13.6098 5.41414 13.6351 5.3932 13.656C5.34689 13.7023 5.29433 13.7444 5.24802 13.7865C5.14915 13.8707 5.04612 13.9529 4.94725 14.041C4.84838 14.129 4.75589 14.224 4.65688 14.3123C4.54969 14.4029 4.45082 14.4912 4.34766 14.5758V14.5754ZM5.60564 13.734C5.60564 13.734 4.91993 14.4051 4.77891 14.5144L5.60564 13.734Z" fill="#CFB66C"/>
<path fill-rule="evenodd" clip-rule="evenodd" d="M5.60603 13.7339C5.54434 13.8053 5.47821 13.8727 5.40801 13.9358L5.20001 14.1335C5.13276 14.2008 5.06953 14.2682 4.99811 14.3354C4.92448 14.3985 4.85723 14.4602 4.7793 14.5185L4.9812 14.3207C5.04859 14.2535 5.12222 14.1968 5.19377 14.1294L5.39567 13.9316C5.465 13.8623 5.5324 13.7949 5.60603 13.7339ZM5.6375 14.0977C5.5743 14.2742 5.49982 14.4463 5.41453 14.6132C5.23787 14.9666 4.97287 15.4083 4.85709 15.6335L5.6375 14.0977Z" fill="#CFB66C"/>
<path fill-rule="evenodd" clip-rule="evenodd" d="M5.63771 14.0981C5.63771 14.1759 5.61663 14.2433 5.5914 14.3106C5.5668 14.3779 5.53875 14.4439 5.50736 14.5083C5.47575 14.5714 5.43997 14.6388 5.4042 14.6998C5.36842 14.7608 5.3264 14.8238 5.29479 14.887L5.08235 15.2614C5.00872 15.3862 4.93717 15.5117 4.85938 15.6317C4.91193 15.497 4.98348 15.3708 5.05087 15.2467C5.12451 15.1219 5.19176 14.9971 5.25887 14.868C5.29164 14.8037 5.32112 14.7377 5.3472 14.6704C5.37868 14.603 5.41016 14.5399 5.43554 14.4789C5.46701 14.4117 5.49225 14.3484 5.52387 14.2876C5.5595 14.2223 5.58904 14.1592 5.63743 14.0981L5.63771 14.0981Z" fill="#CFB66C"/>
<path fill-rule="evenodd" clip-rule="evenodd" d="M6.3869 15.8228C6.3869 15.8228 6.1789 16.0983 6.1997 16.4474C6.25642 16.2645 6.32797 15.9847 6.3869 15.8228ZM6.58464 16.099C6.58464 16.099 6.51101 16.8478 6.45 17.2159C6.53625 16.7904 6.55303 16.8261 6.58464 16.099ZM7.96244 17.2602C7.96244 17.2602 7.65113 18.1754 7.64475 18.4297C7.71214 18.1682 7.84249 17.6339 7.96244 17.2595V17.2602Z" fill="#DEC270"/>
<path fill-rule="evenodd" clip-rule="evenodd" d="M8.68945 15.7666C8.68945 15.7666 9.19434 16.5996 9.57304 17.3105C9.47056 16.9528 9.23483 16.2966 8.68945 15.7666Z" fill="#CBAF59"/>
<path fill-rule="evenodd" clip-rule="evenodd" d="M10.0469 16.9927C10.3241 17.4827 10.5741 17.9876 10.7957 18.5051C10.7537 18.1475 10.64 17.5354 10.0469 16.9927Z" fill="#E3C677"/>
<path fill-rule="evenodd" clip-rule="evenodd" d="M14.0355 18.2208C14.1195 18.1683 14.2858 17.8821 14.4309 17.8107C14.576 17.737 14.6854 17.7223 14.8159 17.5772C14.9462 17.4256 14.9823 17.3331 15.2681 17.2133C15.6678 17.0407 15.3929 16.8177 15.3929 16.8177C15.4369 16.7744 15.484 16.7344 15.5338 16.6979C15.6369 16.6201 15.7567 16.5254 15.7463 16.3591C15.7316 16.0794 15.6791 15.6734 15.4497 15.4378C15.6727 15.3915 16.0996 15.36 16.3649 15.2928C16.6719 15.2148 16.813 15.1054 16.813 15.1054C16.813 15.1054 16.6363 14.8047 16.9224 14.5018C17.2084 14.199 17.4419 14.018 17.6144 13.6792C17.4167 13.654 17.1152 13.5489 16.3459 13.8412C16.3875 13.8607 16.4275 13.8832 16.4659 13.9085C16.4659 13.9085 15.9926 14.0389 15.8201 14.1841C15.5192 14.4386 15.4813 14.6469 15.1553 14.8026C14.8293 14.9583 14.5011 14.9161 14.2299 15.0423C13.9586 15.1685 13.9186 15.2758 13.8196 15.3222C13.8406 15.3474 13.8154 15.3894 13.8553 15.4252C13.8301 15.461 13.6828 15.7007 13.5335 15.7007C13.5482 15.7576 13.6744 15.7996 13.6744 15.7996C13.6744 15.7996 13.5819 15.867 13.3463 15.8838C13.4661 16.0086 13.5798 16.1446 13.8932 16.3423C13.8679 16.3949 13.7627 16.4728 13.8049 16.5717C13.8512 16.6706 13.9713 16.8052 14.4506 16.9146C14.2066 16.925 13.9206 16.9819 13.5354 16.9293C13.1505 16.883 13.0874 16.8557 12.8497 16.9146C12.875 16.9398 12.9422 16.9398 13.0011 17.0071C12.9381 17.0113 12.5426 16.9608 12.4079 17.1376C12.267 17.3205 12.206 17.6214 12.2166 17.8233C12.1429 17.8591 12.0714 17.9222 12.1072 18.0526C12.1429 18.1831 12.3301 18.2251 12.4501 18.3071C12.5699 18.3954 12.5804 18.4269 12.6941 18.406C12.8139 18.3807 12.9906 18.2609 13.0938 18.2609C13.1969 18.2609 13.2704 18.3387 13.2704 18.3387C13.2704 18.3387 13.5503 18.2041 13.5776 18.2293C13.6028 18.2545 13.5817 18.4165 13.6091 18.4417C13.6368 18.4607 13.952 18.2735 14.0362 18.2208H14.0355Z" fill="#ECD592"/>
</svg>
