<svg width="26" height="26" viewBox="0 0 26 26" fill="none" xmlns="http://www.w3.org/2000/svg">
<circle cx="13" cy="13" r="13" fill="#EDF0F4"/>
<path d="M13.0559 4.3335C9.44125 4.34802 6.51452 7.27474 6.5 10.8894C6.5 11.6133 6.61685 12.3324 6.8457 13.019C7.01648 13.4863 7.52328 13.738 7.99897 13.5935C8.45876 13.4172 8.70282 12.9146 8.55625 12.4444C8.36196 11.9092 8.27553 11.3416 8.30112 10.7733C8.37994 8.16251 10.5599 6.10972 13.1707 6.18854C15.7815 6.26736 17.8342 8.44737 17.7554 11.0581C17.6814 13.5023 15.7566 15.4873 13.3152 15.6359C13.3152 15.6359 12.3949 15.6919 11.9372 15.7479C11.7685 15.7721 11.6012 15.8053 11.436 15.8475C11.4124 15.8717 11.3744 15.8717 11.3502 15.8482L11.3495 15.8475C11.3329 15.8261 11.3329 15.7956 11.3495 15.7742L11.492 14.9971L12.3562 11.11C12.4599 10.6246 12.1509 10.1469 11.6655 10.0431C11.1801 9.93943 10.7024 10.2485 10.5987 10.7339C10.5987 10.7339 8.54311 20.2483 8.54311 20.3347C8.42557 20.7973 8.7049 21.2674 9.16745 21.385C9.17229 21.3864 9.17782 21.3878 9.18266 21.3884H9.23037C9.69223 21.5081 10.1638 21.2301 10.2827 20.7683C10.2848 20.7606 10.2868 20.753 10.2882 20.7447C10.2868 20.7302 10.2868 20.7157 10.2882 20.7019C10.3138 20.5899 10.5731 19.3239 10.5731 19.3239C10.7694 18.3684 11.5397 17.6362 12.5035 17.4882C12.7019 17.4578 13.5358 17.4018 13.5358 17.4018C17.1366 17.0429 19.7647 13.8327 19.4051 10.2319C19.0774 6.94771 16.3567 4.41923 13.0559 4.3335Z" fill="#1E1E1E"/>
<path d="M13.4537 19.4499C12.8625 19.3269 12.2845 19.7064 12.1614 20.2969C12.1601 20.3024 12.1594 20.308 12.158 20.3135C12.0301 20.9005 12.4021 21.4806 12.9898 21.6085C12.9904 21.6085 12.9911 21.6085 12.9918 21.6092H13.0222C13.5975 21.7482 14.1762 21.3942 14.3145 20.8196C14.3159 20.8155 14.3166 20.8106 14.3179 20.8065V20.7463C14.4196 20.1531 14.0407 19.5841 13.4537 19.4499Z" fill="#E6007A"/>
</svg>
