<svg width="26" height="26" viewBox="0 0 26 26" fill="none" xmlns="http://www.w3.org/2000/svg">
<g clip-path="url(#clip0_2009_24012)">
<path d="M20.6006 0.14209H5.39843C2.49516 0.14209 0.141602 2.49565 0.141602 5.39892V20.6011C0.141602 23.5044 2.49516 25.8579 5.39843 25.8579H20.6006C23.5039 25.8579 25.8574 23.5044 25.8574 20.6011V5.39892C25.8574 2.49565 23.5039 0.14209 20.6006 0.14209Z" fill="url(#paint0_linear_2009_24012)"/>
<path d="M16.3838 6.10938L6.39355 20.1738H9.46077L19.5028 6.10938H16.3838Z" fill="white"/>
<path d="M9.78054 6.10938L12.72 10.2537L11.1863 12.5142L6.64941 6.10938H9.78054Z" fill="url(#paint1_linear_2009_24012)"/>
<path d="M16.6817 20.1749L13.4229 15.5911L14.9565 13.3933L19.749 20.1749H16.6817Z" fill="url(#paint2_linear_2009_24012)"/>
<path d="M20.6006 0.14209H5.39843C2.49516 0.14209 0.141602 2.49565 0.141602 5.39892V20.6011C0.141602 23.5044 2.49516 25.8579 5.39843 25.8579H20.6006C23.5039 25.8579 25.8574 23.5044 25.8574 20.6011V5.39892C25.8574 2.49565 23.5039 0.14209 20.6006 0.14209Z" stroke="#2D2D3D" stroke-width="2"/>
<circle cx="13" cy="13" r="12.25" stroke="#EDEFF2" stroke-width="1.5"/>
</g>
<defs>
<linearGradient id="paint0_linear_2009_24012" x1="20.9558" y1="-3.48086" x2="14.6334" y2="22.8033" gradientUnits="userSpaceOnUse">
<stop stop-color="#2C2C3D"/>
<stop offset="1" stop-color="#1A1A27"/>
</linearGradient>
<linearGradient id="paint1_linear_2009_24012" x1="9.07763" y1="6.98847" x2="13.1986" y2="12.0511" gradientUnits="userSpaceOnUse">
<stop stop-color="white"/>
<stop offset="1" stop-color="white" stop-opacity="0.55"/>
</linearGradient>
<linearGradient id="paint2_linear_2009_24012" x1="17.3847" y1="19.1075" x2="12.3308" y2="12.1741" gradientUnits="userSpaceOnUse">
<stop stop-color="#6966FF"/>
<stop offset="1" stop-color="#6966FF" stop-opacity="0.36"/>
</linearGradient>
<clipPath id="clip0_2009_24012">
<rect width="26" height="26" rx="13" fill="white"/>
</clipPath>
</defs>
</svg>
