<svg width="26" height="26" viewBox="0 0 26 26" fill="none" xmlns="http://www.w3.org/2000/svg">
<circle cx="13" cy="13" r="12.25" fill="#EDF0F4" stroke="#EDEFF2" stroke-width="1.5"/>
<path fill-rule="evenodd" clip-rule="evenodd" d="M17.5234 8.42273C17.4642 8.36355 17.4287 8.30437 17.4287 8.22152C17.4287 8.13868 17.4642 8.0795 17.5234 8.02032C17.6418 7.9138 17.8311 7.9138 17.9613 8.02032C18.0205 8.0795 18.056 8.13868 18.056 8.22152C18.056 8.30437 18.0205 8.36355 17.9613 8.42273C17.9021 8.47007 17.8193 8.50558 17.7483 8.50558C17.6654 8.51741 17.5826 8.49374 17.5234 8.42273Z" fill="#0D022B"/>
<path fill-rule="evenodd" clip-rule="evenodd" d="M16.7664 9.23913C16.7191 9.17996 16.6836 9.12078 16.6836 9.03793C16.6836 8.95508 16.7191 8.8959 16.7664 8.83673C16.873 8.73021 17.0623 8.73021 17.1689 8.83673C17.2162 8.8959 17.2517 8.95508 17.2517 9.03793C17.2517 9.12078 17.2162 9.17996 17.1689 9.23913C17.1097 9.28648 17.0505 9.32198 16.9676 9.32198C16.8848 9.32198 16.8256 9.28648 16.7664 9.23913Z" fill="#0D022B"/>
<path fill-rule="evenodd" clip-rule="evenodd" d="M15.9373 10.0204C15.89 9.97304 15.8545 9.90203 15.8545 9.81918C15.8545 9.73633 15.89 9.67715 15.9373 9.61798C16.0439 9.51146 16.2332 9.51146 16.3397 9.61798C16.3871 9.66532 16.4226 9.73633 16.4226 9.81918C16.4226 9.90203 16.3871 9.96121 16.3397 10.0204C16.2806 10.0796 16.2214 10.1032 16.1385 10.1032C16.0557 10.1032 15.9847 10.0677 15.9373 10.0204Z" fill="#0D022B"/>
<path fill-rule="evenodd" clip-rule="evenodd" d="M15.1445 10.8134C15.0853 10.766 15.0498 10.695 15.0498 10.6121C15.0498 10.5293 15.0853 10.4701 15.1445 10.4109C15.2628 10.3044 15.4522 10.3044 15.5824 10.4109C15.6416 10.4583 15.6771 10.5293 15.6771 10.6121C15.6771 10.695 15.6416 10.766 15.5824 10.8134C15.5232 10.8725 15.4404 10.8962 15.3694 10.8962C15.2865 10.8962 15.2155 10.8844 15.1445 10.8134Z" fill="#0D022B"/>
<path fill-rule="evenodd" clip-rule="evenodd" d="M14.3866 11.6063C14.3274 11.559 14.3037 11.488 14.3037 11.4051C14.3037 11.3223 14.3392 11.2631 14.3866 11.2039C14.4931 11.0974 14.6824 11.0974 14.789 11.2039C14.8481 11.2513 14.8718 11.3223 14.8718 11.4051C14.8718 11.488 14.8363 11.559 14.789 11.6063C14.7416 11.6655 14.6706 11.6892 14.5878 11.6892C14.5168 11.701 14.4339 11.6773 14.3866 11.6063Z" fill="#0D022B"/>
<path fill-rule="evenodd" clip-rule="evenodd" d="M13.4756 12.1981C13.4756 12.1152 13.5111 12.0561 13.5584 11.9969C13.665 11.8904 13.8543 11.8904 13.9608 11.9969C14.02 12.0561 14.0437 12.1152 14.0437 12.1981C14.0437 12.2809 14.0082 12.3401 13.9608 12.3993C13.9135 12.4466 13.8425 12.4821 13.7596 12.4821C13.6768 12.4821 13.6176 12.4466 13.5584 12.3993C13.4993 12.3519 13.4756 12.2809 13.4756 12.1981Z" fill="#0D022B"/>
<path fill-rule="evenodd" clip-rule="evenodd" d="M11.9959 13.9501C11.9486 13.9027 11.9131 13.8317 11.9131 13.7489C11.9131 13.666 11.9486 13.6068 11.9959 13.5477C12.1025 13.4411 12.2918 13.4411 12.3983 13.5477C12.4575 13.6068 12.4812 13.666 12.4812 13.7489C12.4812 13.8317 12.4457 13.8909 12.3983 13.9501C12.351 14.0093 12.28 14.0329 12.1971 14.0329C12.1261 14.0448 12.0551 14.0211 11.9959 13.9501Z" fill="#0D022B"/>
<path fill-rule="evenodd" clip-rule="evenodd" d="M11.1796 14.743C11.1205 14.6957 11.085 14.6247 11.085 14.5418C11.085 14.459 11.1205 14.3998 11.1796 14.3406C11.298 14.2341 11.4874 14.2341 11.6176 14.3406C11.6767 14.3998 11.7122 14.459 11.7122 14.5418C11.7122 14.6247 11.6767 14.6839 11.6176 14.743C11.5584 14.8022 11.4755 14.8259 11.4045 14.8259C11.3098 14.8377 11.2388 14.8022 11.1796 14.743Z" fill="#0D022B"/>
<path fill-rule="evenodd" clip-rule="evenodd" d="M10.41 15.5477C10.3627 15.5004 10.3271 15.4294 10.3271 15.3465C10.3271 15.2637 10.3627 15.1927 10.41 15.1453C10.5165 15.0388 10.7059 15.0388 10.8124 15.1453C10.8597 15.1927 10.8953 15.2637 10.8953 15.3465C10.8953 15.4294 10.8597 15.4886 10.8124 15.5477C10.7532 15.6069 10.6941 15.6306 10.6112 15.6306C10.5284 15.6306 10.481 15.5951 10.41 15.5477Z" fill="#0D022B"/>
<path fill-rule="evenodd" clip-rule="evenodd" d="M9.61703 16.3407C9.55785 16.2934 9.53418 16.2223 9.53418 16.1395C9.53418 16.0566 9.56969 15.9975 9.61703 15.9383C9.72355 15.8318 9.91292 15.8318 10.0194 15.9383C10.0668 15.9975 10.1023 16.0566 10.1023 16.1395C10.1023 16.2223 10.0668 16.2934 10.0194 16.3407C9.96026 16.3999 9.90108 16.4235 9.81823 16.4235C9.74722 16.4235 9.66437 16.3999 9.61703 16.3407Z" fill="#0D022B"/>
<path fill-rule="evenodd" clip-rule="evenodd" d="M8.80074 17.1337C8.74156 17.0863 8.70605 17.0153 8.70605 16.9325C8.70605 16.8496 8.74156 16.7904 8.80074 16.7313C8.91909 16.6247 9.10846 16.6247 9.21498 16.7313C9.27416 16.7904 9.30967 16.8496 9.30967 16.9325C9.30967 17.0153 9.27416 17.0863 9.21498 17.1337C9.15581 17.181 9.07296 17.2165 9.00194 17.2165C8.91909 17.2165 8.84808 17.1928 8.80074 17.1337Z" fill="#0D022B"/>
<path fill-rule="evenodd" clip-rule="evenodd" d="M8.01937 17.9266C7.96019 17.8675 7.93652 17.8083 7.93652 17.7254C7.93652 17.6426 7.97203 17.5834 8.01937 17.5242C8.12589 17.4177 8.31526 17.4177 8.42178 17.5242C8.48096 17.5834 8.50463 17.6426 8.50463 17.7254C8.50463 17.8083 8.46912 17.8675 8.42178 17.9266C8.37444 17.974 8.30343 18.0095 8.22058 18.0095C8.1614 18.0213 8.09039 17.9858 8.01937 17.9266Z" fill="#0D022B"/>
<path fill-rule="evenodd" clip-rule="evenodd" d="M8.42178 8.42273C8.46912 8.36355 8.50463 8.30437 8.50463 8.22152C8.50463 8.13868 8.46912 8.0795 8.42178 8.02032C8.31526 7.9138 8.12589 7.9138 8.01937 8.02032C7.96019 8.0795 7.93652 8.13868 7.93652 8.22152C7.93652 8.30437 7.97203 8.36355 8.01937 8.42273C8.06671 8.47007 8.13773 8.50558 8.22058 8.50558C8.30343 8.51741 8.37444 8.49374 8.42178 8.42273Z" fill="#0D022B"/>
<path fill-rule="evenodd" clip-rule="evenodd" d="M9.21522 9.23913C9.27439 9.17996 9.3099 9.12078 9.3099 9.03793C9.3099 8.95508 9.27439 8.8959 9.21522 8.83673C9.09686 8.73021 8.90749 8.73021 8.7773 8.83673C8.71812 8.8959 8.68262 8.95508 8.68262 9.03793C8.68262 9.12078 8.71812 9.17996 8.7773 9.23913C8.83648 9.28648 8.91933 9.32198 8.99034 9.32198C9.07319 9.31015 9.15604 9.28648 9.21522 9.23913Z" fill="#0D022B"/>
<path fill-rule="evenodd" clip-rule="evenodd" d="M10.0194 10.0204C10.0668 9.97304 10.1023 9.90203 10.1023 9.81918C10.1023 9.73633 10.0668 9.67715 10.0194 9.61798C9.91292 9.51146 9.72355 9.51146 9.61703 9.61798C9.56969 9.66532 9.53418 9.73633 9.53418 9.81918C9.53418 9.90203 9.56969 9.96121 9.61703 10.0204C9.67621 10.0796 9.73538 10.1032 9.81823 10.1032C9.88925 10.1032 9.96026 10.0677 10.0194 10.0204Z" fill="#0D022B"/>
<path fill-rule="evenodd" clip-rule="evenodd" d="M10.8124 10.8134C10.8597 10.766 10.8953 10.695 10.8953 10.6121C10.8953 10.5293 10.8597 10.4701 10.8124 10.4109C10.7059 10.3044 10.5165 10.3044 10.41 10.4109C10.3627 10.4583 10.3271 10.5293 10.3271 10.6121C10.3271 10.695 10.3627 10.766 10.41 10.8134C10.4692 10.8725 10.5284 10.8962 10.6112 10.8962C10.6822 10.8962 10.7532 10.8844 10.8124 10.8134Z" fill="#0D022B"/>
<path fill-rule="evenodd" clip-rule="evenodd" d="M11.5939 11.6063C11.6531 11.559 11.6886 11.488 11.6886 11.4051C11.6886 11.3223 11.6531 11.2631 11.5939 11.2039C11.4874 11.0974 11.2862 11.0974 11.1796 11.2039C11.1205 11.2513 11.085 11.3223 11.085 11.4051C11.085 11.488 11.1205 11.559 11.1796 11.6063C11.2388 11.6655 11.3217 11.6892 11.3927 11.6892C11.4637 11.701 11.5465 11.6773 11.5939 11.6063Z" fill="#0D022B"/>
<path fill-rule="evenodd" clip-rule="evenodd" d="M12.4812 12.1981C12.4812 12.1152 12.4457 12.0561 12.3983 11.9969C12.2918 11.8904 12.1025 11.8904 11.9959 11.9969C11.9368 12.0561 11.9131 12.1152 11.9131 12.1981C11.9131 12.2809 11.9486 12.3401 11.9959 12.3993C12.0433 12.4466 12.1143 12.4821 12.1971 12.4821C12.28 12.4821 12.3392 12.4466 12.3983 12.3993C12.4575 12.3519 12.4812 12.2809 12.4812 12.1981Z" fill="#0D022B"/>
<path fill-rule="evenodd" clip-rule="evenodd" d="M13.1913 13.205C13.2505 13.1458 13.2742 13.0866 13.2742 13.0038C13.2742 12.9209 13.2387 12.8617 13.1913 12.8025C13.0848 12.696 12.8954 12.696 12.7889 12.8025C12.7297 12.8617 12.7061 12.9209 12.7061 13.0038C12.7061 13.0866 12.7416 13.1458 12.7889 13.205C12.8362 13.2523 12.9073 13.2878 12.9901 13.2878C13.073 13.2878 13.144 13.2523 13.1913 13.205Z" fill="#0D022B"/>
<path fill-rule="evenodd" clip-rule="evenodd" d="M13.9845 13.9501C14.0437 13.9027 14.0792 13.8317 14.0792 13.7489C14.0792 13.666 14.0437 13.6068 13.9845 13.5477C13.8662 13.4411 13.6768 13.4411 13.5703 13.5477C13.5111 13.6068 13.4756 13.666 13.4756 13.7489C13.4756 13.8317 13.5111 13.8909 13.5703 13.9501C13.6294 14.0093 13.7123 14.0329 13.7833 14.0329C13.8425 14.0448 13.9253 14.0211 13.9845 13.9501Z" fill="#0D022B"/>
<path fill-rule="evenodd" clip-rule="evenodd" d="M14.789 14.743C14.8363 14.6957 14.8718 14.6247 14.8718 14.5418C14.8718 14.459 14.8363 14.3998 14.789 14.3406C14.6824 14.2341 14.4931 14.2341 14.3866 14.3406C14.3392 14.3998 14.3037 14.459 14.3037 14.5418C14.3037 14.6247 14.3392 14.6839 14.3866 14.743C14.4457 14.8022 14.5049 14.8259 14.5878 14.8259C14.6469 14.8377 14.7298 14.8022 14.789 14.743Z" fill="#0D022B"/>
<path fill-rule="evenodd" clip-rule="evenodd" d="M15.5819 15.5477C15.6293 15.5004 15.6648 15.4294 15.6648 15.3465C15.6648 15.2637 15.6293 15.1927 15.5819 15.1453C15.4754 15.0388 15.286 15.0388 15.1795 15.1453C15.1322 15.1927 15.0967 15.2637 15.0967 15.3465C15.0967 15.4294 15.1322 15.4886 15.1795 15.5477C15.2387 15.6069 15.2979 15.6306 15.3807 15.6306C15.4636 15.6306 15.5228 15.5951 15.5819 15.5477Z" fill="#0D022B"/>
<path fill-rule="evenodd" clip-rule="evenodd" d="M16.328 16.3407C16.3872 16.2934 16.4109 16.2223 16.4109 16.1395C16.4109 16.0566 16.3754 15.9975 16.328 15.9383C16.2215 15.8318 16.0321 15.8318 15.9256 15.9383C15.8783 15.9975 15.8428 16.0566 15.8428 16.1395C15.8428 16.2223 15.8783 16.2934 15.9256 16.3407C15.9848 16.3999 16.044 16.4235 16.1268 16.4235C16.1978 16.4235 16.2807 16.3999 16.328 16.3407Z" fill="#0D022B"/>
<path fill-rule="evenodd" clip-rule="evenodd" d="M17.1689 17.1337C17.228 17.0863 17.2517 17.0153 17.2517 16.9325C17.2517 16.8496 17.2162 16.7904 17.1689 16.7313C17.0623 16.6247 16.873 16.6247 16.7664 16.7313C16.7073 16.7904 16.6836 16.8496 16.6836 16.9325C16.6836 17.0153 16.7191 17.0863 16.7664 17.1337C16.8138 17.181 16.8848 17.2165 16.9676 17.2165C17.0505 17.2165 17.1215 17.1928 17.1689 17.1337Z" fill="#0D022B"/>
<path fill-rule="evenodd" clip-rule="evenodd" d="M17.9611 17.9266C18.0203 17.8675 18.0558 17.8083 18.0558 17.7254C18.0558 17.6426 18.0203 17.5834 17.9611 17.5242C17.8427 17.4177 17.6534 17.4177 17.5468 17.5242C17.4877 17.5834 17.4521 17.6426 17.4521 17.7254C17.4521 17.8083 17.4877 17.8675 17.5468 17.9266C17.606 17.974 17.6889 18.0095 17.7599 18.0095C17.8191 18.0213 17.8901 17.9858 17.9611 17.9266Z" fill="#0D022B"/>
<path fill-rule="evenodd" clip-rule="evenodd" d="M10.3038 8.6481C11.1086 8.1155 11.9963 7.86695 12.9786 7.85512C13.9373 7.85512 14.825 8.1155 15.6535 8.6481L17.3578 6.94378C16.0204 5.92592 14.5764 5.41699 12.9786 5.41699C11.3808 5.41699 9.91324 5.92592 8.61133 6.94378L10.3038 8.6481Z" fill="#0D022B"/>
<path fill-rule="evenodd" clip-rule="evenodd" d="M8.59978 15.6423C8.05534 14.8138 7.79496 13.938 7.79496 12.9911C7.79496 12.0324 8.05534 11.1448 8.59978 10.3399L6.9073 8.64746C5.91311 9.94937 5.41602 11.3933 5.41602 13.0029C5.41602 14.5889 5.91311 16.0447 6.91913 17.3703L8.59978 15.6423Z" fill="#0D022B"/>
<path fill-rule="evenodd" clip-rule="evenodd" d="M15.6418 17.335C14.8369 17.8794 13.9493 18.1634 12.9906 18.1753C12.0082 18.1753 11.1087 17.9149 10.3039 17.3468L8.59961 19.0393C9.91336 20.069 11.381 20.5779 12.9906 20.5661C14.5884 20.5542 16.0323 20.0335 17.3342 19.0393L15.6418 17.335Z" fill="#0D022B"/>
<path fill-rule="evenodd" clip-rule="evenodd" d="M17.3105 10.3169C17.855 11.1453 18.139 12.0448 18.1154 13.0154C18.1035 13.9622 17.8313 14.8262 17.3105 15.6192L19.0149 17.3117C20.0209 16.0098 20.5417 14.5658 20.5417 12.9799C20.5535 11.3702 20.0446 9.90261 19.0149 8.58887L17.3105 10.3169Z" fill="#0D022B"/>
<path fill-rule="evenodd" clip-rule="evenodd" d="M19.085 17.8672C19.736 17.8672 20.2804 18.3998 20.2804 19.0626C20.2804 19.7135 19.7478 20.258 19.085 20.258C18.4341 20.258 17.8896 19.7254 17.8896 19.0626C17.8896 18.3998 18.4222 17.8672 19.085 17.8672Z" fill="#0D022B"/>
<path fill-rule="evenodd" clip-rule="evenodd" d="M6.89547 17.8672C7.54643 17.8672 8.07903 18.3998 8.07903 19.0626C8.07903 19.7135 7.54643 20.258 6.89547 20.258C6.24451 20.258 5.71191 19.7254 5.71191 19.0626C5.71191 18.3998 6.24451 17.8672 6.89547 17.8672Z" fill="#0D022B"/>
<path fill-rule="evenodd" clip-rule="evenodd" d="M19.1093 5.67676C19.7603 5.67676 20.2929 6.20936 20.2929 6.87215C20.2929 7.53494 19.7603 8.06754 19.1093 8.06754C18.4584 8.06754 17.9258 7.53494 17.9258 6.87215C17.9258 6.20936 18.4584 5.67676 19.1093 5.67676Z" fill="#0D022B"/>
<path fill-rule="evenodd" clip-rule="evenodd" d="M6.87215 5.67676C7.5231 5.67676 8.06754 6.20936 8.06754 6.86031C8.06754 7.51127 7.53494 8.04387 6.87215 8.04387C6.22119 8.04387 5.67676 7.51127 5.67676 6.86031C5.67676 6.20936 6.20936 5.67676 6.87215 5.67676Z" fill="#0D022B"/>
</svg>
