<svg width="26" height="26" viewBox="0 0 26 26" fill="none" xmlns="http://www.w3.org/2000/svg">
<g clip-path="url(#clip0_2009_23757)">
<circle cx="13" cy="13" r="12.25" fill="#EDF0F4" stroke="#EDEFF2" stroke-width="1.5"/>
<path d="M4.81072 10.9197C5.05284 11.382 5.65814 12.3066 5.65814 12.3066L12.5889 2L5.83973 6.24227C5.44629 6.48702 5.11337 6.81335 4.87125 7.19407C4.23568 8.36341 4.23568 9.72311 4.81072 10.9197Z" fill="url(#paint0_linear_2009_23757)"/>
<path d="M2.09499 14.2914C2.24631 16.2765 3.36613 18.1257 5.12151 19.3223L12.597 23.9996C12.597 23.9996 7.90591 17.9354 3.97143 11.8983C3.57798 11.2728 3.3056 10.5658 3.18453 9.83153C3.124 9.5052 3.124 9.17887 3.18453 8.85254C3.09374 9.0157 2.88188 9.36923 2.88188 9.36923C2.48843 10.1035 2.21605 10.8921 2.06472 11.7079C1.97392 12.5781 1.97392 13.4483 2.09499 14.2914Z" fill="#A0A8D4"/>
<path d="M21.1649 15.1066C20.9228 14.6443 20.3175 13.7197 20.3175 13.7197L13.3867 23.9991L20.1661 19.784C20.5596 19.5393 20.8925 19.2129 21.1346 18.8322C21.7399 17.6629 21.7702 16.3032 21.1649 15.1066Z" fill="url(#paint1_linear_2009_23757)"/>
<path d="M23.9122 11.7083C23.7609 9.72312 22.6411 7.87392 20.8857 6.67738L13.4102 2C13.4102 2 18.1013 8.06428 22.0358 14.1014C22.4292 14.7268 22.7016 15.4339 22.8227 16.1681C22.8832 16.4944 22.8832 16.8208 22.8227 17.1471C22.9134 16.9839 23.1253 16.6304 23.1253 16.6304C23.5188 15.8962 23.7911 15.1075 23.9425 14.3189C24.003 13.4215 24.003 12.5785 23.9122 11.7083Z" fill="#A0A8D4"/>
<path d="M4.87939 7.19407C5.12151 6.81335 5.42416 6.48702 5.84788 6.24227L12.597 2L5.66629 12.2794C5.66629 12.2794 5.06098 11.3548 4.81886 10.8925C4.24382 9.72311 4.24382 8.36341 4.87939 7.19407ZM2.09499 14.2917C2.24631 16.2769 3.36613 18.1261 5.12151 19.3226L12.597 24C12.597 24 7.90591 17.9357 3.97143 11.8986C3.57798 11.2732 3.3056 10.5661 3.18453 9.83189C3.124 9.50556 3.124 9.17923 3.18453 8.8529C3.09374 9.01607 2.88188 9.36959 2.88188 9.36959C2.48843 10.1038 2.21605 10.8925 2.06472 11.7083C1.97392 12.5785 1.97392 13.4487 2.09499 14.2917ZM21.1621 15.1075C20.92 14.6452 20.3147 13.7206 20.3147 13.7206L13.3839 24L20.1633 19.7849C20.5568 19.5402 20.8897 19.2138 21.1318 18.8331C21.7371 17.6638 21.7674 16.3041 21.1621 15.1075ZM23.886 11.7355C23.7346 9.75031 22.6148 7.90111 20.8594 6.70457L13.4142 2C13.4142 2 18.1053 8.06428 22.0398 14.1014C22.4332 14.7268 22.7056 15.4339 22.8267 16.1681C22.8872 16.4944 22.8872 16.8208 22.8267 17.1471C22.9175 16.9839 23.1293 16.6304 23.1293 16.6304C23.5228 15.8962 23.7952 15.1075 23.9465 14.3189C24.007 13.4215 24.007 12.5785 23.886 11.7355Z" fill="url(#paint2_linear_2009_23757)"/>
</g>
<defs>
<linearGradient id="paint0_linear_2009_23757" x1="12.9041" y1="2.25783" x2="5.02723" y2="11.7613" gradientUnits="userSpaceOnUse">
<stop offset="0.58" stop-color="#A0A8D4"/>
<stop offset="0.73" stop-color="#8791C7"/>
<stop offset="0.91" stop-color="#6470B4"/>
</linearGradient>
<linearGradient id="paint1_linear_2009_23757" x1="13.1018" y1="23.7594" x2="20.976" y2="14.2623" gradientUnits="userSpaceOnUse">
<stop offset="0.58" stop-color="#A0A8D4"/>
<stop offset="0.73" stop-color="#8791C7"/>
<stop offset="0.91" stop-color="#6470B4"/>
</linearGradient>
<linearGradient id="paint2_linear_2009_23757" x1="12.9973" y1="1.89125" x2="12.9973" y2="24.0816" gradientUnits="userSpaceOnUse">
<stop stop-color="#513EFF"/>
<stop offset="0.18" stop-color="#5157FF"/>
<stop offset="0.57" stop-color="#5298FF"/>
<stop offset="1" stop-color="#52E5FF"/>
</linearGradient>
<clipPath id="clip0_2009_23757">
<rect width="26" height="26" fill="white"/>
</clipPath>
</defs>
</svg>
