<svg width="26" height="26" viewBox="0 0 26 26" fill="none" xmlns="http://www.w3.org/2000/svg">
<mask id="path-2-inside-1_2009_26189" fill="white">
<path fill-rule="evenodd" clip-rule="evenodd" d="M13 26C5.85 26 0 20.1501 0 12.9353C0.065 5.78542 5.85 -0.0644622 13.065 0.000536471C20.215 0.0655351 26 5.85042 26 13.1303C25.935 20.2151 20.15 26 13 26Z"/>
</mask>
<path fill-rule="evenodd" clip-rule="evenodd" d="M13 26C5.85 26 0 20.1501 0 12.9353C0.065 5.78542 5.85 -0.0644622 13.065 0.000536471C20.215 0.0655351 26 5.85042 26 13.1303C25.935 20.2151 20.15 26 13 26Z" fill="black"/>
<path d="M0 12.9353L-1.5 12.9216V12.9353H0ZM13.065 0.000536471L13.0786 -1.4994L13.0785 -1.4994L13.065 0.000536471ZM26 13.1303L27.5 13.144V13.1303H26ZM13 26V24.5C6.68326 24.5 1.5 19.3265 1.5 12.9353H0H-1.5C-1.5 20.9737 5.01674 27.5 13 27.5V26ZM0 12.9353L1.49994 12.9489C1.5576 6.60664 6.68544 1.44313 13.0515 1.50048L13.065 0.000536471L13.0785 -1.4994C5.01456 -1.57205 -1.4276 4.96419 -1.49994 12.9216L0 12.9353ZM13.065 0.000536471L13.0514 1.50047C19.3765 1.55797 24.5 6.67176 24.5 13.1303H26H27.5C27.5 5.02907 21.0535 -1.4269 13.0786 -1.4994L13.065 0.000536471ZM26 13.1303L24.5001 13.1165C24.4426 19.3814 19.3238 24.5 13 24.5V26V27.5C20.9762 27.5 27.4274 21.0488 27.4999 13.144L26 13.1303Z" fill="#EDEFF2" mask="url(#path-2-inside-1_2009_26189)"/>
<path fill-rule="evenodd" clip-rule="evenodd" d="M8.84906 9.91483L12.9051 4.3335L16.9264 9.88016L18.6597 18.1655L12.9051 21.6668L7.15039 18.1655L8.84906 9.91483ZM9.36906 11.5095L8.08639 17.7842L12.2811 20.3495L9.36906 11.5095ZM9.78506 10.0882L12.9051 5.7895L16.0251 10.0882L12.9051 19.5175L9.78506 10.0882ZM16.4064 11.5095L13.4944 20.3495L17.6891 17.7842L16.4064 11.5095Z" fill="white"/>
</svg>
