<svg width="26" height="26" viewBox="0 0 26 26" fill="none" xmlns="http://www.w3.org/2000/svg">
<circle cx="13" cy="13" r="12.25" transform="matrix(0 1 1 0 0 0)" fill="#EDF0F4" stroke="#EDEFF2" stroke-width="1.5"/>
<path fill-rule="evenodd" clip-rule="evenodd" d="M8.16016 13.7545L12.9559 16.2792L17.7125 13.7388L12.935 20.7456L8.16016 13.7545ZM8.34375 13.0255L12.9618 15.4897L17.5198 13.0435L12.9644 10.5766L8.34375 13.0255ZM8.16016 12.3197C9.84324 11.4259 11.5995 10.4903 12.9559 9.76635L17.7125 12.3197C15.9902 9.76115 14.5552 7.6311 12.9559 5.27372L12.0313 6.63104C10.6962 8.591 9.31482 10.6187 8.16016 12.3197Z" fill="#3AB83A"/>
<path fill-rule="evenodd" clip-rule="evenodd" d="M12.9375 20.7456L12.9584 16.279L17.715 13.7388L12.9375 20.7456ZM12.9648 15.4897L17.5228 13.0435L12.9674 10.5766L12.9648 15.4897ZM12.957 9.76635L17.7136 12.3197C15.9913 9.76115 12.957 5.27372 12.957 5.27372V9.76635Z" fill="#0B8311"/>
<path d="M8.34375 13.0254L12.9621 12.6464L17.52 13.041L12.9644 10.5739L8.34375 13.0254Z" fill="#0B8311"/>
<path d="M12.9609 12.6464L17.5189 13.041L12.9635 10.5739L12.9609 12.6464Z" fill="#146714"/>
</svg>
