<svg width="26" height="26" viewBox="0 0 26 26" fill="none" xmlns="http://www.w3.org/2000/svg">
<mask id="path-2-inside-1_2009_26162" fill="white">
<path fill-rule="evenodd" clip-rule="evenodd" d="M13 26C5.85 26 0 20.1501 0 12.9353C0.065 5.78542 5.85 -0.0644622 13.065 0.000536471C20.215 0.0655351 26 5.85042 26 13.1303C25.935 20.2151 20.15 26 13 26Z"/>
</mask>
<path fill-rule="evenodd" clip-rule="evenodd" d="M13 26C5.85 26 0 20.1501 0 12.9353C0.065 5.78542 5.85 -0.0644622 13.065 0.000536471C20.215 0.0655351 26 5.85042 26 13.1303C25.935 20.2151 20.15 26 13 26Z" fill="#0090FF"/>
<path d="M0 12.9353L-1.5 12.9216V12.9353H0ZM13.065 0.000536471L13.0786 -1.4994L13.0785 -1.4994L13.065 0.000536471ZM26 13.1303L27.5 13.144V13.1303H26ZM13 26V24.5C6.68326 24.5 1.5 19.3265 1.5 12.9353H0H-1.5C-1.5 20.9737 5.01674 27.5 13 27.5V26ZM0 12.9353L1.49994 12.9489C1.5576 6.60664 6.68544 1.44313 13.0515 1.50048L13.065 0.000536471L13.0785 -1.4994C5.01456 -1.57205 -1.4276 4.96419 -1.49994 12.9216L0 12.9353ZM13.065 0.000536471L13.0514 1.50047C19.3765 1.55797 24.5 6.67176 24.5 13.1303H26H27.5C27.5 5.02907 21.0535 -1.4269 13.0786 -1.4994L13.065 0.000536471ZM26 13.1303L24.5001 13.1165C24.4426 19.3814 19.3238 24.5 13 24.5V26V27.5C20.9762 27.5 27.4274 21.0488 27.4999 13.144L26 13.1303Z" fill="#EDEFF2" mask="url(#path-2-inside-1_2009_26162)"/>
<path fill-rule="evenodd" clip-rule="evenodd" d="M14.1279 11.4757L13.7412 13.5584L17.4146 14.0791L17.1568 15.0554L13.5479 14.5347C13.2901 15.3808 13.1612 16.292 12.839 17.073C12.5168 17.9842 12.1946 18.8953 11.8079 19.7414C11.2924 20.8479 10.3901 21.6289 9.16569 21.8241C8.4568 21.9543 7.68346 21.8892 7.10346 21.4336C6.91013 21.3035 6.7168 21.0431 6.7168 20.8479C6.7168 20.5875 6.84569 20.2621 7.03902 20.1319C7.16791 20.0669 7.49013 20.1319 7.68346 20.197C7.8768 20.3923 8.07013 20.6526 8.19902 20.913C8.58569 21.4336 9.10124 21.4987 9.6168 21.1082C10.1968 20.5875 10.519 19.8716 10.7124 19.1557C11.099 17.5937 11.4857 16.0967 11.8079 14.5347V14.2743L8.39235 13.7537L8.52124 12.7774L12.0657 13.2981L12.5168 11.2805L8.84346 10.6947L8.97235 9.65335L12.7746 10.174C12.9035 9.78352 12.9679 9.45809 13.0968 9.13267C13.419 7.96115 13.7412 6.78963 14.5146 5.74828C15.2879 4.70693 16.1901 4.05608 17.5435 4.12117C18.1235 4.12117 18.7035 4.31642 19.0901 4.77201C19.1546 4.8371 19.2835 4.96727 19.2835 5.09743C19.2835 5.35777 19.2835 5.68319 19.0901 5.87845C18.8324 6.0737 18.5101 6.00862 18.2524 5.74828C18.059 5.55303 17.9301 5.35777 17.7368 5.16252C17.3501 4.64184 16.7701 4.57676 16.319 5.03235C15.9968 5.35777 15.6746 5.81336 15.4812 6.26896C15.0301 7.63573 14.7079 9.06759 14.2568 10.4994L17.8012 11.0201L17.5435 11.9964L14.1279 11.4757Z" fill="white"/>
</svg>
