<svg width="26" height="26" viewBox="0 0 26 26" fill="none" xmlns="http://www.w3.org/2000/svg">
<circle cx="13" cy="13" r="12.25" fill="#00EF8B" stroke="#EDEFF2" stroke-width="1.5"/>
<rect x="15.0283" y="10.9722" width="3.666" height="3.666" fill="white"/>
<path d="M11.3624 16.0162C11.3624 16.7702 10.7384 17.3942 9.98443 17.3942C9.23043 17.3942 8.60643 16.7702 8.60643 16.0162C8.60643 15.2622 9.23043 14.6382 9.98443 14.6382H11.3624V10.9722H9.98443C7.20243 10.9722 4.94043 13.2342 4.94043 16.0162C4.94043 18.7982 7.20243 21.0602 9.98443 21.0602C12.7664 21.0602 15.0284 18.7982 15.0284 16.0162V14.6382H11.3624V16.0162Z" fill="white"/>
<path d="M16.4063 9.12596H20.5403V5.45996H16.4063C13.6243 5.45996 11.3623 7.72196 11.3623 10.504V10.972H15.0283V10.504C15.0283 9.74996 15.6523 9.12596 16.4063 9.12596Z" fill="white"/>
<path d="M15.0283 10.9722H11.3623V14.6382H15.0283V10.9722Z" fill="#16FF99"/>
</svg>
