<svg width="26" height="26" viewBox="0 0 26 26" fill="none" xmlns="http://www.w3.org/2000/svg">
<g clip-path="url(#clip0_2009_23751)">
<circle cx="13" cy="13" r="12.25" fill="#EDF0F4" stroke="#EDEFF2" stroke-width="1.5"/>
<path d="M17.9019 10.9895H10.0109C7.83106 10.9895 6.08719 12.6944 6 14.8803C6 14.924 6.0436 14.9677 6.08719 14.9677H13.9782C16.158 14.9677 17.9019 13.2627 17.9891 11.0769C17.9891 11.0332 17.9455 10.9895 17.9019 10.9895Z" fill="#E62058"/>
<path d="M21.8692 5H10.0109C7.83106 5 6.08719 6.70494 6 8.89075C6 8.93447 6.0436 9.0219 6.08719 9.0219H17.9891C20.1689 9.0219 21.9128 7.31696 22 5.13115C22 5.04372 21.9564 5 21.8692 5Z" fill="#E62058"/>
<path d="M8.00545 21.0002C9.11303 21.0002 10.0109 20.0998 10.0109 18.9892C10.0109 17.8786 9.11303 16.9783 8.00545 16.9783C6.89787 16.9783 6 17.8786 6 18.9892C6 20.0998 6.89787 21.0002 8.00545 21.0002Z" fill="#E62058"/>
</g>
<defs>
<clipPath id="clip0_2009_23751">
<rect width="26" height="26" fill="white"/>
</clipPath>
</defs>
</svg>
