<svg width="29" height="29" viewBox="0 0 29 29" fill="none" xmlns="http://www.w3.org/2000/svg">
<circle cx="14.5" cy="14.5" r="13.75" fill="#13B5EC" stroke="#EDEFF2" stroke-width="1.5"/>
<path fill-rule="evenodd" clip-rule="evenodd" d="M15.5834 11.901L18.5084 10.1862V13.6158L15.5834 11.901ZM18.5084 19.2503L14.6084 21.5367L10.7084 19.2503V15.249L14.6084 17.5354L18.5084 15.249V19.2503ZM10.7084 10.1862L13.6334 11.901L10.7084 13.6158V10.1862ZM15.0959 12.7176L18.0209 14.4324L15.0959 16.1473V12.7176ZM14.1209 16.1473L11.1959 14.4324L14.1209 12.7176V16.1473ZM18.0209 9.36962L14.6084 11.3294L11.1959 9.36962L14.6084 7.32816L18.0209 9.36962ZM9.7334 9.04298V19.7402L14.6084 22.5166L19.4834 19.7402V9.04298L14.6084 6.2666L9.7334 9.04298Z" fill="white"/>
</svg>
