<svg width="26" height="26" viewBox="0 0 26 26" fill="none" xmlns="http://www.w3.org/2000/svg">
<mask id="path-2-inside-1_2009_24178" fill="white">
<path d="M13 0C5.82026 0 0 5.82026 0 13C0 20.1797 5.82026 26 13 26C20.1797 26 26 20.1797 26 13C26 5.82026 20.1797 0 13 0Z"/>
</mask>
<path d="M13 0C5.82026 0 0 5.82026 0 13C0 20.1797 5.82026 26 13 26C20.1797 26 26 20.1797 26 13C26 5.82026 20.1797 0 13 0Z" fill="black"/>
<path d="M13 0V-1.5C4.99183 -1.5 -1.5 4.99183 -1.5 13H0H1.5C1.5 6.64868 6.64868 1.5 13 1.5V0ZM0 13H-1.5C-1.5 21.0082 4.99183 27.5 13 27.5V26V24.5C6.64868 24.5 1.5 19.3513 1.5 13H0ZM13 26V27.5C21.0082 27.5 27.5 21.0082 27.5 13H26H24.5C24.5 19.3513 19.3513 24.5 13 24.5V26ZM26 13H27.5C27.5 4.99183 21.0082 -1.5 13 -1.5V0V1.5C19.3513 1.5 24.5 6.64868 24.5 13H26Z" fill="#EDEFF2" mask="url(#path-2-inside-1_2009_24178)"/>
<path fill-rule="evenodd" clip-rule="evenodd" d="M16.6339 18.6227H18.2848L18.2849 7.24121H16.6339V10.6667H9.36682V7.24121H7.71582V18.6227H9.36682V15.1128H16.6339V18.6227ZM16.7118 13.7997H9.44482V11.9862H16.7118V13.7997Z" fill="white"/>
</svg>
