<svg width="26" height="26" viewBox="0 0 26 26" fill="none" xmlns="http://www.w3.org/2000/svg">
<circle cx="13" cy="13" r="12.25" fill="#EDF0F4" stroke="#EDEFF2" stroke-width="1.5"/>
<path d="M17.5098 8.6665C16.5248 8.6665 15.4493 9.19066 14.3107 10.2299C13.7684 10.7179 13.2985 11.2421 12.9551 11.6669C12.9551 11.6669 13.5063 12.2904 14.1118 12.9592C14.4372 12.5525 14.9161 12.0012 15.4584 11.5042C16.4705 10.5824 17.1303 10.3926 17.5098 10.3926C18.9287 10.3926 20.0854 11.5584 20.0854 13.0044C20.0854 14.4322 18.9377 15.598 17.5098 15.6161C17.4466 15.6161 17.3562 15.6071 17.2658 15.589C17.6815 15.7788 18.1244 15.9143 18.5491 15.9143C21.1518 15.9143 21.6579 14.1521 21.694 14.0256C21.7663 13.7002 21.8115 13.3658 21.8115 13.0134C21.7935 10.6095 19.8776 8.6665 17.5098 8.6665Z" fill="url(#paint0_linear_2009_24287)"/>
<path d="M8.41791 17.3333C9.40297 17.3333 10.4784 16.8091 11.6171 15.7698C12.1593 15.2818 12.6292 14.7577 12.9727 14.3329C12.9727 14.3329 12.4214 13.7094 11.8159 13.0406C11.4906 13.4473 11.0116 13.9986 10.4694 14.4956C9.45719 15.4174 8.79748 15.6072 8.41791 15.6072C6.99907 15.6072 5.84231 14.4414 5.84231 12.9954C5.84231 11.5675 6.99004 10.4018 8.41791 10.3837C8.48117 10.3837 8.57155 10.3927 8.66192 10.4108C8.24621 10.221 7.80338 10.0854 7.37864 10.0854C4.77593 10.0854 4.26984 11.8477 4.23369 11.9742C4.1614 12.2996 4.11621 12.6339 4.11621 12.9864C4.12525 15.3812 6.05017 17.3333 8.41791 17.3333Z" fill="url(#paint1_linear_2009_24287)"/>
<path fill-rule="evenodd" clip-rule="evenodd" d="M7.38786 10.1305C8.72536 10.1667 10.1171 11.2692 10.3972 11.5403C11.0634 12.1819 11.6922 12.8982 11.8067 13.0287C11.818 13.0416 11.8243 13.0487 11.8251 13.0495C12.4306 13.7183 12.9819 14.3419 12.9819 14.3419L12.9909 14.3328C14.229 15.7517 15.8828 17.3332 17.5276 17.3332C19.5429 17.3241 21.2419 15.9053 21.6937 13.9984C21.6485 14.134 20.9798 15.9143 18.5397 15.8511C17.2113 15.8149 15.8196 14.7214 15.5394 14.4503C14.8074 13.7454 14.1206 12.9501 14.1206 12.9501C13.5151 12.2814 12.9638 11.6578 12.9638 11.6578C12.9548 11.6578 12.9548 11.6669 12.9548 11.6669C11.7257 10.239 10.0719 8.6665 8.42713 8.6665C6.41184 8.67554 4.71285 10.0853 4.26099 11.9832C4.31521 11.7572 5.01108 10.0763 7.38786 10.1305ZM4.25195 11.9922V11.9741C4.26099 11.9832 4.26099 11.9922 4.25195 11.9922Z" fill="#29ABE2"/>
<defs>
<linearGradient id="paint0_linear_2009_24287" x1="11.5074" y1="11.7367" x2="16.0704" y2="18.756" gradientUnits="userSpaceOnUse">
<stop offset="0.21" stop-color="#F15A24"/>
<stop offset="0.6841" stop-color="#FBB03B"/>
</linearGradient>
<linearGradient id="paint1_linear_2009_24287" x1="14.4195" y1="14.2609" x2="9.85645" y2="7.24152" gradientUnits="userSpaceOnUse">
<stop offset="0.21" stop-color="#ED1E79"/>
<stop offset="0.8929" stop-color="#522785"/>
</linearGradient>
</defs>
</svg>
