<svg width="26" height="26" viewBox="0 0 26 26" fill="none" xmlns="http://www.w3.org/2000/svg">
<g clip-path="url(#clip0_2009_26146)">
<path d="M12.8203 0.483398C19.5858 0.483398 25.0703 5.96791 25.0703 12.7334C25.0703 19.4989 19.5858 24.9834 12.8203 24.9834C6.05481 24.9834 0.570312 19.4989 0.570312 12.7334C0.570313 5.96792 6.05481 0.483402 12.8203 0.483398Z" fill="#252B3D" stroke="#EDEFF2" stroke-width="1.5"/>
<path d="M18.2568 5.7334H19.8203L13.4725 12.8893C13.3081 13.0667 13.3034 13.3497 13.4631 13.5319L17.1253 17.7334H15.4914L12.1062 13.8389L11.9372 13.6279C11.7775 13.4456 11.7822 13.1626 11.9465 12.9852L18.2568 5.7334Z" fill="#17B5CB"/>
<path d="M14.9548 13.4876C14.8366 13.3512 14.7936 13.1657 14.8366 12.9966C14.8688 12.9039 14.9387 12.8002 15.0031 12.7293L15.4865 12.2056L20.8203 18.2611H19.123C19.123 18.2611 15.9968 14.6823 14.9548 13.4876Z" fill="#17B5CB"/>
<path d="M6.52294 17.7334H4.82031L10.0411 12.026C10.2079 11.8437 10.2079 11.5703 10.0411 11.3929L4.85954 5.7334H6.49842L11.7094 11.4408C11.8419 11.6087 11.8664 11.8533 11.7241 12.0116C10.36 13.5032 6.52294 17.7334 6.52294 17.7334Z" fill="#17B5CB"/>
<path d="M10.2505 5.7334H8.82031L13.2044 11.7334C13.2044 11.7334 13.2177 11.7225 13.7078 11.0413C13.8415 10.856 13.8682 10.6271 13.7212 10.4527C12.7989 9.33557 10.2505 5.7334 10.2505 5.7334Z" fill="#17B5CB"/>
<path d="M14.3765 9.2262L16.8203 6.24023H15.536L14.3897 7.5186L13.9382 8.05981C13.7847 8.23244 13.7804 8.50304 13.9294 8.68501C14.0434 8.82029 14.3765 9.2262 14.3765 9.2262Z" fill="#17B5CB"/>
<path d="M11.3127 14.7334L8.82031 17.7334H10.0788L11.4698 15.9954L11.7195 15.7245C11.8559 15.5645 11.852 15.2463 11.7195 15.0777C11.6182 14.9523 11.3127 14.7334 11.3127 14.7334Z" fill="#17B5CB"/>
</g>
<defs>
<clipPath id="clip0_2009_26146">
<rect width="26" height="26" fill="white"/>
</clipPath>
</defs>
</svg>
