<svg width="26" height="26" viewBox="0 0 26 26" fill="none" xmlns="http://www.w3.org/2000/svg">
<path d="M13 0.75C19.7657 0.75 25.25 6.23431 25.25 13C25.25 19.7657 19.7657 25.25 13 25.25C6.23431 25.25 0.75 19.7657 0.75 13C0.75 6.23431 6.23431 0.75 13 0.75Z" fill="#EDF0F4" stroke="#EDEFF2" stroke-width="1.5"/>
<path d="M15.0324 20.1594C14.9944 20.1214 14.9564 20.0834 14.9184 20.0834C14.0443 19.8934 13.1702 19.5893 12.4101 19.1333C10.814 18.1832 9.74985 16.777 9.71184 15.1428C9.71184 14.5348 9.82585 13.9267 10.0919 13.3566C10.2439 12.9766 11.156 11.6844 11.27 11.4564C11.8781 10.5063 11.6881 10.5823 10.814 9.40419L9.59783 7.61799L8.79974 6.40186C8.34369 6.70589 7.88764 7.08593 7.46959 7.46597C6.6335 8.30207 5.98743 9.36619 5.60738 10.5063C5.22734 11.6464 5.11333 12.8626 5.26535 14.0407C5.41736 15.2188 5.87341 16.359 6.55749 17.3471C7.24157 18.3352 8.15367 19.1713 9.17978 19.7413C6.48148 17.7651 5.22734 14.7628 6.25346 11.7605C6.51949 10.9624 6.93753 10.2023 7.46959 9.5182L8.34369 10.8103C8.38169 10.8864 8.4197 10.9624 8.4197 11.0764C8.4197 11.1524 8.38169 11.2664 8.34369 11.3424C7.92564 11.8745 7.5836 12.4445 7.35558 13.0906C6.21545 16.397 9.2938 19.8174 12.5242 20.3874C13.1322 20.5014 14.2724 20.6154 14.8804 20.4634C14.9184 20.4634 14.9564 20.4254 14.9564 20.4254C14.9944 20.3874 14.9944 20.3874 14.9944 20.3494C14.9944 20.3114 14.9944 20.2734 14.9944 20.2354C15.0704 20.2354 15.0704 20.1974 15.0324 20.1594Z" fill="url(#paint0_linear_2009_26096)"/>
<path d="M10.9277 5.79381C10.9657 5.83181 11.0037 5.86982 11.0417 5.86982C11.9158 6.05984 12.7899 6.36387 13.5499 6.81992C15.1461 7.77003 16.2102 9.17618 16.2482 10.8104C16.2482 11.4184 16.1342 12.0265 15.8682 12.5966C15.7162 12.9766 14.8041 14.2688 14.6901 14.4968C14.082 15.4469 14.272 15.3709 15.1461 16.549L16.3623 18.3352L17.1984 19.5513C17.6544 19.2473 18.1105 18.8673 18.5285 18.4872C19.3646 17.6511 20.0107 16.587 20.3907 15.4469C20.7708 14.3068 20.8848 13.0906 20.7327 11.9125C20.5807 10.7344 20.1247 9.59423 19.4406 8.60612C18.7565 7.61801 17.8444 6.78192 16.8183 6.21185C19.5166 8.18807 20.7708 11.1904 19.7066 14.1927C19.4406 14.9908 19.0226 15.7509 18.4905 16.435L17.6164 15.1429C17.5784 15.0668 17.5404 14.9908 17.5404 14.8768C17.5404 14.8008 17.5784 14.6868 17.6164 14.6108C18.0344 14.0787 18.3765 13.5087 18.6045 12.8626C19.7446 9.55623 16.6663 6.13585 13.4359 5.56578C12.8279 5.45177 11.6877 5.33776 11.0797 5.48977C11.0417 5.48977 11.0037 5.52778 11.0037 5.52778C10.9277 5.52778 10.8896 5.56578 10.8896 5.60379C10.8896 5.64179 10.8896 5.67979 10.8896 5.7178C10.8896 5.7178 10.8896 5.7558 10.9277 5.79381Z" fill="url(#paint1_linear_2009_26096)"/>
<defs>
<linearGradient id="paint0_linear_2009_26096" x1="11.5407" y1="23.2261" x2="19.7291" y2="16.3281" gradientUnits="userSpaceOnUse">
<stop stop-color="#174E5B"/>
<stop offset="0.07" stop-color="#195A6C"/>
<stop offset="0.21" stop-color="#1E779A"/>
<stop offset="0.4" stop-color="#27A7E3"/>
<stop offset="0.47" stop-color="#2ABAFF"/>
<stop offset="0.7" stop-color="#1DDAF0"/>
<stop offset="1" stop-color="#0EFFE0"/>
</linearGradient>
<linearGradient id="paint1_linear_2009_26096" x1="14.4029" y1="2.74812" x2="6.2346" y2="9.69949" gradientUnits="userSpaceOnUse">
<stop stop-color="#174E5B"/>
<stop offset="0.07" stop-color="#195A6C"/>
<stop offset="0.21" stop-color="#1E779A"/>
<stop offset="0.4" stop-color="#27A7E3"/>
<stop offset="0.47" stop-color="#2ABAFF"/>
<stop offset="0.7" stop-color="#1DDAF0"/>
<stop offset="1" stop-color="#0EFFE0"/>
</linearGradient>
</defs>
</svg>
