<svg width="26" height="26" viewBox="0 0 26 26" fill="none" xmlns="http://www.w3.org/2000/svg">
<g clip-path="url(#clip0_2009_23938)">
<path d="M13 26C20.1797 26 26 20.1797 26 13C26 5.8203 20.1797 0 13 0C5.8203 0 0 5.8203 0 13C0 20.1797 5.8203 26 13 26Z" fill="#141726"/>
<path d="M17.4201 18.4892C15.2491 14.963 12.0121 12.9642 8.01457 12.1322C6.60082 11.8397 5.18057 11.843 3.80907 12.3825C2.86982 12.753 2.72682 13.143 3.16882 14.1277C6.17182 13.416 8.96682 14.079 11.5831 15.5902C14.2188 17.1145 16.1851 19.2367 17.0788 22.2527C18.3333 21.8692 18.4958 21.658 18.1936 20.4912C18.0148 19.8055 17.7906 19.0905 17.4201 18.4892Z" fill="url(#paint0_linear_2009_23938)"/>
<path d="M19.7957 15.6195C17.0072 11.557 13.0585 9.28528 8.23223 8.52478C6.95498 8.32328 5.65173 8.37853 4.45573 8.98953C3.88373 9.28203 3.37673 9.65578 3.24023 10.4488C7.00373 9.41203 10.3805 10.3285 13.559 12.1713C16.7537 14.0238 19.2497 16.51 20.2215 20.332C20.8975 19.734 21.0177 18.9995 20.8422 18.317C20.6017 17.381 20.3287 16.3963 19.7957 15.6195Z" fill="url(#paint1_linear_2009_23938)"/>
<path d="M3.41211 15.8795C3.64936 16.406 3.80536 17.0007 4.15961 17.4265C4.33836 17.6442 4.88111 17.5597 5.25811 17.6117C5.31661 17.6182 5.37511 17.628 5.43361 17.6345C8.77786 18.1317 11.4169 19.7502 13.3019 22.5745C13.4124 22.7402 13.5911 22.9872 13.7374 22.9872C14.3029 22.984 14.8716 22.8962 15.4436 22.841C14.5921 18.1187 7.56561 14.2447 3.41211 15.8795Z" fill="url(#paint2_linear_2009_23938)"/>
<path d="M21.3399 11.9178C19.4972 9.34056 16.9557 7.62455 14.0697 6.40255C12.0709 5.5543 10.0007 5.04405 7.80366 5.3073C7.04316 5.3983 6.33141 5.61605 5.74316 6.11005C13.2474 6.29855 18.8927 9.54855 22.7732 15.9673C22.7797 15.5416 22.8447 15.0671 22.6887 14.6836C22.2987 13.7313 21.9282 12.7401 21.3399 11.9178Z" fill="url(#paint3_linear_2009_23938)"/>
<path d="M23.0681 10.5723C21.5406 4.75809 15.3331 1.95984 10.7441 3.37684C15.6874 4.35184 19.7434 6.70809 23.0681 10.5723Z" fill="url(#paint4_linear_2009_23938)"/>
<path d="M5.05078 18.9767C6.82528 21.2289 9.08078 22.5419 11.9733 22.9677C10.8683 20.9039 6.97478 18.6712 5.05078 18.9767Z" fill="url(#paint5_linear_2009_23938)"/>
<circle cx="13" cy="13" r="12.25" stroke="#EDEFF2" stroke-width="1.5"/>
</g>
<defs>
<linearGradient id="paint0_linear_2009_23938" x1="18.6852" y1="4.3591" x2="8.07715" y2="21.3748" gradientUnits="userSpaceOnUse">
<stop offset="0.16" stop-color="#C6F462"/>
<stop offset="0.89" stop-color="#33D9FF"/>
</linearGradient>
<linearGradient id="paint1_linear_2009_23938" x1="18.6091" y1="4.3118" x2="8.00147" y2="21.3275" gradientUnits="userSpaceOnUse">
<stop offset="0.16" stop-color="#C6F462"/>
<stop offset="0.89" stop-color="#33D9FF"/>
</linearGradient>
<linearGradient id="paint2_linear_2009_23938" x1="18.7526" y1="4.40156" x2="8.14492" y2="21.4173" gradientUnits="userSpaceOnUse">
<stop offset="0.16" stop-color="#C6F462"/>
<stop offset="0.89" stop-color="#33D9FF"/>
</linearGradient>
<linearGradient id="paint3_linear_2009_23938" x1="18.4938" y1="4.23962" x2="7.8858" y2="21.2553" gradientUnits="userSpaceOnUse">
<stop offset="0.16" stop-color="#C6F462"/>
<stop offset="0.89" stop-color="#33D9FF"/>
</linearGradient>
<linearGradient id="paint4_linear_2009_23938" x1="18.5798" y1="4.29361" x2="7.9718" y2="21.3093" gradientUnits="userSpaceOnUse">
<stop offset="0.16" stop-color="#C6F462"/>
<stop offset="0.89" stop-color="#33D9FF"/>
</linearGradient>
<linearGradient id="paint5_linear_2009_23938" x1="18.819" y1="4.44232" x2="8.21135" y2="21.458" gradientUnits="userSpaceOnUse">
<stop offset="0.16" stop-color="#C6F462"/>
<stop offset="0.89" stop-color="#33D9FF"/>
</linearGradient>
<clipPath id="clip0_2009_23938">
<rect width="26" height="26" fill="white"/>
</clipPath>
</defs>
</svg>
