<svg width="26" height="26" viewBox="0 0 26 26" fill="none" xmlns="http://www.w3.org/2000/svg">
<circle cx="13" cy="13" r="12.25" fill="black" stroke="#EDEFF2" stroke-width="1.5"/>
<path d="M20.4398 8.46627C20.1859 8.26608 19.8832 7.99265 19.3315 7.9243C18.8139 7.85594 18.2866 8.2026 17.9301 8.43209C17.5737 8.66157 16.8999 9.33537 16.6216 9.54044C16.3433 9.74551 15.6304 9.93594 14.483 10.6244C13.3356 11.3128 8.83382 14.2033 8.83382 14.2033L10.0056 14.218L4.78124 16.9083H5.30368L4.55176 17.4796C4.55176 17.4796 5.21579 17.6554 5.77241 17.3038V17.4649C5.77241 17.4649 11.9929 15.0139 13.194 15.6486L12.4616 15.8634C12.5251 15.8634 13.7067 15.9416 13.7067 15.9416C13.7647 16.4369 14.0403 16.8807 14.4586 17.1524C15.1715 17.6212 15.1861 17.88 15.1861 17.88C15.1861 17.88 14.815 18.0313 14.815 18.2217C14.815 18.2217 15.3619 18.0557 15.8697 18.0704C16.192 18.0826 16.5116 18.1334 16.8218 18.2217C16.8218 18.2217 16.7827 18.0167 16.2896 17.88C15.7964 17.7432 15.3082 17.2062 15.0689 16.9132C14.7708 16.5338 14.6947 16.0254 14.8687 15.5754C15.0396 15.131 15.6353 14.8869 16.8657 14.2522C18.3159 13.5002 18.6479 12.9436 18.853 12.5091C19.058 12.0745 19.3608 11.2103 19.5316 10.805C19.7465 10.2826 20.0101 10.0043 20.2299 9.83828C20.4496 9.67227 21.4261 9.30608 21.4261 9.30608C21.4261 9.30608 20.6791 8.65669 20.4398 8.46627Z" fill="white"/>
</svg>
