<svg width="26" height="26" viewBox="0 0 26 26" fill="none" xmlns="http://www.w3.org/2000/svg">
<circle cx="13" cy="13" r="12.25" fill="#EDF0F4" stroke="#EDEFF2" stroke-width="1.5"/>
<path fill-rule="evenodd" clip-rule="evenodd" d="M13.0035 6.2832L16.3738 11.5597L13.0035 13.5238L9.63379 11.5597L13.0035 6.2832ZM10.6655 11.3098L13.0035 7.64865L15.3421 11.3098L13.0035 12.6732L10.6655 11.3091V11.3098Z" fill="#273852"/>
<path d="M12.9992 14.6838L9.09012 12.4058L8.9832 12.5726C8.52295 13.293 8.26491 14.1239 8.23611 14.9783C8.2073 15.8326 8.4088 16.679 8.81949 17.4288C9.23017 18.1785 9.83493 18.8039 10.5704 19.2397C11.3059 19.6754 12.145 19.9053 12.9999 19.9053C13.8547 19.9053 14.6938 19.6754 15.4293 19.2397C16.1648 18.8039 16.7696 18.1785 17.1802 17.4288C17.5909 16.679 17.7924 15.8326 17.7636 14.9783C17.7348 14.1239 17.4767 13.293 17.0165 12.5726L16.9096 12.4058L12.9992 14.6845V14.6838Z" fill="#273852"/>
</svg>
