<svg width="26" height="26" viewBox="0 0 26 26" fill="none" xmlns="http://www.w3.org/2000/svg">
<mask id="path-2-inside-1_2009_26112" fill="white">
<path fill-rule="evenodd" clip-rule="evenodd" d="M13 26C5.85 26 0 20.1501 0 12.9353C0.065 5.78542 5.85 -0.0644622 13.065 0.000536471C20.215 0.0655351 26 5.85042 26 13.1303C25.935 20.2151 20.15 26 13 26Z"/>
</mask>
<path fill-rule="evenodd" clip-rule="evenodd" d="M13 26C5.85 26 0 20.1501 0 12.9353C0.065 5.78542 5.85 -0.0644622 13.065 0.000536471C20.215 0.0655351 26 5.85042 26 13.1303C25.935 20.2151 20.15 26 13 26Z" fill="black"/>
<path d="M0 12.9353L-1.5 12.9216V12.9353H0ZM13.065 0.000536471L13.0786 -1.4994L13.0785 -1.4994L13.065 0.000536471ZM26 13.1303L27.5 13.144V13.1303H26ZM13 26V24.5C6.68326 24.5 1.5 19.3265 1.5 12.9353H0H-1.5C-1.5 20.9737 5.01674 27.5 13 27.5V26ZM0 12.9353L1.49994 12.9489C1.5576 6.60664 6.68544 1.44313 13.0515 1.50048L13.065 0.000536471L13.0785 -1.4994C5.01456 -1.57205 -1.4276 4.96419 -1.49994 12.9216L0 12.9353ZM13.065 0.000536471L13.0514 1.50047C19.3765 1.55797 24.5 6.67176 24.5 13.1303H26H27.5C27.5 5.02907 21.0535 -1.4269 13.0786 -1.4994L13.065 0.000536471ZM26 13.1303L24.5001 13.1165C24.4426 19.3814 19.3238 24.5 13 24.5V26V27.5C20.9762 27.5 27.4274 21.0488 27.4999 13.144L26 13.1303Z" fill="#EDEFF2" mask="url(#path-2-inside-1_2009_26112)"/>
<path d="M8.79636 11.7595H8.80416L8.93677 11.8063L9.06158 11.8531L9.19419 11.8921L9.31901 11.9467L9.45162 11.9935L9.57643 12.0403L9.70905 12.0871L9.83386 12.1339L9.95867 12.1807L10.0835 12.2275L10.2161 12.2743L10.3409 12.3289L10.4735 12.3679L10.5983 12.4148L10.7309 12.4616L10.8558 12.5162L10.9884 12.563L11.1132 12.602L11.238 12.6488L11.3706 12.7034L11.5032 12.7502V12.5474V12.5162V12.3523V12.2353V12.1495V11.9467V11.7517V11.5489V11.3538V11.1432V10.9482V10.9248H11.3472H11.199H11.1834H11.0196H10.8948H10.848H10.6841H10.5983H10.5125H10.3409H10.2941H10.1771H10.0133H10.0055H9.99767H9.84166H9.70125H9.67784H9.50623H9.39702H9.10059H8.80416H8.79636H8.62474L8.49993 10.9872L8.2035 11.1432L7.89927 11.307L7.59503 11.4553L7.30641 11.6113L7.00218 11.7751L6.69795 11.9233L6.40152 12.0871L6.09729 12.2431L5.80086 12.3914L5.50443 12.5552L5.2314 12.6956L5.2002 17.1654L5.50443 17.376L5.80086 17.5867L6.09729 17.7895L6.40152 18.0079L6.69795 18.2185L7.00218 18.4292L7.13479 18.5306L7.30641 18.3121L7.59503 17.9221L7.62624 17.8831L7.59503 17.8597L7.30641 17.6491L7.00218 17.4385L6.69795 17.2278L6.40152 17.0172L6.09729 16.7988L6.01928 16.752L6.04268 13.1324L6.09729 13.1012L6.40152 12.953L6.69795 12.8048L7.00218 12.6566L7.30641 12.5084L7.59503 12.3523L7.89927 12.2041L8.2035 12.0637L8.49993 11.9077L8.79636 11.7595Z" fill="url(#paint0_linear_2009_26112)"/>
<path d="M13.9604 20.2855L13.7108 20.387L13.43 20.504L13.1491 20.6132L12.8683 20.7302L12.7435 20.777L12.5953 20.7068L12.3144 20.5586L12.0336 20.426L11.7606 20.2777L11.4798 20.1373L11.1989 20.0047L10.9181 19.8565L10.6373 19.7161L10.3564 19.5757L10.0756 19.4353L9.79479 19.2871L9.52956 19.1544L9.24873 19.014L9.21753 18.9984V15.3477H8.96791H8.68708H8.40625V19.4977L8.68708 19.6303L8.96791 19.7707L9.24873 19.9189L9.52956 20.0515L9.79479 20.1997L10.0756 20.3402L10.3564 20.4806L10.6373 20.621L10.9181 20.7614L11.1989 20.9018L11.4798 21.0422L11.7606 21.1904L12.0336 21.3231L12.3144 21.4713L12.5953 21.6039L12.7045 21.6663L12.8683 21.5883L13.1491 21.4869L13.43 21.3699L13.7108 21.2528L13.9838 21.1436L14.2646 21.0344L13.9838 20.3324L13.9604 20.2855Z" fill="url(#paint1_linear_2009_26112)"/>
<path d="M18.9454 15.2152L18.961 16.9314L18.8908 16.9938L18.4149 17.3214L17.9391 17.6647L17.4632 18.0079L16.9874 18.3433L16.5115 18.6788L16.0435 19.022L15.5676 19.3574L15.2868 19.5602L15.0918 19.412L14.6237 19.0454L14.1479 18.6866L13.672 18.3199L13.204 17.9611L13.1182 17.8987V16.0499L13.204 15.9719L13.672 15.4726L14.1479 14.9812L14.6237 14.4819L15.0918 13.9905L15.552 13.5068H15.0918H14.6237H14.1479H13.672H13.204H12.7203H12.2445H11.7764H11.3006H10.8248H10.3567H9.88086L10.3567 14.0061L10.8248 14.4975L11.3006 14.989L11.7764 15.4882L12.2445 15.9797L12.3147 16.0499V18.2887L12.7203 18.6085L13.204 18.9752L13.672 19.334L14.1479 19.7007L14.6237 20.0595L15.0918 20.4261L15.2634 20.5587L15.5676 20.3403L16.0435 20.0127L16.5115 19.6695L16.9874 19.3262L17.4632 18.9986L17.9391 18.6554L18.4149 18.3121L18.8908 17.9845L19.3666 17.6412L19.7566 17.3526L19.8347 15.2464L19.3666 15.2308L18.9454 15.2152Z" fill="url(#paint2_linear_2009_26112)"/>
<path d="M5.9725 11.2212H6.0271L6.0349 8.92781L6.33913 8.73279L6.72137 8.50657L7.09581 8.28035L7.47025 8.04632L7.84468 7.8201L8.22692 7.58608L8.59356 7.35986L8.9758 7.13363L9.35023 6.89961L9.73247 6.66559H9.74027L10.0991 6.87621L10.4813 7.08683L10.8558 7.30525L11.2302 7.51587L11.6047 7.72649L11.9791 7.93711L12.3535 8.15553L12.7202 8.36616L12.7358 8.33495L13.1102 7.65628L12.7358 7.43786L12.3535 7.22724L11.9791 7.01662L11.6047 6.806L11.2302 6.58758L10.8558 6.37696L10.4813 6.16634L10.0991 5.94791L9.73247 5.73729L9.71687 5.72949L9.35023 5.94791L8.9758 6.18194L8.59356 6.41596L8.22692 6.64998L7.84468 6.87621L7.47025 7.10243L7.09581 7.33645L6.72137 7.56268L6.33913 7.7967L5.9725 8.02292L5.59026 8.24914L5.23142 8.47537L5.21582 11.2134H5.59026L5.9725 11.2212Z" fill="url(#paint3_linear_2009_26112)"/>
<path d="M20.6373 9.1227L20.4423 8.96669L20.2473 8.81067L20.0523 8.64686L19.8573 8.49084L19.6622 8.33482L19.4594 8.17881L19.2644 8.02279L19.0694 7.86678L18.8666 7.70296L18.7184 7.59375L18.6637 7.65616L18.4687 7.89798L18.2737 8.14761L18.2191 8.21001L18.2737 8.26462L18.4687 8.42843L18.6637 8.59225L18.8666 8.75607L19.0694 8.91988L19.2644 9.0915L19.4594 9.25532L19.6622 9.41913L19.7559 9.49714L19.7637 13.1869L19.6622 13.2571L19.4594 13.3819L19.2644 13.5067L19.0694 13.6316L18.8666 13.7564L18.6637 13.8812L18.4687 14.006L18.2737 14.1308L18.0787 14.2556L17.8837 14.3804L17.6886 14.5052L17.4858 14.6301L17.2908 14.7549L17.0958 14.8797L16.9008 15.0045L16.6979 15.1293L16.5029 15.2541L16.6979 15.5661L16.9008 15.8782L16.932 15.9328L17.0958 15.8314L17.2908 15.7144L17.4858 15.5895L17.6886 15.4725L17.8837 15.3399L18.0787 15.2229L18.2737 15.0981L18.4687 14.9811L18.6637 14.8563L18.8666 14.7393L19.0694 14.6067L19.2644 14.4896L19.4594 14.3648L19.6622 14.2478L19.8573 14.123L20.0523 14.006L20.2473 13.8734L20.4423 13.7564L20.6373 13.6316V9.1227Z" fill="url(#paint4_linear_2009_26112)"/>
<path d="M14.202 11.3225V11.5253V11.7281V11.931V12.1416V12.3522V12.555V12.7579V12.9139L14.2644 12.8905L14.5296 12.7891L14.7948 12.6798L15.0522 12.5784L15.3175 12.4692L15.5827 12.36L15.8401 12.2586L16.1053 12.1494L16.3706 12.048L16.628 11.9388L16.8932 11.8374L17.1507 11.7281V11.5253V11.4473V10.9091V6.89946L16.8542 6.71225L16.55 6.54063L16.2458 6.36901L15.9493 6.18179L15.6451 6.01018L15.3409 5.83856L15.0444 5.65914L14.7402 5.47972L14.4438 5.3003L14.1396 5.12869L13.8353 4.94927L13.5389 4.76985L13.2425 4.59823L12.9382 4.42662L12.7744 4.33301L12.634 4.41102L12.3298 4.57483L12.0255 4.73085L11.7369 4.90246L11.4327 5.06628L11.1284 5.2223L10.8242 5.39391L11.1284 5.56553L11.4327 5.73715L11.6199 5.85416L11.7369 5.79175L12.0255 5.63574L12.3298 5.47192L12.634 5.31591L12.751 5.2535L12.9382 5.36271L13.2425 5.53433L13.5389 5.70595L13.8353 5.88536L14.1396 6.06478L14.4438 6.2364L14.7402 6.41582L15.0444 6.59523L15.3409 6.76685L15.6451 6.93847L15.9493 7.12569L16.2458 7.2973L16.3472 7.35191V10.9091H16.277H16.2458H16.1053H15.9493H15.9337H15.7543H15.6451H15.5827H15.4111H15.3409H15.2395H15.0678H15.0444H14.8962H14.7402H14.7246H14.5452H14.4438H14.3736H14.241H14.2176" fill="url(#paint5_linear_2009_26112)"/>
<path d="M14.2021 12.914L17.1508 11.7283L14.2021 10.9092" fill="url(#paint6_linear_2009_26112)"/>
<path d="M11.5028 12.914V10.9404L8.80371 11.7439L11.5028 12.9062" fill="url(#paint7_linear_2009_26112)"/>
<defs>
<linearGradient id="paint0_linear_2009_26112" x1="5.20051" y1="10.9271" x2="5.20051" y2="18.5274" gradientUnits="userSpaceOnUse">
<stop stop-color="#F6E93D"/>
<stop offset="0.13" stop-color="#F8E330"/>
<stop offset="0.35" stop-color="#F7C730"/>
<stop offset="0.64" stop-color="#F59C2E"/>
<stop offset="0.98" stop-color="#EB5E2C"/>
<stop offset="1" stop-color="#EB5C2C"/>
</linearGradient>
<linearGradient id="paint1_linear_2009_26112" x1="8.40923" y1="15.3508" x2="8.40923" y2="21.6655" gradientUnits="userSpaceOnUse">
<stop stop-color="#F6E93D"/>
<stop offset="0.13" stop-color="#F8E330"/>
<stop offset="0.35" stop-color="#F7C730"/>
<stop offset="0.64" stop-color="#F59C2E"/>
<stop offset="0.98" stop-color="#EB5E2C"/>
<stop offset="1" stop-color="#EB5C2C"/>
</linearGradient>
<linearGradient id="paint2_linear_2009_26112" x1="9.87827" y1="13.5061" x2="9.87827" y2="20.5611" gradientUnits="userSpaceOnUse">
<stop stop-color="#F6E93D"/>
<stop offset="0.13" stop-color="#F8E330"/>
<stop offset="0.35" stop-color="#F7C730"/>
<stop offset="0.64" stop-color="#F59C2E"/>
<stop offset="0.98" stop-color="#EB5E2C"/>
<stop offset="1" stop-color="#EB5C2C"/>
</linearGradient>
<linearGradient id="paint3_linear_2009_26112" x1="5.21655" y1="5.73183" x2="5.21655" y2="11.222" gradientUnits="userSpaceOnUse">
<stop stop-color="#F6E93D"/>
<stop offset="0.13" stop-color="#F8E330"/>
<stop offset="0.35" stop-color="#F7C730"/>
<stop offset="0.64" stop-color="#F59C2E"/>
<stop offset="0.98" stop-color="#EB5E2C"/>
<stop offset="1" stop-color="#EB5C2C"/>
</linearGradient>
<linearGradient id="paint4_linear_2009_26112" x1="16.5055" y1="7.59219" x2="16.5055" y2="15.9336" gradientUnits="userSpaceOnUse">
<stop stop-color="#F6E93D"/>
<stop offset="0.13" stop-color="#F8E330"/>
<stop offset="0.35" stop-color="#F7C730"/>
<stop offset="0.64" stop-color="#F59C2E"/>
<stop offset="0.98" stop-color="#EB5E2C"/>
<stop offset="1" stop-color="#EB5C2C"/>
</linearGradient>
<linearGradient id="paint5_linear_2009_26112" x1="10.8226" y1="4.33301" x2="10.8226" y2="12.9162" gradientUnits="userSpaceOnUse">
<stop stop-color="#F6E93D"/>
<stop offset="0.13" stop-color="#F8E330"/>
<stop offset="0.35" stop-color="#F7C730"/>
<stop offset="0.64" stop-color="#F59C2E"/>
<stop offset="0.98" stop-color="#EB5E2C"/>
<stop offset="1" stop-color="#EB5C2C"/>
</linearGradient>
<linearGradient id="paint6_linear_2009_26112" x1="14.1996" y1="10.9146" x2="14.1996" y2="12.9187" gradientUnits="userSpaceOnUse">
<stop stop-color="#F6E93D"/>
<stop offset="0.13" stop-color="#F8E330"/>
<stop offset="0.35" stop-color="#F7C730"/>
<stop offset="0.64" stop-color="#F59C2E"/>
<stop offset="0.98" stop-color="#EB5E2C"/>
<stop offset="1" stop-color="#EB5C2C"/>
</linearGradient>
<linearGradient id="paint7_linear_2009_26112" x1="11.3166" y1="12.6512" x2="11.6678" y2="10.8467" gradientUnits="userSpaceOnUse">
<stop stop-color="#F6E93D"/>
<stop offset="0.13" stop-color="#F8E330"/>
<stop offset="0.35" stop-color="#F7C730"/>
<stop offset="0.64" stop-color="#F59C2E"/>
<stop offset="0.98" stop-color="#EB5E2C"/>
<stop offset="1" stop-color="#EB5C2C"/>
</linearGradient>
</defs>
</svg>
