<svg width="26" height="26" viewBox="0 0 26 26" fill="none" xmlns="http://www.w3.org/2000/svg">
<ellipse cx="13.1073" cy="12.8915" rx="11.5917" ry="11.5917" fill="white"/>
<path fill-rule="evenodd" clip-rule="evenodd" d="M0 13C0 5.8203 5.82029 0 13 0H13.0755C16.5133 0.0100033 19.8063 1.38527 22.2301 3.82324C24.6539 6.26122 26.01 9.5622 25.9999 13C25.9999 20.1797 20.1797 26 13 26C5.82029 26 0 20.1797 0 13ZM11.8665 18.0048L13.22 13.4407L15.329 12.8426L15.7697 11.3317L13.6922 11.9612L15.8956 4.46971V4.3501C15.8923 4.25324 15.8506 4.16166 15.7798 4.09553C15.7089 4.02941 15.6147 3.99416 15.5178 3.99756H12.7164C12.4982 3.99083 12.3034 4.13365 12.2442 4.34381L9.63166 13.2203L7.55419 13.8499L7.08203 15.2978L9.15951 14.6683L7.30237 20.9951H18.3822C18.6012 21.0042 18.7972 20.8604 18.8544 20.6489L19.4839 18.477V18.3574C19.4807 18.2605 19.439 18.1689 19.3682 18.1028C19.2973 18.0367 19.2031 18.0014 19.1062 18.0048H11.8665Z" fill="#345D9D"/>
<circle cx="13" cy="13" r="12.5" stroke="#EDEFF2"/>
</svg>
