<svg width="26" height="26" viewBox="0 0 26 26" fill="none" xmlns="http://www.w3.org/2000/svg">
<g clip-path="url(#clip0_2009_24019)">
<circle cx="13" cy="13" r="12.25" fill="#EDF0F4" stroke="#EDEFF2" stroke-width="1.5"/>
<path d="M18.1042 9.22687C17.7396 9.02388 17.2708 9.02388 16.8542 9.22687L13.9375 10.9015L11.9583 11.9672L9.09375 13.6418C8.72917 13.8448 8.26042 13.8448 7.84375 13.6418L5.60417 12.3224C5.23958 12.1194 4.97917 11.7134 4.97917 11.2567V8.7194C4.97917 8.31343 5.1875 7.90746 5.60417 7.65373L7.84375 6.38507C8.20833 6.18209 8.67708 6.18209 9.09375 6.38507L11.3333 7.70448C11.6979 7.90746 11.9583 8.31343 11.9583 8.77015V10.4448L13.9375 9.32836V7.60298C13.9375 7.19701 13.7292 6.79104 13.3125 6.53731L9.14583 4.15224C8.78125 3.94925 8.3125 3.94925 7.89583 4.15224L3.625 6.58806C3.20833 6.79104 3 7.19701 3 7.60298V12.3731C3 12.7791 3.20833 13.1851 3.625 13.4388L7.84375 15.8239C8.20833 16.0269 8.67708 16.0269 9.09375 15.8239L11.9583 14.2L13.9375 13.0836L16.8021 11.4597C17.1667 11.2567 17.6354 11.2567 18.0521 11.4597L20.2917 12.7284C20.6562 12.9313 20.9167 13.3373 20.9167 13.794V16.3313C20.9167 16.7373 20.7083 17.1433 20.2917 17.397L18.1042 18.6657C17.7396 18.8687 17.2708 18.8687 16.8542 18.6657L14.6146 17.397C14.25 17.194 13.9896 16.7881 13.9896 16.3313V14.7075L12.0104 15.8239V17.4985C12.0104 17.9045 12.2187 18.3104 12.6354 18.5642L16.8542 20.9493C17.2187 21.1522 17.6875 21.1522 18.1042 20.9493L22.3229 18.5642C22.6875 18.3612 22.9479 17.9552 22.9479 17.4985V12.6776C22.9479 12.2716 22.7396 11.8657 22.3229 11.6119L18.1042 9.22687Z" fill="#8247E5"/>
</g>
<defs>
<clipPath id="clip0_2009_24019">
<rect width="26" height="26" fill="white"/>
</clipPath>
</defs>
</svg>
