<svg width="26" height="26" viewBox="0 0 26 26" fill="none" xmlns="http://www.w3.org/2000/svg">
<g clip-path="url(#clip0_2009_24041)">
<circle cx="13" cy="13" r="12.25" fill="#EDF0F4" stroke="#EDEFF2" stroke-width="1.5"/>
<path d="M26 12.7192C25.844 5.6576 20.072 0 13 0C5.824 0 0 5.824 0 13C0 18.1792 3.0784 22.8696 7.8312 24.9288C8.4656 23.9824 8.944 22.932 9.2664 21.84C9.5264 21.1744 9.8072 20.5296 10.1088 19.8952C10.4832 20.0096 10.8784 20.072 11.284 20.072C12.376 20.072 13.416 19.6352 14.1752 18.8656L14.2168 18.824C13.7696 18.6576 13.2912 18.5744 12.8128 18.5744C11.9288 18.5744 11.0656 18.8656 10.3584 19.4064C10.7224 18.6576 11.1072 17.9296 11.5128 17.2224C11.9496 17.3784 12.4072 17.4512 12.8648 17.4512C13.884 17.4512 14.8616 17.0664 15.6104 16.38L15.652 16.3384C15.1528 16.1304 14.612 16.016 14.0712 16.016C13.2704 16.016 12.4904 16.2552 11.8248 16.692C12.2304 16.0264 12.636 15.3816 13.0728 14.768C13.4056 14.8616 13.7592 14.9032 14.1024 14.9032C15.2464 14.9032 16.3384 14.4248 17.108 13.572L17.1392 13.5304C16.744 13.3952 16.3176 13.3328 15.9016 13.3328C15.0696 13.3328 14.2584 13.5928 13.5824 14.0712C13.6136 14.0296 13.6552 13.9776 13.6864 13.9256C13.9464 13.5928 14.2168 13.2496 14.4872 12.9272C16.172 12.376 17.42 10.9408 17.7216 9.1832L17.732 9.1208H17.7216C15.964 9.5784 14.6224 10.9928 14.2584 12.7712C13.9984 13.0832 13.7384 13.4056 13.4888 13.728C13.6656 13.2704 13.7488 12.792 13.7488 12.3032C13.7488 11.6064 13.572 10.9304 13.2288 10.3272L13.1976 10.3688C12.688 11.0656 12.4072 11.908 12.4072 12.7712C12.4072 13.4056 12.5528 14.04 12.844 14.612C12.428 15.1944 12.0328 15.7976 11.648 16.432C11.7 16.1824 11.7208 15.9224 11.7208 15.6728C11.7208 14.6328 11.3152 13.6344 10.5976 12.8856L10.5768 12.9376C10.3792 13.416 10.2856 13.936 10.2856 14.4456C10.2856 15.4232 10.6392 16.3592 11.2736 17.0976C10.8888 17.7632 10.5352 18.4496 10.1816 19.1568C10.2128 18.9384 10.2336 18.7096 10.2336 18.4912C10.2336 17.368 9.7864 16.2864 8.9856 15.5064L8.9648 15.5584C8.8192 15.9952 8.736 16.4632 8.736 16.9208C8.736 17.992 9.1416 19.0216 9.88 19.8016C9.6512 20.2904 9.4328 20.7792 9.2248 21.2888C9.1728 21.2368 9.1 21.1952 9.0272 21.1744C8.6528 21.0704 8.2992 20.904 7.9768 20.7064C7.7064 20.54 7.4152 20.4152 7.1136 20.3112C5.9384 19.9264 6.1152 19.3648 5.5016 18.2208C5.304 17.992 5.096 17.7632 4.8776 17.5448C4.6696 17.4096 4.5032 17.2328 4.3888 17.0144C4.2536 16.744 4.1704 16.4528 4.1392 16.1512C4.1288 15.808 3.9104 15.5168 3.588 15.4128C1.8616 14.82 2.6312 12.5736 2.6936 12.2824C2.6624 11.908 2.5792 11.5336 2.444 11.1696C2.4336 11.128 2.4232 11.076 2.4128 11.024C2.392 10.9304 2.3816 10.8264 2.3816 10.7224C2.3816 10.348 2.5168 9.984 2.7664 9.7032C2.9744 9.4952 3.692 9.1624 3.848 8.9648C4.004 8.7672 4.108 8.5488 4.264 8.372C4.7424 7.8936 5.304 7.488 5.9176 7.1864C6.4168 6.916 6.5 6.2192 6.6976 6.0008C7.02 5.6264 7.5192 5.6264 7.8936 5.304C8.0808 5.1376 8.3512 5.0544 8.528 4.8776C9.3912 4.0872 10.4936 3.5776 11.6584 3.432C11.8456 3.4216 12.0432 3.4112 12.2408 3.4112C12.8648 3.4112 13.4784 3.4944 14.0712 3.6504C14.1856 3.6712 14.3 3.692 14.404 3.7232C16.1928 3.7856 18.3456 4.16 19.136 4.9192C19.5208 5.2936 19.812 5.7512 19.968 6.2712C20.0928 6.6664 20.2696 7.0512 20.488 7.4048L20.9664 8.1848C21.1848 8.528 21.2992 8.9336 21.2992 9.3392C21.2992 9.5056 21.2784 9.672 21.2472 9.8384C21.1952 9.984 21.1744 10.14 21.1744 10.296C21.1744 10.4312 21.1952 10.556 21.2264 10.6808C21.476 11.0656 21.7776 11.4088 22.1104 11.7208C22.2456 11.856 22.3912 11.9704 22.5472 12.064C22.9112 12.2824 23.2752 12.5216 23.608 12.7816C23.608 12.8024 23.608 12.8232 23.608 12.844C23.608 13.0416 23.5144 13.2184 23.3584 13.3224C23.0568 13.5928 22.464 14.0192 22.464 14.0192C22.4848 14.144 22.5264 14.2584 22.568 14.3624C22.6512 14.5184 22.8488 14.7576 22.7864 14.9552C22.724 15.1632 22.2976 15.34 22.412 15.5688C22.5264 15.808 22.8384 15.8704 22.7448 16.0888C22.6616 16.2968 22.2352 16.6608 22.2768 16.8168C22.3184 16.9728 22.672 18.4288 21.8608 18.6784C20.8624 18.876 19.8536 18.9904 18.8344 19.0112C18.5016 19.032 18.2 19.2192 18.044 19.5104C17.888 19.8016 17.7944 20.1136 17.7528 20.436C17.4616 21.5904 17.0664 22.724 16.588 23.816C16.1096 24.908 16.5568 23.8784 16.5152 23.9824C16.4112 24.2008 16.3384 24.4296 16.3176 24.6688C16.3904 24.8456 16.4944 25.0016 16.6192 25.1368C16.7232 25.2512 16.8688 25.324 17.0352 25.324C17.0872 25.324 17.1496 25.3136 17.2016 25.3032C22.464 23.4728 25.9896 18.5016 25.9896 12.9272C25.9896 12.8544 25.9896 12.7712 25.9896 12.6984L26 12.7192Z" fill="#00DACC"/>
<circle cx="13" cy="13" r="12.25" stroke="#EDEFF2" stroke-width="1.5"/>
</g>
<defs>
<clipPath id="clip0_2009_24041">
<rect width="26" height="26" fill="white"/>
</clipPath>
</defs>
</svg>
