<svg width="26" height="26" viewBox="0 0 26 26" fill="none" xmlns="http://www.w3.org/2000/svg">
<g clip-path="url(#clip0_2009_23770)">
<circle cx="13" cy="13" r="12.25" fill="#EDF0F4" stroke="#EDEFF2" stroke-width="1.5"/>
<path d="M12.9985 23.9999C18.5388 23.9999 23.0302 19.1037 23.0302 13.0639C23.0302 7.02414 18.5388 2.12793 12.9985 2.12793C7.45814 2.12793 2.9668 7.02414 2.9668 13.0639C2.9668 19.1037 7.45814 23.9999 12.9985 23.9999Z" fill="#EC1C24"/>
<path d="M21.1931 13.1259L21.2216 13.1485C21.2216 13.1485 20.6208 5.9049 18.4068 2.29438C18.1944 1.94716 17.7413 1.89917 17.472 2.19276C16.8375 2.88719 15.7992 4.7475 14.7634 7.85271C14.2092 7.75109 13.6343 7.70027 13.0439 7.70027C12.4535 7.70027 11.8787 7.75391 11.3245 7.85271C10.2887 4.7475 9.25034 2.88719 8.6185 2.19276C8.34919 1.89917 7.89603 1.94716 7.68369 2.29438C5.47227 5.9049 4.87151 13.1485 4.87151 13.1485L4.89999 13.1259C4.70578 13.747 4.59961 14.3991 4.59961 15.0737C4.59961 17.8826 6.39931 20.3216 9.04577 21.5665C10.2369 22.1254 11.599 22.4444 13.0465 22.4444C14.4941 22.4444 15.8535 22.1254 17.0447 21.5665C19.6938 20.3216 21.4935 17.8797 21.4935 15.0709C21.4935 14.3991 21.3873 13.747 21.1931 13.1259Z" fill="white"/>
<path d="M2.24569 18.9664C2.168 18.9664 2.09032 18.9241 2.0437 18.8479C1.96602 18.7265 1.9945 18.5571 2.10844 18.4753C4.40532 16.7646 5.99527 17.2332 6.0626 17.2529C6.19466 17.2925 6.26975 17.4421 6.23091 17.586C6.19466 17.7272 6.05742 17.8119 5.92794 17.7695C5.90982 17.7639 4.47265 17.363 2.38552 18.9185C2.3415 18.9523 2.29489 18.9664 2.24569 18.9664Z" fill="#231F20"/>
<path d="M3.55102 21.041C3.50441 21.041 3.46039 21.0269 3.41636 20.9987C3.30243 20.9197 3.26876 20.7531 3.34386 20.6289C4.47547 18.7178 6.36062 18.3339 6.44089 18.3197C6.57295 18.2943 6.70243 18.3903 6.72573 18.5371C6.74904 18.6839 6.661 18.8222 6.52634 18.8476C6.50304 18.8533 4.76808 19.2146 3.75818 20.9197C3.71157 20.9959 3.63129 21.041 3.55102 21.041Z" fill="#231F20"/>
<path d="M23.7535 18.9664C23.7069 18.9664 23.6577 18.9523 23.6162 18.9185C21.5265 17.363 20.0868 17.7667 20.0738 17.7695C19.9443 17.809 19.8071 17.7244 19.7708 17.5832C19.7346 17.4421 19.8097 17.2925 19.9392 17.2529C20.0065 17.2332 21.5964 16.7646 23.8933 18.4753C24.0047 18.5599 24.0357 18.7265 23.958 18.8479C23.9088 18.9269 23.8337 18.9664 23.7535 18.9664Z" fill="#231F20"/>
<path d="M22.4529 21.041C22.3726 21.041 22.2923 20.9987 22.2457 20.9197C21.2306 19.2033 19.4931 18.8505 19.4775 18.8476C19.3429 18.8222 19.2548 18.6839 19.2782 18.5371C19.3015 18.3903 19.4309 18.2943 19.563 18.3197C19.6433 18.3339 21.5284 18.7178 22.66 20.6289C22.7325 20.7531 22.7015 20.9197 22.5875 20.9987C22.5461 21.0269 22.4995 21.041 22.4529 21.041Z" fill="#231F20"/>
<path d="M10.9413 14.3393C10.9154 15.7225 9.88221 16.8347 8.60818 16.8347C7.33415 16.8347 6.27246 15.6943 6.27246 14.2885C6.27246 13.882 6.3605 13.5009 6.51587 13.1621L10.9413 14.3393Z" fill="#A7DFF8"/>
<path d="M10.1808 14.1364C10.186 14.1928 10.1963 14.3058 10.1963 14.3622C10.1963 15.2768 9.51528 16.0193 8.67628 16.0193C7.83729 16.0193 7.15625 15.2768 7.15625 14.3622C7.15625 14.0263 7.28831 13.6706 7.44368 13.4109L10.1808 14.1364Z" fill="#231F20"/>
<path d="M14.8945 14.3393C14.9204 15.7225 15.9536 16.8347 17.2277 16.8347C18.5172 16.8347 19.5634 15.6943 19.5634 14.2885C19.5634 13.882 19.4753 13.5009 19.32 13.1621L14.8945 14.3393Z" fill="#A7DFF8"/>
<path d="M15.6678 14.1138C15.6626 14.1703 15.6367 14.3058 15.6367 14.3622C15.6367 15.2768 16.3178 16.0193 17.1568 16.0193C17.9957 16.0193 18.6768 15.2768 18.6768 14.3622C18.6768 14.0263 18.5603 13.6706 18.4049 13.4109L15.6678 14.1138Z" fill="#231F20"/>
<path d="M13.5447 19.1667C13.3117 19.1667 13.0605 19.0905 12.8171 18.8844C12.1619 19.4405 11.4498 19.0566 11.1468 18.7517C11.0459 18.6501 11.0407 18.4807 11.1339 18.3735C11.2271 18.2662 11.3825 18.2577 11.4809 18.3593C11.5404 18.4186 12.0946 18.9352 12.6151 18.3678C12.6617 18.317 12.7238 18.2888 12.7886 18.2888H12.8456C12.9103 18.2888 12.9724 18.317 13.019 18.3678C13.5395 18.9352 14.0937 18.4215 14.1532 18.3593C14.2542 18.2605 14.4096 18.2662 14.5002 18.3763C14.5909 18.4836 14.5857 18.6529 14.4873 18.7546C14.2957 18.9437 13.9435 19.1667 13.5447 19.1667Z" fill="#231F20"/>
<path d="M12.7974 18.2096C13.1935 18.2096 13.5147 18.0428 13.5147 17.837C13.5147 17.6312 13.1935 17.4644 12.7974 17.4644C12.4012 17.4644 12.0801 17.6312 12.0801 17.837C12.0801 18.0428 12.4012 18.2096 12.7974 18.2096Z" fill="#F7BAD5"/>
<path d="M6.16113 10.6842C6.16113 10.6842 6.54956 5.9897 7.98414 3.6495C8.12138 3.42649 8.41399 3.39262 8.59008 3.58458C9.0018 4.03624 9.77088 5.97559 10.4442 7.99962C10.4442 7.9968 9.66471 8.18876 6.16113 10.6842Z" fill="#F7BAD5"/>
<path d="M20.0152 10.6842C20.0152 10.6842 19.6268 5.9897 18.1922 3.6495C18.055 3.42649 17.7624 3.39262 17.5863 3.58458C17.1746 4.03624 16.364 5.97559 15.6934 7.99962C15.6908 7.9968 16.9156 8.18876 20.0152 10.6842Z" fill="#F7BAD5"/>
<path d="M15.5157 9.87172C16.3133 6.61972 11.8542 7.17019 11.9551 3.92383C11.9655 5.30424 11.7299 6.76933 12.5922 7.88439C11.1964 8.06223 10.7666 6.0269 10.3885 5.07558C10.2694 6.84837 9.96641 9.60637 11.8075 10.3657" fill="#D5E9F8"/>
<path d="M15.8742 9.87153C16.7805 5.82628 11.8812 6.73244 11.9796 3.48608C11.9899 4.86649 11.8165 6.17633 12.6762 7.29138C11.2804 7.46922 10.7522 5.60045 10.3715 4.64913C10.2524 6.42192 11.1665 9.67393 13.7016 10.3655" fill="white"/>
</g>
<defs>
<clipPath id="clip0_2009_23770">
<rect width="26" height="26" fill="white"/>
</clipPath>
</defs>
</svg>
