<svg width="26" height="26" viewBox="0 0 26 26" fill="none" xmlns="http://www.w3.org/2000/svg">
<path d="M13 0.75C19.7657 0.75 25.25 6.23431 25.25 13C25.25 19.7657 19.7657 25.25 13 25.25C6.23431 25.25 0.75 19.7657 0.75 13C0.75 6.23431 6.23431 0.75 13 0.75Z" fill="url(#paint0_linear_2009_24498)" stroke="#EDEFF2" stroke-width="1.5"/>
<path fill-rule="evenodd" clip-rule="evenodd" d="M12.6928 16.6849H12.9811H13.2693C13.4657 16.6849 13.5912 16.6417 13.6296 16.6129C13.853 14.6768 14.3589 10.6332 14.5953 9.94713C14.8316 9.2611 15.5345 8.93586 15.8564 8.85899C15.866 8.43383 16.0754 7.5835 16.8364 7.5835C17.5974 7.5835 17.6819 8.51069 17.6291 8.97429C17.7492 9.01513 18.0744 9.17463 18.4146 9.48593C18.7547 9.79724 18.8205 10.6245 18.8109 10.9992V18.0973H17.3264V9.18327C17.2303 9.14724 16.9719 9.06942 16.7067 9.04636C16.4415 9.0233 16.2263 9.07038 16.1518 9.0968C16.0005 10.4299 15.6488 13.4508 15.4528 14.869C15.2568 16.2872 14.2998 16.8243 13.8458 16.9155C13.9107 16.9972 13.9784 17.2874 13.7305 17.7947C13.484 18.2992 13.1283 18.2991 12.9835 18.2991H12.9811H12.9786C12.8321 18.2991 12.4782 18.2992 12.2316 17.7947C11.9838 17.2874 12.0515 16.9972 12.1163 16.9155C11.6624 16.8243 10.7054 16.2872 10.5094 14.869C10.3134 13.4508 9.96169 10.4299 9.81036 9.0968C9.73589 9.07038 9.52067 9.0233 9.25548 9.04636C8.99029 9.06942 8.73182 9.14724 8.63575 9.18327V18.0973H7.15126V10.9992C7.14165 10.6245 7.20747 9.79724 7.5476 9.48593C7.88774 9.17463 8.21298 9.01513 8.33308 8.97429C8.28023 8.51069 8.36479 7.5835 9.12576 7.5835C9.88673 7.5835 10.0962 8.43383 10.1058 8.85899C10.4277 8.93586 11.1305 9.2611 11.3669 9.94713C11.6032 10.6332 12.1091 14.6768 12.3325 16.6129C12.371 16.6417 12.4965 16.6849 12.6928 16.6849Z" fill="#FFFFFD"/>
<defs>
<linearGradient id="paint0_linear_2009_24498" x1="-6.61789" y1="8.80618" x2="9.14362" y2="32.9917" gradientUnits="userSpaceOnUse">
<stop stop-color="#E1804D"/>
<stop offset="1" stop-color="#9069DD"/>
</linearGradient>
</defs>
</svg>
