<svg width="26" height="26" viewBox="0 0 26 26" fill="none" xmlns="http://www.w3.org/2000/svg">
<circle cx="13" cy="13" r="12.25" fill="url(#paint0_linear_2009_24195)" stroke="#EDEFF2" stroke-width="1.5"/>
<path fill-rule="evenodd" clip-rule="evenodd" d="M6.60173 10.7811V16.8998H5.41699V9.79313C5.41821 9.53168 5.5664 9.29315 5.80025 9.17623C6.0341 9.0593 6.31384 9.08387 6.52373 9.23976L12.151 13.4765C12.3239 13.6067 12.4257 13.8104 12.4262 14.0268V16.8998H11.2419V14.2734L6.60173 10.7811ZM19.4345 10.7811V16.8998H20.6192V9.79313C20.6173 9.532 20.4689 9.29406 20.2352 9.17757C20.0014 9.06108 19.7221 9.08579 19.5125 9.2415L13.8852 13.4765C13.7123 13.6067 13.6105 13.8104 13.61 14.0268V16.8998H14.7943V14.2734L19.4345 10.7811Z" fill="white"/>
<defs>
<linearGradient id="paint0_linear_2009_24195" x1="0" y1="0" x2="0" y2="26" gradientUnits="userSpaceOnUse">
<stop stop-color="#4FA89B"/>
<stop offset="1" stop-color="#6ACEBB"/>
</linearGradient>
</defs>
</svg>
