<svg width="26" height="26" viewBox="0 0 26 26" fill="none" xmlns="http://www.w3.org/2000/svg">
<circle cx="13" cy="13" r="12.5" fill="black" stroke="#EDEFF2"/>
<path d="M16.9308 7.16457L14.2148 11.1953C14.0269 11.4698 14.3881 11.8021 14.6482 11.5709L17.3209 9.24495C17.3931 9.18716 17.4943 9.23051 17.4943 9.33163V16.5985C17.4943 16.6997 17.3642 16.743 17.3064 16.6708L9.21606 6.9912C8.95601 6.67337 8.58038 6.5 8.16142 6.5H7.87248C7.12123 6.5 6.5 7.12123 6.5 7.88692V18.1155C6.5 18.8812 7.12123 19.5024 7.88692 19.5024C8.36368 19.5024 8.81154 19.2568 9.07159 18.8378L11.7876 14.8071C11.9755 14.5326 11.6143 14.2003 11.3542 14.4315L8.68151 16.743C8.60928 16.8008 8.50815 16.7575 8.50815 16.6563V9.40387C8.50815 9.30274 8.63817 9.2594 8.69596 9.33163L16.7863 19.0112C17.0464 19.329 17.4365 19.5024 17.841 19.5024H18.1299C18.8956 19.5024 19.5169 18.8812 19.5169 18.1155V7.88692C19.5169 7.12123 18.8956 6.5 18.1299 6.5C17.6387 6.5 17.1909 6.7456 16.9308 7.16457Z" fill="white"/>
</svg>
