<svg width="26" height="26" viewBox="0 0 26 26" fill="none" xmlns="http://www.w3.org/2000/svg">
<circle cx="13" cy="13" r="12.25" fill="#E7EFF3" stroke="#EDEFF2" stroke-width="1.5"/>
<circle cx="12.9997" cy="8.25754" r="3.92453" fill="#88BDF3"/>
<circle cx="12.9997" cy="17.7419" r="3.92453" fill="#3075EE"/>
<circle cx="17.7419" cy="12.9997" r="3.92453" fill="#5795F1"/>
<circle cx="8.25754" cy="12.9997" r="3.92453" fill="#205FEC"/>
<path d="M12.0756 12.0756C10.6496 11.7289 9.5362 10.6155 9.18945 9.18945C10.6126 9.54137 11.7237 10.6525 12.0756 12.0756Z" fill="#134BEF"/>
<path d="M9.18164 16.8178C9.52838 15.3918 10.6418 14.2784 12.0678 13.9316C11.7159 15.3547 10.6047 16.4659 9.18164 16.8178Z" fill="#0932E8"/>
<path d="M13.9238 13.9238C15.3498 14.2706 16.4632 15.384 16.81 16.81C15.3869 16.4581 14.2757 15.3469 13.9238 13.9238L13.9238 13.9238Z" fill="#164BEA"/>
<path d="M16.8178 9.18164C16.4711 10.6077 15.3577 11.7211 13.9316 12.0678C14.2836 10.6447 15.3947 9.53356 16.8178 9.18164Z" fill="#3170F1"/>
</svg>
