<svg width="26" height="26" viewBox="0 0 26 26" fill="none" xmlns="http://www.w3.org/2000/svg">
<g clip-path="url(#clip0_2009_23947)">
<path d="M13 0C20.1864 0 26 5.8292 26 13C26 20.1864 20.1708 26 13 26C5.8136 26 0 20.1708 0 13C0 5.8292 5.8292 0 13 0Z" fill="url(#paint0_linear_2009_23947)"/>
<path d="M14.7888 9.99966L13.0104 8.21606L11.2372 9.98926L13.0104 11.7781L14.7888 9.99966ZM19.4532 9.92686L14.6068 14.6745C13.728 15.5429 12.2928 15.5429 11.414 14.6745L6.56756 9.92686L4.85156 11.6897L9.69796 16.4373C10.6184 17.3317 11.8144 17.7841 13.0156 17.7841C14.2168 17.7841 15.4128 17.3317 16.3332 16.4373L21.1796 11.6897L19.4532 9.92686Z" fill="#373535"/>
<circle cx="13" cy="13" r="12.25" stroke="#EDEFF2" stroke-width="1.5"/>
</g>
<defs>
<linearGradient id="paint0_linear_2009_23947" x1="25.2132" y1="8.44481" x2="-2.84221" y2="18.9103" gradientUnits="userSpaceOnUse">
<stop offset="0.3724" stop-color="#FF97D6"/>
<stop offset="0.8021" stop-color="#F8B994"/>
</linearGradient>
<clipPath id="clip0_2009_23947">
<rect width="26" height="26" fill="white"/>
</clipPath>
</defs>
</svg>
