<svg width="26" height="26" viewBox="0 0 26 26" fill="none" xmlns="http://www.w3.org/2000/svg">
<g clip-path="url(#clip0_2009_26108)">
<path d="M13 0.75C19.7655 0.75 25.25 6.23451 25.25 13C25.25 19.7655 19.7655 25.25 13 25.25C6.23451 25.25 0.75 19.7655 0.75 13C0.75 6.23451 6.23451 0.75 13 0.75Z" fill="#FF0420" stroke="#EDEFF2" stroke-width="1.5"/>
<path d="M9.20964 16.4529C8.43484 16.4529 7.80044 16.2709 7.30644 15.9069C6.81764 15.5377 6.57324 15.0073 6.57324 14.3261C6.57324 14.1805 6.58884 14.0089 6.62004 13.8009C6.70324 13.3329 6.82284 12.7713 6.97884 12.1109C7.42084 10.3221 8.56484 9.42773 10.4056 9.42773C10.9048 9.42773 11.3572 9.51093 11.7524 9.68253C12.1476 9.84373 12.4596 10.0933 12.6884 10.4261C12.9172 10.7537 13.0316 11.1437 13.0316 11.5961C13.0316 11.7313 13.016 11.9029 12.9848 12.1109C12.886 12.6881 12.7716 13.2549 12.6312 13.8009C12.4024 14.6901 12.0124 15.3609 11.4508 15.8029C10.8944 16.2397 10.1456 16.4529 9.20964 16.4529ZM9.35004 15.0489C9.71404 15.0489 10.0208 14.9397 10.2756 14.7265C10.5356 14.5133 10.7228 14.1857 10.832 13.7385C10.9828 13.1249 11.0972 12.5945 11.1752 12.1369C11.2012 12.0017 11.2168 11.8613 11.2168 11.7157C11.2168 11.1229 10.91 10.8265 10.2912 10.8265C9.92724 10.8265 9.61524 10.9357 9.35524 11.1489C9.10044 11.3621 8.91844 11.6897 8.80924 12.1369C8.68964 12.5737 8.57524 13.1041 8.45564 13.7385C8.42964 13.8685 8.41404 14.0037 8.41404 14.1493C8.40884 14.7525 8.72604 15.0489 9.35004 15.0489Z" fill="white"/>
<path d="M13.4837 16.3592C13.4109 16.3592 13.3589 16.3384 13.3173 16.2916C13.2861 16.2396 13.2757 16.1824 13.2861 16.1148L14.6329 9.77077C14.6433 9.69797 14.6797 9.64077 14.7421 9.59397C14.7993 9.54717 14.8617 9.52637 14.9293 9.52637H17.5241C18.2469 9.52637 18.8241 9.67717 19.2609 9.97357C19.7029 10.2752 19.9265 10.7068 19.9265 11.2736C19.9265 11.4348 19.9057 11.6064 19.8693 11.7832C19.7081 12.532 19.3805 13.0832 18.8813 13.442C18.3925 13.8008 17.7217 13.9776 16.8689 13.9776H15.5533L15.1061 16.1148C15.0905 16.1876 15.0593 16.2448 14.9969 16.2916C14.9397 16.3384 14.8773 16.3592 14.8097 16.3592H13.4837ZM16.9365 12.6308C17.2121 12.6308 17.4461 12.558 17.6489 12.4072C17.8569 12.2564 17.9921 12.0432 18.0597 11.7624C18.0805 11.6532 18.0909 11.5544 18.0909 11.4712C18.0909 11.284 18.0337 11.1384 17.9245 11.0396C17.8153 10.9356 17.6229 10.8836 17.3577 10.8836H16.1877L15.8185 12.6308H16.9365Z" fill="white"/>
</g>
<defs>
<clipPath id="clip0_2009_26108">
<rect width="26" height="26" fill="white"/>
</clipPath>
</defs>
</svg>
