<svg width="26" height="26" viewBox="0 0 26 26" fill="none" xmlns="http://www.w3.org/2000/svg">
<g clip-path="url(#clip0_2009_23895)">
<path d="M13 26C20.1797 26 26 20.1797 26 13C26 5.8203 20.1797 0 13 0C5.8203 0 0 5.8203 0 13C0 20.1797 5.8203 26 13 26Z" fill="#3D8130"/>
<path d="M17.9514 17.2351L17.9463 17.23L17.9514 17.2351Z" fill="#3D8130"/>
<path d="M7.72344 10.3085L7.13945 11.446L6.53516 12.6394L6.10859 13.7565L5.82422 14.9448L5.64648 16.2448L5.53984 17.3671L5.41797 18.1034L5.53984 18.6772L5.74805 19.1698L6.13398 19.8503L7.02773 20.4089L7.68789 20.6679C7.85039 20.7187 8.02305 20.7694 8.17031 20.8151L8.95234 20.9573L10.0695 21.0081H10.9938C11.1004 21.0081 12.0348 20.9573 12.0398 20.9522L13.2281 20.9726L14.3758 20.8304L14.8734 20.6222L15.2137 20.2159L15.2289 19.6776C15.2086 19.6319 15.1426 19.4593 15.1223 19.3933C15.107 19.3476 14.8785 19.0784 14.6703 18.8448L14.6652 18.8397C14.5738 18.7077 14.4266 18.4792 14.4266 18.403C14.4266 18.3269 14.518 18.1034 14.5383 18.0628L14.5484 18.0425L15.0258 17.9054L15.3406 18.1339L15.625 17.9765L15.9449 17.6565L16.5035 17.2452L17.0113 16.9558L17.4125 16.8796L17.9406 17.2401L17.9051 17.1995L18.1234 17.0065L18.3266 16.6714V16.321L18.2859 16.2194L18.027 16.4276L17.5648 16.5597H17.5547L16.8438 16.5444L15.8129 16.6511L15.4879 16.6866L15.2391 16.6511L14.5738 16.5597L13.8223 16.4175L12.6086 16.2194H12.6035L11.4406 15.737L10.4199 15.1479L9.79531 14.7265L9.73438 14.4269L9.81563 14.1476L10.0645 13.9647L10.6434 14.0968L11.9078 14.4878C12.5273 14.6147 13.4719 14.8026 13.5328 14.8077C13.5633 14.8077 13.6852 14.828 13.9898 14.8788C14.3148 14.9296 14.7617 15.0058 14.8531 15.0058C15.0105 15.0058 16.2242 15.0718 16.2953 15.0769C16.3613 15.0769 17.3465 15.0565 17.4531 15.0565C17.5242 15.0565 17.9051 14.9296 18.1336 14.8483L18.4789 14.437L18.809 13.8632C18.8293 13.6956 18.809 13.528 18.748 13.3706C18.6668 13.1573 18.5145 12.9745 18.3215 12.8526C18.2199 13.0456 18.0879 13.1675 17.9355 13.2233C17.8797 13.2437 17.8137 13.2538 17.7527 13.2538C17.6613 13.2538 17.5699 13.2335 17.4938 13.1929L17.5445 13.1015C17.6562 13.1573 17.7832 13.1675 17.9051 13.1269C18.0422 13.0761 18.159 12.9542 18.2504 12.7663C18.1387 12.8069 18.0168 12.8323 17.8949 12.8323C17.8187 12.8323 17.7426 12.8272 17.6664 12.8069L17.6766 12.7562L17.6867 12.7054C17.6918 12.7054 18.0828 12.8019 18.3773 12.5733C18.5855 12.4159 18.7023 12.1315 18.7227 11.7405L18.3824 12.1417L17.9711 12.3296C17.7883 12.3753 17.1789 12.5276 17.123 12.5276C17.1027 12.5276 17.0215 12.5175 16.8234 12.4819C16.5746 12.4413 16.2039 12.3854 16.1074 12.3854C15.9348 12.3854 15.691 12.1976 15.6656 12.1772L15.6352 12.1569L15.8281 11.5933L16.3613 10.989L16.925 10.5878H17.6258L18.2859 10.6589L18.5703 10.9839L18.7074 11.187V10.6386L18.159 10.4405C18.098 10.4304 17.5547 10.3542 17.4227 10.3542C17.2957 10.3542 16.8082 10.4304 16.727 10.4405L16.0211 10.8976L15.9652 10.8112L16.6863 10.344H16.6965C16.7219 10.339 17.2703 10.2526 17.4176 10.2526C17.5598 10.2526 18.1488 10.339 18.1742 10.344L18.1844 10.3491L18.7785 10.5675L18.8344 10.5979L18.8395 10.5573L18.5602 10.3136L18.0574 10.0698L17.448 10.019L16.7473 10.1409L16.468 10.2628L16.4273 10.1663L16.7219 10.0394L17.443 9.9124L18.0828 9.96826L18.1082 9.9835L17.9152 9.68389L17.3719 9.20654L17.377 9.20146L15.2645 9.2624C15.2645 9.2624 14.9902 9.29795 14.6754 9.33857L14.975 9.77021L15.1273 10.0394L15.0512 10.3085L14.9496 10.278L15.0156 10.0495L14.8836 9.821L14.5637 9.35889L14.584 9.34365C14.1879 9.39443 13.7664 9.44521 13.741 9.44521C13.6953 9.44521 11.9992 9.57217 11.9281 9.57217C11.7859 9.56201 11.6438 9.54678 11.5066 9.51631C11.4813 9.50107 10.3488 9.08975 10.3082 9.06436C10.2676 9.03896 9.87148 8.65811 9.87148 8.65811L9.09961 8.41943L8.42422 9.25225L7.72344 10.3085ZM15.9652 12.6394C16.0668 12.6851 16.1582 12.7409 16.2547 12.7968L16.8336 12.8628L17.1637 12.7917L17.184 12.8933L16.8387 12.9644L16.4375 12.9187C16.6102 13.0456 16.7676 13.1878 16.9098 13.3503C17.0113 13.4671 17.1027 13.594 17.1789 13.7261L17.0875 13.7769C16.9961 13.6245 16.8895 13.4772 16.7625 13.3503C16.5949 13.1776 16.407 13.0202 16.2039 12.8933L15.9094 12.7257L15.9652 12.6394ZM10.1609 10.7401L10.623 10.2983L11.0242 9.96826L11.598 9.85654L12.2023 9.83623H12.8473L13.3805 9.85654L14.4621 9.87686L14.8023 10.0851L15.2188 10.4659L15.4574 10.7604L15.5691 11.3597L15.4676 11.38L15.3609 10.8062L15.1426 10.5319L14.7414 10.1663L14.4367 9.97842L13.5887 9.96318L13.9594 10.1663C14.1574 10.2679 14.4977 10.4507 14.5332 10.5269C14.5586 10.5675 14.8277 10.8315 15.0766 11.0651L15.0816 11.0702L15.4625 11.5628L15.5184 11.969L15.4168 11.9843L15.366 11.6085L15.0055 11.1413C14.8785 11.0245 14.4824 10.6487 14.4469 10.5776C14.4164 10.537 14.1523 10.3847 13.9188 10.2628L13.3754 9.96318L12.8523 9.94795H12.2125L11.6133 9.96318L11.0801 10.0647L10.6992 10.3745L10.2676 10.7909L10.2219 11.0651L10.3133 11.1464L10.5418 11.0245L10.9176 10.5573L11.598 10.2983L12.4816 10.2069L13.2281 10.278L14.198 10.7808L14.5992 11.0194L14.9852 11.5323L15.1629 12.0909L15.4219 12.2585V12.487L15.1832 12.7054L14.7566 12.8831L14.5738 13.0354L14.3809 13.3503L14.2844 13.5077L14.2742 13.5128C14.1473 13.5788 13.9238 13.6956 13.8629 13.6956C13.8172 13.7058 13.5328 13.8327 13.2789 13.9597L13.2535 13.9647C13.2332 13.9698 12.7863 14.1069 12.6746 14.1272L12.6594 14.0257C12.7559 14.0104 13.1773 13.8835 13.218 13.8683C13.4719 13.7464 13.7867 13.5991 13.8426 13.5991C13.9645 13.5534 14.0813 13.4976 14.198 13.4315L14.2438 13.3554L14.4773 12.9745L14.5332 12.9288C14.3707 12.9136 14.1574 12.8882 14.1016 12.8577C14.0762 12.8476 13.9238 12.8272 13.1266 12.8272C12.9285 12.8272 12.4613 12.7206 12.3953 12.7003C12.3445 12.6851 11.8672 12.5429 11.8621 12.5429L11.852 12.5378L11.8418 12.5276C11.8367 12.5226 11.3949 12.1011 11.0699 11.9132L11.1207 11.8218C11.4355 12.0046 11.8367 12.3804 11.9078 12.4464C11.984 12.4667 12.3801 12.5886 12.4309 12.6038C12.4867 12.6241 12.9438 12.7257 13.1266 12.7257C14.0863 12.7257 14.127 12.7511 14.1523 12.7714C14.1879 12.7917 14.4164 12.8171 14.6094 12.8323L14.6043 12.8679L14.6805 12.8019L15.107 12.6241L15.2949 12.4515V12.3245L15.1629 12.2382L15.168 12.2534L14.7262 12.4159L14.1168 12.487C14.0863 12.487 13.9543 12.4921 13.807 12.4921C13.6344 12.4921 13.4465 12.487 13.3906 12.4667C13.3094 12.4413 12.7965 12.3296 12.5426 12.2737H12.5375L12.5324 12.2687C12.2125 12.096 11.8164 11.8776 11.7859 11.8218C11.7605 11.7913 11.5625 11.6897 11.3949 11.6085H11.3898L10.8262 11.2784L10.75 11.2937L10.7398 11.2276L10.5621 11.1261L10.2879 11.2733L10.0949 11.1058L10.1609 10.7401ZM10.3945 13.1726L10.4199 13.2741L10.0746 13.3554L9.90195 13.396L9.8918 13.3554L9.87656 13.2944L10.3945 13.1726ZM10.6129 13.655L10.5875 13.7565C10.4707 13.7312 10.3488 13.7362 10.232 13.7565C10.0391 13.7921 9.75469 13.9038 9.48047 14.2187L9.4043 14.1526C9.96797 13.4925 10.5875 13.6448 10.6129 13.655Z" fill="#3D8130"/>
<path d="M11.3086 11.0856C11.3391 11.0805 12.0602 10.9942 12.1516 10.9942C12.1871 10.9942 12.2887 11.0043 12.4207 11.0145C12.5984 11.0297 12.898 11.0551 12.9437 11.05C13.0148 11.0297 13.7258 10.9688 13.807 10.9586L14.2285 10.9282L14.1422 10.8774L13.1926 10.3848L12.4766 10.3137L11.6133 10.4L10.9734 10.6438L10.6484 11.05L10.8566 11.1719L11.3086 11.0856Z" fill="#3D8130"/>
<path d="M13.8127 11.0651C13.4979 11.0956 13.0154 11.1413 12.9646 11.1515C12.9189 11.1616 12.7564 11.1515 12.4111 11.121C12.2943 11.1108 12.1826 11.1007 12.1521 11.1007C12.0811 11.1007 11.5326 11.1667 11.3244 11.187L10.9893 11.2479L11.4463 11.5171C11.5885 11.5831 11.8322 11.705 11.8729 11.7659C11.9135 11.8065 12.2588 12.0046 12.5787 12.1772C12.66 12.1925 13.3303 12.3397 13.4318 12.3753C13.5029 12.4007 13.8939 12.3956 14.1225 12.3905L14.7217 12.3194L15.0822 12.1823L15.0619 12.1722L14.8791 11.5933L14.5186 11.1108L14.3053 10.9839L14.3104 11.0347L13.8127 11.0651Z" fill="#3D8130"/>
<path d="M18.5047 11.0247L18.2508 10.7403L17.6313 10.6692H16.9711L16.4379 11.05L15.9301 11.6239L15.7676 12.0961C15.8488 12.1571 16.0113 12.2586 16.118 12.2586C16.2246 12.2586 16.5699 12.3145 16.8492 12.3602C16.9812 12.3805 17.1133 12.4008 17.1336 12.4008C17.1793 12.3958 17.6566 12.279 17.9512 12.2079L18.327 12.0352L18.6266 11.6899L18.6012 11.5274L17.677 11.1516L16.4937 11.1161L16.4988 11.0145L17.7023 11.05L18.6977 11.4563L18.7383 11.7153C18.7383 11.7 18.7383 11.6848 18.7383 11.6696V11.3852L18.5047 11.0247Z" fill="#3D8130"/>
<path d="M17.3977 16.9812L17.0523 17.0472L16.5648 17.3265L16.0164 17.7328L15.8641 17.8851L16.2094 18.1289L16.2348 18.3218L16.0012 18.5554L15.9301 18.4843L16.1281 18.2863L16.118 18.1898L15.793 17.9613L15.6965 18.0578L15.4934 18.1695L15.4375 18.4437L15.7219 18.6925L16.1332 18.6773C16.2094 18.6214 16.3363 18.5402 16.3973 18.5351C16.4582 18.4996 16.5191 18.4589 16.575 18.4132C16.7121 18.3066 16.768 18.271 16.8086 18.271C16.9305 18.2101 17.0473 18.1441 17.159 18.0679L17.1742 18.0578L17.6719 18.1136L17.8445 18.2863L17.809 18.3218C17.7023 18.4386 17.5805 18.591 17.5754 18.6265C17.5754 18.6519 17.5703 18.6773 17.5602 18.6976L17.677 18.6316L18.2254 18.2406L18.2863 18.3269L17.7277 18.723L17.4688 18.8652C17.4586 18.8804 17.4484 18.8957 17.4434 18.9007L17.423 18.8855L17.027 19.1039L16.7527 19.5L16.6562 19.7335L16.8543 20.0128L17.0727 20.2617L17.3316 20.2921L17.5703 20.2414L17.5652 20.1906L17.8293 19.7742L18.327 19.2917L18.398 19.3679L17.9055 19.8453L17.6668 20.216L17.682 20.4953L17.9359 20.6679L18.2711 20.7035L18.459 20.6476L18.4234 20.5917L18.4488 20.5613C18.459 20.546 18.7332 20.2363 18.7891 20.1855C18.8297 20.1449 19.0633 19.8757 19.1801 19.7437L19.2563 19.8097C19.241 19.825 18.916 20.2058 18.8602 20.2566C18.8195 20.2972 18.6215 20.5156 18.5504 20.5968L18.7281 20.8609H19.0277L19.2867 20.7441L19.5 20.4292L19.7844 20.1246L19.8605 20.1957L19.5762 20.4953L19.3578 20.8253L19.048 20.9625H18.6723L18.5148 20.7289L18.2762 20.8L17.8953 20.7644L17.5805 20.546L17.5703 20.3429L17.3316 20.3937L17.0168 20.3531L16.7781 20.0789L16.4227 19.8656L16.052 19.4542L15.9605 18.8144L16.0621 18.7992L16.1383 19.3476L16.5801 18.9972L17.0574 18.5402L17.3316 18.1644L17.1996 18.1492C17.0523 18.2457 16.8797 18.3523 16.8188 18.3625C16.7578 18.398 16.6969 18.4386 16.641 18.4843C16.4988 18.591 16.443 18.6265 16.4074 18.6265C16.3313 18.6621 16.2551 18.7078 16.1891 18.7585L16.1738 18.7687L15.6914 18.789L15.3309 18.4691L15.3816 18.2253L15.3461 18.2457L15.0211 18.0121L14.6402 18.1238C14.5996 18.2152 14.5691 18.3066 14.5488 18.4031C14.5539 18.4437 14.6656 18.6316 14.7672 18.7789C14.9043 18.9312 15.2191 19.2917 15.2395 19.3679C15.2547 19.4238 15.3207 19.5863 15.3461 19.6472L15.3512 19.6574L15.3359 20.348L15.534 20.6425C15.6355 20.7035 16.382 21.1402 16.4684 21.191C16.5293 21.2265 17.0676 21.3789 17.3977 21.4703L18.5098 21.5769L19.4035 21.455L20.1703 21.1046L20.5867 20.7035L20.4902 20.348L19.9773 19.3933L19.6066 18.8296L18.9617 18.1289L18.0121 17.6058L17.8699 17.3011L17.3977 16.9812Z" fill="#3D8130"/>
<path d="M18.2053 14.9246L18.19 14.9297C18.0885 14.9652 17.5705 15.148 17.4588 15.148C17.3521 15.148 16.3111 15.1633 16.301 15.1684C16.2857 15.1684 15.0162 15.0973 14.8588 15.0973C14.7572 15.0973 14.3459 15.0312 13.9803 14.9703C13.7771 14.9348 13.5689 14.9043 13.5385 14.9043C13.4674 14.9043 12.1521 14.6352 11.8881 14.5844H11.883L10.6186 14.1934L10.0904 14.0766L9.90762 14.2137L9.84668 14.432L9.89238 14.6656L10.4814 15.0617L11.492 15.6457L12.6396 16.123L13.8432 16.316L14.5947 16.4582L15.4936 16.5801L16.8443 16.4379H16.8494L17.5553 16.4531L17.9818 16.3313L18.3424 16.0418L18.6369 15.5898L18.7029 15.3816L18.6064 15.148C18.1799 15.534 18.1342 15.5492 18.1088 15.5543L17.6721 15.6609L16.4584 15.7168H16.4533L15.1838 15.6457L13.9244 15.4172L12.9088 15.4375H12.9037L11.8475 15.1684L10.9131 14.8434L10.4154 14.5387L10.4713 14.4523L10.9639 14.752L11.883 15.0719L12.924 15.3359L13.9396 15.3156H13.9447L15.2041 15.5441L16.4635 15.6152L17.667 15.5645L18.0885 15.4578C18.1139 15.4477 18.2561 15.3359 18.5557 15.0617C18.5963 15.0262 18.6217 15.0008 18.6318 14.9906L19.0178 14.4625L19.1498 14.2137C19.1295 14.1273 19.1092 14.0461 19.099 13.9598C19.0482 13.8785 18.9924 13.8074 18.9264 13.7363C18.9264 13.782 18.9264 13.8277 18.9162 13.8734V13.8836L18.5658 14.4879L18.2053 14.9246Z" fill="#983B1F"/>
<path d="M20.5715 20.3125L20.0535 19.3477L19.6777 18.7738L19.0277 18.0477L18.0883 17.5348L17.9512 17.2402L17.9258 17.2555C17.9258 17.2555 18.0121 17.5703 18.073 17.6008C18.134 17.6313 18.9465 18.0477 18.9871 18.068C19.0277 18.0883 19.7336 18.9312 19.7336 18.9312L20.3023 19.9215L20.6426 20.6832C20.6426 20.6832 20.2059 21.1301 20.1805 21.1352C20.1551 21.1402 19.3121 21.5516 19.2867 21.5516C19.2613 21.5516 18.4437 21.643 18.398 21.6328C18.3523 21.6176 17.3469 21.5312 17.2707 21.5262C17.1895 21.5211 16.2602 21.1504 16.2602 21.1504L15.4578 20.668L15.2293 20.3125L14.9094 20.673C14.9094 20.673 14.4574 20.9016 14.3965 20.9016C14.3355 20.9016 13.2285 21.0488 13.1422 21.0488H10.9129C10.9129 21.0488 8.70898 21.0082 8.6125 20.9625C8.58203 20.9473 8.4043 20.8914 8.1707 20.8152L7.98281 20.7797L7.68828 20.668C7.32773 20.5562 7.00273 20.4598 7.00273 20.4598L6.09375 19.8707C6.09375 19.8707 5.71289 19.2105 5.69766 19.175C5.68242 19.1395 5.44883 18.5859 5.44883 18.5605C5.44883 18.5352 5.36758 18.0934 5.36758 18.0934L5.53008 17.0828L5.60117 16.0215L5.77383 14.8637C5.77383 14.8637 6.06328 13.7008 6.06836 13.65C6.07344 13.5941 6.54063 12.4465 6.54063 12.4465L7.0332 11.5578L7.6832 10.2172L8.39922 9.20664L9.09492 8.37891L9.14062 8.39414L9.05937 8.32812L8.38398 9.16602L7.63242 10.2578L7.04336 11.4055L6.43906 12.5938L6.00742 13.7211L5.71797 14.9195L5.54023 16.2297L5.43359 17.352L5.30664 18.1086L5.43359 18.7078L5.65195 19.2156L6.05312 19.9266L6.97227 20.5055L7.94219 20.8863L8.93242 21.0691L10.0648 21.125H10.9891C11.0957 21.125 11.9844 21.0742 12.0402 21.0691L13.2336 21.0895H13.2387L14.4016 20.9473H14.4066L14.9398 20.7238L15.2141 20.3938L15.4426 20.734L15.4527 20.7391C15.4629 20.7441 16.3109 21.2367 16.3973 21.2926C16.4887 21.3484 17.2656 21.5617 17.357 21.582L18.4945 21.6887L19.4086 21.5617H19.4137L20.2059 21.2012L20.216 21.1961L20.6883 20.7391L20.5715 20.3125Z" fill="black"/>
<path d="M8.39883 9.20664L7.68281 10.2172L7.03281 11.5578L6.54023 12.4465C6.54023 12.4465 6.07305 13.5941 6.06797 13.65C6.06289 13.7059 5.77344 14.8637 5.77344 14.8637L5.60078 16.0215L5.52969 17.0828L5.36719 18.0934C5.36719 18.0934 5.44844 18.5352 5.44844 18.5605C5.44844 18.5859 5.68203 19.1395 5.69727 19.175C5.7125 19.2105 6.09336 19.8707 6.09336 19.8707L7.00234 20.4598C7.00234 20.4598 7.32734 20.5562 7.68789 20.668L7.02773 20.409L6.13398 19.8504L5.74805 19.1699L5.53984 18.6773L5.41797 18.1035L5.53984 17.3672L5.64648 16.2449L5.82422 14.9449L6.10859 13.7566L6.53516 12.6395L7.13945 11.4461L7.72344 10.3086L8.46992 9.22695L9.14531 8.39414L9.09961 8.37891L8.39883 9.20664Z" fill="black"/>
<path d="M17.418 16.8745L17.0168 16.9507L16.509 17.2401L15.9504 17.6515L15.6305 17.9714L15.3461 18.1288L15.0312 17.9003L14.5539 18.0374L14.5437 18.0577C14.5234 18.1034 14.432 18.3218 14.432 18.3979C14.432 18.4741 14.5844 18.7077 14.6707 18.8347L14.6758 18.8397C14.884 19.0733 15.1125 19.3425 15.1277 19.3882C15.143 19.4542 15.2141 19.6269 15.2344 19.6726L15.2191 20.2108L14.8789 20.6171L14.3813 20.8253L13.2336 20.9675L12.0453 20.9472C12.0352 20.9472 11.1008 21.003 10.9992 21.003H10.075L8.95781 20.9522L8.17578 20.8101C8.4043 20.8812 8.58711 20.9421 8.61758 20.9573C8.70898 21.003 10.918 21.0437 10.918 21.0437H13.1473C13.2336 21.0437 14.3457 20.8964 14.4016 20.8964C14.4625 20.8964 14.9145 20.6679 14.9145 20.6679L15.2344 20.3073L15.4629 20.6628L16.2652 21.1452C16.2652 21.1452 17.1945 21.5108 17.2758 21.521C17.357 21.5261 18.3574 21.6124 18.4031 21.6276C18.4488 21.6429 19.2664 21.5464 19.2918 21.5464C19.3172 21.5464 20.1602 21.1401 20.1855 21.13C20.2109 21.1249 20.6477 20.678 20.6477 20.678L20.3074 19.9163L19.7387 18.9261C19.7387 18.9261 19.0328 18.0831 18.9922 18.0628C18.9516 18.0425 18.1391 17.6261 18.0781 17.5956C18.0172 17.5651 17.9309 17.2503 17.9309 17.2503L17.9563 17.2351V17.23L17.418 16.8745ZM18.007 17.6058L18.9566 18.1288L19.5914 18.8296L19.9621 19.3933L20.475 20.348L20.5715 20.7034L20.1551 21.1046L19.3883 21.455L18.4945 21.5769L17.3824 21.4702C17.0523 21.3788 16.5141 21.2265 16.4531 21.1909C16.3668 21.1401 15.6203 20.7034 15.5188 20.6425L15.3207 20.348L15.3359 19.6573V19.6522C15.3105 19.5913 15.2445 19.4288 15.2293 19.3729C15.209 19.2968 14.8941 18.9362 14.757 18.7839C14.6555 18.6315 14.5387 18.4437 14.5387 18.4081C14.559 18.3116 14.5895 18.2202 14.6301 18.1288L15.0109 18.0171L15.3359 18.2507L15.3715 18.2304L15.3207 18.4741L15.6812 18.794L16.1637 18.7737L16.1789 18.7636C16.2449 18.7128 16.3211 18.6671 16.3973 18.6315C16.4379 18.6315 16.4887 18.596 16.6309 18.4894C16.6867 18.4437 16.7477 18.403 16.8086 18.3675C16.8695 18.3624 17.0473 18.2507 17.1895 18.1542L17.3215 18.1694L17.0473 18.5452L16.5699 19.0022L16.1281 19.3526L16.052 18.8042L15.9504 18.8194L16.0418 19.4593L16.4125 19.8706L16.768 20.0839L17.0066 20.3581L17.3215 20.3987L17.5602 20.348L17.5703 20.5511L17.8852 20.7694L18.266 20.805L18.5047 20.7339L18.6621 20.9675H19.0379L19.3477 20.8304L19.566 20.5003L19.8504 20.2007L19.7742 20.1296L19.4898 20.4343L19.2766 20.7491L19.0176 20.8659H18.718L18.5402 20.6019C18.6113 20.5206 18.8094 20.3022 18.85 20.2616C18.9059 20.2058 19.2309 19.83 19.2461 19.8147L19.1699 19.7487C19.0531 19.8858 18.8195 20.1499 18.7789 20.1905C18.723 20.2464 18.4488 20.5562 18.4387 20.5663L18.4133 20.5968L18.4488 20.6526L18.2609 20.7085L17.9258 20.673L17.6719 20.5003L17.6566 20.221L17.8953 19.8503L18.3879 19.3729L18.3168 19.2968L17.8191 19.7792L17.5551 20.1956L17.5602 20.2464L17.3215 20.2972L17.0625 20.2667L16.8441 20.0179L16.6461 19.7386L16.7426 19.505L17.0168 19.1089L17.4129 18.8905L17.4332 18.9058C17.4383 18.8956 17.4484 18.8855 17.4586 18.8702L17.7176 18.728L18.2762 18.3319L18.2152 18.2456L17.6668 18.6366L17.55 18.7026C17.5602 18.6823 17.5652 18.6569 17.5652 18.6315C17.5703 18.5909 17.6922 18.4437 17.7988 18.3269L17.8344 18.2913L17.6617 18.1187L17.1641 18.0628L17.1488 18.0729C17.0371 18.1491 16.9203 18.2202 16.7984 18.2761C16.7578 18.2761 16.702 18.3167 16.5648 18.4183C16.509 18.464 16.448 18.5046 16.3871 18.5401C16.3262 18.5452 16.2043 18.6265 16.123 18.6823L15.7117 18.6976L15.4273 18.4487L15.4832 18.1745L15.6863 18.0628L15.7828 17.9663L16.1078 18.1948L16.118 18.2913L15.9199 18.4894L15.991 18.5604L16.2246 18.3269L16.1992 18.1339L15.8539 17.8901L16.0063 17.7378L16.5547 17.3315L17.0422 17.0522L17.3875 16.9862L17.8547 17.3062L18.007 17.6058ZM16.6156 19.8757L16.4785 19.7944L16.1738 19.4593L16.641 19.0937L17.1234 18.6265L17.4383 18.1897L17.616 18.2101L17.6922 18.2862C17.5957 18.3929 17.4637 18.5503 17.4637 18.6214C17.4484 18.6823 17.418 18.7382 17.3824 18.7839L16.9406 19.0276L16.6461 19.4491L16.5242 19.7538L16.6156 19.8757Z" fill="black"/>
<path d="M17.86 9.52661L18.1189 9.86685C18.1189 9.86685 18.2459 10.0649 18.2916 10.0801C18.3373 10.0954 18.7588 10.3391 18.7588 10.3391L18.9314 10.5321L18.8959 10.6438L18.7639 10.6032L18.7842 11.2583H18.8248V10.6692L18.9416 10.7352L18.9721 10.4864L18.642 10.1969L18.2865 10.0243L18.3018 10.0141L18.0275 9.58247L17.474 9.09497L17.4131 9.16606H17.4689L17.86 9.52661Z" fill="black"/>
<path d="M18.7232 12.2026C18.7232 12.2026 18.5354 12.5784 18.515 12.5886C18.4947 12.6038 18.3271 12.6749 18.3271 12.6749L18.3424 12.7663C18.4186 12.8222 18.4947 12.8831 18.5607 12.9491C18.5709 12.9644 18.6826 13.1878 18.774 13.3554H18.8654C18.7791 13.1015 18.6064 12.8831 18.3779 12.746C18.3881 12.7257 18.3982 12.7003 18.4084 12.68C18.4236 12.6698 18.4439 12.6597 18.4592 12.6444C18.708 12.4565 18.835 12.1315 18.8502 11.6745V11.3546L18.7893 11.2632L18.8045 11.7558L18.7232 12.2026Z" fill="black"/>
<path d="M17.951 9.6585L18.1439 9.95811L18.1186 9.94287L17.4787 9.88701L16.7576 10.014L16.4631 10.1409L16.5037 10.2374L16.783 10.1155L17.4838 9.99365L18.0932 10.0444L18.5959 10.2882L18.8752 10.5319L18.8701 10.5726L18.8143 10.5421L18.2201 10.3237L18.21 10.3187C18.1846 10.3136 17.6006 10.2272 17.4533 10.2272C17.3061 10.2272 16.7576 10.3136 16.7322 10.3187H16.7221L16.001 10.7858L16.0568 10.8722L16.7627 10.4151C16.8439 10.405 17.3314 10.3288 17.4584 10.3288C17.5904 10.3288 18.1338 10.4101 18.1947 10.4151L18.7432 10.6132V11.1718L18.6061 10.9687L18.3217 10.6437L17.6615 10.5726H16.9607L16.3971 10.9737L15.8639 11.578L15.6709 12.1417L15.7014 12.162C15.7268 12.1823 15.9705 12.3702 16.1432 12.3702C16.2396 12.3702 16.6154 12.4312 16.8592 12.4667C17.0572 12.4972 17.1385 12.5124 17.1588 12.5124C17.2146 12.5124 17.824 12.3601 18.0068 12.3144L18.4182 12.1265L18.7584 11.7253C18.7381 12.1163 18.6213 12.4007 18.4131 12.5581C18.1135 12.7866 17.7225 12.6901 17.7225 12.6901L17.7123 12.7409L17.7021 12.7917C17.7783 12.8069 17.8545 12.8171 17.9307 12.8171C18.0525 12.8171 18.1744 12.7968 18.2861 12.7511C18.1947 12.939 18.0779 13.0608 17.9408 13.1116C17.824 13.1522 17.692 13.1421 17.5803 13.0862L17.5295 13.1776C17.6107 13.2183 17.7021 13.2386 17.7885 13.2386C17.8494 13.2386 17.9104 13.2284 17.9713 13.2081C18.1236 13.1522 18.2506 13.0304 18.3572 12.8374C18.5502 12.9593 18.7025 13.1421 18.7838 13.3554H18.799C18.7127 13.1878 18.5959 12.9644 18.5857 12.9491C18.5146 12.8831 18.4436 12.8222 18.3674 12.7663L18.3521 12.6749C18.3521 12.6749 18.5197 12.6038 18.54 12.5886C18.5604 12.5733 18.7482 12.2026 18.7482 12.2026L18.8295 11.7608L18.8143 11.2683L18.7939 10.6132L18.926 10.6538L18.9615 10.5421L18.7889 10.3491C18.7889 10.3491 18.3674 10.1003 18.3217 10.0901C18.276 10.0749 18.149 9.87686 18.149 9.87686L17.89 9.53662L17.4939 9.18115H17.4381L17.433 9.18623L17.951 9.6585ZM18.7432 11.7151L18.7025 11.4562L17.7072 11.0499L16.5037 11.0144L16.4986 11.1159L17.6818 11.1515L18.6061 11.5272L18.6314 11.6897L18.3318 12.0351L17.9561 12.2077C17.6615 12.2788 17.1842 12.3956 17.1385 12.4007C17.1182 12.4007 16.9861 12.3804 16.8541 12.3601C16.5748 12.3144 16.2295 12.2585 16.1229 12.2585C16.0213 12.2585 15.8588 12.1569 15.7725 12.096L15.935 11.6237L16.4428 11.0499L16.976 10.669H17.6361L18.2557 10.7401L18.5096 11.0245L18.7482 11.3851V11.6694C18.7432 11.6847 18.7432 11.6999 18.7432 11.7151Z" fill="black"/>
<path d="M15.4988 16.6767L15.8238 16.6411H15.25L15.4988 16.6767Z" fill="black"/>
<path d="M18.3881 16.6614C18.3729 16.6868 18.0783 17.1642 18.0783 17.1642L17.9463 17.2353L17.9768 17.2708L18.2104 17.0677L18.4338 16.6919V16.6411H18.3881C18.3932 16.6513 18.3932 16.6563 18.3881 16.6614Z" fill="black"/>
<path d="M18.3883 16.6614C18.3883 16.6563 18.3934 16.6462 18.3934 16.6411H18.3375V16.6614L18.1344 16.9966L17.916 17.1896L17.9516 17.2302L17.9566 17.2353L18.0887 17.1642C18.0836 17.1642 18.3781 16.6919 18.3883 16.6614Z" fill="black"/>
<path d="M18.875 13.5484L18.9207 13.6145C18.9105 13.5281 18.8953 13.4418 18.8648 13.3555H18.7734C18.8293 13.4621 18.875 13.5484 18.875 13.5484Z" fill="black"/>
<path d="M19.2053 14.1173C19.2002 14.1427 19.1393 14.3458 19.124 14.3763C19.1088 14.4118 18.6314 15.0669 18.6314 15.0669L18.7432 15.2954C18.7432 15.2954 18.7635 15.4579 18.7482 15.4833C18.733 15.5087 18.3115 16.1638 18.3115 16.1638L18.3775 16.3466C18.3775 16.3466 18.3928 16.5751 18.3877 16.6462H18.4334V16.2958L18.3775 16.1435L18.4232 16.1079L18.733 15.6306L18.8143 15.3716L18.6924 15.072C18.7025 15.0618 18.7076 15.0567 18.7076 15.0567L19.1037 14.5134L19.2611 14.2239L19.2561 14.2036C19.2357 14.1224 19.2154 14.036 19.2053 13.9497C19.2053 13.9294 19.2053 13.8735 18.9412 13.5942L18.9209 13.6146L19.0783 13.838C19.0783 13.838 19.2104 14.0919 19.2053 14.1173Z" fill="black"/>
<path d="M18.7742 13.3555H18.759C18.8199 13.5129 18.8402 13.6805 18.8199 13.848L18.4848 14.4219L18.1395 14.8332C17.9059 14.9145 17.525 15.0414 17.459 15.0414C17.3523 15.0414 16.3672 15.0566 16.3012 15.0617C16.225 15.0566 15.0164 14.9906 14.859 14.9906C14.7676 14.9906 14.3207 14.9195 13.9957 14.8637C13.6961 14.8129 13.5691 14.7926 13.5387 14.7926C13.4727 14.7875 12.5332 14.5996 11.9137 14.4727L10.6492 14.0816L10.0703 13.9496L9.82148 14.1324L9.74023 14.4117L9.80117 14.7113L10.4258 15.1328L11.4465 15.7219L12.6094 16.2043H12.6145L13.8281 16.4023L14.5797 16.5445L15.2449 16.6359H15.8238L16.8547 16.5293L17.5656 16.5445H17.5758L18.0379 16.4125L18.2969 16.2043L18.3375 16.3059V16.6359H18.3934C18.3984 16.5648 18.3832 16.3363 18.3832 16.3363L18.3172 16.1535C18.3172 16.1535 18.7387 15.4984 18.7539 15.473C18.7691 15.4477 18.7488 15.2852 18.7488 15.2852L18.6371 15.0566C18.6371 15.0566 19.1195 14.4016 19.1297 14.366C19.1449 14.3305 19.2008 14.1324 19.2109 14.107C19.216 14.0816 19.084 13.8277 19.084 13.8277L18.9266 13.6043L18.8809 13.5383C18.8758 13.5484 18.8301 13.4621 18.7742 13.3555ZM18.9215 13.8734C18.9266 13.8277 18.9316 13.782 18.9316 13.7363C18.9977 13.8023 19.0535 13.8785 19.1043 13.9598C19.1145 14.0461 19.1297 14.1324 19.1551 14.2137L19.023 14.4625L18.6371 14.9906C18.627 15.0008 18.5965 15.0262 18.5609 15.0617C18.2613 15.3359 18.1242 15.4426 18.0937 15.4578L17.6723 15.5645L16.4687 15.6152L15.2094 15.5441L13.95 15.3156H13.9449L12.9293 15.3359L11.8883 15.0719L10.9691 14.752L10.4766 14.4523L10.4207 14.5387L10.9184 14.8434L11.8527 15.1684L12.909 15.4375H12.9141L13.9297 15.4172L15.1891 15.6457L16.4586 15.7168H16.4637L17.6773 15.6609L18.1141 15.5543C18.1344 15.5492 18.1852 15.534 18.6117 15.148L18.7082 15.3816L18.6422 15.5898L18.3477 16.0418L17.9871 16.3313L17.5605 16.4531L16.8547 16.4379H16.8496L15.4988 16.5801L14.6 16.4582L13.8484 16.316L12.6449 16.123L11.4973 15.6457L10.4867 15.0617L9.89766 14.6656L9.85195 14.432L9.91289 14.2137L10.0957 14.0766L10.6238 14.1934L11.8883 14.5844H11.8934C12.1574 14.6402 13.4676 14.9043 13.5438 14.9043C13.5691 14.9043 13.7824 14.9398 13.9855 14.9703C14.3512 15.0312 14.7625 15.0973 14.8641 15.0973C15.0215 15.0973 16.291 15.1684 16.3063 15.1684C16.3164 15.1684 17.3574 15.148 17.4641 15.148C17.5758 15.148 18.0937 14.9652 18.1953 14.9297L18.2105 14.9246L18.5762 14.4879L18.9266 13.8836L18.9215 13.8734Z" fill="black"/>
<path d="M10.232 13.7568C10.3488 13.7314 10.4707 13.7314 10.5875 13.7568L10.6129 13.6552C10.5875 13.6501 9.96797 13.4927 9.4043 14.1529L9.48047 14.2189C9.75469 13.8989 10.0391 13.7923 10.232 13.7568Z" fill="black"/>
<path d="M10.0699 13.3554L10.4152 13.2742L10.3949 13.1726L9.87695 13.2945L9.89219 13.3554H10.0699Z" fill="black"/>
<path d="M9.90273 13.3961L10.0703 13.3555H9.89258L9.90273 13.3961Z" fill="black"/>
<path d="M16.2143 12.8984C16.4174 13.0305 16.6053 13.1828 16.7729 13.3555H16.915C16.7729 13.193 16.6154 13.0508 16.4428 12.9238L16.8439 12.9695L17.1893 12.8984L17.1689 12.7969L16.8389 12.868L16.26 12.802C16.1686 12.741 16.0721 12.6902 15.9705 12.6445L15.9248 12.7359L16.2143 12.8984Z" fill="black"/>
<path d="M17.0934 13.782L17.1848 13.7312C17.1086 13.5992 17.0172 13.4723 16.9156 13.3555H16.7734C16.8953 13.4875 17.002 13.6297 17.0934 13.782Z" fill="black"/>
<path d="M10.5623 11.1261L10.74 11.2276L10.7502 11.2937L10.8264 11.2784L11.39 11.6085H11.3951C11.5627 11.6897 11.7607 11.7913 11.7861 11.8218C11.8217 11.8726 12.2127 12.0909 12.5326 12.2687L12.5377 12.2737H12.5428C12.8018 12.3296 13.3096 12.4413 13.3908 12.4667C13.4518 12.487 13.6396 12.4921 13.8072 12.4921C13.9545 12.4921 14.0916 12.487 14.117 12.487L14.7264 12.4159L15.1682 12.2534L15.1631 12.2382L15.2951 12.3245V12.4515L15.1072 12.6241L14.6807 12.8019L14.6045 12.8679L14.6096 12.8323C14.4166 12.8171 14.1881 12.7866 14.1525 12.7714C14.1271 12.7562 14.0865 12.7257 13.1268 12.7257C12.9439 12.7257 12.4869 12.6241 12.4311 12.6038C12.3803 12.5886 11.9842 12.4667 11.908 12.4464C11.842 12.3804 11.4408 12.0097 11.1209 11.8218L11.0701 11.9132C11.4002 12.1062 11.842 12.5226 11.842 12.5276L11.8521 12.5378L11.8623 12.5429C11.8674 12.5429 12.3447 12.6851 12.3955 12.7003C12.4564 12.7206 12.9236 12.8272 13.1268 12.8272C13.924 12.8272 14.0713 12.8476 14.1018 12.8577C14.1576 12.8882 14.3709 12.9136 14.5334 12.9288L14.4775 12.9745L14.2439 13.3554H14.3658L14.5588 13.0405L14.7416 12.8882L15.1682 12.7104L15.4068 12.4921V12.2636L15.1479 12.096L14.9701 11.5374L14.5842 11.0245L14.183 10.7858L13.2131 10.2831L12.4666 10.212L11.583 10.3034L10.9025 10.5624L10.5268 11.0296L10.2982 11.1515L10.2068 11.0702L10.2525 10.796L10.6842 10.3796L11.065 10.0698L11.5982 9.96826L12.1975 9.95303H12.8373L13.3604 9.96826L13.9037 10.2679C14.1373 10.3897 14.4064 10.5421 14.4318 10.5827C14.4674 10.6538 14.8635 11.0296 14.9904 11.1464L15.351 11.6136L15.4018 11.9894L15.5033 11.9741L15.4475 11.5679L15.0666 11.0753L15.0615 11.0702C14.8127 10.8417 14.5436 10.5776 14.5182 10.5319C14.4826 10.4558 14.1424 10.2729 13.9443 10.1714L13.5736 9.96826L14.4217 9.9835L14.7264 10.1714L15.1275 10.537L15.3459 10.8112L15.4525 11.3851L15.5541 11.3647L15.4424 10.7655L15.2037 10.471L14.7873 10.0901L14.4471 9.88193L13.3654 9.86162L12.8322 9.84131H12.1873L11.583 9.86162L11.0092 9.97334L10.608 10.3034L10.1459 10.7452L10.085 11.1108L10.2779 11.2784L10.5623 11.1261ZM14.5232 11.1058L14.8838 11.5882L15.0666 12.1671L15.0869 12.1772L14.7264 12.3144L14.1271 12.3854C13.8986 12.3905 13.5076 12.3956 13.4365 12.3702C13.335 12.3347 12.6646 12.1925 12.5834 12.1722C12.2635 11.9995 11.9131 11.8015 11.8775 11.7608C11.8369 11.705 11.5932 11.5831 11.451 11.512L10.9939 11.2429L11.3291 11.1819C11.5373 11.1565 12.0857 11.0956 12.1568 11.0956C12.1873 11.0956 12.299 11.1058 12.4158 11.1159C12.7611 11.1464 12.9236 11.1565 12.9693 11.1464C13.0201 11.1362 13.5025 11.0854 13.8174 11.0601L14.315 11.0245L14.31 10.9737L14.5232 11.1058ZM10.9686 10.6487L11.6084 10.405L12.4717 10.3187L13.1877 10.3897L14.1373 10.8823L14.2236 10.9331L13.8021 10.9636C13.7209 10.9687 13.01 11.0347 12.9389 11.055C12.8932 11.0651 12.5986 11.0347 12.4158 11.0194C12.2838 11.0093 12.1822 10.9991 12.1467 10.9991C12.0553 10.9991 11.3342 11.0854 11.3037 11.0905L10.8467 11.1769L10.6385 11.055L10.9686 10.6487Z" fill="black"/>
<path d="M14.1988 13.4316C14.082 13.4976 13.9652 13.5484 13.8434 13.5992C13.7875 13.5992 13.4727 13.7464 13.2187 13.8683C13.173 13.8835 12.7566 14.0105 12.6602 14.0257L12.6754 14.1273C12.782 14.107 13.234 13.9699 13.2543 13.9648L13.2594 13.9597C13.5133 13.8378 13.8027 13.7058 13.8434 13.6957C13.9043 13.6906 14.1277 13.5789 14.2547 13.5128L14.2648 13.5078L14.3613 13.3503H14.2395L14.1988 13.4316Z" fill="black"/>
<path d="M14.6861 9.27271L14.6201 9.31841C14.6506 9.31333 14.6811 9.31333 14.7115 9.30825L14.6861 9.27271Z" fill="black"/>
<path d="M14.9244 9.79565L15.0564 10.0242L14.9904 10.2527L15.092 10.2832L15.1682 10.014L15.0158 9.74487L14.7162 9.31323C14.6857 9.31831 14.6553 9.31831 14.6248 9.32339L14.6045 9.33862L14.9244 9.79565Z" fill="black"/>
<path d="M18.0326 9.67373L18.4846 9.62803C18.4846 9.62803 19.6119 9.96318 19.6576 10.0089C19.7033 10.0546 20.2721 10.3034 20.2721 10.3034L20.6072 10.3339L20.6529 10.0292L20.4041 9.67373L19.6881 9.14561L18.8705 8.74951L18.3576 8.57178L18.1748 5.98193L17.7432 5.33701L17.0982 4.80889L16.2654 4.39756L15.4021 4.38232L13.7771 4.58545L12.2842 4.87998L12.1979 4.62607C12.0811 4.59561 11.9643 4.57529 11.8475 4.56006C11.7611 4.56006 10.9689 4.80381 10.9689 4.80381L10.4865 5.05771L10.385 5.35225L9.69434 5.73311L9.13574 6.43389L8.81582 7.10928C8.81582 7.10928 8.65332 7.78467 8.65332 7.82529C8.65332 7.86592 8.73965 8.23662 8.80059 8.26201C8.86152 8.2874 9.31348 8.40928 9.31348 8.40928L9.90762 8.70381L10.7658 9.20146L11.8322 9.55186C11.8322 9.55186 12.8428 9.48076 12.9443 9.48076C13.0459 9.48076 14.5693 9.31826 14.6557 9.31826C14.742 9.31826 16.4127 9.18623 16.4584 9.18623C16.5041 9.18623 17.4994 9.171 17.4994 9.171L17.8955 9.52139L18.0326 9.67373Z" fill="#C82727"/>
<path d="M17.6363 11.111L17.7684 11.3903L17.8496 11.7103L17.809 11.9134L17.6363 12.3552L17.0879 12.4466L16.2043 12.2892L16.0977 11.9794L16.1383 11.7001L16.2297 11.2583L16.4582 11.0044L16.6055 11.0856L17.5805 11.111" fill="black"/>
<path d="M13.6143 11.0704L13.7768 11.3802L13.792 11.756L13.7107 12.0911L13.5381 12.3603L13.2588 12.3755L12.1873 12.0556L11.7607 11.6798L11.8166 11.4411L11.9639 11.2126L12.1619 11.0552L12.9135 11.0755C12.9033 11.0704 13.5838 11.1263 13.6143 11.0704Z" fill="black"/>
<path d="M20.5158 9.71445L20.0994 9.34883L19.5002 8.94766L18.515 8.58711L18.3779 8.53125L18.3373 7.6832C18.2865 7.2668 18.2154 6.63711 18.2154 6.58633C18.2154 6.51523 18.1799 5.99727 18.1799 5.97695V5.9668L17.8854 5.43359L17.3928 4.92578L16.6361 4.49414L16.0064 4.31641H15.1432L14.2951 4.42305C13.9549 4.47891 13.4217 4.56523 13.3607 4.56523C13.2693 4.56523 12.5584 4.72773 12.4771 4.74297L12.2283 4.80898L12.2689 4.78867L12.1877 4.62617L11.9236 4.52461L11.5377 4.56016L10.9182 4.7125L10.451 5.01211L10.3545 5.26094L10.4205 5.28633L10.1615 5.35234H10.1514L9.60293 5.69766L9.22207 6.1293L8.87676 6.7082L8.60254 7.65273V7.99297L8.78027 8.30781L9.89238 8.70391L10.2631 9.03906L11.0908 9.41484L11.8221 9.59766L13.1881 9.50625L15.1635 9.29297L16.5701 9.18633L17.7381 9.20156L18.9721 9.3793L19.9471 9.84141L19.9928 9.75L19.0076 9.28281L17.7533 9.10508L16.5701 9.08477L15.1584 9.19141L13.183 9.40469L11.8373 9.49102L11.1365 9.31836L10.3291 8.94766L9.95332 8.60742L8.85645 8.21641L8.71426 7.9625V7.66289L8.97832 6.74883L9.31348 6.19023L9.6791 5.77383L10.2021 5.44375L12.5076 4.83945C12.8072 4.77344 13.31 4.66172 13.3709 4.66172C13.4623 4.66172 14.2342 4.53477 14.3205 4.51953L15.1533 4.41289H15.9963L16.5904 4.58555L17.3268 5.00703L17.799 5.49453L18.0732 5.99727C18.0834 6.18516 18.1088 6.53555 18.1088 6.58633C18.1088 6.65742 18.2205 7.5918 18.2357 7.69336L18.2764 8.49062L17.6771 8.26211L16.4939 8.13516L15.6002 8.04375L14.7217 8.11484L13.7061 8.22148L12.5229 8.49062L11.6342 8.70391L11.04 8.73945L10.2783 8.58711L10.6643 8.86641L10.9791 9.04922L11.7002 9.22695L12.4061 9.24727H12.4111L13.0408 9.17617L13.9295 9.03398L14.7979 8.8918L15.7729 8.8207L16.4482 8.78516L17.2607 8.83594L18.3627 8.97813L19.7846 9.24727L20.0334 9.40977L20.4295 9.75508L20.5412 10.0141L20.5158 10.207L20.3025 10.2223L19.8861 10.0293L19.1193 9.72461L18.515 9.5418L17.9869 9.59766L17.9971 9.69922L18.5049 9.64844L19.0787 9.82109L19.8404 10.1207L20.2822 10.3238L20.6021 10.3035L20.6479 9.99883L20.5158 9.71445ZM10.4611 5.27109L10.5373 5.07812L10.9588 4.80898L11.5529 4.6668L11.9135 4.63125L12.1166 4.70742L12.1725 4.81914L10.4611 5.27109ZM18.3779 8.89687L17.2658 8.75469L16.4432 8.69883L15.7627 8.73438L14.7826 8.80547L13.9041 8.94766L13.0154 9.08984L12.3959 9.16094L11.7104 9.1457L11.0096 8.97305L10.715 8.80039H10.71L11.0197 8.86133L11.6342 8.82578L12.533 8.6125L13.7061 8.34844L14.7166 8.2418L15.585 8.1707L16.4686 8.25703L17.6365 8.37891L18.4693 8.69883L19.4443 9.0543L19.5561 9.13047L18.3779 8.89687Z" fill="black"/>
<path d="M13.2794 11.912C13.4488 11.8617 13.5517 11.7053 13.5094 11.5629C13.467 11.4204 13.2953 11.3457 13.126 11.3961C12.9566 11.4465 12.8537 11.6028 12.8961 11.7453C12.9384 11.8877 13.1101 11.9624 13.2794 11.912Z" fill="white"/>
<path d="M12.4514 11.8827C12.5243 11.8827 12.5834 11.8236 12.5834 11.7507C12.5834 11.6778 12.5243 11.6187 12.4514 11.6187C12.3784 11.6187 12.3193 11.6778 12.3193 11.7507C12.3193 11.8236 12.3784 11.8827 12.4514 11.8827Z" fill="white"/>
<path d="M12.3703 11.4716C12.4432 11.4716 12.5023 11.4125 12.5023 11.3396C12.5023 11.2666 12.4432 11.2075 12.3703 11.2075C12.2974 11.2075 12.2383 11.2666 12.2383 11.3396C12.2383 11.4125 12.2974 11.4716 12.3703 11.4716Z" fill="white"/>
<path d="M16.6717 12.0504C16.739 12.0504 16.7936 11.9958 16.7936 11.9285C16.7936 11.8612 16.739 11.8066 16.6717 11.8066C16.6044 11.8066 16.5498 11.8612 16.5498 11.9285C16.5498 11.9958 16.6044 12.0504 16.6717 12.0504Z" fill="white"/>
<path d="M16.6564 11.5883C16.7294 11.5883 16.7885 11.5292 16.7885 11.4563C16.7885 11.3833 16.7294 11.3242 16.6564 11.3242C16.5835 11.3242 16.5244 11.3833 16.5244 11.4563C16.5244 11.5292 16.5835 11.5883 16.6564 11.5883Z" fill="white"/>
<path d="M17.3822 11.9642C17.514 11.9642 17.6209 11.8573 17.6209 11.7255C17.6209 11.5937 17.514 11.4868 17.3822 11.4868C17.2504 11.4868 17.1436 11.5937 17.1436 11.7255C17.1436 11.8573 17.2504 11.9642 17.3822 11.9642Z" fill="white"/>
<circle cx="13" cy="13" r="12.25" stroke="#EDEFF2" stroke-width="1.5"/>
</g>
<defs>
<clipPath id="clip0_2009_23895">
<rect width="26" height="26" fill="white"/>
</clipPath>
</defs>
</svg>
