<svg width="26" height="26" viewBox="0 0 26 26" fill="none" xmlns="http://www.w3.org/2000/svg">
<g clip-path="url(#clip0_2009_26235)">
<path d="M13 26C20.1797 26 26 20.1797 26 13C26 5.8203 20.1797 0 13 0C5.8203 0 0 5.8203 0 13C0 20.1797 5.8203 26 13 26Z" fill="#E6DAFE"/>
<path d="M15.4066 11.6036C15.4066 12.6548 14.5586 13.5079 13.5074 13.5079V15.4122C15.6047 15.4122 17.3008 13.711 17.3008 11.6087C17.3008 9.50635 15.5996 7.80518 13.5074 7.80518C12.8168 7.80518 12.1668 7.98799 11.6082 8.31299C10.4758 8.96807 9.70898 10.2021 9.70898 11.6087V21.12L11.4152 22.8313L11.6082 23.0243V11.6036C11.6082 10.5524 12.4563 9.69932 13.5074 9.69932C14.5586 9.69932 15.4066 10.5575 15.4066 11.6036Z" fill="black"/>
<path d="M13.5078 3.99658C12.1266 3.99658 10.8316 4.36729 9.71445 5.01729C8.99844 5.42861 8.35859 5.95674 7.81523 6.57627C6.63711 7.91689 5.91602 9.679 5.91602 11.6087V17.3165L7.81523 19.2208V11.6036C7.81523 9.9126 8.54648 8.39424 9.71445 7.34814C10.2629 6.85557 10.9027 6.46963 11.6137 6.2208C12.2078 6.00752 12.8477 5.8958 13.5129 5.8958C16.6562 5.8958 19.2055 8.4501 19.2055 11.6036C19.2055 14.7571 16.6512 17.3114 13.5078 17.3114V19.2157C17.6973 19.2157 21.0945 15.8083 21.0945 11.6087C21.0945 7.40908 17.6973 3.99658 13.5078 3.99658Z" fill="black"/>
<circle cx="13" cy="13" r="12.25" stroke="#EDEFF2" stroke-width="1.5"/>
</g>
<defs>
<clipPath id="clip0_2009_26235">
<rect width="26" height="26" fill="white"/>
</clipPath>
</defs>
</svg>
