<svg width="26" height="26" viewBox="0 0 26 26" fill="none" xmlns="http://www.w3.org/2000/svg">
<g clip-path="url(#clip0_2009_24029)">
<circle cx="13" cy="13" r="12.25" fill="#EDF0F4" stroke="#EDEFF2" stroke-width="1.5"/>
<path fill-rule="evenodd" clip-rule="evenodd" d="M6 5.48052V17.2013C6 17.4481 6.06364 17.6331 6.12727 17.8182C6.25455 18.0032 6.38182 18.1883 6.57273 18.3117L12.3 22.7532C12.4909 22.9383 12.7455 23 13 23C13.2545 23 13.5091 22.9383 13.7 22.7532L19.4273 18.3117C19.6182 18.1883 19.7455 18.0032 19.8727 17.8182C20 17.6331 20 17.3864 20 17.2013V5.48052C20 5.11039 19.8091 4.74026 19.5545 4.43182C19.3 4.12338 18.9182 4 18.4727 4H7.52727C7.08182 4 6.7 4.12338 6.44545 4.43182C6.19091 4.67857 6 5.0487 6 5.48052Z" fill="#004DE5"/>
<path d="M17.0712 10.7858V8.19487C17.0712 7.88643 16.944 7.5163 16.6894 7.26954C16.4349 7.02279 16.1167 6.89941 15.7349 6.89941H10.1985C9.88033 6.9611 9.56214 7.08448 9.3076 7.33123C9.05305 7.57799 8.92578 7.88643 8.92578 8.19487V15.5975C8.92578 15.7825 8.98942 15.9676 9.05305 16.1527C9.11669 16.3377 9.24396 16.4611 9.43487 16.5845L11.4076 18.1884L11.4712 18.2501H11.5349L11.5985 18.1884V18.1267V12.8832C11.5985 12.8215 11.5985 12.8215 11.6621 12.7598C11.6621 12.7598 11.7258 12.6981 11.7894 12.6981H13.2531C13.5076 12.6981 13.7621 12.8215 13.9531 13.0066C14.144 13.1916 14.2712 13.4384 14.2712 13.6851V18.1267V18.1884L14.3349 18.2501H14.3985C14.3985 18.2501 14.4621 18.2501 14.4621 18.1884L16.4985 16.5845C16.6258 16.4611 16.7531 16.3377 16.8803 16.1527C16.944 15.9676 17.0076 15.7825 17.0076 15.5975V13.315C17.0076 13.0066 16.8803 12.6364 16.6258 12.3897C16.3712 12.1429 16.0531 12.0195 15.6712 12.0195C15.9894 12.0195 16.3712 11.8962 16.5621 11.6494C16.944 11.4643 17.0712 11.0942 17.0712 10.7858ZM13.3167 11.4027H11.8531C11.7894 11.4027 11.7894 11.4027 11.7258 11.341C11.7258 11.341 11.6621 11.2793 11.6621 11.2176V8.37993C11.6621 8.31825 11.7258 8.31825 11.7258 8.25656C11.7258 8.25656 11.7894 8.19487 11.8531 8.19487H14.144C14.2076 8.19487 14.2076 8.19487 14.2712 8.25656C14.2712 8.25656 14.3349 8.31825 14.3349 8.37993V10.4773C14.3349 10.7241 14.2076 10.9708 14.0167 11.1559C13.8258 11.341 13.5712 11.4027 13.3167 11.4027Z" fill="url(#paint0_linear_2009_24029)"/>
</g>
<defs>
<linearGradient id="paint0_linear_2009_24029" x1="12.9986" y1="6.9405" x2="12.9986" y2="18.25" gradientUnits="userSpaceOnUse">
<stop stop-color="white"/>
<stop offset="0.4583" stop-color="white"/>
<stop offset="1" stop-color="white"/>
</linearGradient>
<clipPath id="clip0_2009_24029">
<rect width="26" height="26" fill="white"/>
</clipPath>
</defs>
</svg>
