<svg width="26" height="26" viewBox="0 0 26 26" fill="none" xmlns="http://www.w3.org/2000/svg">
<mask id="path-2-inside-1_2009_24309" fill="white">
<path fill-rule="evenodd" clip-rule="evenodd" d="M26 13C26 5.85 20.1501 0 12.9353 0C5.78542 0.065 -0.0644622 5.85 0.000536471 13.065C0.0655351 20.215 5.85042 26 13.1303 26C20.2151 25.935 26 20.15 26 13Z"/>
</mask>
<path fill-rule="evenodd" clip-rule="evenodd" d="M26 13C26 5.85 20.1501 0 12.9353 0C5.78542 0.065 -0.0644622 5.85 0.000536471 13.065C0.0655351 20.215 5.85042 26 13.1303 26C20.2151 25.935 26 20.15 26 13Z" fill="#EDF0F4"/>
<path d="M12.9353 0L12.9216 -1.5H12.9353V0ZM0.000536471 13.065L-1.4994 13.0786L-1.4994 13.0785L0.000536471 13.065ZM13.1303 26L13.144 27.5H13.1303V26ZM26 13H24.5C24.5 6.68326 19.3265 1.5 12.9353 1.5V0V-1.5C20.9737 -1.5 27.5 5.01674 27.5 13H26ZM12.9353 0L12.9489 1.49994C6.60664 1.5576 1.44313 6.68544 1.50048 13.0515L0.000536471 13.065L-1.4994 13.0785C-1.57205 5.01456 4.96419 -1.4276 12.9216 -1.49994L12.9353 0ZM0.000536471 13.065L1.50047 13.0514C1.55797 19.3765 6.67176 24.5 13.1303 24.5V26V27.5C5.02907 27.5 -1.4269 21.0535 -1.4994 13.0786L0.000536471 13.065ZM13.1303 26L13.1165 24.5001C19.3814 24.4426 24.5 19.3238 24.5 13H26H27.5C27.5 20.9762 21.0488 27.4274 13.144 27.4999L13.1303 26Z" fill="#EDEFF2" mask="url(#path-2-inside-1_2009_24309)"/>
<path fill-rule="evenodd" clip-rule="evenodd" d="M5.33496 12.9554C5.33496 13.2171 5.54717 13.4293 5.80894 13.4293C6.0701 13.4279 6.28145 13.2165 6.28291 12.9554C6.28291 12.6936 6.07071 12.4814 5.80894 12.4814C5.54717 12.4814 5.33496 12.6936 5.33496 12.9554ZM16.595 6.25902C16.3333 6.25902 16.1211 6.47122 16.1211 6.73299H16.1212C16.1218 6.90274 16.2119 7.05958 16.3581 7.14578C16.4345 7.184 16.511 7.20697 16.595 7.20697C16.8568 7.20697 17.069 6.99476 17.069 6.73299C17.069 6.47122 16.8568 6.25902 16.595 6.25902ZM9.92159 19.2088C9.92159 19.4706 9.70938 19.6828 9.44761 19.6828C9.18584 19.6828 8.97363 19.4706 8.97363 19.2088C8.97363 18.9471 9.18584 18.7349 9.44761 18.7349C9.52804 18.7352 9.60704 18.7562 9.67693 18.796C9.82744 18.8789 9.92111 19.037 9.92159 19.2088ZM9.1877 6.31214C8.95838 6.44206 8.88186 6.72493 9.01185 6.95425C9.14177 7.18357 9.43227 7.2601 9.65396 7.1301C9.88328 7.00019 9.95972 6.71731 9.82981 6.48799C9.6999 6.25867 9.41702 6.18223 9.1877 6.31214ZM16.2128 19.3995C16.1669 19.3307 16.1516 19.2466 16.1439 19.1626C16.1416 18.9917 16.2315 18.8328 16.379 18.7467C16.5266 18.6606 16.7091 18.6606 16.8567 18.7467C17.0043 18.8328 17.0941 18.9917 17.0918 19.1626C17.0918 19.3307 17.0001 19.4832 16.8549 19.5753C16.6332 19.7053 16.3427 19.6288 16.2128 19.3995ZM20.6616 12.7871C20.5851 12.5884 20.3788 12.4584 20.1647 12.4814H20.1646C20.1589 12.4822 20.1535 12.4849 20.1494 12.489C19.8939 12.5291 19.7184 12.7676 19.7562 13.0235C19.7939 13.2794 20.0308 13.457 20.287 13.4216C20.5218 13.3767 20.6918 13.1715 20.6922 12.9324C20.6922 12.8865 20.6768 12.833 20.6616 12.7871Z" fill="#2683FF"/>
<path fill-rule="evenodd" clip-rule="evenodd" d="M15.2567 19.6902C15.28 19.7509 15.3081 19.8097 15.3407 19.8661C15.7535 20.5388 16.6249 20.7681 17.3359 20.3861C18.0469 19.9884 18.2992 19.0862 17.9016 18.3755C17.8635 18.307 17.8179 18.2462 17.7723 18.1853L17.7716 18.1844L19.9655 14.3775C20.0365 14.3867 20.108 14.3918 20.1795 14.3928C20.2637 14.3928 20.3401 14.3928 20.4242 14.3775C21.2269 14.2476 21.7773 13.4908 21.6473 12.6881C21.5173 11.8854 20.7606 11.335 19.9579 11.465L17.7487 7.63524C17.7946 7.57405 17.8328 7.51295 17.871 7.45176C17.8797 7.43441 17.889 7.41706 17.8984 7.39952C17.922 7.3553 17.9463 7.30994 17.9627 7.26066C18.2685 6.50381 17.9013 5.64764 17.1448 5.34188C16.3883 5.03612 15.5318 5.40315 15.2261 6.16001H10.8077C10.7849 6.09041 10.7542 6.02372 10.716 5.96128C10.6777 5.90018 10.6395 5.84662 10.6013 5.79315C10.2828 5.36711 9.75991 5.14513 9.2322 5.21191C8.70448 5.2787 8.25338 5.62395 8.05106 6.1159C7.84874 6.60785 7.92643 7.17057 8.25447 7.5893L6.01468 11.4573C6.00845 11.4566 6.00229 11.4559 5.99618 11.4552C5.93481 11.4483 5.87853 11.442 5.81595 11.442C5.00571 11.442 4.33301 12.1224 4.33301 12.9327C4.33301 13.743 4.99037 14.4078 5.80824 14.4078C5.87066 14.4078 5.92687 14.4015 5.98822 14.3947C5.99441 14.394 6.00065 14.3933 6.00696 14.3926L8.26201 18.2912C8.22379 18.3446 8.18557 18.3981 8.15498 18.4593C7.75762 19.1704 8.01718 20.0726 8.72828 20.47C9.43937 20.8673 10.3414 20.6073 10.7389 19.8967C10.7492 19.8735 10.7603 19.8504 10.7714 19.8273C10.7934 19.7816 10.8154 19.7359 10.8306 19.6902H15.2567ZM17.5958 18.5895C17.9092 19.1246 17.7257 19.8202 17.1906 20.1336V20.1338C16.6479 20.4544 15.9599 20.2712 15.6465 19.7438C15.395 19.3172 15.4541 18.776 15.7917 18.4137L14.7751 16.6631C13.8807 17.0988 12.8105 16.8083 12.2525 15.9904C12.0839 15.9445 11.9237 15.8757 11.7632 15.7993L10.2651 18.4441C10.5252 18.7197 10.6313 19.1065 10.548 19.4762C10.4105 20.0878 9.79895 20.4622 9.18735 20.3247C8.57574 20.1872 8.20126 19.5756 8.3388 18.964C8.47634 18.3524 9.08794 17.9779 9.69946 18.1155L11.2206 15.44C10.6015 14.9202 10.1887 13.269 10.1887 13.269H6.81738C6.71641 13.607 6.45203 13.8714 6.11408 13.9723C5.55604 14.1405 4.9674 13.8271 4.79927 13.269C4.63114 12.711 4.9369 12.1219 5.49494 11.9538C6.05298 11.7857 6.64162 12.0991 6.80975 12.6571H10.2496C10.2496 12.6571 10.5477 11.7558 10.8381 11.404C10.8468 11.03 10.9437 10.6633 11.121 10.3338L9.67623 7.81879C9.30928 7.90295 8.92709 7.80363 8.65192 7.54363C8.19329 7.11559 8.17041 6.41229 8.59845 5.95365C8.80271 5.7338 9.08624 5.60452 9.38617 5.59448C9.6861 5.58444 9.97764 5.69448 10.1961 5.90018C10.6548 6.32822 10.6777 7.03949 10.2496 7.49016L11.5492 9.76081C12.3747 8.93514 13.6743 8.82811 14.6222 9.50081L15.7765 7.50567C15.5166 7.22244 15.4096 6.83262 15.5013 6.46568C15.6471 5.85592 16.2596 5.47978 16.8694 5.6255C17.4792 5.77122 17.8554 6.38363 17.7098 6.99344C17.5642 7.60324 16.9518 7.97957 16.342 7.83405L15.1113 9.96681C15.5546 10.5152 15.7311 11.2323 15.5929 11.9237C15.6915 12.137 15.7758 12.3567 15.8452 12.5812H19.0558C19.1552 12.2757 19.3692 12.0158 19.6597 11.8705C20.2406 11.58 20.9592 11.8093 21.2497 12.398C21.2727 12.4438 21.2956 12.4897 21.3109 12.5432C21.3109 12.5471 21.3128 12.5509 21.3147 12.5548C21.3166 12.5586 21.3185 12.5624 21.3185 12.5662C21.5092 13.193 21.1653 13.8586 20.5385 14.0492C19.9117 14.2399 19.2467 13.8961 19.0556 13.2692H15.9061C15.9061 13.2692 15.8526 13.8423 15.7685 14.1099C16.0679 14.8559 15.8902 15.7088 15.3178 16.2732L16.3651 18.062C16.8466 17.9474 17.3435 18.1614 17.5958 18.5895Z" fill="#2683FF"/>
<path d="M12.8488 15.2029C12.7876 15.1953 12.7341 15.1877 12.6729 15.18C12.6315 15.1725 12.5907 15.1623 12.5507 15.1494C12.5354 15.1494 12.5201 15.1417 12.5048 15.1417C12.459 15.1265 12.4054 15.1111 12.3596 15.0959H12.3519C12.0955 14.9987 11.8614 14.8504 11.664 14.6601C11.6181 14.6143 11.5799 14.5761 11.534 14.5225L11.5263 14.5149C11.4881 14.469 11.4499 14.4232 11.4193 14.3696L11.4117 14.362C11.3811 14.3162 11.3429 14.2626 11.32 14.2167L11.3124 14.2091C11.2839 14.1597 11.2583 14.1087 11.2359 14.0562L11.2283 14.041C11.2053 13.9875 11.1825 13.934 11.1595 13.8729L11.1519 13.8652C11.1366 13.804 11.1136 13.7506 11.106 13.6894V13.6818C11.0921 13.6213 11.0819 13.56 11.0754 13.4983V13.4907C11.0292 13.1651 11.0687 12.8331 11.1901 12.5275L11.2207 12.4892C11.2359 12.4434 11.2742 12.3669 11.2971 12.3211C11.3129 12.2972 11.3257 12.2716 11.3353 12.2447C11.343 12.2217 11.3736 12.1835 11.3888 12.1606C11.4041 12.1377 11.4423 12.0842 11.4653 12.0536L11.4805 12.0306C11.5111 11.9848 11.5493 11.9465 11.5875 11.9006L11.6258 11.8624C11.6716 11.8165 11.7098 11.7783 11.7558 11.7401C11.7405 11.6492 11.7328 11.5571 11.7328 11.4649C11.7328 11.4343 11.7328 11.4115 11.7404 11.3885C11.7557 11.0369 11.9009 10.7005 12.138 10.4406C12.2526 10.3106 12.3979 10.2037 12.5507 10.12L12.5663 10.1118C12.6107 10.0882 12.6567 10.0678 12.704 10.0506C12.7192 10.043 12.7269 10.043 12.7422 10.0354C12.7818 10.0192 12.8227 10.0064 12.8645 9.99715C12.8797 9.98953 12.9027 9.98953 12.9179 9.9819C12.9562 9.97427 12.9944 9.96665 13.0402 9.95893C13.0555 9.95893 13.0708 9.95131 13.0937 9.95131C13.1521 9.94495 13.2108 9.9424 13.2696 9.94368C13.3181 9.94241 13.3667 9.94496 13.4148 9.95131C13.4301 9.95131 13.4454 9.95893 13.4683 9.95893C13.4989 9.96656 13.5295 9.96656 13.56 9.97419C13.5905 9.98181 13.5982 9.98181 13.6212 9.98944C13.6431 9.99814 13.6664 10.0033 13.69 10.0047C13.7129 10.0047 13.7358 10.0199 13.7588 10.0277C13.7772 10.0339 13.7951 10.0416 13.8123 10.0506C13.8372 10.0621 13.8627 10.0724 13.8887 10.0812C13.9039 10.0888 13.9117 10.0965 13.9269 10.0965C14.1787 10.2039 14.3919 10.3852 14.5384 10.6165C14.6072 10.7311 14.6684 10.8458 14.7066 10.9681C14.7229 11.0155 14.7356 11.064 14.7448 11.1133L14.7524 11.1286L14.7754 11.2662L14.783 11.2968C14.7906 11.3503 14.7906 11.4038 14.7906 11.4649C14.7906 11.6714 14.7524 11.8701 14.6683 12.0536C14.6989 12.0994 14.7295 12.1376 14.76 12.1836L14.7677 12.1988C14.7906 12.237 14.8135 12.2829 14.8365 12.3288V12.3363C15.0591 12.7732 15.1109 13.2774 14.9817 13.7505V13.7581C14.9669 13.8269 14.9438 13.8936 14.9129 13.9568L14.8212 14.1633C14.9746 14.3598 15.0579 14.6019 15.0582 14.8512C15.0582 14.9047 15.0505 14.9506 15.0505 15.0041L15.0429 15.0423C15.0356 15.0913 15.0254 15.1398 15.0123 15.1876C14.9978 15.2347 14.98 15.2807 14.9588 15.3252L14.9512 15.3482C14.9283 15.394 14.9054 15.4322 14.8824 15.4782C14.7601 15.6693 14.5766 15.8145 14.3702 15.8986C14.3014 15.9292 14.2326 15.9444 14.1639 15.9598H14.1409C14.1103 15.9674 14.0797 15.9674 14.0492 15.975C14.011 15.975 13.9728 15.9827 13.9345 15.9827C13.4301 15.9827 12.9943 15.6693 12.849 15.2027" fill="#2683FF"/>
</svg>
