<svg width="26" height="26" viewBox="0 0 26 26" fill="none" xmlns="http://www.w3.org/2000/svg">
<g clip-path="url(#clip0_2009_24079)">
<circle cx="13" cy="13" r="12.25" fill="#EDF0F4" stroke="#EDEFF2" stroke-width="1.5"/>
<path d="M16.6217 11.2265C17.2771 12.0672 17.6314 13.1039 17.6292 14.1699C17.6292 15.2977 17.2392 16.3333 16.5935 17.1513L16.5383 17.2206L16.5242 17.1274C16.5107 17.0512 16.4952 16.9753 16.4776 16.8999C16.1526 15.4472 15.1039 14.1981 13.3674 13.1863C12.1974 12.5081 11.5235 11.6913 11.3469 10.7618C11.2512 10.1834 11.2992 9.59037 11.4867 9.03492C11.6189 8.60159 11.8247 8.19209 12.0944 7.82809L12.7726 6.98309C12.8 6.94916 12.8347 6.92179 12.8741 6.90299C12.9134 6.88419 12.9565 6.87444 13.0001 6.87444C13.0437 6.87444 13.0868 6.88419 13.1262 6.90299C13.1655 6.92179 13.2002 6.94916 13.2276 6.98309L16.6217 11.2265ZM17.6899 10.3815L13.1669 4.72217C13.147 4.69711 13.1216 4.67688 13.0927 4.66297C13.0638 4.64907 13.0322 4.64185 13.0001 4.64185C12.9681 4.64185 12.9364 4.64907 12.9075 4.66297C12.8787 4.67688 12.8533 4.69711 12.8333 4.72217L8.31145 10.3858L8.29737 10.3999C7.43067 11.5008 6.96114 12.862 6.96487 14.2631C6.96487 17.6658 9.6667 20.4283 13.0001 20.4283C16.3335 20.4283 19.0364 17.6658 19.0364 14.2631C19.0402 12.862 18.5706 11.5008 17.7039 10.3999L17.6899 10.3815ZM9.39262 11.2081L9.7967 10.7022L9.81078 10.7943L9.84328 11.0174C10.1076 12.4247 11.0414 13.5947 12.6058 14.4993C13.9664 15.2933 14.7551 16.2033 14.9826 17.2022C15.0714 17.5899 15.0948 17.9897 15.0519 18.3852V18.409L15.0335 18.4188C14.4019 18.7332 13.7057 18.8963 13.0001 18.8954C10.4467 18.8954 8.37103 16.7797 8.37103 14.1699C8.37103 13.0508 8.75237 12.0206 9.39262 11.2081Z" fill="#4BA2FF"/>
</g>
<defs>
<clipPath id="clip0_2009_24079">
<rect width="26" height="26" fill="white"/>
</clipPath>
</defs>
</svg>
