<svg width="28" height="28" viewBox="0 0 28 28" fill="none" xmlns="http://www.w3.org/2000/svg">
<path d="M14 0.763636C21.3109 0.763636 27.2364 6.69028 27.2364 14C27.2364 21.3109 21.3109 27.2364 14 27.2364C6.69028 27.2364 0.763636 21.3103 0.763636 14C0.763636 6.69028 6.69028 0.763636 14 0.763636Z" fill="#29BCE1" stroke="#EDEFF2" stroke-width="1.5"/>
<path d="M18.8175 4.95469L19.7362 5.86449V22.3562L18.8175 23.2651H9.18253L8.26378 22.3562V5.86449L9.18253 4.95469H18.8175ZM10.1003 6.77429V21.4464H17.8997V6.77429H10.1003Z" fill="white"/>
<path fill-rule="evenodd" clip-rule="evenodd" d="M14.8919 11.6616H16.8681V13.4478H11.1324V11.6616H13.1086V9.58771H14.8919V11.6616ZM14.8919 16.7793H16.8681V14.9931H11.1324V16.7793H13.1086V18.8532H14.8919V16.7793Z" fill="white"/>
</svg>
