<svg width="26" height="26" viewBox="0 0 26 26" fill="none" xmlns="http://www.w3.org/2000/svg">
<g clip-path="url(#clip0_2009_23796)">
<path d="M12.7004 0H13.2996C13.32 0.00507813 13.3403 0.0101563 13.3606 0.0152344C13.4774 0.0203125 13.5942 0.0203125 13.711 0.0304688C14.0106 0.0558594 14.3102 0.0710938 14.6098 0.111719C14.9856 0.1625 15.3664 0.223438 15.7422 0.299609C16.5649 0.472266 17.3672 0.726172 18.1391 1.06133C21.8258 2.65078 24.5731 5.85 25.5836 9.73477C25.7055 10.1969 25.7969 10.6691 25.868 11.1414C25.9086 11.4207 25.9391 11.7051 25.9594 11.9844C25.9797 12.2027 25.9797 12.4262 25.9899 12.6445C25.995 12.6648 26 12.6801 26.0051 12.7004V13.2996C26 13.3098 25.995 13.3199 25.9899 13.3352C25.9848 13.4621 25.9848 13.5891 25.9746 13.716C25.9543 13.975 25.9442 14.234 25.9086 14.493C25.8528 14.9094 25.7918 15.3207 25.7106 15.732C25.5024 16.7223 25.1774 17.682 24.7407 18.591C23.8622 20.4344 22.5672 22.0391 20.9524 23.2832C19.5762 24.3547 18.002 25.1316 16.3161 25.5684C15.5899 25.7613 14.8536 25.8883 14.102 25.9441C13.7821 25.9695 13.4621 25.9797 13.1422 25.9949C12.9797 26 12.8121 25.9949 12.6496 25.9848C12.3551 25.9695 12.0555 25.9594 11.761 25.9289C11.4614 25.8984 11.1618 25.8578 10.8621 25.8121C10.2274 25.7105 9.60277 25.5633 8.9934 25.3602C4.83441 24.0195 1.64027 20.6781 0.472305 16.4734C0.253945 15.6965 0.111758 14.9043 0.0508203 14.0969C0.0305078 13.7973 0.0101953 13.4926 3.9048e-05 13.193C-0.00503908 13.0152 3.90478e-05 12.8324 0.0101953 12.6547C0.0305078 12.3094 0.0457422 11.9691 0.0762109 11.6289C0.10668 11.309 0.152383 10.984 0.208242 10.6691C0.345352 9.89219 0.558633 9.13047 0.843008 8.39414C2.34105 4.45859 5.65199 1.48789 9.72973 0.426562C10.1918 0.304687 10.6641 0.213281 11.1364 0.142187C11.4157 0.101562 11.7 0.0710938 11.9793 0.0507812C12.2028 0.0304687 12.4262 0.0304688 12.6446 0.0203125C12.67 0.0101563 12.6852 0.00507813 12.7004 0ZM12.995 22.5672C18.2762 22.5926 22.5368 18.2762 22.5723 13.1117C22.6079 7.73906 18.3067 3.49883 13.1168 3.44297C7.67816 3.38711 3.49379 7.73398 3.43793 12.8883C3.37699 18.3117 7.77973 22.5875 12.995 22.5672Z" fill="#7B2BF9"/>
<path d="M12.9953 22.5671C7.78002 22.5925 3.37728 18.3167 3.43314 12.8882C3.489 7.73901 7.67338 3.38706 13.1121 3.44291C18.3019 3.49877 22.6031 7.73901 22.5675 13.1117C22.5421 18.2761 18.2816 22.5874 12.9953 22.5671ZM18.1343 10.1156C18.1038 10.0902 18.0835 10.0699 18.0632 10.0546C17.9566 9.97338 17.855 9.88706 17.7484 9.80581C16.1995 8.60737 14.4324 7.71362 12.5484 7.17534C11.7054 6.92651 10.837 6.77924 9.96361 6.73354C9.63861 6.71831 9.31361 6.73354 8.98861 6.7437C8.66869 6.75385 8.34877 6.79448 8.03392 6.86049C7.49056 6.97221 6.9726 7.14995 6.50033 7.44448C6.05346 7.7187 5.68783 8.10971 5.44916 8.58198C5.19525 9.08471 5.14447 9.62807 5.20033 10.1816C5.24603 10.5828 5.35267 10.9789 5.50502 11.3496C5.76908 12.0148 6.14486 12.614 6.58158 13.1828C7.04369 13.7769 7.56166 14.3203 8.13041 14.8078C8.28783 14.9499 8.5265 14.9601 8.689 14.823C9.54721 14.1476 10.446 13.5331 11.3855 12.9796C11.5988 12.8628 11.7308 12.6445 11.7359 12.4058C11.7562 12.0859 11.7765 11.7609 11.8019 11.441C11.8222 11.1921 11.8476 10.9433 11.8831 10.6945C11.9441 10.2933 12.0101 9.88705 12.0913 9.49096C12.2031 8.91713 12.3554 8.34838 12.5484 7.79487C12.5788 7.66791 12.7109 7.59174 12.8378 7.62221C12.848 7.62729 12.8581 7.62729 12.8683 7.63237C12.9597 7.66284 13.0562 7.69331 13.1476 7.72377C13.3203 7.77963 13.3812 7.89643 13.3203 8.06909C13.0308 8.9476 12.8226 9.85151 12.7058 10.7656C12.6499 11.1972 12.6093 11.6289 12.5738 12.0605C12.5484 12.4261 12.5433 12.7968 12.5331 13.1624C12.5281 13.3706 12.5382 13.5839 12.5433 13.7921C12.5433 13.9089 12.5484 14.0206 12.5535 14.1374C12.5788 14.5183 12.5992 14.8992 12.6347 15.2749C12.6601 15.5644 12.6956 15.8539 12.7413 16.1433C12.8074 16.5445 12.8937 16.9457 12.9749 17.3468C13.0206 17.5601 12.9343 17.7328 12.7312 17.8191C12.5839 17.88 12.4367 17.9359 12.2894 17.9968C12.0812 18.0831 11.8425 18.0781 11.6445 17.9765C10.898 17.6312 10.1769 17.2453 9.47611 16.8136C8.17103 15.9859 6.99291 15.0109 6.02299 13.7972C5.53041 13.1777 5.10892 12.5124 4.80424 11.7812C4.72806 11.5933 4.66205 11.4003 4.59603 11.2074C4.5808 11.1617 4.55541 11.121 4.50463 11.1363C4.47416 11.1464 4.44369 11.1718 4.43353 11.2023C4.32689 11.6593 4.26596 12.1214 4.25072 12.5886C4.24056 12.9746 4.25072 13.3656 4.27611 13.7515C4.29642 14.0613 4.33705 14.366 4.39799 14.6706C4.51986 15.3359 4.72299 15.9859 5.00228 16.6003C5.19525 17.0218 5.41869 17.4281 5.6726 17.814C5.70814 17.8902 5.78939 17.9308 5.87064 17.9206C5.94681 17.9105 6.01283 17.8546 6.03314 17.7785C6.06361 17.7124 6.09408 17.6464 6.12963 17.5804C6.44955 17.0015 6.87103 16.4988 7.33822 16.0316C7.44994 15.9249 7.62767 15.9148 7.74955 16.0113C7.80033 16.0468 7.84603 16.0874 7.89174 16.123C8.02885 16.2246 8.05931 16.4175 7.95775 16.5546C7.9476 16.5699 7.93236 16.5851 7.91713 16.6003C7.59721 16.9152 7.30775 17.2605 7.05385 17.6261C6.87103 17.9003 6.70346 18.1847 6.63236 18.5097C6.55619 18.8449 6.65775 19.0581 6.96752 19.2003C7.20111 19.3019 7.44994 19.3578 7.70385 19.3628C7.93236 19.373 8.16088 19.373 8.38432 19.3527C8.74486 19.3171 9.11049 19.2765 9.46596 19.2054C10.314 19.0328 11.1519 18.7941 11.9593 18.4843C13.112 18.0527 14.2343 17.5449 15.321 16.9609C16.6109 16.2753 17.8347 15.4831 18.9824 14.5843C19.0433 14.5437 19.0788 14.4726 19.0788 14.4015C19.0941 14.107 19.1195 13.8124 19.1296 13.523C19.1398 13.2691 19.1398 13.0152 19.1449 12.7613C19.1449 12.6496 19.1398 12.5378 19.1347 12.4261C19.1245 12.1773 19.1245 11.9285 19.1093 11.6796C19.089 11.3749 19.0636 11.0703 19.0281 10.7706C18.9874 10.4253 18.9417 10.0749 18.8859 9.72963C18.764 8.97807 18.571 8.24174 18.312 7.52573C18.1089 6.96205 17.855 6.42377 17.5097 5.93627C17.2863 5.61635 17.0273 5.32182 16.6921 5.11362C16.3113 4.87495 15.9101 4.80893 15.4785 4.97143C15.2296 5.07299 15.0011 5.22026 14.8081 5.40815C14.473 5.72299 14.214 6.09877 13.9855 6.49995C13.9042 6.64721 13.9449 6.76401 14.1023 6.82495C15.5445 7.38354 16.9054 8.14018 18.1394 9.07455C18.3324 9.21674 18.4644 9.42495 18.5101 9.65854C18.5507 9.86166 18.5863 10.0597 18.6117 10.2628C18.6523 10.5929 18.4796 10.857 18.18 10.9331C17.2558 11.1667 16.3519 11.4664 15.4734 11.8269C14.6761 12.1519 13.8941 12.5175 13.1324 12.9187C12.98 12.9949 12.8683 12.9238 12.8683 12.7562C12.8734 12.6242 12.8835 12.4972 12.8835 12.3652C12.8835 12.1874 12.9597 12.0757 13.1273 11.9996C13.6148 11.7761 14.0921 11.5374 14.5796 11.3242C15.5597 10.8874 16.5703 10.5269 17.6062 10.2425C17.7839 10.2019 17.9515 10.1613 18.1343 10.1156ZM12.9902 21.7648C13.3609 21.7597 13.7316 21.7343 14.1023 21.6835C14.1632 21.6835 14.214 21.6429 14.2343 21.5871C14.2495 21.5312 14.2242 21.4703 14.1785 21.4398C13.7874 21.1097 13.4878 20.7085 13.2288 20.2718C13.041 19.9468 12.8734 19.6117 12.7312 19.2664C12.6804 19.1445 12.5941 19.1089 12.4722 19.1546C11.5328 19.5152 10.5679 19.8046 9.58275 20.0078C9.18158 20.089 8.78041 20.1449 8.36908 20.1703C8.30306 20.1753 8.25228 20.1906 8.23197 20.2566C8.21166 20.3226 8.25228 20.3632 8.30814 20.3937C8.47572 20.4953 8.63822 20.5968 8.81088 20.6933C9.81635 21.2468 10.9234 21.5921 12.0609 21.7089C12.3706 21.7394 12.6804 21.7445 12.9902 21.7648ZM12.8581 6.39331C13.0511 6.39331 13.1679 6.32221 13.2441 6.1851C13.4269 5.84487 13.6453 5.52495 13.8839 5.22534C14.0667 4.99682 14.2699 4.7937 14.4984 4.61088C14.5441 4.58041 14.5644 4.52456 14.5492 4.4687C14.539 4.41791 14.4933 4.37729 14.4425 4.36713C14.412 4.36206 14.3816 4.35698 14.3511 4.3519C14.0007 4.31635 13.6554 4.27573 13.305 4.25541C13.0562 4.24526 12.8074 4.24526 12.5585 4.26557C12.2234 4.29096 11.8933 4.32143 11.5632 4.36713C10.7913 4.48901 10.0347 4.71752 9.32377 5.0476C8.83627 5.27104 8.37416 5.54018 7.93744 5.84995C7.89681 5.88041 7.86127 5.91088 7.88158 5.96674C7.90189 6.01752 7.9476 6.0226 7.9933 6.01245C8.37924 5.94135 8.76517 5.90073 9.15619 5.89057C9.48627 5.88549 9.81635 5.89565 10.1464 5.91088C10.4562 5.9312 10.766 5.96166 11.0757 6.00229C11.5937 6.07338 12.1066 6.18002 12.6093 6.32221C12.7109 6.36284 12.7972 6.38315 12.8581 6.39331ZM15.7171 21.2519C15.8187 21.2367 15.9253 21.2265 16.0218 21.2011C16.3468 21.1199 16.6109 20.9421 16.8495 20.7187C17.266 20.3277 17.5656 19.8554 17.8195 19.3476C17.855 19.2816 17.8296 19.1953 17.7636 19.1597C17.7382 19.1496 17.7128 19.1394 17.6874 19.1445C17.5199 19.1496 17.3523 19.1648 17.1847 19.1648C16.9156 19.1648 16.6464 19.1597 16.3824 19.1394C16.1081 19.1242 15.8288 19.1039 15.5597 19.0581C15.1535 18.9972 14.7523 18.921 14.3511 18.8398C14.148 18.7992 13.9449 18.7382 13.7417 18.6874C13.6656 18.6621 13.5792 18.6824 13.5234 18.7433C13.4726 18.8042 13.4624 18.8906 13.5031 18.9566C13.6554 19.2562 13.7925 19.566 13.955 19.8605C14.1683 20.2617 14.4628 20.6121 14.8234 20.8964C15.0824 21.1097 15.3718 21.2417 15.7171 21.2519ZM11.7156 13.7363C11.3703 13.8734 9.22728 15.3664 9.09017 15.5644C10.0347 16.2449 11.0503 16.8136 12.1218 17.2706C11.8679 16.1078 11.7359 14.9246 11.7156 13.7363ZM16.9613 18.3624C17.139 18.3574 17.3167 18.3523 17.4945 18.3421C17.6722 18.332 17.8449 18.3015 18.0226 18.2914C18.2206 18.2812 18.3273 18.1796 18.3882 17.9968C18.6117 17.3062 18.7843 16.6003 18.9011 15.8843C18.9113 15.8335 18.9113 15.7878 18.8656 15.7574C18.8199 15.732 18.7792 15.7523 18.7386 15.7828C18.5913 15.8894 18.4441 15.996 18.2917 16.0976C17.266 16.7984 16.1945 17.4331 15.0874 17.9968C15.0417 18.0171 15.0062 18.0476 15.0113 18.0984C15.0163 18.1542 15.062 18.1746 15.1128 18.1847C15.7222 18.2964 16.3417 18.3574 16.9613 18.3624ZM21.298 15.2851C21.2878 15.1378 21.2828 14.9855 21.2574 14.8382C21.2167 14.6046 21.171 14.3761 21.1101 14.1476C21.0695 13.9953 20.8968 13.9597 20.78 14.0664C20.5312 14.2999 20.2773 14.5335 20.0285 14.7671C19.937 14.8433 19.8761 14.9449 19.8456 15.0617C19.8203 15.1734 19.805 15.2902 19.7898 15.407C19.7339 15.7472 19.6933 16.0874 19.6222 16.4226C19.541 16.8339 19.4343 17.2402 19.3378 17.6464C19.3074 17.7378 19.3581 17.8394 19.4496 17.8699C19.4953 17.8851 19.546 17.88 19.5917 17.8546C19.6324 17.8343 19.6679 17.814 19.7085 17.7988C20.1249 17.5804 20.4906 17.3011 20.7699 16.9203C21.1203 16.448 21.3081 15.8742 21.298 15.2851ZM20.9679 9.90229C21.0847 9.90737 21.1456 9.82612 21.1101 9.7144C21.105 9.69409 21.0949 9.67377 21.0847 9.65346C20.7191 8.77495 20.2113 7.96245 19.5816 7.24643C19.4038 7.04331 19.2109 6.85541 19.023 6.66752C18.9976 6.64721 18.9621 6.64213 18.9265 6.65229C18.891 6.66752 18.8706 6.70815 18.8859 6.7437C18.8859 6.74877 18.8859 6.74877 18.891 6.75385C18.9062 6.78432 18.9163 6.81987 18.9265 6.85034C19.2667 7.69331 19.5156 8.57182 19.673 9.47065C19.7035 9.69409 19.8964 9.86166 20.1249 9.85151C20.2722 9.85151 20.4246 9.85659 20.5718 9.86674C20.7038 9.87182 20.8359 9.88706 20.9679 9.90229ZM20.3281 10.6539C20.2976 10.6539 20.2722 10.6539 20.2417 10.6539C20.1757 10.6437 20.1148 10.6792 20.0894 10.7402C20.0589 10.8062 20.0894 10.857 20.13 10.9027C20.2316 11.0246 20.3382 11.1414 20.4296 11.2683C20.6328 11.5425 20.8308 11.8218 21.0288 12.1011C21.1101 12.2128 21.2574 12.2128 21.3285 12.096C21.4351 11.9183 21.5113 11.7203 21.557 11.5222C21.6331 11.1769 21.5214 10.9585 21.2066 10.8214C21.2015 10.8164 21.1964 10.8164 21.1863 10.8164C20.9121 10.6945 20.6226 10.664 20.3281 10.6539ZM19.9574 13.5128H19.9472C19.9472 13.5179 19.9472 13.5281 19.9472 13.5331C19.9472 13.5789 19.9421 13.6246 19.9929 13.6449C20.0437 13.6652 20.0792 13.6398 20.1097 13.6042C20.2468 13.4621 20.3839 13.3249 20.516 13.1828C20.6175 13.0761 20.6277 12.9999 20.5515 12.8781C20.4144 12.6546 20.2722 12.4414 20.13 12.223C20.0996 12.1773 20.064 12.1519 20.0132 12.1671C19.9624 12.1824 19.9523 12.2281 19.9523 12.2789C19.9574 12.6902 19.9574 13.1015 19.9574 13.5128ZM18.7843 19.5507C18.8046 19.5406 18.8199 19.5304 18.8351 19.5203C18.8808 19.4796 18.9316 19.439 18.9722 19.3933C19.1093 19.2613 19.2464 19.1292 19.3785 18.9921C19.3988 18.9667 19.4089 18.9312 19.3988 18.8956C19.3886 18.8499 19.348 18.8398 19.3023 18.8449C19.2921 18.8449 19.2871 18.8449 19.2769 18.8499C19.1652 18.8804 19.0535 18.916 18.9417 18.9515C18.9163 18.9617 18.891 18.9769 18.8757 19.0023C18.8097 19.1496 18.7437 19.2917 18.6828 19.4441C18.6675 19.4949 18.7081 19.5507 18.7843 19.5507ZM21.7601 13.1421C21.755 13.1167 21.755 13.0914 21.755 13.066C21.755 13.0507 21.7449 13.0304 21.7347 13.0253C21.7195 13.0253 21.7042 13.0304 21.689 13.0406C21.6179 13.0964 21.6078 13.198 21.6636 13.2691C21.6636 13.2742 21.6687 13.2742 21.6687 13.2792C21.6941 13.3097 21.7296 13.3046 21.7398 13.264C21.7499 13.2234 21.755 13.1878 21.7601 13.1421Z" fill="white"/>
<path d="M18.1344 10.1155C17.9515 10.1612 17.7789 10.2019 17.6113 10.2476C16.5754 10.5319 15.5648 10.8925 14.5848 11.3292C14.0973 11.5476 13.6199 11.7862 13.1324 12.0046C12.9699 12.0808 12.8887 12.1925 12.8887 12.3702C12.8887 12.5023 12.8785 12.6292 12.8734 12.7612C12.8683 12.9288 12.9851 13.005 13.1375 12.9237C13.8992 12.5226 14.6812 12.1569 15.4785 11.8319C16.357 11.4663 17.2609 11.1718 18.1851 10.9382C18.4848 10.862 18.6574 10.598 18.6168 10.2679C18.5914 10.0648 18.5558 9.86163 18.5152 9.66358C18.4695 9.42998 18.3375 9.22178 18.1445 9.07959C16.9105 8.14522 15.5496 7.38858 14.1074 6.82998C13.95 6.76905 13.9094 6.64717 13.9906 6.50498C14.2191 6.10381 14.4781 5.73311 14.8133 5.41319C15.0062 5.2253 15.2348 5.07803 15.4836 4.97647C15.9101 4.80889 16.3164 4.87491 16.6973 5.11866C17.0324 5.33194 17.2914 5.62139 17.5148 5.94131C17.8601 6.43389 18.109 6.97217 18.3172 7.53077C18.5762 8.24678 18.7691 8.98311 18.891 9.73467C18.9469 10.08 18.9926 10.4253 19.0332 10.7757C19.0687 11.0804 19.0941 11.38 19.1144 11.6847C19.1297 11.9335 19.1348 12.1823 19.1398 12.4312C19.1449 12.5429 19.15 12.6546 19.15 12.7663C19.15 13.0202 19.1449 13.2741 19.1348 13.528C19.1246 13.8226 19.0992 14.1171 19.084 14.4065C19.084 14.4776 19.0484 14.5487 18.9875 14.5894C17.8398 15.4882 16.6109 16.2804 15.3262 16.9659C14.2445 17.5499 13.1172 18.0577 11.9644 18.4894C11.1519 18.7991 10.3191 19.0378 9.47108 19.2105C9.11561 19.2815 8.74999 19.3222 8.38944 19.3577C8.16092 19.378 7.93749 19.3831 7.70897 19.3679C7.45506 19.3628 7.20624 19.3069 6.97264 19.2054C6.66288 19.0581 6.56131 18.8448 6.63749 18.5148C6.71366 18.1898 6.87616 17.9054 7.05897 17.6312C7.31795 17.2655 7.60741 16.9202 7.92225 16.6054C8.0492 16.4886 8.05936 16.2956 7.94256 16.1687C7.92733 16.1534 7.91209 16.1382 7.89686 16.128C7.85116 16.0874 7.80545 16.0519 7.75467 16.0163C7.6328 15.9198 7.45506 15.93 7.34335 16.0366C6.88124 16.5038 6.45467 17.0015 6.13475 17.5855C6.0992 17.6515 6.06366 17.7175 6.03827 17.7835C6.01288 17.8597 5.95194 17.9105 5.87577 17.9257C5.79452 17.9358 5.71327 17.8952 5.67772 17.819C5.42381 17.4331 5.20038 17.0269 5.00741 16.6054C4.72811 15.9909 4.52499 15.3409 4.40311 14.6757C4.34725 14.371 4.30663 14.0663 4.28124 13.7565C4.25585 13.3706 4.24569 12.9796 4.25585 12.5937C4.27108 12.1265 4.33202 11.6644 4.43866 11.2073C4.44881 11.1769 4.47928 11.1515 4.50975 11.1413C4.56053 11.1261 4.58592 11.1667 4.60116 11.2124C4.67225 11.4054 4.73319 11.5983 4.80936 11.7862C5.11405 12.5175 5.53553 13.1827 6.02811 13.8022C6.99803 15.0159 8.17108 15.9909 9.48124 16.8187C10.1769 17.2503 10.9031 17.6413 11.6496 17.9815C11.8527 18.0831 12.0863 18.0882 12.2945 18.0019C12.4418 17.9409 12.589 17.8851 12.7363 17.8241C12.9394 17.7378 13.0258 17.5651 12.9801 17.3519C12.8988 16.9507 12.8176 16.5546 12.7465 16.1483C12.6957 15.8589 12.6652 15.5694 12.6398 15.28C12.6043 14.8991 12.584 14.5233 12.5586 14.1425C12.5535 14.0257 12.5484 13.914 12.5484 13.7972C12.5433 13.589 12.5332 13.3757 12.5383 13.1675C12.5484 12.8019 12.5535 12.4312 12.5789 12.0655C12.6094 11.6339 12.65 11.2023 12.7109 10.7706C12.8277 9.85147 13.0359 8.94756 13.3254 8.07413C13.3863 7.90147 13.3254 7.78467 13.1527 7.72881C13.0613 7.69834 12.9699 7.66787 12.8734 7.63741C12.7515 7.58662 12.6144 7.64756 12.5637 7.76944C12.5586 7.77959 12.5586 7.78975 12.5535 7.79991C12.3656 8.35342 12.2133 8.92217 12.0965 9.496C12.0203 9.89717 11.9492 10.2983 11.8883 10.6995C11.8527 10.9483 11.8273 11.1972 11.807 11.446C11.7816 11.7659 11.7613 12.0858 11.741 12.4108C11.7359 12.6495 11.5988 12.873 11.3906 12.9847C10.4512 13.5382 9.55233 14.1526 8.69413 14.828C8.52655 14.9601 8.28788 14.955 8.13553 14.8128C7.56678 14.3253 7.04881 13.7819 6.5867 13.1878C6.14999 12.6241 5.77928 12.0198 5.51014 11.3546C5.3578 10.9788 5.25116 10.5878 5.20545 10.1866C5.14452 9.63311 5.20038 9.08975 5.45428 8.58702C5.69295 8.11983 6.0535 7.72373 6.50545 7.44952C6.97772 7.15498 7.49569 6.97725 8.03905 6.86553C8.35389 6.79952 8.67381 6.75889 8.99374 6.74873C9.31874 6.73858 9.64374 6.72334 9.96874 6.73858C10.8473 6.78428 11.7156 6.93155 12.5535 7.18037C14.4375 7.71866 16.2047 8.61241 17.7535 9.81084C17.8601 9.89209 17.9617 9.97842 18.0683 10.0597C18.0887 10.0698 18.1039 10.0851 18.1344 10.1155Z" fill="#7B2BF9"/>
<path d="M12.9898 21.7648C12.68 21.7445 12.3702 21.7394 12.0655 21.709C10.923 21.5922 9.82102 21.2469 8.81555 20.6933C8.64289 20.6019 8.48039 20.4953 8.31281 20.3937C8.26203 20.3633 8.22141 20.3226 8.23664 20.2566C8.25695 20.1906 8.30773 20.1754 8.37375 20.1703C8.78 20.1449 9.18625 20.089 9.58742 20.0078C10.5726 19.8047 11.5374 19.5203 12.4769 19.1547C12.5988 19.109 12.6851 19.1445 12.7359 19.2664C12.878 19.6117 13.0456 19.9469 13.2335 20.2719C13.4925 20.7086 13.7921 21.1097 14.1831 21.4398C14.2339 21.4703 14.2542 21.5312 14.239 21.5871C14.2187 21.6429 14.1679 21.6836 14.107 21.6836C13.7312 21.7293 13.3605 21.7597 12.9898 21.7648Z" fill="#7B2BF9"/>
<path d="M12.858 6.39324C12.8022 6.37801 12.7108 6.36277 12.6194 6.33738C12.1166 6.20027 11.6037 6.09363 11.0858 6.01746C10.776 5.97684 10.4662 5.94129 10.1565 5.92606C9.8264 5.90574 9.49632 5.89559 9.16624 5.90574C8.77523 5.9159 8.38421 5.95652 8.00335 6.02762C7.95257 6.03777 7.91195 6.0327 7.89163 5.98192C7.87132 5.92606 7.90687 5.89559 7.94749 5.86512C8.38421 5.55535 8.84632 5.28621 9.33382 5.06277C10.0448 4.7327 10.7963 4.4991 11.5733 4.38231C11.9034 4.33152 12.2385 4.30106 12.5686 4.28074C12.8174 4.26043 13.0662 4.26043 13.3151 4.27059C13.6655 4.2909 14.0108 4.33152 14.3612 4.36707C14.3916 4.37215 14.4221 4.37723 14.4526 4.38231C14.5084 4.38738 14.5491 4.42801 14.5592 4.48387C14.5744 4.53973 14.5541 4.59559 14.5084 4.62606C14.2799 4.80887 14.0768 5.01199 13.894 5.24051C13.6502 5.54012 13.4369 5.86512 13.2541 6.20027C13.1678 6.32723 13.051 6.39324 12.858 6.39324Z" fill="#7B2BF9"/>
<path d="M15.7165 21.252C15.3712 21.2418 15.0817 21.1047 14.8177 20.9016C14.4622 20.6172 14.1677 20.2668 13.9493 19.8656C13.7817 19.5711 13.6446 19.2613 13.4974 18.9617C13.4567 18.8957 13.4618 18.8094 13.5177 18.7485C13.5735 18.6875 13.6599 18.6621 13.736 18.6926C13.9392 18.7434 14.1423 18.8043 14.3454 18.8449C14.7466 18.9262 15.1528 19.0024 15.554 19.0633C15.8282 19.1039 16.1024 19.1242 16.3767 19.1446C16.6458 19.1598 16.9149 19.1649 17.179 19.1699C17.3466 19.1699 17.5142 19.1547 17.6817 19.1496C17.7579 19.1446 17.8239 19.2004 17.8341 19.2766C17.8341 19.302 17.829 19.3274 17.8188 19.3528C17.5649 19.8606 17.2602 20.3328 16.8489 20.7238C16.6102 20.9473 16.3462 21.1301 16.0212 21.2063C15.9247 21.2266 15.8181 21.2367 15.7165 21.252Z" fill="#7B2BF9"/>
<path d="M11.7152 13.7363C11.7305 14.9246 11.8676 16.1129 12.1215 17.2758C11.05 16.8188 10.0344 16.2449 9.08984 15.5695C9.22695 15.3664 11.3699 13.8734 11.7152 13.7363Z" fill="#7B2BF9"/>
<path d="M16.9612 18.3624C16.3417 18.3573 15.7222 18.2964 15.1128 18.1847C15.062 18.1745 15.0163 18.1542 15.0112 18.0984C15.0061 18.0476 15.0417 18.0222 15.0874 17.9968C16.1944 17.4331 17.2659 16.7984 18.2917 16.0976C18.439 15.996 18.5913 15.8894 18.7386 15.7827C18.7792 15.7573 18.8147 15.732 18.8655 15.7573C18.9163 15.7878 18.9112 15.8284 18.9011 15.8843C18.7843 16.6003 18.6116 17.3062 18.3882 17.9968C18.3272 18.1796 18.2206 18.2812 18.0226 18.2913C17.8448 18.3015 17.6722 18.3269 17.4944 18.3421C17.3167 18.3523 17.139 18.3573 16.9612 18.3624Z" fill="#7B2BF9"/>
<path d="M21.2978 15.2853C21.3029 15.8743 21.1201 16.4482 20.7697 16.9204C20.4904 17.3013 20.1248 17.5806 19.7084 17.7989C19.6677 17.8193 19.6322 17.8396 19.5916 17.8548C19.5052 17.9005 19.3986 17.87 19.3529 17.7888C19.3275 17.7431 19.3224 17.6923 19.3377 17.6466C19.4342 17.2404 19.5357 16.8341 19.622 16.4228C19.6881 16.0876 19.7338 15.7474 19.7896 15.4071C19.8099 15.2904 19.8201 15.1736 19.8455 15.0618C19.876 14.9501 19.942 14.8435 20.0283 14.7673C20.2771 14.5337 20.531 14.3001 20.7799 14.0665C20.8916 13.9599 21.0693 13.9954 21.1099 14.1478C21.1709 14.3763 21.2166 14.6048 21.2572 14.8384C21.2877 14.9857 21.2877 15.138 21.2978 15.2853Z" fill="#7B2BF9"/>
<path d="M20.9681 9.90229C20.8361 9.89214 20.704 9.87183 20.5669 9.86675C20.4196 9.85659 20.2673 9.85659 20.12 9.85151C19.8915 9.86167 19.6986 9.69409 19.6681 9.47065C19.5107 8.57183 19.2618 7.69839 18.9216 6.85034C18.9064 6.81987 18.8962 6.78433 18.8861 6.75386C18.8657 6.71831 18.881 6.67261 18.9165 6.65737C18.9216 6.65737 18.9216 6.65229 18.9267 6.65229C18.9622 6.64214 18.9978 6.64722 19.0232 6.66753C19.2111 6.85542 19.404 7.04331 19.5818 7.24644C20.2114 7.95737 20.7243 8.76987 21.0849 9.65347C21.095 9.67378 21.1001 9.69409 21.1103 9.7144C21.1509 9.82612 21.0849 9.90737 20.9681 9.90229Z" fill="#7B2BF9"/>
<path d="M20.3273 10.654C20.6218 10.6642 20.9113 10.6946 21.1906 10.8064C21.1957 10.8064 21.2007 10.8114 21.2109 10.8114C21.5257 10.9485 21.6375 11.1669 21.5613 11.5122C21.5156 11.7153 21.4394 11.9083 21.3328 12.086C21.2617 12.2079 21.1144 12.2079 21.0332 12.0911C20.8351 11.8118 20.6371 11.5325 20.4339 11.2583C20.3425 11.1314 20.2359 11.0146 20.1343 10.8927C20.0937 10.8419 20.0582 10.7962 20.0937 10.7302C20.1191 10.6692 20.1851 10.6388 20.246 10.6439C20.2714 10.654 20.2968 10.654 20.3273 10.654Z" fill="#7B2BF9"/>
<path d="M19.9574 13.513C19.9574 13.1017 19.9574 12.6903 19.9574 12.279C19.9574 12.2282 19.9624 12.1876 20.0183 12.1673C20.0742 12.147 20.1097 12.1775 20.1351 12.2232C20.2773 12.4415 20.4195 12.6599 20.5566 12.8782C20.6328 13.0001 20.6175 13.0763 20.521 13.1829C20.389 13.3251 20.2519 13.4622 20.1148 13.6044C20.0792 13.64 20.0437 13.6653 19.998 13.645C19.9472 13.6247 19.9523 13.579 19.9523 13.5333C19.9523 13.5282 19.9523 13.5181 19.9523 13.513H19.9574Z" fill="#7B2BF9"/>
<path d="M18.7845 19.5507C18.7083 19.5507 18.6677 19.4948 18.6931 19.4339C18.754 19.2866 18.8201 19.1394 18.8861 18.9921C18.9013 18.9667 18.9216 18.9515 18.9521 18.9413C19.0638 18.9058 19.1755 18.8753 19.2872 18.8398C19.2974 18.8398 19.3025 18.8347 19.3126 18.8347C19.3533 18.8296 19.399 18.8398 19.4091 18.8855C19.4142 18.921 19.4091 18.9566 19.3888 18.9819C19.2568 19.1191 19.1197 19.2511 18.9826 19.3831C18.9369 19.4288 18.8912 19.4695 18.8454 19.5101C18.8201 19.5304 18.7997 19.5405 18.7845 19.5507Z" fill="#7B2BF9"/>
<path d="M21.7599 13.1422C21.7548 13.1829 21.7497 13.2235 21.7447 13.2641C21.7345 13.3047 21.699 13.3098 21.6736 13.2793C21.6126 13.2133 21.6177 13.1118 21.6837 13.0508C21.6888 13.0458 21.6888 13.0458 21.6939 13.0458C21.704 13.0356 21.7243 13.0305 21.7396 13.0305C21.7497 13.0356 21.7599 13.0559 21.7599 13.0711C21.7548 13.0915 21.7548 13.1168 21.7599 13.1422Z" fill="#7B2BF9"/>
<circle cx="13" cy="13" r="12.25" stroke="#EDEFF2" stroke-width="1.5"/>
</g>
<defs>
<clipPath id="clip0_2009_23796">
<rect width="26" height="26" fill="white"/>
</clipPath>
</defs>
</svg>
