<svg width="26" height="26" viewBox="0 0 26 26" fill="none" xmlns="http://www.w3.org/2000/svg">
<g clip-path="url(#clip0_2009_26159)">
<path d="M13 0.75C19.7655 0.75 25.25 6.2345 25.25 13C25.25 19.7655 19.7655 25.25 13 25.25C6.2345 25.25 0.75 19.7655 0.75 13C0.75 6.2345 6.2345 0.75 13 0.75Z" fill="#0098EA" stroke="#EDEFF2" stroke-width="1.5"/>
<path d="M17.4384 7.25586H8.56047C6.92814 7.25586 5.89352 9.01666 6.71475 10.4401L12.1939 19.937C12.5514 20.5571 13.4474 20.5571 13.805 19.937L19.2852 10.4401C20.1054 9.01894 19.0707 7.25586 17.4395 7.25586H17.4384ZM12.1894 17.089L10.9962 14.7796L8.11694 9.63008C7.927 9.30048 8.1616 8.87812 8.55936 8.87812H12.1883V17.0901L12.1894 17.089ZM17.8797 9.62896L15.0016 14.7807L13.8083 17.089V8.87701H17.4373C17.835 8.87701 18.0696 9.29937 17.8797 9.62896Z" fill="white"/>
</g>
<defs>
<clipPath id="clip0_2009_26159">
<rect width="26" height="26" fill="white"/>
</clipPath>
</defs>
</svg>
