<svg width="26" height="26" viewBox="0 0 26 26" fill="none" xmlns="http://www.w3.org/2000/svg">
<mask id="path-2-inside-1_2009_26124" fill="white">
<path fill-rule="evenodd" clip-rule="evenodd" d="M13 26C5.85 26 0 20.1501 0 12.9353C0.065 5.78542 5.85 -0.0644622 13.065 0.000536471C20.215 0.0655351 26 5.85042 26 13.1303C25.935 20.2151 20.15 26 13 26Z"/>
</mask>
<path fill-rule="evenodd" clip-rule="evenodd" d="M13 26C5.85 26 0 20.1501 0 12.9353C0.065 5.78542 5.85 -0.0644622 13.065 0.000536471C20.215 0.0655351 26 5.85042 26 13.1303C25.935 20.2151 20.15 26 13 26Z" fill="#FC070C"/>
<path d="M0 12.9353L-1.5 12.9216V12.9353H0ZM13.065 0.000536471L13.0786 -1.4994L13.0785 -1.4994L13.065 0.000536471ZM26 13.1303L27.5 13.144V13.1303H26ZM13 26V24.5C6.68326 24.5 1.5 19.3265 1.5 12.9353H0H-1.5C-1.5 20.9737 5.01674 27.5 13 27.5V26ZM0 12.9353L1.49994 12.9489C1.5576 6.60664 6.68544 1.44313 13.0515 1.50048L13.065 0.000536471L13.0785 -1.4994C5.01456 -1.57205 -1.4276 4.96419 -1.49994 12.9216L0 12.9353ZM13.065 0.000536471L13.0514 1.50047C19.3765 1.55797 24.5 6.67176 24.5 13.1303H26H27.5C27.5 5.02907 21.0535 -1.4269 13.0786 -1.4994L13.065 0.000536471ZM26 13.1303L24.5001 13.1165C24.4426 19.3814 19.3238 24.5 13 24.5V26V27.5C20.9762 27.5 27.4274 21.0488 27.4999 13.144L26 13.1303Z" fill="#EDEFF2" mask="url(#path-2-inside-1_2009_26124)"/>
<path fill-rule="evenodd" clip-rule="evenodd" d="M21.068 9.10654L21.0679 9.10643L21.0678 9.10638L21.0678 9.10632C20.4657 8.52178 19.8296 7.90414 19.2682 7.40583L19.2113 7.36602C19.1167 7.29003 19.01 7.23044 18.8957 7.18971L18.4624 7.10887L18.4623 7.10886L18.4621 7.10883C15.472 6.5509 5.78062 4.7426 5.58126 4.76684C5.52229 4.7751 5.46593 4.79648 5.41632 4.82941L5.36229 4.87206C5.29576 4.93963 5.24523 5.02126 5.21441 5.11094L5.2002 5.1479V5.34981V5.38109C5.85818 7.21329 7.56744 11.305 9.14567 15.0831L9.14568 15.0831C10.48 18.2772 11.7206 21.2471 12.1531 22.4379L12.1533 22.4383C12.2102 22.6148 12.3183 22.9497 12.52 22.9668H12.5655C12.6735 22.9668 13.1342 22.3582 13.1342 22.3582C13.1342 22.3582 21.3697 12.371 22.2029 11.3074C22.3108 11.1764 22.406 11.0355 22.4873 10.8866C22.5295 10.6495 22.4442 10.4077 22.2626 10.2496C21.9079 9.92202 21.4966 9.52267 21.068 9.10654ZM15.2471 11.4127L18.762 8.49783L20.8237 10.3975L15.2471 11.4127ZM7.83065 6.26265L13.8821 11.2221L17.6217 8.06843L7.83065 6.26265ZM14.4281 12.5217L20.6218 11.5236L13.5409 20.0548L14.4281 12.5217ZM13.3759 12.1606L7.00881 6.75746L12.4546 20.0605L13.3759 12.1606Z" fill="white"/>
</svg>
