<svg width="26" height="26" viewBox="0 0 26 26" fill="none" xmlns="http://www.w3.org/2000/svg">
<path d="M1.11719 10.0381C2.75269 3.47495 9.40003 -0.518848 15.9619 1.11719C22.5254 2.75324 26.5192 9.40109 24.8828 15.9639L24.8789 15.9814C23.235 22.533 16.5933 26.5178 10.0352 24.8828C3.57672 23.2722 -0.393985 16.8063 1.04492 10.3457L1.11719 10.0381Z" fill="url(#paint0_linear_2009_24162)" stroke="#EDEFF2" stroke-width="1.5"/>
<path d="M10.949 8.02935C10.773 8.00421 10.7646 7.99583 10.8484 7.98745C11.0076 7.96231 11.3764 7.99583 11.6363 8.05449C12.2397 8.19696 12.7845 8.56571 13.3629 9.21102L13.5137 9.38701L13.7317 9.35349C14.662 9.20264 15.6175 9.31997 16.4137 9.68871C16.6317 9.78928 16.9753 9.99042 17.0172 10.0407C17.034 10.0575 17.0591 10.1664 17.0759 10.2754C17.1346 10.6692 17.1094 10.9626 16.9837 11.1888C16.9166 11.3146 16.9166 11.3481 16.9585 11.457C16.9921 11.5408 17.0927 11.5995 17.1849 11.5995C17.386 11.5995 17.5955 11.281 17.6961 10.8369L17.738 10.6609L17.8135 10.7447C18.2409 11.2224 18.5762 11.8844 18.6265 12.3537L18.6432 12.4795L18.5678 12.3705C18.4421 12.1778 18.3247 12.052 18.1655 11.9431C17.8805 11.7503 17.5788 11.6917 16.7825 11.6498C16.0617 11.6079 15.651 11.5492 15.2487 11.4151C14.5614 11.1888 14.2094 10.8955 13.3964 9.81442C13.036 9.33673 12.8097 9.07693 12.5834 8.85903C12.0889 8.38134 11.5944 8.12992 10.949 8.02935Z" fill="#FF007A"/>
<path d="M17.1935 9.09367C17.2103 8.77521 17.2522 8.56569 17.3444 8.37294C17.3779 8.29751 17.4114 8.23047 17.4198 8.23047C17.4282 8.23047 17.4114 8.28913 17.3863 8.35618C17.3192 8.54055 17.3109 8.80035 17.3528 9.09367C17.4114 9.4708 17.4366 9.52108 17.8389 9.93173C18.0233 10.1245 18.2412 10.3675 18.325 10.4681L18.4675 10.6525L18.325 10.5184C18.149 10.3508 17.7467 10.0323 17.6545 9.9904C17.5958 9.95687 17.5875 9.95687 17.5455 9.99878C17.512 10.0323 17.5036 10.0826 17.5036 10.3256C17.4953 10.7027 17.445 10.9374 17.3192 11.1804C17.2522 11.3062 17.2438 11.281 17.3025 11.1385C17.3444 11.0296 17.3528 10.9793 17.3528 10.6189C17.3528 9.88983 17.269 9.71384 16.7577 9.42052C16.632 9.34509 16.414 9.23614 16.2883 9.17748C16.1542 9.11881 16.0536 9.06853 16.062 9.06853C16.0788 9.05177 16.5733 9.19424 16.7661 9.27804C17.0594 9.39537 17.1097 9.40375 17.1432 9.39537C17.1684 9.37023 17.1851 9.30319 17.1935 9.09367Z" fill="#FF007A"/>
<path d="M11.2928 10.3426C10.9408 9.85649 10.7145 9.10224 10.7648 8.54074L10.7816 8.36475L10.8654 8.38151C11.0162 8.40665 11.2761 8.50722 11.4018 8.58264C11.737 8.78378 11.8879 9.06034 12.0304 9.74755C12.0723 9.94868 12.131 10.1833 12.1561 10.2588C12.198 10.3845 12.3573 10.6778 12.4914 10.8622C12.5836 10.9963 12.5249 11.0633 12.3154 11.0465C11.9969 11.013 11.5694 10.7197 11.2928 10.3426Z" fill="#FF007A"/>
<path d="M16.7658 13.9881C15.1062 13.3176 14.5195 12.7394 14.5195 11.7588C14.5195 11.6164 14.5279 11.499 14.5279 11.499C14.5363 11.499 14.595 11.5493 14.6704 11.608C15.0057 11.8762 15.3828 11.9935 16.4305 12.1443C17.0424 12.2365 17.3944 12.3036 17.7129 12.4125C18.7271 12.7477 19.3557 13.4349 19.5066 14.3652C19.5485 14.6334 19.5233 15.1446 19.4563 15.4128C19.3976 15.6223 19.23 16.0078 19.1881 16.0162C19.1797 16.0162 19.1629 15.9743 19.1629 15.9072C19.1461 15.5552 18.9701 15.22 18.6768 14.9602C18.3248 14.6585 17.8722 14.4322 16.7658 13.9881Z" fill="#FF007A"/>
<path d="M15.5922 14.2643C15.5755 14.1386 15.5336 13.9794 15.5084 13.9123L15.4665 13.7866L15.5419 13.8788C15.6509 14.0045 15.7347 14.1554 15.8101 14.3649C15.8688 14.5241 15.8688 14.5744 15.8688 14.8342C15.8688 15.0856 15.8604 15.1443 15.8101 15.2868C15.7263 15.513 15.6258 15.6723 15.4581 15.8483C15.1564 16.1583 14.7625 16.3259 14.2009 16.4014C14.1003 16.4098 13.8153 16.4349 13.5639 16.4517C12.9353 16.4852 12.5162 16.5522 12.139 16.6863C12.0887 16.7031 12.0384 16.7198 12.0301 16.7115C12.0133 16.6947 12.2731 16.5438 12.4827 16.4433C12.776 16.3008 13.0778 16.2254 13.7399 16.108C14.0668 16.0578 14.402 15.9907 14.4859 15.9572C15.3156 15.6974 15.7263 15.0521 15.5922 14.2643Z" fill="#FF007A"/>
<path d="M16.3551 15.6138C16.1371 15.1361 16.0868 14.6836 16.2042 14.2562C16.2209 14.2143 16.2377 14.1724 16.2545 14.1724C16.2712 14.1724 16.3215 14.1975 16.3718 14.231C16.4724 14.2981 16.6819 14.4154 17.2184 14.7087C17.8973 15.0775 18.2828 15.3624 18.551 15.6893C18.7857 15.9742 18.9282 16.301 18.9952 16.7033C19.0371 16.9296 19.012 17.4743 18.9533 17.7006C18.7689 18.413 18.3499 18.9828 17.738 19.3097C17.6458 19.36 17.5704 19.3935 17.562 19.3935C17.5536 19.3935 17.5871 19.3097 17.6374 19.2091C17.8386 18.7817 17.8637 18.371 17.7129 17.9101C17.6207 17.6252 17.4279 17.2816 17.0423 16.7033C16.5814 16.0329 16.4724 15.8569 16.3551 15.6138Z" fill="#FF007A"/>
<path d="M10.1106 18.1785C10.7308 17.6589 11.4935 17.2901 12.1976 17.1728C12.4993 17.1225 13.0022 17.1393 13.2788 17.2147C13.723 17.332 14.1253 17.5834 14.3349 17.8935C14.536 18.1952 14.6282 18.455 14.7204 19.0333C14.754 19.2596 14.7959 19.4942 14.8043 19.5445C14.8713 19.8462 15.0054 20.0809 15.173 20.2066C15.4329 20.3993 15.8855 20.4077 16.3297 20.2401C16.4051 20.2149 16.4722 20.1898 16.4722 20.1982C16.4889 20.2149 16.2626 20.3658 16.1118 20.4412C15.9022 20.5502 15.7346 20.5837 15.5083 20.5837C15.106 20.5837 14.7623 20.3742 14.4858 19.9551C14.4271 19.8713 14.3097 19.6283 14.2092 19.402C13.9158 18.7232 13.7649 18.5221 13.4213 18.2958C13.1196 18.103 12.734 18.0611 12.4407 18.2036C12.0551 18.388 11.9545 18.8824 12.2227 19.1841C12.3317 19.3098 12.5329 19.4104 12.7005 19.4356C13.0106 19.4775 13.2788 19.2344 13.2788 18.9243C13.2788 18.7232 13.2034 18.6059 13.0022 18.5137C12.734 18.3964 12.4407 18.5304 12.449 18.7902C12.449 18.8992 12.4993 18.9662 12.6083 19.0165C12.6753 19.05 12.6753 19.05 12.625 19.0417C12.382 18.9914 12.3233 18.6897 12.5161 18.4969C12.7508 18.2623 13.2453 18.3628 13.4129 18.6897C13.48 18.8238 13.4883 19.0919 13.4297 19.2596C13.2872 19.6283 12.8849 19.8211 12.4742 19.7121C12.1976 19.6367 12.0802 19.5613 11.745 19.2177C11.1583 18.6143 10.932 18.4969 10.0938 18.3712L9.93457 18.3461L10.1106 18.1785Z" fill="#FF007A"/>
<path fill-rule="evenodd" clip-rule="evenodd" d="M5.70234 4.69386C7.65524 7.06557 10.6642 10.753 10.8151 10.9542C10.9408 11.1218 10.8905 11.281 10.681 11.3983C10.5636 11.4654 10.3206 11.5324 10.2032 11.5324C10.0691 11.5324 9.90988 11.4654 9.80092 11.3564C9.72548 11.281 9.3986 10.8033 8.66103 9.65518C8.09946 8.77522 7.62171 8.04611 7.61333 8.03772C7.57981 8.02096 7.57981 8.02096 8.60236 9.84794C9.24774 10.9961 9.45727 11.4067 9.45727 11.457C9.45727 11.566 9.42375 11.6246 9.28964 11.7755C9.06334 12.0269 8.96276 12.3118 8.88733 12.9069C8.80351 13.5689 8.57721 14.0382 7.93183 14.8344C7.55466 15.3037 7.49599 15.3875 7.40379 15.5803C7.28645 15.8149 7.25293 15.949 7.23616 16.2507C7.2194 16.5692 7.25293 16.7703 7.34512 17.072C7.42894 17.3402 7.52114 17.5162 7.74744 17.8598C7.94021 18.1615 8.05755 18.3878 8.05755 18.4716C8.05755 18.5386 8.07432 18.5386 8.37605 18.4716C9.09687 18.304 9.69196 18.019 10.0188 17.667C10.22 17.4491 10.2703 17.3318 10.2703 17.0301C10.2703 16.8374 10.2619 16.7955 10.2116 16.6781C10.1278 16.4938 9.96855 16.3429 9.62491 16.1083C9.1723 15.7982 8.97953 15.5468 8.92924 15.2115C8.88733 14.9266 8.93762 14.7338 9.18906 14.2059C9.44889 13.6611 9.51595 13.4348 9.55785 12.8817C9.583 12.5297 9.62491 12.3873 9.72548 12.2783C9.83444 12.161 9.92664 12.1191 10.1865 12.0856C10.6139 12.0269 10.8905 11.9179 11.1084 11.7084C11.3012 11.5324 11.385 11.3564 11.3934 11.0966L11.4018 10.9039L11.2928 10.7866C10.8989 10.334 5.44251 4.3335 5.41737 4.3335C5.40898 4.3335 5.54309 4.49273 5.70234 4.69386ZM8.27548 16.6111C8.36767 16.4519 8.31738 16.2507 8.16652 16.1502C8.02403 16.058 7.80611 16.0999 7.80611 16.2256C7.80611 16.2591 7.82287 16.2926 7.87316 16.3094C7.94859 16.3513 7.95698 16.3932 7.89831 16.4854C7.83963 16.5776 7.83963 16.6614 7.91507 16.72C8.03241 16.8122 8.19166 16.7619 8.27548 16.6111Z" fill="#FF007A"/>
<path fill-rule="evenodd" clip-rule="evenodd" d="M11.6699 12.2031C11.4687 12.2618 11.276 12.4797 11.2173 12.6976C11.1838 12.8316 11.2005 13.0747 11.2592 13.1501C11.3514 13.2674 11.4352 13.301 11.6699 13.301C12.1309 13.301 12.5248 13.0998 12.5667 12.8568C12.6086 12.6557 12.4326 12.3791 12.1895 12.2534C12.0638 12.1863 11.804 12.1612 11.6699 12.2031ZM12.2063 12.6221C12.2734 12.5216 12.2482 12.4126 12.1225 12.3372C11.8962 12.1947 11.5525 12.3121 11.5525 12.5299C11.5525 12.6389 11.7286 12.7562 11.8962 12.7562C12.0051 12.7562 12.156 12.6892 12.2063 12.6221Z" fill="#FF007A"/>
<defs>
<linearGradient id="paint0_linear_2009_24162" x1="0" y1="0" x2="0" y2="26" gradientUnits="userSpaceOnUse">
<stop stop-color="#FEF3F9"/>
<stop offset="1" stop-color="#FDE5F2"/>
</linearGradient>
</defs>
</svg>
