<svg width="26" height="26" viewBox="0 0 26 26" fill="none" xmlns="http://www.w3.org/2000/svg">
<g clip-path="url(#clip0_2009_23766)">
<circle cx="13" cy="13" r="12.25" fill="#EDF0F4" stroke="#EDEFF2" stroke-width="1.5"/>
<path d="M13 0C5.81967 0 0 5.81967 0 13C0 20.1803 5.81967 26 13 26C20.1803 26 26 20.1803 26 13C26 5.81967 20.1803 0 13 0ZM19.4567 15.0367C18.8933 13.78 16.8133 11.0067 13.78 11.31C10.6167 11.6567 7.02 13.4333 5.98 16.0333C4.37667 14.7767 5.76333 12.61 6.71667 11.6133C6.5 10.66 7.10667 8.58 7.45333 7.71333C7.58333 6.97667 8.19 6.45667 8.49333 6.32667C8.45 5.80667 9.36 5.54667 9.79333 5.46L9.83667 5.37333C9.96667 4.98333 10.0967 4.50667 11.2233 4.16C12.1767 3.81333 13.0433 4.68 13.39 5.15667C13.4767 4.89667 13.8233 4.50667 14.17 4.81C17.29 5.28667 18.33 8.71 18.5033 10.3133C19.11 10.7467 20.3667 11.8733 20.67 12.9133C20.9733 14.17 20.6267 14.43 20.1933 14.7767L20.1067 14.8633C19.89 15.1233 19.63 15.1233 19.4567 15.0367ZM18.85 16.38C18.1697 19.2313 15.8817 21.4197 13 21.97C11.18 21.97 8.27667 19.11 7.45333 17.7667C5.76333 17.6367 6.15333 16.77 6.54333 16.38L6.32667 16.2933C7.10667 14.4733 9.31667 12.3067 13.65 11.7867C16.0333 11.4833 17.8533 13.1733 18.9367 14.9067C18.98 15.47 18.9367 16.0767 18.85 16.38ZM9.36 14.2133C9.62 14.8633 10.4 15.9033 11.5267 14.69C11.44 14.3433 10.8333 13.7367 9.36 14.2133ZM11.0933 20.3667C10.92 20.1067 11.96 19.9767 12.48 19.9333L13.1733 19.76C13.3033 19.1967 13.0433 19.1533 12.9133 19.1967C11.8733 19.2833 11.96 18.07 12.22 17.68C12.5233 17.3333 13.1733 17.4633 13.39 17.5067C13.6067 17.5933 13.9533 17.5067 14.0833 17.4633C14.7333 17.42 14.69 18.2 14.56 18.59C14.5167 19.11 13.78 19.2833 13.4333 19.2833C13.39 19.6733 13.4767 19.8467 13.5633 19.8467L15.0367 20.1933C15.6 20.41 15.2967 20.4533 15.0367 20.4967C14.3 20.02 13.78 20.1933 13.4333 20.28L13.1733 20.3667C12.5667 20.15 11.9167 20.1933 11.6567 20.28C11.5267 20.41 11.2233 20.5833 11.0933 20.3667ZM14.95 14.9067C14.9933 14.3867 15.5133 13.52 17.03 14.3C16.8133 14.82 16.0767 15.6433 14.95 14.9067Z" fill="#EFBFA8"/>
<circle cx="13" cy="13" r="12.25" stroke="#EDEFF2" stroke-width="1.5"/>
</g>
<defs>
<clipPath id="clip0_2009_23766">
<rect width="26" height="26" fill="white"/>
</clipPath>
</defs>
</svg>
