<svg width="26" height="26" viewBox="0 0 26 26" fill="none" xmlns="http://www.w3.org/2000/svg">
<g clip-path="url(#clip0_2009_23789)">
<circle cx="13" cy="13" r="12.25" fill="#EDF0F4" stroke="#EDEFF2" stroke-width="1.5"/>
<path fill-rule="evenodd" clip-rule="evenodd" d="M6.03114 5.09678L2.018 13.4618C2.00195 13.4921 1.99642 13.5268 2.00227 13.5606C2.00812 13.5943 2.02502 13.6252 2.05035 13.6484L12.8835 23.9569C12.9147 23.9848 12.9552 24.0002 12.9971 24.0002C13.0391 24.0002 13.0796 23.9848 13.1108 23.9569L23.9504 13.6484C23.9755 13.625 23.9922 13.5942 23.998 13.5605C24.0039 13.5268 23.9985 13.4922 23.9828 13.4618L19.9696 5.09678C19.959 5.06768 19.9393 5.04267 19.9135 5.0253C19.8877 5.00794 19.857 4.99911 19.8258 5.00007H6.17351C6.14275 5.00091 6.11286 5.01045 6.08738 5.02759C6.0619 5.04472 6.04189 5.06873 6.0297 5.09678H6.03114Z" fill="url(#paint0_linear_2009_23789)"/>
<path fill-rule="evenodd" clip-rule="evenodd" d="M14.3941 14.3175C14.3165 14.324 13.9145 14.3497 13.0196 14.3497C12.3067 14.3497 11.8008 14.3304 11.6192 14.3175C8.86412 14.1955 6.80901 13.7191 6.80901 13.1528C6.80901 12.5864 8.86412 12.104 11.6192 11.9819V13.8415C11.799 13.8543 12.3131 13.8865 13.0261 13.8865C13.8818 13.8865 14.3096 13.8479 14.3877 13.8415V11.9819C17.1363 12.104 19.1914 12.5804 19.1914 13.1463C19.1914 13.7123 17.1421 14.1955 14.3941 14.3175ZM14.3941 11.7953V10.1284H18.2322V7.58691H7.78156V10.1284H11.6192V11.7953C8.50099 11.938 6.1543 12.5479 6.1543 13.288C6.1543 14.0281 8.50099 14.633 11.6192 14.7807V20.1154H14.3941V14.7807C17.5059 14.638 19.8465 14.0278 19.8465 13.2944C19.8465 12.5611 17.5059 11.9366 14.3941 11.7957V11.7953Z" fill="white"/>
</g>
<defs>
<linearGradient id="paint0_linear_2009_23789" x1="1.65185" y1="14.1667" x2="22.9904" y2="14.1667" gradientUnits="userSpaceOnUse">
<stop stop-color="#D8B35D"/>
<stop offset="1" stop-color="#F5E7BF"/>
</linearGradient>
<clipPath id="clip0_2009_23789">
<rect width="26" height="26" fill="white"/>
</clipPath>
</defs>
</svg>
