<svg width="26" height="26" viewBox="0 0 26 26" fill="none" xmlns="http://www.w3.org/2000/svg">
<g clip-path="url(#clip0_2009_24034)">
<circle cx="13" cy="13" r="12.25" fill="#EDF0F4" stroke="#EDEFF2" stroke-width="1.5"/>
<path d="M15.1953 11.6035H17.1151V16.9157H15.1953V11.6035Z" fill="#3AAC59"/>
<path d="M12.5697 11.2013C11.8415 11.2013 11.0913 11.3706 10.8927 11.688C10.8927 11.688 10.8927 11.688 10.8927 11.7092V9.46582H8.92879V13.0002C9.12738 13.0849 9.32598 13.1907 9.52457 13.2965C9.59077 13.3388 9.65697 13.36 9.7011 13.3812C9.72317 13.4023 9.74524 13.4023 9.78937 13.4235C9.78937 13.4235 8.66399 15.0954 7.14142 15.4341C6.23671 15.6457 5.17753 15.3917 4.95687 14.524C4.95687 14.4817 4.9348 14.4605 4.9348 14.4182C5.08927 14.3335 5.22166 14.2701 5.37613 14.1854C5.75125 14.0372 6.03811 13.9103 6.14845 13.8679H6.17051C7.07523 13.5505 7.82548 13.4447 7.82548 13.4447C7.14142 13.3812 6.5677 13.4235 6.06018 13.5293C5.61886 13.614 5.24373 13.741 4.97894 13.8679C5.1334 13.2542 5.70712 12.7039 6.39117 12.5558C6.45737 12.5346 6.5015 12.5346 6.5677 12.5134C6.58977 12.5134 6.61184 12.5134 6.61184 12.5134C6.65597 12.5134 6.7001 12.4923 6.74423 12.4923C6.7663 12.4923 6.7663 12.4923 6.78836 12.4923C6.85456 12.4923 6.8987 12.4923 6.96489 12.4923C6.98696 12.4923 6.98696 12.4923 7.00903 12.4923C7.05316 12.4923 7.11936 12.4923 7.16349 12.4923C7.18556 12.4923 7.20762 12.4923 7.20762 12.4923C7.22969 12.4923 7.25176 12.4923 7.25176 12.4923C7.53862 12.5134 7.89167 12.5981 8.28887 12.7251V11.5399C8.09027 11.4764 7.89167 11.4341 7.69308 11.3706C7.11936 11.2436 6.17051 11.0954 5.1334 11.3283C3.45637 11.7092 2.99298 12.8944 2.99298 14.3335C2.99298 14.524 3.01505 14.6933 3.03711 14.8415C2.68405 15.0743 2.30893 15.3283 2 15.6245C2 15.6245 2.48546 15.4129 3.12538 15.1589C3.54463 16.5346 5.04514 17.0002 6.14845 17.0002C7.31795 17.0002 8.0682 16.6828 8.95085 16.1537V16.8309H10.9147V13.5081C10.9147 13.5081 10.9147 13.5081 10.9147 13.487V13.4447C11.0913 12.979 11.4223 12.8521 11.7753 12.8521C12.2387 12.8521 12.5256 13.1695 12.5256 13.6775V16.8521H14.4895V13.1272C14.4895 11.9632 13.7172 11.2013 12.5697 11.2013Z" fill="#3AAC59"/>
<path d="M16.1205 9C15.5247 9 15.1055 9.40212 15.1055 9.97354C15.1055 10.545 15.5247 10.9471 16.1205 10.9471C16.7163 10.9471 17.1356 10.545 17.1356 9.97354C17.1356 9.40212 16.7163 9 16.1205 9Z" fill="#3AAC59"/>
<path d="M23.644 13.8254V11.4551H21.6801V11.7937C19.7824 10.6297 18.5688 11.836 18.5688 11.836C17.9951 12.344 17.6641 13.127 17.6641 14.1429C17.6641 15.9207 18.7894 16.9789 20.2237 16.9789C20.7754 16.9789 21.2609 16.8519 21.7022 16.2805C21.7463 16.4075 21.8566 16.7461 21.9449 16.8519H23.9971C23.6219 16.2805 23.6219 14.3757 23.644 13.8254ZM20.6651 15.4127C20.0251 15.4127 19.5838 14.8836 19.5838 14.1429C19.5838 13.4022 20.0251 12.8731 20.6651 12.8731C21.1064 12.8731 21.4594 13.127 21.636 13.5503V14.7567C21.4594 15.1588 21.1064 15.4127 20.6651 15.4127Z" fill="#3AAC59"/>
</g>
<defs>
<clipPath id="clip0_2009_24034">
<rect width="26" height="26" fill="white"/>
</clipPath>
</defs>
</svg>
