<svg width="26" height="26" viewBox="0 0 26 26" fill="none" xmlns="http://www.w3.org/2000/svg">
<circle cx="13" cy="13" r="12.5" transform="matrix(0 1 1 0 0 0)" fill="black" stroke="#EDEFF2"/>
<path d="M7.22838 19.632L8.35211 17.4264L13.777 6.77586C13.5023 6.73985 13.2256 6.72173 12.9485 6.72161C10.6994 6.72458 8.61993 7.91803 7.48278 9.85852C6.34564 11.799 6.3208 14.1965 7.41748 16.1601L6.77424 17.4226L6.67815 17.6109C4.96663 15.2528 4.72238 12.1341 6.04593 9.5383C7.36948 6.94254 10.0371 5.30852 12.9509 5.30882C13.1482 5.30882 13.3448 5.31631 13.5406 5.33129C14.1076 5.3742 14.6449 5.07226 14.903 4.56561L15.2425 3.8999H16.8258L15.8268 5.85983L15.5029 6.49454L15.1844 7.11995L9.46343 18.3479L8.82097 19.6096L7.49188 22.2174H5.90936L7.22838 19.632Z" fill="white"/>
<path d="M9.07617 22.2174L16.4385 7.75776L17.0825 6.49609L18.4054 3.8999H19.9871L18.6736 6.47827L17.5498 8.68387L12.1172 19.3453C12.3937 19.3813 12.6722 19.3995 12.9511 19.3996C15.2029 19.3982 17.2853 18.2033 18.4228 16.26C19.5604 14.3166 19.5827 11.9159 18.4814 9.95174L18.5224 9.87424L19.2199 8.50562C20.9315 10.8631 21.1763 13.9813 19.8537 16.5771C18.531 19.1728 15.8644 20.8075 12.9511 20.8085C12.7519 20.8085 12.5527 20.8007 12.3559 20.786C11.7891 20.7432 11.252 21.0447 10.9935 21.5509L10.654 22.2174H9.07617Z" fill="white"/>
</svg>
