<svg width="28" height="28" viewBox="0 0 28 28" fill="none" xmlns="http://www.w3.org/2000/svg">
<path d="M26.8374 17.2019C25.0696 24.2929 17.8876 28.6084 10.7957 26.8401C3.70689 25.0723 -0.608542 17.8898 1.16005 10.7994C2.92708 3.70766 10.1091 -0.608098 17.1987 1.15971C24.29 2.92753 28.6052 10.1108 26.8372 17.2021L26.8373 17.2019H26.8374Z" fill="#23292F" stroke="#EDEFF2" stroke-width="1.5"/>
<path d="M20.5076 6.27862H23.1787L17.62 11.7825C15.6069 13.7746 12.3431 13.7746 10.3286 11.7825L4.76776 6.27862H7.441L11.6642 10.4596C12.9445 11.7215 15.0008 11.7215 16.2812 10.4596L20.5076 6.27862Z" fill="white"/>
<path d="M7.40782 21.5832H4.73494L10.3298 16.0454C12.3428 14.0533 15.6066 14.0533 17.6211 16.0454L23.2159 21.5832H20.5448L16.2855 17.3683C15.0052 16.1065 12.9489 16.1065 11.6686 17.3683L7.40782 21.5832Z" fill="white"/>
</svg>
