<svg width="26" height="26" viewBox="0 0 26 26" fill="none" xmlns="http://www.w3.org/2000/svg">
<path d="M1.11719 10.0381C2.75252 3.47492 9.39896 -0.518779 15.96 1.11719C22.5226 2.75321 26.5161 9.40101 24.8799 15.9639L24.876 15.9814C23.2323 22.5331 16.5914 26.5178 10.0342 24.8828C3.47404 23.2467 -0.519547 16.5999 1.11719 10.0381Z" fill="#2C7DF7" stroke="#EDEFF2" stroke-width="1.5"/>
<path d="M14.9393 21.6668C13.7024 21.6668 12.7996 21.3689 12.2309 20.773C11.7041 20.2687 11.3984 19.5762 11.3806 18.8471C11.3742 18.6256 11.4255 18.4063 11.5295 18.2106C11.6266 18.0415 11.7667 17.9012 11.9357 17.8041C12.3339 17.6055 12.8023 17.6055 13.2005 17.8041C13.3692 17.9009 13.5087 18.0413 13.6044 18.2106C13.7115 18.4053 13.7647 18.625 13.7587 18.8471C13.7698 19.1124 13.6937 19.374 13.5421 19.5919C13.4157 19.7698 13.2351 19.902 13.0273 19.9686C13.2305 20.2273 13.518 20.4066 13.8398 20.4751C14.1998 20.5797 14.5726 20.6334 14.9475 20.6349C15.4437 20.6392 15.9298 20.4938 16.3423 20.2178C16.7702 19.9155 17.0892 19.4834 17.2522 18.9855C17.4589 18.393 17.5597 17.7687 17.5502 17.1412C17.5668 16.487 17.4565 15.8358 17.2252 15.2237C17.0512 14.7341 16.7209 14.3153 16.2854 14.032C15.8805 13.7758 15.4106 13.6414 14.9315 13.6447C14.514 13.6801 14.1114 13.8168 13.7587 14.0429L12.8891 14.4789V14.0429L16.7972 8.80011H11.3806V14.2406C11.3653 14.6332 11.4691 15.0212 11.6785 15.3537C11.8845 15.6484 12.2297 15.8138 12.5885 15.7897C12.9144 15.7831 13.2295 15.672 13.4876 15.4728C13.78 15.2585 14.0346 14.9967 14.2405 14.6982C14.2591 14.6459 14.2932 14.6005 14.3384 14.5683C14.3747 14.5369 14.4211 14.5196 14.469 14.5196C14.5631 14.5282 14.6522 14.566 14.7236 14.6278C14.8141 14.729 14.8634 14.8604 14.8617 14.9961C14.8513 15.0874 14.835 15.1778 14.813 15.267C14.6205 15.7327 14.298 16.1331 13.884 16.4204C13.4994 16.6806 13.0452 16.8186 12.5809 16.8162C11.4081 16.8162 10.5957 16.5851 10.1435 16.1229C9.67406 15.6068 9.43198 14.9235 9.47185 14.227V8.80011H6.7168V7.78928H9.48469V5.48448L8.85098 4.85034V4.3335H10.6899L11.3806 4.69104V7.78928L18.5359 7.76752L19.2482 8.4825L14.8607 12.8913C15.1258 12.7847 15.4049 12.7172 15.6894 12.6909C16.2525 12.7156 16.8018 12.8724 17.2931 13.1487C17.8619 13.4191 18.3413 13.8469 18.6744 14.3814C18.9729 14.8339 19.1841 15.3381 19.2973 15.8683C19.3904 16.2864 19.4403 16.713 19.4463 17.1413C19.4492 17.9588 19.2638 18.7659 18.9046 19.5002C18.564 20.2113 17.9906 20.7846 17.2796 21.1253C16.5517 21.4839 15.7507 21.6693 14.9393 21.6668Z" fill="white"/>
</svg>
