<svg width="26" height="26" viewBox="0 0 26 26" fill="none" xmlns="http://www.w3.org/2000/svg">
<circle cx="13" cy="13" r="12.25" transform="matrix(0 1 1 0 0 0)" fill="#E7EFF3" stroke="#EDEFF2" stroke-width="1.5"/>
<path fill-rule="evenodd" clip-rule="evenodd" d="M4.65088 17.8789L4.65092 17.8788C5.15675 17.1741 5.66258 16.4693 6.14641 15.7645C6.81827 14.8156 7.50362 13.8667 8.18133 12.9284L8.18214 12.9273C8.36936 12.6681 8.556 12.4097 8.74161 12.1523C8.85157 11.9981 8.87357 11.888 8.71961 11.7559C8.51069 11.5576 8.31276 11.3539 8.11483 11.1502L8.11479 11.1502L8.11478 11.1501C7.91685 10.9464 7.71892 10.7427 7.50999 10.5445C7.40002 10.4343 7.37803 10.3242 7.44401 10.17C7.92786 9.22294 8.60965 8.47408 9.46738 7.85737C9.51137 7.81332 9.57734 7.76927 9.64332 7.72522L9.64333 7.72522C9.45228 7.57944 9.26876 7.43744 9.08809 7.29764L9.08795 7.29754C8.83191 7.09942 8.5816 6.90573 8.32374 6.71205C8.05745 6.50887 7.79117 6.31301 7.5291 6.12025C7.33662 5.97868 7.14642 5.83878 6.96016 5.69888C6.80621 5.58875 6.69624 5.56673 6.54229 5.72091C4.67287 7.41686 3.57321 9.50927 3.30929 12.0202C3.08936 14.0024 3.48524 15.8966 4.43094 17.6587C4.45294 17.6917 4.46943 17.7247 4.48593 17.7578C4.50242 17.7908 4.51892 17.8238 4.54091 17.8569H4.54092C4.60689 17.8569 4.62888 17.8569 4.65088 17.8789ZM18.7106 9.13077L18.7105 9.13084C18.5798 9.30463 18.4466 9.48164 18.3086 9.66345C18.2775 9.61663 18.2491 9.57535 18.2224 9.53665C18.1739 9.46611 18.1313 9.40418 18.0887 9.33307C17.4949 8.54015 16.7691 7.90142 15.8894 7.43889C15.7354 7.35078 15.6255 7.37281 15.4935 7.50496C15.0536 7.96749 14.5918 8.408 14.1299 8.84851C14.0977 8.88076 14.0655 8.9012 14.0247 8.92712C14.0098 8.93661 13.9937 8.94683 13.976 8.95864C13.0193 8.2318 12.0626 7.49946 11.1059 6.76711C10.1492 6.03477 9.19247 5.30242 8.23576 4.57559C8.2422 4.56269 8.24676 4.55168 8.25053 4.54256L8.25053 4.54255C8.25964 4.52052 8.2642 4.50951 8.27975 4.50951C8.30174 4.4985 8.32923 4.48198 8.35672 4.46546L8.35673 4.46546C8.38422 4.44894 8.41171 4.43242 8.4337 4.42141C10.4351 3.36419 12.5464 3.01179 14.7677 3.40824C16.9671 3.8047 18.8145 4.86192 20.31 6.53585C20.464 6.71205 20.464 6.82218 20.332 6.97635C20.1891 7.16356 20.0516 7.35077 19.9142 7.53798L19.9141 7.538L19.914 7.53819C19.7766 7.72534 19.6392 7.9125 19.4963 8.09965C19.2312 8.4389 18.9759 8.77815 18.7107 9.13064L18.7107 9.13067L18.7106 9.13077ZM19.2543 20.4779C18.2866 19.7511 17.3189 19.0242 16.3732 18.3194C16.3952 18.2864 16.4062 18.2644 16.4117 18.2533C16.4131 18.2507 16.4141 18.2486 16.4148 18.2473C16.4157 18.2457 16.4162 18.245 16.4166 18.2451C16.4169 18.2452 16.4171 18.2459 16.4172 18.2474C16.4172 18.2487 16.4172 18.2507 16.4172 18.2533C16.4392 18.2423 16.4612 18.2258 16.4832 18.2093C16.5052 18.1928 16.5272 18.1763 16.5492 18.1652C17.3189 17.6366 17.9567 16.9538 18.4186 16.1389C18.4517 16.0793 18.4812 16.0274 18.5071 15.9819C18.6091 15.8029 18.6553 15.7216 18.6419 15.6519C18.6307 15.5939 18.5783 15.5439 18.4823 15.4523C18.4301 15.4024 18.365 15.3403 18.2866 15.2579C18.0861 15.0459 17.8799 14.8339 17.6709 14.619L17.6709 14.619L17.6709 14.619C17.4674 14.4098 17.2612 14.1978 17.055 13.9804C17.9288 12.8005 18.8025 11.6285 19.681 10.4501L19.6818 10.4491L19.6821 10.4487C20.2627 9.66988 20.8455 8.88825 21.4317 8.09965C22.6633 10.3242 23.0372 12.6148 22.5313 15.0376C22.0695 17.2181 20.9698 19.0242 19.2543 20.4779ZM16.1533 20.1695C16.7031 20.588 17.253 21.0065 17.8468 21.469C17.6928 21.5351 17.5829 21.6012 17.4949 21.6673C16.0213 22.4161 14.4598 22.7906 12.8103 22.7465C9.97322 22.6364 7.61995 21.5131 5.72854 19.4207C5.57459 19.2665 5.61858 19.1564 5.72854 19.0242C6.04744 18.6057 6.36085 18.1873 6.67425 17.7688C6.98765 17.3503 7.30106 16.9318 7.61995 16.5133C7.63973 16.4935 7.6595 16.4693 7.68127 16.4426C7.70793 16.4099 7.73759 16.3735 7.77391 16.3371C7.80211 16.3936 7.83935 16.441 7.87403 16.4852C7.89345 16.51 7.91207 16.5337 7.92786 16.5574C8.54367 17.4164 9.31343 18.0771 10.2371 18.5617C10.3911 18.6498 10.5011 18.6057 10.611 18.4956C10.82 18.2864 11.0289 18.0826 11.2378 17.8789C11.4468 17.6752 11.6557 17.4714 11.8646 17.2622C12.0186 17.108 12.1286 17.108 12.3045 17.2402C13.1965 17.9332 14.0992 18.6155 14.9976 19.2946C15.384 19.5866 15.7697 19.8781 16.1533 20.1695Z" fill="#231815"/>
</svg>
