<svg width="26" height="26" viewBox="0 0 26 26" fill="none" xmlns="http://www.w3.org/2000/svg">
<g clip-path="url(#clip0_69_4018)">
<path d="M25.6136 16.1376C23.8789 23.0976 16.8295 27.3476 9.8567 25.6119C2.89665 23.8719 -1.34656 16.8225 0.388142 9.86245C2.12284 2.90242 9.16793 -1.34762 16.1237 0.388129C23.1008 2.10261 27.344 9.17326 25.6136 16.1376Z" fill="#E84142"/>
<path d="M6.68358 18.3547H9.17531C9.76208 18.3547 10.0554 18.3547 10.3172 18.2813C10.6042 18.1951 10.866 18.0418 11.0836 17.831C11.2835 17.6381 11.4278 17.3825 11.7124 16.8782L11.7208 16.8633L14.9525 11.0791C15.2396 10.5713 15.3815 10.3158 15.4446 10.0475C15.514 9.75688 15.514 9.45031 15.4446 9.15969C15.3821 8.89365 15.2387 8.64015 14.9563 8.14056L14.9558 8.13958L14.9494 8.12818L13.6846 5.89266C13.4228 5.42639 13.2903 5.19326 13.1231 5.10704C12.9433 5.01445 12.7288 5.01445 12.5491 5.10704C12.3819 5.19326 12.2494 5.42639 11.9876 5.89266L5.83505 16.8729C5.5764 17.3328 5.44707 17.5627 5.45654 17.7511C5.46919 17.9555 5.57328 18.1407 5.7436 18.2525C5.90133 18.3547 6.15995 18.3547 6.68358 18.3547Z" fill="white"/>
<path d="M19.0387 18.3548H15.4682C14.9414 18.3548 14.6765 18.3548 14.5219 18.2526C14.3516 18.1409 14.2475 17.9524 14.2348 17.748C14.2255 17.5611 14.3559 17.3332 14.6167 16.8773L14.6228 16.8666L16.4049 13.7688C16.6667 13.3121 16.7993 13.0853 16.9633 12.9992C17.143 12.9065 17.3543 12.9065 17.5341 12.9992C17.697 13.0831 17.8239 13.3004 18.0752 13.7308L18.0956 13.7656L19.884 16.8634L19.9098 16.9085C20.1577 17.3415 20.2842 17.5626 20.2752 17.7448C20.2656 17.9492 20.1584 18.1376 19.9881 18.2494C19.8304 18.3548 19.5654 18.3548 19.0387 18.3548Z" fill="white"/>
</g>
<rect x="0.75" y="0.75" width="24.5" height="24.5" rx="12.25" stroke="#EDEFF2" stroke-width="1.5"/>
<defs>
<clipPath id="clip0_69_4018">
<rect width="26" height="26" rx="13" fill="white"/>
</clipPath>
</defs>
</svg>
