<svg width="200" height="40" viewBox="0 0 200 40" fill="none" xmlns="http://www.w3.org/2000/svg">
<path d="M9.07293 20L4.55825 24.4917L0 20L4.55658 15.4683L9.07293 20ZM20.1099 9.02333L27.8858 16.7567L32.444 12.2267L20.1099 0L7.77584 12.2667L12.3341 16.7967L20.1099 9.02333ZM35.6633 15.4683L31.1469 20L35.7035 24.5317L40.2584 20L35.6633 15.4683ZM20.1099 30.9767L12.3341 23.2033L7.77584 27.735L20.1099 40L32.444 27.7333L27.8858 23.2033L20.1099 30.9767ZM20.1099 24.4933L24.6665 19.96L20.1099 15.47L15.5534 20L20.1099 24.4917V24.4933ZM68.0285 24.96V24.8833C68.0285 21.9533 66.4566 20.4683 63.9043 19.4917C65.4746 18.6333 66.8102 17.225 66.8102 14.765V14.6883C66.8102 11.25 64.0216 9.02333 59.5438 9.02333H49.2928V30.9383H59.7801C64.7674 30.9767 68.0285 28.945 68.0285 24.9617V24.96ZM61.9788 15.5867C61.9788 17.2267 60.6432 17.89 58.483 17.89H54.0069V13.2417H58.7981C60.8409 13.2417 61.9788 14.0617 61.9788 15.5083V15.5867ZM63.1971 24.3367C63.1971 25.9767 61.9017 26.72 59.7785 26.72H54.0069V21.9133H59.6226C62.0978 21.9133 63.1971 22.8133 63.1971 24.2967V24.3367ZM78.2008 30.9767V9.02333H73.3309V30.9383H78.2008V30.9767ZM104.282 30.9767V9.02333H99.4889V22.54L89.1591 9.02333H84.6812V30.9383H89.4741V17.0317L100.158 30.9767H104.28H104.282ZM131.145 30.9767L121.682 8.90667H117.206L107.739 30.9767H112.728L114.731 26.055H124.04L126.042 30.9767H131.149H131.145ZM122.309 21.7967H116.457L119.403 14.6883L122.309 21.7967ZM154.282 30.9767V9.02333H149.489V22.54L139.159 9.02333H134.681V30.9383H139.474V17.0317L150.158 30.9767H154.28H154.282ZM179.3 27.4217L176.198 24.3367C174.469 25.8983 172.937 26.9133 170.385 26.9133C166.614 26.9133 163.983 23.7883 163.983 20.0383V19.9217C163.983 16.1717 166.653 13.0867 170.385 13.0867C172.583 13.0867 174.313 14.0233 176.041 15.5467L179.143 11.9917C177.101 10 174.626 8.59333 170.464 8.59333C163.708 8.59333 158.956 13.71 158.956 19.9217V20C158.956 26.2883 163.785 31.2883 170.267 31.2883C174.509 31.3283 177.023 29.8433 179.3 27.4217ZM200 30.9767V26.68H188.019V22.07H198.428V17.7733H188.019V13.32H199.842V9.02333H183.228V30.9383H200V30.9767Z" fill="#0C0B16"/>
</svg>
