<svg width="120" height="36" viewBox="0 0 120 36" fill="none" xmlns="http://www.w3.org/2000/svg">
<path d="M46.7836 17.4682C47.6817 16.9583 48.4001 16.3232 48.9239 15.5746C49.5191 14.7284 49.834 13.7168 49.8243 12.6822C49.8243 10.6867 49.078 9.12808 47.6075 8.05153C46.1543 6.98541 44.1553 6.44655 41.6639 6.44655H32.6551V29.5663H42.0243C44.6478 29.5663 46.7488 28.9568 48.268 27.7527C49.7988 26.5383 50.5764 24.8383 50.5764 22.6979C50.5764 21.3943 50.2102 20.2737 49.4906 19.3663C48.8451 18.5551 47.9354 17.9178 46.7836 17.4682ZM37.5303 10.6137H41.2722C42.4461 10.6137 43.3314 10.8408 43.9074 11.2893C44.4752 11.7296 44.7533 12.3114 44.7533 13.0623C44.7533 13.8155 44.4752 14.4251 43.9074 14.8689C43.3314 15.3162 42.4461 15.5433 41.2722 15.5433H37.5303V10.6137ZM44.5748 24.6158C43.9259 25.1361 42.9351 25.3992 41.6314 25.3992H37.5303V19.7418H41.6326C42.9351 19.7418 43.9271 19.9967 44.5783 20.495C45.2238 20.9933 45.5367 21.6504 45.5367 22.5067C45.5367 23.4083 45.2226 24.0978 44.5748 24.6158ZM57.1643 12.2778H52.2555V29.5652H57.1632L57.1643 12.2778ZM105.639 14.8793C104.853 13.9477 103.863 13.2101 102.746 12.7239C101.603 12.2175 100.318 11.9603 98.9285 11.9603C97.225 11.9603 95.6884 12.3473 94.3592 13.1098C93.0448 13.8579 91.9591 14.95 91.2188 16.2688C90.4644 17.6014 90.0831 19.145 90.0831 20.8589C90.0831 22.5739 90.454 24.2195 91.184 25.5718C91.8974 26.908 92.9847 28.0073 94.3129 28.7354C95.6536 29.4759 97.2285 29.8514 98.9945 29.8514C101.162 29.8514 103.001 29.3067 104.464 28.2302C105.872 27.1954 106.84 25.7364 107.368 23.9078H102.427C102.167 24.53 101.801 25.0596 101.276 25.4328C100.656 25.8731 99.8555 26.0956 98.896 26.0956C98.064 26.0956 97.3501 25.894 96.7754 25.4954C96.1994 25.0956 95.7591 24.5069 95.4694 23.7409C95.2843 23.2376 95.1602 22.7139 95.0997 22.1811H107.454L107.478 22.0281C107.698 20.6341 107.643 19.313 107.311 18.102C106.994 16.9188 106.424 15.8188 105.639 14.8782V14.8793ZM95.1785 18.9816C95.2535 18.6234 95.3561 18.2716 95.4856 17.9294C95.7869 17.153 96.2214 16.5562 96.7788 16.1575C97.3339 15.7589 98.0246 15.5584 98.8311 15.5584C99.8428 15.5584 100.674 15.8864 101.299 16.5318C101.894 17.146 102.23 17.985 102.302 18.9804L95.1785 18.9816ZM57.2663 6.44655H52.1536V10.6137H57.2663V6.44655ZM84.1418 14.2397C83.5885 13.5642 82.897 13.015 82.1139 12.6289C81.1984 12.1851 80.1265 11.9603 78.9283 11.9603C77.4624 11.9603 76.1471 12.323 75.023 13.0345C73.8989 13.7472 73.0067 14.753 72.3751 16.0231C71.7435 17.2909 71.4237 18.7788 71.4237 20.4475C71.4237 22.1162 71.7598 23.5172 72.4249 24.7931C73.0913 26.0736 74.0148 27.0934 75.1702 27.8258C76.3267 28.5593 77.6466 28.9324 79.0928 28.9324C80.1844 28.9324 81.1822 28.696 82.0559 28.229C82.7295 27.8742 83.3184 27.3781 83.7826 26.7747V28.6566C83.7826 29.8236 83.4767 30.7193 82.8741 31.3161C82.2692 31.9129 81.349 32.2142 80.1392 32.2142C79.0963 32.2142 78.277 31.9778 77.7034 31.5108C77.2341 31.1284 76.8238 30.6278 76.7288 29.5663H71.9962C72.0402 31.0519 72.4759 32.052 73.0924 32.9292C73.7819 33.9108 74.753 34.6791 75.9814 35.2098C77.1958 35.7336 78.6073 36.0001 80.1717 36.0001C82.7999 36.0001 84.8916 35.3396 86.3888 34.0382C87.8953 32.7299 88.6578 30.8978 88.6578 28.5941V12.2778H84.143L84.1418 14.2397ZM83.2785 22.7443C82.994 23.3569 82.5405 23.8755 81.9713 24.2392C81.4151 24.5868 80.743 24.7653 79.9758 24.7653C78.8634 24.7653 78 24.3864 77.3337 23.6088C76.6685 22.8335 76.3313 21.7697 76.3313 20.4463C76.3313 19.123 76.6674 18.0592 77.3326 17.2839C77.9919 16.5168 78.8808 16.1274 79.9747 16.1274C81.0698 16.1274 82.0362 16.5214 82.7165 17.3013C83.4025 18.0881 83.7501 19.1566 83.7501 20.4765C83.7501 21.3328 83.5914 22.0942 83.2785 22.7431V22.7443ZM119.361 16.4136V12.2789H115.818V6.44655H110.943V12.2789H107.917V16.4136H110.943V23.1812C110.943 26.9439 111.685 29.7088 116.304 29.6231L119.204 29.5652V25.6912H117.765C115.712 25.6912 115.826 24.4941 115.826 22.2703L115.818 16.4148L119.361 16.4136ZM70.2313 16.4136V12.2789H66.6887V6.44655H61.8135V12.2789H58.7867V16.4136H61.8112V23.1812C61.8112 26.9439 62.5529 29.7088 67.1731 29.6231L70.0725 29.5652V25.6912H68.6367C66.5833 25.6912 66.6968 24.4941 66.6968 22.2703L66.6887 16.4148L70.2313 16.4136ZM12.2366 10.6137H19.5986L27.1299 18.0962C27.62 18.5829 27.6224 19.3756 27.1345 19.8646L17.4757 29.5721H9.89347L12.1868 27.3425L20.6045 18.9781L12.2934 10.6125" fill="#A0A0A4"/>
<path d="M15.2612 18.9584H7.90144L0.369068 11.4759C0.252506 11.3601 0.159911 11.2226 0.0965822 11.071C0.0332536 10.9194 0.000434838 10.7569 4.29195e-06 10.5926C-0.000426254 10.4284 0.0315399 10.2657 0.094073 10.1138C0.156606 9.96189 0.248479 9.82383 0.364432 9.70749L10.0233 0H17.6066L15.3145 2.22958L6.89558 10.594L15.2078 18.9584" fill="#A0A0A4"/>
</svg>
