<svg width="26" height="26" viewBox="0 0 26 26" fill="none" xmlns="http://www.w3.org/2000/svg">
<g clip-path="url(#clip0_69_4004)">
<path d="M25.6136 16.1376C23.8789 23.0976 16.8295 27.3476 9.8567 25.6119C2.89665 23.8719 -1.34656 16.8225 0.388142 9.86245C2.12284 2.90242 9.16793 -1.34762 16.1237 0.388129C23.1008 2.10261 27.344 9.17326 25.6136 16.1376Z" fill="#F0B90B"/>
<path d="M17.7617 12.364L17.7518 10.2001H17.7596L15.9443 9.11816L12.8337 10.9751L9.74189 9.11816L7.92773 10.2001V12.364L11.0383 14.212V17.9171L12.8448 18.9889L14.6511 17.9171V14.212L17.7617 12.364Z" fill="white"/>
<path d="M12.8349 3.57495L7.92676 6.50492L9.73315 7.58688L12.8349 5.72986L15.9455 7.58688L17.7519 6.50492L12.8349 3.57495Z" fill="white"/>
<path d="M6.63071 16.826L6.62076 13.1299L4.81543 12.0491V17.918L9.73245 20.8379V18.674L6.63071 16.826Z" fill="white"/>
<path d="M6.62088 11.5877V9.4339L8.43612 8.35198L6.62088 7.27002L4.81445 8.35198V10.5058L6.62088 11.5877Z" fill="white"/>
<path d="M12.8338 7.27002L11.0273 8.35198L12.8338 9.4339L14.649 8.35198L12.8338 7.27002Z" fill="white"/>
<path d="M9.73315 14.978L7.92676 13.896V16.0599L9.73315 17.1318V14.978Z" fill="white"/>
<path d="M12.8347 20.5312L11.0283 19.4492V21.603L12.8347 22.685L14.65 21.603V19.4492L12.8347 20.5312Z" fill="white"/>
<path d="M19.0466 7.27002L17.2402 8.35198L19.0466 9.43393V11.5877L20.8619 10.5058V8.35198L19.0466 7.27002Z" fill="white"/>
<path d="M20.8633 12.0479L19.0569 13.1298L19.0469 16.8259L15.9463 18.6728V20.8367L20.8633 17.9168V12.0479Z" fill="white"/>
<path d="M17.7517 16.0599L15.9453 17.1318V14.978L17.7517 13.896V16.0599Z" fill="white"/>
</g>
<rect x="0.75" y="0.75" width="24.5" height="24.5" rx="12.25" stroke="#EDEFF2" stroke-width="1.5"/>
<defs>
<clipPath id="clip0_69_4004">
<rect width="26" height="26" rx="13" fill="white"/>
</clipPath>
</defs>
</svg>
