<svg width="26" height="26" viewBox="0 0 26 26" fill="none" xmlns="http://www.w3.org/2000/svg">
<g clip-path="url(#clip0_69_3997)">
<path d="M25.6136 16.1376C23.8789 23.0976 16.8295 27.3476 9.8567 25.6119C2.89665 23.8719 -1.34656 16.8225 0.388142 9.86245C2.12284 2.90242 9.16793 -1.34762 16.1237 0.388129C23.1008 2.10261 27.344 9.17326 25.6136 16.1376Z" fill="#F7931A"/>
<path d="M19.1559 11.2924C19.3896 9.55908 18.0726 8.65418 16.267 8.0424L16.8278 5.6973L15.4004 5.35319L14.8566 7.6473C14.4785 7.55809 14.0961 7.46888 13.718 7.3924L14.2618 5.09829L12.8174 4.75415L12.2566 7.09925C11.9507 7.02704 11.6406 6.97182 11.3347 6.89957L9.36767 6.42803L9.00657 7.94468C9.00657 7.94468 10.0729 8.17835 10.0347 8.19961C10.6125 8.34404 10.7229 8.72214 10.7017 9.01103L10.0687 11.6832C10.1069 11.7002 10.1579 11.7002 10.2131 11.7385C10.1579 11.7215 10.1239 11.7215 10.0687 11.7045L9.20199 15.4431C9.12977 15.6215 8.94709 15.8764 8.55199 15.7872C8.56899 15.8042 7.50266 15.5323 7.50266 15.5323L6.82715 17.1764L8.68794 17.6098C9.03205 17.699 9.37619 17.7712 9.69904 17.8647L9.13826 20.231L10.5657 20.5751L11.1265 18.23C11.5259 18.3362 11.904 18.4297 12.2651 18.5189L11.7043 20.847L13.1317 21.1911L13.6925 18.8248C16.1311 19.2581 17.9536 19.0584 18.6928 16.8365C19.2876 15.065 18.6376 14.0539 17.3376 13.3869C18.2892 13.1702 18.9775 12.5542 19.1559 11.2924ZM15.9441 15.8934C15.5278 17.665 12.5327 16.7431 11.5726 16.5094L12.3118 13.3656C13.2889 13.6035 16.3775 14.0369 15.9441 15.8934ZM16.3392 11.2924C15.9611 12.8983 13.4674 12.1251 12.6559 11.9254L13.3441 9.07477C14.1386 9.27019 16.7386 9.6143 16.3392 11.2924Z" fill="white"/>
</g>
<rect x="0.75" y="0.75" width="24.5" height="24.5" rx="12.25" stroke="#EDEFF2" stroke-width="1.5"/>
<defs>
<clipPath id="clip0_69_3997">
<rect width="26" height="26" rx="13" fill="white"/>
</clipPath>
</defs>
</svg>
