<svg width="104" height="36" viewBox="0 0 104 36" fill="none" xmlns="http://www.w3.org/2000/svg">
<path d="M11.5174 36H0V8.44173H11.052C16.4237 8.44173 19.5546 11.461 19.5546 16.1823C19.5546 19.2421 17.5466 21.2127 16.1557 21.8714C17.8198 22.6464 19.9442 24.3891 19.9442 28.0668C19.9442 33.2138 16.4237 36 11.5174 36ZM10.6271 13.2391H5.37174V19.5917H10.6271C12.9083 19.5917 14.183 18.3151 14.183 16.4154C14.183 14.5207 12.9083 13.2391 10.6271 13.2391ZM10.9761 24.4296H5.37174V31.2026H10.9761C13.4091 31.2026 14.5725 29.6524 14.5725 27.7983C14.5725 25.9391 13.4091 24.4296 10.9761 24.4296Z" fill="#A0A0A4"/>
<path d="M36.3274 24.6979V36H30.9963V24.6979L22.7263 8.44173H28.5632L33.7023 19.5511L38.7654 8.44173H44.5976L36.3274 24.6979Z" fill="#A0A0A4"/>
<path d="M59.8277 36H48.3103V8.44173H59.3625C64.7341 8.44173 67.8652 11.461 67.8652 16.1823C67.8652 19.2421 65.857 21.2127 64.4661 21.8714C66.1302 22.6464 68.2545 24.3891 68.2545 28.0668C68.2545 33.2138 64.7341 36 59.8277 36ZM58.9375 13.2391H53.6822V19.5917H58.9375C61.2187 19.5917 62.4933 18.3151 62.4933 16.4154C62.4933 14.5207 61.2187 13.2391 58.9375 13.2391ZM59.2866 24.4296H53.6822V31.2026H59.2866C61.7195 31.2026 62.8829 29.6524 62.8829 27.7983C62.8777 25.9391 61.7195 24.4296 59.2866 24.4296Z" fill="#A0A0A4"/>
<path d="M79.4984 0H74.1268V27.5582H79.4984V0Z" fill="#A0A0A4"/>
<path d="M96.8124 13.2391V36H91.4407V13.2391H84.2531V8.44173H104V13.2391H96.8124Z" fill="#A0A0A4"/>
</svg>
