<svg width="24" height="24" viewBox="0 0 24 24" fill="none" xmlns="http://www.w3.org/2000/svg">
<rect width="24" height="24" rx="11.4286" fill="#3FC7C8"/>
<path d="M6.75 13.02C6.55109 13.02 6.36032 12.941 6.21967 12.8003C6.07902 12.6597 6 12.4689 6 12.27V11.484C6 11.2851 6.07902 11.0943 6.21967 10.9537C6.36032 10.813 6.55109 10.734 6.75 10.734H10.1955C10.3944 10.734 10.5852 10.655 10.7258 10.5143C10.8665 10.3737 10.9455 10.1829 10.9455 9.984V6.75C10.9455 6.55109 11.0245 6.36032 11.1652 6.21967C11.3058 6.07902 11.4966 6 11.6955 6H12.48C12.6789 6 12.8697 6.07902 13.0103 6.21967C13.151 6.36032 13.23 6.55109 13.23 6.75V9.984C13.23 10.1829 13.309 10.3737 13.4497 10.5143C13.5903 10.655 13.7811 10.734 13.98 10.734H17.4375C17.6364 10.734 17.8272 10.813 17.9678 10.9537C18.1085 11.0943 18.1875 11.2851 18.1875 11.484V12.27C18.1875 12.4689 18.1085 12.6597 17.9678 12.8003C17.8272 12.941 17.6364 13.02 17.4375 13.02H13.98C13.7811 13.02 13.5903 13.099 13.4497 13.2397C13.309 13.3803 13.23 13.5711 13.23 13.77V17.004C13.23 17.2029 13.151 17.3937 13.0103 17.5343C12.8697 17.675 12.6789 17.754 12.48 17.754H11.6955C11.4966 17.754 11.3058 17.675 11.1652 17.5343C11.0245 17.3937 10.9455 17.2029 10.9455 17.004V13.77C10.9455 13.5711 10.8665 13.3803 10.7258 13.2397C10.5852 13.099 10.3944 13.02 10.1955 13.02H6.75Z" fill="white"/>
</svg>
