<svg width="50" height="30" viewBox="0 0 50 30" fill="none" xmlns="http://www.w3.org/2000/svg">
<rect width="50" height="30" rx="15" fill="#F3F4F6"/>
<g clip-path="url(#clip0_0_218)">
<path d="M45.6136 18.1376C43.8789 25.0976 36.8295 29.3476 29.8567 27.6119C22.8967 25.8719 18.6534 18.8225 20.3881 11.8625C22.1228 4.90242 29.1679 0.652376 36.1237 2.38813C43.1008 4.10261 47.344 11.1733 45.6136 18.1376Z" fill="#F6F8FC"/>
<path fill-rule="evenodd" clip-rule="evenodd" d="M28.1283 9.54004H37.7424C37.9718 9.54004 38.1837 9.66039 38.2981 9.85565L41.0991 14.6362C41.2443 14.8841 41.2012 15.1971 40.994 15.3981L33.2842 22.8791C33.0345 23.1214 32.6327 23.1214 32.383 22.8791L24.6837 15.4082C24.4717 15.2025 24.432 14.8804 24.5879 14.631L27.5819 9.84031C27.6985 9.65376 27.9054 9.54004 28.1283 9.54004ZM36.501 11.6744V13.0158H33.7624V13.9457C35.6858 14.0451 37.1289 14.4533 37.1396 14.9426L37.1396 15.9625C37.1288 16.4518 35.6858 16.86 33.7624 16.9593V19.2417H31.9439V16.9593C30.0204 16.86 28.5773 16.4518 28.5666 15.9625L28.5667 14.9426C28.5774 14.4533 30.0204 14.0451 31.9439 13.9457V13.0158H29.2052V11.6744H36.501ZM32.8531 16.2586C34.9058 16.2586 36.6215 15.9135 37.0413 15.4525C36.6853 15.0617 35.3974 14.7541 33.7624 14.6696V15.6433C33.4693 15.6584 33.1651 15.6664 32.8531 15.6664C32.5411 15.6664 32.2369 15.6584 31.9439 15.6433V14.6696C30.3088 14.7541 29.021 15.0617 28.6649 15.4525C29.0848 15.9135 30.8004 16.2586 32.8531 16.2586Z" fill="#009393"/>
</g>
<rect x="20.75" y="2.75" width="24.5" height="24.5" rx="12.25" stroke="#EDEFF2" stroke-width="1.5"/>
<g clip-path="url(#clip1_0_218)">
<path d="M29.6136 18.1376C27.8789 25.0976 20.8295 29.3476 13.8567 27.6119C6.89665 25.8719 2.65344 18.8225 4.38814 11.8625C6.12284 4.90242 13.1679 0.652376 20.1237 2.38813C27.1008 4.10261 31.344 11.1733 29.6136 18.1376Z" fill="#F7931A"/>
<path d="M23.1559 13.2923C23.3896 11.559 22.0726 10.6541 20.267 10.0423L20.8278 7.69724L19.4004 7.35313L18.8566 9.64724C18.4785 9.55803 18.0961 9.46881 17.718 9.39234L18.2618 7.09823L16.8174 6.75409L16.2566 9.09919C15.9507 9.02698 15.6406 8.97176 15.3347 8.89951L13.3677 8.42797L13.0066 9.94461C13.0066 9.94461 14.0729 10.1783 14.0347 10.1995C14.6125 10.344 14.7229 10.7221 14.7017 11.011L14.0687 13.6832C14.1069 13.7002 14.1579 13.7002 14.2131 13.7384C14.1579 13.7214 14.1239 13.7214 14.0687 13.7044L13.202 17.443C13.1298 17.6214 12.9471 17.8763 12.552 17.7871C12.569 17.8041 11.5027 17.5322 11.5027 17.5322L10.8271 19.1763L12.6879 19.6097C13.032 19.6989 13.3762 19.7711 13.699 19.8646L13.1383 22.2309L14.5657 22.5751L15.1265 20.23C15.5259 20.3362 15.904 20.4296 16.2651 20.5188L15.7043 22.847L17.1317 23.1911L17.6925 20.8247C20.1311 21.2581 21.9536 21.0584 22.6928 18.8365C23.2876 17.0649 22.6376 16.0538 21.3376 15.3868C22.2892 15.1701 22.9775 14.5541 23.1559 13.2923ZM19.9441 17.8933C19.5278 19.6649 16.5327 18.743 15.5726 18.5093L16.3118 15.3656C17.2889 15.6034 20.3775 16.0368 19.9441 17.8933ZM20.3392 13.2923C19.9611 14.8982 17.4674 14.125 16.6559 13.9253L17.3441 11.0747C18.1386 11.2701 20.7386 11.6142 20.3392 13.2923Z" fill="white"/>
</g>
<rect x="4.75" y="2.75" width="24.5" height="24.5" rx="12.25" stroke="#EDEFF2" stroke-width="1.5"/>
<defs>
<clipPath id="clip0_0_218">
<rect x="20" y="2" width="26" height="26" rx="13" fill="white"/>
</clipPath>
<clipPath id="clip1_0_218">
<rect x="4" y="2" width="26" height="26" rx="13" fill="white"/>
</clipPath>
</defs>
</svg>
