<svg width="24" height="24" viewBox="0 0 24 24" fill="none" xmlns="http://www.w3.org/2000/svg">
<path fill-rule="evenodd" clip-rule="evenodd" d="M8.57613 9.24238C8.34181 9.4767 8.34181 9.8566 8.57613 10.0909C8.81045 10.3252 9.19034 10.3252 9.42466 10.0909L12.0004 7.51517L14.5761 10.0909C14.8105 10.3252 15.1903 10.3252 15.4247 10.0909C15.6589 9.8566 15.6589 9.4767 15.4247 9.24238L12.4247 6.24238C12.3121 6.12986 12.1595 6.06665 12.0004 6.06665C11.8413 6.06665 11.6887 6.12986 11.5761 6.24238L8.57613 9.24238ZM15.4247 14.7576C15.6589 14.5233 15.6589 14.1434 15.4247 13.9091C15.1903 13.6747 14.8105 13.6747 14.5761 13.9091L12.0004 16.4848L9.42466 13.9091C9.19034 13.6747 8.81045 13.6747 8.57613 13.9091C8.34181 14.1434 8.34181 14.5233 8.57613 14.7576L11.5761 17.7576C11.8105 17.9919 12.1903 17.9919 12.4247 17.7576L15.4247 14.7576Z" fill="#686E7E"/>
</svg>
