<svg width="48" height="28" viewBox="0 0 48 28" fill="none" xmlns="http://www.w3.org/2000/svg">
<path d="M24.6667 9.33333H30M24.6667 12H28M24.6667 16H30M24.6667 18.6667H28M18 9.33333C18 9.15652 18.0702 8.98695 18.1953 8.86193C18.3203 8.7369 18.4899 8.66666 18.6667 8.66666H21.3333C21.5101 8.66666 21.6797 8.7369 21.8047 8.86193C21.9298 8.98695 22 9.15652 22 9.33333V12C22 12.1768 21.9298 12.3464 21.8047 12.4714C21.6797 12.5964 21.5101 12.6667 21.3333 12.6667H18.6667C18.4899 12.6667 18.3203 12.5964 18.1953 12.4714C18.0702 12.3464 18 12.1768 18 12V9.33333ZM18 16C18 15.8232 18.0702 15.6536 18.1953 15.5286C18.3203 15.4036 18.4899 15.3333 18.6667 15.3333H21.3333C21.5101 15.3333 21.6797 15.4036 21.8047 15.5286C21.9298 15.6536 22 15.8232 22 16V18.6667C22 18.8435 21.9298 19.013 21.8047 19.1381C21.6797 19.2631 21.5101 19.3333 21.3333 19.3333H18.6667C18.4899 19.3333 18.3203 19.2631 18.1953 19.1381C18.0702 19.013 18 18.8435 18 18.6667V16Z" stroke="#686E7E" stroke-width="1.5" stroke-linecap="round" stroke-linejoin="round"/>
</svg>
