<svg width="26" height="26" viewBox="0 0 26 26" fill="none" xmlns="http://www.w3.org/2000/svg">
<rect x="0.75" y="0.75" width="24.5" height="24.5" rx="12.25" fill="#F3F4F6"/>
<rect x="0.75" y="0.75" width="24.5" height="24.5" rx="12.25" stroke="#EDEFF2" stroke-width="1.5"/>
<path d="M20.7899 18.1164C20.5724 20.8137 17.5269 23.0852 12.9588 22.9716C8.66256 22.858 5.64432 20.9841 5.42679 18.2867C5.3996 17.946 5.42679 17.6053 5.45398 17.2362C5.58994 16.1856 5.94343 15.1919 6.46006 14.2833L6.78636 14.4252C7.62929 14.0845 8.49941 13.829 9.39672 13.6586C10.5659 13.4883 11.7624 13.4599 12.9316 13.545C14.1008 13.4599 15.2972 13.4883 16.4665 13.6586C17.3638 13.829 18.2339 14.0845 19.0768 14.4252L19.4031 14.2833L19.6207 14.1697C20.1373 15.0783 20.4908 16.0721 20.6811 17.1226C20.7355 17.4349 20.7627 17.7756 20.7355 18.088" fill="#F4A427"/>
<path d="M20.7899 18.1163C20.5724 20.7853 17.5541 22.9716 12.9588 22.9432C8.66256 22.8296 5.64432 20.9556 5.42679 18.2583C5.3996 17.9176 5.42679 17.5768 5.45398 17.2077C5.91623 17.0942 6.37849 17.0942 6.84074 17.1793C7.71086 17.3213 8.2003 17.8892 8.8257 18.1731C9.17919 18.3435 9.53268 18.0595 9.85897 17.7472C10.7291 16.867 11.8983 16.3559 13.0947 16.3275C14.3183 16.2991 15.3244 16.8102 16.3849 17.8324C16.6024 18.0595 16.9015 18.2015 17.2006 18.1731C17.4725 18.0879 17.7445 17.946 17.962 17.7472C18.7777 17.1793 19.7566 16.9522 20.7083 17.0942C20.7899 17.4633 20.8171 17.7756 20.7899 18.1163Z" fill="white"/>
<path d="M8.14664 11.4723C7.84753 11.7846 7.46685 12.0118 7.05898 12.097L6.89584 12.1254C6.73269 12.1821 6.56954 12.2105 6.3792 12.2105C6.35201 12.2105 6.29763 12.2105 6.27044 12.2105C6.18886 12.1821 6.0801 12.1538 5.99852 12.1254C5.69942 11.9834 5.42751 11.813 5.18278 11.5859C4.69334 11.16 4.23109 10.6773 3.8776 10.1094C2.38208 7.83797 2.84433 4.7715 4.91087 3.0679C5.04683 2.98272 5.20997 2.98272 5.31874 3.12468C5.37312 3.20986 5.40031 3.29504 5.37312 3.38022C5.18278 4.28881 5.01964 5.70847 5.83538 6.92939C6.54235 7.95154 8.01068 8.94531 8.90799 8.94531C9.09833 10.081 8.79923 10.8477 8.14664 11.4723Z" fill="#F79422"/>
<path d="M8.14664 11.4723C7.84753 11.7846 7.46685 12.0118 7.05898 12.097L6.89584 12.1254C6.73269 12.1821 6.56954 12.2105 6.3792 12.2105C6.35201 12.2105 6.29763 12.2105 6.27044 12.2105C6.18886 12.1821 6.0801 12.1538 5.99852 12.1254C5.69942 11.9834 5.42751 11.813 5.18278 11.5859C4.69334 11.16 4.23109 10.6773 3.8776 10.1094C2.38208 7.83797 2.84433 4.7715 4.91087 3.0679C5.04683 2.98272 5.20997 2.98272 5.31874 3.12468C5.37312 3.20986 5.40031 3.29504 5.37312 3.38022C5.18278 4.28881 5.01964 5.70847 5.83537 6.92939C6.54235 7.95154 8.01068 8.94531 8.90799 8.94531C9.09833 10.081 8.79923 10.8477 8.14664 11.4723Z" stroke="#221F1F" stroke-width="0.250093" stroke-linejoin="round"/>
<path d="M12.0625 7.55396L11.709 11.1883H11.6819C11.138 11.2735 10.4039 11.3871 9.39778 11.5574C8.47328 11.6994 7.22248 12.3808 6.48831 12.8351L6.40674 12.2388C6.56989 12.2105 6.76023 12.1821 6.92337 12.1537L7.08652 12.1253C7.49439 12.0401 7.87507 11.8129 8.17417 11.5006C8.79957 10.8476 9.12587 10.1094 8.90834 8.94523L9.0171 8.97362C9.3434 8.60451 9.72408 8.32057 10.1591 8.09343C10.7302 7.75271 11.3827 7.58235 12.0625 7.55396Z" fill="#5A595C"/>
<path d="M12.0625 7.55396L11.709 11.1883H11.6819C11.138 11.2735 10.4039 11.3871 9.39778 11.5574C8.47328 11.6994 7.22248 12.3808 6.48831 12.8351L6.40674 12.2388C6.56989 12.2105 6.76023 12.1821 6.92337 12.1537L7.08652 12.1253C7.49439 12.0401 7.87507 11.8129 8.17417 11.5006C8.79957 10.8476 9.12587 10.1094 8.90834 8.94523L9.0171 8.97362C9.3434 8.60451 9.72408 8.32057 10.1591 8.09343C10.7302 7.75271 11.3827 7.58235 12.0625 7.55396Z" stroke="#221F1F" stroke-width="0.250093" stroke-linejoin="round"/>
<path d="M20.002 14.0845L19.7845 14.1981L19.5669 14.3116L19.2406 14.4536C18.3977 14.1129 17.5276 13.8573 16.6303 13.687C15.4611 13.4598 14.2918 13.3463 13.0954 13.3463C11.899 13.3463 10.7298 13.4314 9.56054 13.687C8.66322 13.8573 7.7931 14.1129 6.95017 14.4536C6.8414 14.3968 6.73264 14.34 6.62387 14.3116L6.16162 14.0845C6.18881 13.687 6.16162 13.4598 6.16162 13.0623C6.2432 13.0055 6.37915 12.9204 6.51511 12.8352L6.5423 12.8068C7.24927 12.3525 8.50007 11.6995 9.42458 11.5291C10.4307 11.3587 11.1376 11.2452 11.7086 11.16C12.0621 11.1316 12.4428 11.1316 12.8235 11.1316C13.3945 11.1316 13.9111 11.1316 14.4278 11.16C14.9716 11.2452 15.7058 11.3587 16.739 11.5291C17.6907 11.6711 18.9415 12.3525 19.6757 12.8068H19.7029C19.8389 12.892 19.9476 12.9488 20.0292 13.0339C20.002 13.4598 19.9748 13.687 20.002 14.0845Z" fill="#929497"/>
<path d="M20.002 14.0845L19.7845 14.1981L19.5669 14.3116L19.2406 14.4536C18.3977 14.1129 17.5276 13.8573 16.6303 13.687C15.4611 13.4882 14.2918 13.3747 13.0954 13.3747C11.899 13.3747 10.7298 13.4598 9.56054 13.687C8.66322 13.8573 7.7931 14.1129 6.95017 14.4536C6.8414 14.3968 6.73264 14.34 6.62387 14.3116L6.16162 14.0845C6.18881 13.687 6.16162 13.4598 6.16162 13.0623C6.2432 13.0055 6.37915 12.9204 6.51511 12.8352L6.5423 12.8068C7.24927 12.3525 8.50007 11.6995 9.42458 11.5291C10.4307 11.3587 11.1376 11.2452 11.7086 11.16C12.0621 11.1316 12.4428 11.1316 12.8235 11.1316C13.3945 11.1316 13.9111 11.1316 14.4278 11.16C14.9716 11.2452 15.7058 11.3587 16.739 11.5291C17.6907 11.6711 18.9415 12.3525 19.6757 12.8068H19.7029C19.8389 12.892 19.9476 12.9488 20.0292 13.0339C20.002 13.4598 19.9748 13.687 20.002 14.0845Z" stroke="#221F1F" stroke-width="0.250093" stroke-linecap="round" stroke-linejoin="round"/>
<path d="M14.4008 11.1884C13.9113 11.16 13.3675 11.1316 12.7965 11.16C12.4158 11.16 12.0351 11.1884 11.6816 11.1884H11.7088L12.0623 7.55407L12.1439 6.81584C12.4158 6.64548 12.7421 6.5603 13.0412 6.5603H13.0956C13.4219 6.5603 13.721 6.64548 13.9929 6.81584L14.0745 7.55407V7.58246L14.4008 11.1884Z" fill="#929497"/>
<path d="M14.4008 11.1884C13.9113 11.16 13.3675 11.1316 12.7965 11.16C12.4158 11.16 12.0351 11.1884 11.6816 11.1884H11.7088L12.0623 7.55407L12.1439 6.81584C12.4158 6.64548 12.7421 6.5603 13.0412 6.5603H13.0956C13.4219 6.5603 13.721 6.64548 13.9929 6.81584L14.0745 7.55407V7.58246L14.4008 11.1884Z" stroke="#221F1F" stroke-width="0.250093" stroke-linecap="round" stroke-linejoin="round"/>
<ellipse cx="19.7839" cy="14.198" rx="0.135957" ry="0.141859" fill="#221F1F"/>
<path d="M20.79 18.1447C20.5725 20.842 17.2824 22.9999 12.9589 22.9999C8.66271 22.8863 5.64447 21.0124 5.45413 18.315C5.42694 17.9743 5.45413 17.6336 5.48133 17.2645C5.61728 16.2139 5.97077 15.2201 6.4874 14.3116L6.8137 14.4535C7.65663 14.1128 8.52675 13.8573 9.42407 13.6869C10.5933 13.4598 11.7625 13.3746 12.9589 13.3462C14.1554 13.3462 15.3246 13.4598 16.4938 13.6869C17.3911 13.8573 18.2612 14.1128 19.1042 14.4535L19.4577 14.3116L19.6752 14.198C20.1918 15.1066 20.5453 16.1003 20.7357 17.1509C20.8172 17.4916 20.8172 17.8323 20.79 18.1447Z" stroke="#221F1F" stroke-width="0.250093" stroke-linecap="round" stroke-linejoin="round"/>
<path d="M22.1223 10.1095C21.7416 10.6489 21.3066 11.16 20.7899 11.5859C20.5452 11.8131 20.2733 11.9834 19.9742 12.1254L19.8383 12.1822L19.7567 12.2106C19.5663 12.2674 19.4576 12.2106 19.1041 12.1538L18.9409 12.1254C18.5331 12.0402 18.1524 11.8131 17.8533 11.5007C17.2279 10.8477 16.9016 10.1095 17.1191 8.94534C17.9892 8.97373 19.4848 7.97997 20.1917 6.92941C20.9803 5.7085 20.8171 4.28884 20.6268 3.38025C20.5996 3.20989 20.6812 3.06793 20.8443 3.01114C20.9259 2.98275 21.0347 3.01114 21.0891 3.06793C23.1556 4.77152 23.6178 7.86639 22.1223 10.1095Z" fill="#F79422"/>
<path d="M22.1223 10.1095C21.7416 10.6489 21.3066 11.16 20.7899 11.5859C20.5452 11.8131 20.2733 11.9834 19.9742 12.1254L19.8383 12.1822L19.7567 12.2106C19.5663 12.2674 19.4576 12.2106 19.1041 12.1538L18.9409 12.1254C18.5331 12.0402 18.1524 11.8131 17.8533 11.5007C17.2279 10.8477 16.9016 10.1095 17.1191 8.94534C17.9892 8.97373 19.4848 7.97997 20.1917 6.92941C20.9803 5.7085 20.8171 4.28884 20.6268 3.38025C20.5996 3.20989 20.6812 3.06793 20.8443 3.01114C20.9259 2.98275 21.0347 3.01114 21.0891 3.06793C23.1556 4.77152 23.6178 7.86639 22.1223 10.1095Z" stroke="#221F1F" stroke-width="0.250093" stroke-linejoin="round"/>
<path d="M19.7566 12.2105L19.6478 12.8351C18.9136 12.3808 17.6628 11.6994 16.7111 11.5574C15.6779 11.3871 14.9709 11.2735 14.3999 11.1883L14.0464 7.55396C14.6718 7.58235 15.2972 7.7811 15.8682 8.09343C16.3033 8.32057 16.6839 8.6329 17.0102 8.97362L17.119 8.94523C16.9015 10.081 17.2278 10.8476 17.8532 11.5006C18.1523 11.8129 18.533 12.0401 18.9408 12.1253C18.968 12.1253 19.0768 12.1821 19.104 12.1821C19.3215 12.2672 19.539 12.2672 19.7566 12.2105Z" fill="#5A595C"/>
<path d="M19.7566 12.2105L19.6478 12.8351C18.9136 12.3808 17.6628 11.6994 16.7111 11.5574C15.6779 11.3871 14.9709 11.2735 14.3999 11.1883L14.0464 7.55396C14.6718 7.58235 15.2972 7.7811 15.8682 8.09343C16.3033 8.32057 16.6839 8.6329 17.0102 8.97362L17.119 8.94523C16.9015 10.081 17.2278 10.8476 17.8532 11.5006C18.1523 11.8129 18.533 12.0401 18.9408 12.1253L19.104 12.1537C19.4575 12.2105 19.5662 12.2672 19.7566 12.2105Z" stroke="#221F1F" stroke-width="0.250093" stroke-linejoin="round"/>
<path d="M14.0459 7.55396H13.9375" stroke="#221F1F" stroke-width="0.250093" stroke-linejoin="round"/>
<path d="M19.7839 12.0686C19.9742 12.2956 19.9199 12.636 19.7023 12.8346C19.6751 12.863 19.6751 12.863 19.6479 12.8914" fill="#F79422"/>
<path d="M19.7839 12.0686C19.9742 12.2956 19.9199 12.636 19.7023 12.8346C19.6751 12.863 19.6751 12.863 19.6479 12.8914" stroke="#221F1F" stroke-width="0.250093" stroke-miterlimit="10"/>
<path d="M6.37906 12.0686C6.18872 12.2956 6.24311 12.636 6.46064 12.8346C6.48783 12.863 6.48783 12.863 6.51502 12.8914" fill="#F79422"/>
<path d="M6.37906 12.0686C6.18872 12.2956 6.24311 12.636 6.46064 12.8346C6.48783 12.863 6.48783 12.863 6.51502 12.8914" stroke="#221F1F" stroke-width="0.250093" stroke-miterlimit="10"/>
<path d="M12.0615 19.223C12.2519 19.2797 12.4694 19.2514 12.6597 19.1379C12.9588 19.0244 13.1492 18.7123 13.122 18.3718C13.0948 18.7123 13.2851 19.0244 13.5842 19.1379C13.7746 19.223 13.9649 19.2514 14.1553 19.223" stroke="#171717" stroke-width="0.250093" stroke-linecap="round" stroke-linejoin="round"/>
<path d="M14.1826 17.4064C14.1826 17.7472 13.6932 18.2015 13.095 18.2015C12.4968 18.2015 12.0073 17.7472 12.0073 17.4064C12.0073 17.0657 12.4968 16.9521 13.095 16.9521C13.6932 16.9521 14.1826 17.0941 14.1826 17.4064Z" fill="#171717"/>
<path d="M13.5305 17.293C13.5305 17.3781 13.3129 17.4916 13.0682 17.4916C12.8235 17.4916 12.606 17.3781 12.606 17.3214C12.606 17.2646 12.8235 17.2646 13.0682 17.2646C13.3129 17.2646 13.5305 17.2079 13.5305 17.293Z" fill="white"/>
<path d="M11.3819 18.3718C11.3547 18.769 11.5995 19.1095 11.9801 19.1946H12.0617" stroke="#171717" stroke-width="0.250093" stroke-linecap="round" stroke-linejoin="round"/>
<path d="M13.1221 17.9744C13.1221 18.1162 13.1221 18.2297 13.1221 18.3716" stroke="#171717" stroke-width="0.250093" stroke-linecap="round" stroke-linejoin="round"/>
<path d="M14.1826 19.2232H14.2642C14.6449 19.1381 14.9168 18.7976 14.8624 18.4004" stroke="#171717" stroke-width="0.250093" stroke-linecap="round" stroke-linejoin="round"/>
<path d="M21.0894 3.06787C23.1559 4.77147 23.591 7.83794 22.0954 10.081" stroke="#221F1F" stroke-width="0.250093" stroke-linejoin="round"/>
<path d="M8.14664 11.4723C7.84753 11.7846 7.46685 12.0118 7.05898 12.097L6.89584 12.1254C6.73269 12.1821 6.56954 12.2105 6.3792 12.2105C6.35201 12.2105 6.29763 12.2105 6.27044 12.2105C6.18886 12.1821 6.0801 12.1538 5.99852 12.1254C5.69942 11.9834 5.42751 11.813 5.18278 11.5859C4.69334 11.16 4.23109 10.6773 3.8776 10.1094C2.38208 7.83797 2.84433 4.7715 4.91087 3.0679C5.04683 2.98272 5.20997 2.98272 5.31874 3.12468C5.37312 3.20986 5.40031 3.29504 5.37312 3.38022C5.18278 4.28881 5.01964 5.70847 5.83537 6.92939C6.54235 7.95154 8.01068 8.94531 8.90799 8.94531C9.09833 10.081 8.79923 10.8477 8.14664 11.4723Z" stroke="#221F1F" stroke-width="0.250093" stroke-linejoin="round"/>
<path d="M11.1093 15.561C11.1093 16.1856 10.7558 16.6683 10.3208 16.6683C9.88571 16.6683 9.53223 16.1572 9.53223 15.561C9.53223 15.0215 9.80414 14.5672 10.1576 14.4536L11.0277 15.1351C11.0821 15.277 11.1093 15.419 11.1093 15.561Z" fill="#221F1F"/>
<path d="M10.8109 15.4187C10.8109 15.6457 10.675 15.8159 10.539 15.8159C10.403 15.8159 10.2671 15.6457 10.2671 15.4187C10.2671 15.1917 10.403 15.0215 10.539 15.0215C10.675 15.0215 10.8109 15.1917 10.8109 15.4187Z" fill="white"/>
<path d="M10.1578 16.4127C9.85871 16.6682 9.5868 16.9521 9.34208 17.2645C9.23331 17.4064 9.12455 17.5768 9.04297 17.7755C8.9614 17.9459 8.90701 18.1447 8.87982 18.3434C8.85263 18.4286 8.85263 18.5422 8.85263 18.6273V18.7693V18.9113C8.85263 19.11 8.85263 19.3088 8.85263 19.5359C8.87982 19.7347 8.90701 19.9618 8.93421 20.1606C8.9614 20.2742 8.9614 20.3593 8.98859 20.4729C9.01578 20.5581 9.04297 20.6717 9.09735 20.7568C9.04297 20.6717 9.01578 20.5581 8.9614 20.4729C8.93421 20.3877 8.87982 20.2741 8.85263 20.189C8.79825 19.9902 8.74387 19.7915 8.68948 19.5643C8.66229 19.3656 8.6351 19.1384 8.60791 18.9397V18.7977V18.6273C8.60791 18.5138 8.60791 18.4002 8.60791 18.315C8.6351 18.0879 8.66229 17.8607 8.74387 17.662C8.82544 17.4632 8.90701 17.2645 9.01578 17.0657C9.2605 16.6966 9.50522 16.3559 9.80433 16.0719C9.91309 15.9868 10.049 15.9868 10.1578 16.0719C10.2394 16.1287 10.2666 16.2991 10.1578 16.4127Z" fill="#221F1F"/>
<path d="M9.968 16.3275C9.94081 16.3275 9.94081 16.3275 9.91361 16.3275H9.88642H9.83204L9.69608 16.2991C9.61451 16.2707 9.53294 16.2707 9.45136 16.2707C9.28821 16.2707 9.09788 16.2707 8.93473 16.3275C8.85315 16.3559 8.77158 16.3843 8.69001 16.4127C8.44528 16.5262 8.22775 16.725 8.0918 16.9521C8.17337 16.7534 8.25494 16.583 8.3909 16.4411C8.44528 16.3559 8.52686 16.2991 8.60843 16.2423C8.69001 16.1855 8.77158 16.1287 8.85315 16.0719C9.0163 15.9584 9.20664 15.9016 9.42417 15.8448C9.53294 15.8164 9.61451 15.8164 9.72328 15.8164C9.77766 15.8164 9.83204 15.8164 9.88642 15.8164H9.99519C10.1311 15.8164 10.2399 15.93 10.2671 16.0719C10.2943 16.2139 10.1311 16.3275 9.968 16.3275Z" fill="#221F1F"/>
<path d="M16.6847 15.561C16.6847 16.1856 16.3312 16.6683 15.9233 16.6683C15.5154 16.6683 15.1348 16.1572 15.1348 15.561C15.1348 15.419 15.162 15.277 15.1891 15.1351L16.0593 14.4536C16.4128 14.5672 16.6847 15.0215 16.6847 15.561Z" fill="#221F1F"/>
<path d="M15.4058 15.4187C15.4058 15.6457 15.5417 15.8159 15.6777 15.8159C15.8136 15.8159 15.9496 15.6457 15.9496 15.4187C15.9496 15.1917 15.8136 15.0215 15.6777 15.0215C15.5417 15.0215 15.4058 15.1917 15.4058 15.4187Z" fill="white"/>
<path d="M16.4123 16.0154C16.7114 16.3277 16.9561 16.64 17.1736 17.0091C17.2824 17.1795 17.3912 17.3782 17.4727 17.577C17.5543 17.7758 17.6087 18.0029 17.6359 18.2017C17.6631 18.4288 17.6631 18.6276 17.6359 18.8547C17.6087 19.0535 17.5815 19.2806 17.5543 19.4794C17.5271 19.6781 17.4727 19.8769 17.4183 20.0756C17.3912 20.1608 17.364 20.2744 17.3096 20.3595C17.2824 20.4447 17.228 20.5583 17.1736 20.6435C17.2008 20.5583 17.2552 20.4447 17.2824 20.3595C17.3096 20.2744 17.3368 20.1608 17.364 20.0756C17.3912 19.8769 17.4455 19.6781 17.4455 19.4794C17.4727 19.2806 17.4727 19.0818 17.4727 18.8547C17.4727 18.6559 17.4455 18.4572 17.4183 18.2584C17.364 18.0597 17.3096 17.8893 17.228 17.719C17.1464 17.5486 17.0377 17.3782 16.9017 17.2363C16.657 16.924 16.3851 16.64 16.086 16.3845C15.9772 16.2709 15.9772 16.1289 16.086 16.0154C16.1675 15.9302 16.3035 15.9018 16.4123 15.987V16.0154Z" fill="#221F1F"/>
<path d="M16.2494 15.8166H16.3854C16.4397 15.8166 16.4941 15.8166 16.5485 15.8166C16.6573 15.8166 16.766 15.8166 16.8748 15.8449C17.0923 15.8733 17.2827 15.9301 17.473 16.0153C17.6634 16.1005 17.8265 16.2425 17.9896 16.3844C18.1256 16.5264 18.2344 16.7251 18.3159 16.8955C18.2072 16.7251 18.0712 16.5832 17.9081 16.4696C17.7449 16.356 17.5818 16.2708 17.3914 16.2425C17.2011 16.2141 17.0108 16.2141 16.8204 16.2141C16.7388 16.2141 16.6301 16.2425 16.5485 16.2425L16.4126 16.2708H16.3582H16.331H16.3038H16.2766C16.1406 16.2992 16.0047 16.1857 16.0047 16.0437C15.9775 15.9017 16.0863 15.7598 16.2222 15.7598C16.2494 15.7598 16.2494 15.7598 16.2766 15.7598" fill="#221F1F"/>
</svg>
