<svg width="1272" height="110" viewBox="0 0 1272 110" fill="none" xmlns="http://www.w3.org/2000/svg">
<path d="M26.8078 91.2311V14.2343H0V0.605957H69.5017V14.2343H42.7559V91.2311H26.8078Z" fill="#F4F4F4"/>
<path d="M63.3011 91.2311V24.6596H78.7529V36.1526H79.0631C81.1109 28.1138 86.5718 23.2779 94.1425 23.2779C96.0662 23.2779 97.8658 23.592 99.0449 23.906V38.0367C97.7417 37.5343 95.3836 37.1575 92.7773 37.1575C84.0275 37.1575 78.7529 42.7469 78.7529 52.6071V91.2311H63.3011Z" fill="#F4F4F4"/>
<path d="M119.838 92.3615C106.683 92.3615 97.8087 84.1343 97.8087 72.2645V72.1389C97.8087 60.3319 106.869 53.2351 122.817 52.2302L140.006 51.1626V46.5779C140.006 39.858 135.662 35.7758 127.843 35.7758C120.521 35.7758 116.053 39.23 115.06 44.1286L114.936 44.6938H100.601L100.663 43.9402C101.594 32.1332 111.709 23.2779 128.402 23.2779C144.846 23.2779 155.458 32.0704 155.458 45.4475V91.2311H140.006V80.9941H139.634C135.848 87.9653 128.526 92.3615 119.838 92.3615ZM113.198 71.6364C113.198 77.1003 117.666 80.4289 124.43 80.4289C133.304 80.4289 140.006 74.4626 140.006 66.5494V61.5251L124.989 62.4672C117.356 62.9696 113.198 66.2982 113.198 71.5736V71.6364Z" fill="#F4F4F4"/>
<path d="M187.297 92.5499C170.666 92.5499 160.117 79.3613 160.117 57.9453V57.8825C160.117 36.4038 170.728 23.2779 187.235 23.2779C196.543 23.2779 204.052 28.1138 207.775 36.0898H208.148V0.605957H223.599V91.2311H208.148V79.9265H207.775C204.052 87.7769 196.792 92.5499 187.297 92.5499ZM191.951 79.3613C201.508 79.3613 208.148 71.0084 208.148 57.9453V57.8825C208.148 44.8823 201.446 36.4666 191.951 36.4666C182.084 36.4666 175.879 44.631 175.879 57.8825V57.9453C175.879 71.1968 182.022 79.3613 191.951 79.3613Z" fill="#F4F4F4"/>
<path d="M260.403 92.5499C240.669 92.5499 228.755 79.2984 228.755 58.1337V58.0709C228.755 37.0947 240.856 23.2779 259.658 23.2779C278.461 23.2779 290.127 36.655 290.127 56.7521V61.7763H244.082C244.331 73.4577 250.66 80.3661 260.713 80.3661C268.408 80.3661 273.435 76.2211 274.924 71.7621L275.048 71.3224H289.507L289.321 72.0133C287.273 82.2502 277.592 92.5499 260.403 92.5499ZM259.844 35.5246C251.653 35.5246 245.51 41.1141 244.269 51.351H275.11C273.993 40.8 268.036 35.5246 259.844 35.5246Z" fill="#F4F4F4"/>
<path d="M341.085 92.5499C323.833 92.5499 313.966 84.2599 312.601 71.8877L312.539 71.3224H327.743L327.867 71.8877C329.046 77.6028 333.328 80.9941 341.147 80.9941C348.655 80.9941 353.185 77.9168 353.185 73.0181V72.9553C353.185 68.9359 350.889 66.675 344.063 65.1049L333.141 62.6556C320.544 59.8294 314.215 53.6119 314.215 43.7518V43.689C314.215 31.5052 324.702 23.2779 340.588 23.2779C356.971 23.2779 366.527 32.3844 367.086 43.8774L367.148 44.5682H352.751L352.689 44.0658C352.006 38.7275 347.786 34.8337 340.588 34.8337C333.762 34.8337 329.48 38.0367 329.48 42.9354V42.9982C329.48 46.8292 332.024 49.3413 338.85 50.9114L349.834 53.3607C363.424 56.4381 368.699 61.8391 368.699 71.5108V71.5736C368.699 84.1343 357.219 92.5499 341.085 92.5499Z" fill="#F4F4F4"/>
<path d="M373.482 91.2311V24.6596H388.934V35.3362H389.244C392.037 28.051 398.801 23.2779 407.488 23.2779C416.673 23.2779 423.312 28.1766 425.733 36.7178H426.105C429.27 28.4278 437.089 23.2779 446.583 23.2779C459.553 23.2779 468.054 32.196 468.054 45.5103V91.2311H452.602V49.4041C452.602 41.1769 448.383 36.4666 440.812 36.4666C433.365 36.4666 428.277 42.0561 428.277 50.0949V91.2311H413.259V48.5877C413.259 41.1141 408.792 36.4666 401.593 36.4666C394.147 36.4666 388.934 42.3701 388.934 50.4717V91.2311H373.482Z" fill="#F4F4F4"/>
<path d="M494.805 92.3615C481.649 92.3615 472.775 84.1343 472.775 72.2645V72.1389C472.775 60.3319 481.835 53.2351 497.783 52.2302L514.973 51.1626V46.5779C514.973 39.858 510.629 35.7758 502.81 35.7758C495.487 35.7758 491.019 39.23 490.027 44.1286L489.902 44.6938H475.568L475.63 43.9402C476.561 32.1332 486.676 23.2779 503.368 23.2779C519.813 23.2779 530.424 32.0704 530.424 45.4475V91.2311H514.973V80.9941H514.6C510.815 87.9653 503.493 92.3615 494.805 92.3615ZM488.165 71.6364C488.165 77.1003 492.633 80.4289 499.397 80.4289C508.271 80.4289 514.973 74.4626 514.973 66.5494V61.5251L499.955 62.4672C492.323 62.9696 488.165 66.2982 488.165 71.5736V71.6364Z" fill="#F4F4F4"/>
<path d="M537.814 91.2311V24.6596H553.266V36.1526H553.576C555.624 28.1138 561.085 23.2779 568.655 23.2779C570.579 23.2779 572.379 23.592 573.558 23.906V38.0367C572.255 37.5343 569.896 37.1575 567.29 37.1575C558.54 37.1575 553.266 42.7469 553.266 52.6071V91.2311H537.814Z" fill="#F4F4F4"/>
<path d="M603.597 92.5499C589.821 92.5499 583.305 86.8976 583.305 73.2065V36.7178H573.997V24.6596H583.305V7.76553H599.005V24.6596H611.23V36.7178H599.005V71.8877C599.005 78.4192 601.86 80.4917 607.507 80.4917C608.996 80.4917 610.175 80.3033 611.23 80.2405V91.9847C609.43 92.2359 606.7 92.5499 603.597 92.5499Z" fill="#F4F4F4"/>
<path d="M644.435 92.5499C624.701 92.5499 612.786 79.2984 612.786 58.1337V58.0709C612.786 37.0947 624.887 23.2779 643.69 23.2779C662.492 23.2779 674.159 36.655 674.159 56.7521V61.7763H628.114C628.362 73.4577 634.692 80.3661 644.745 80.3661C652.44 80.3661 657.466 76.2211 658.955 71.7621L659.079 71.3224H673.538L673.352 72.0133C671.304 82.2502 661.624 92.5499 644.435 92.5499ZM643.876 35.5246C635.685 35.5246 629.541 41.1141 628.3 51.351H659.142C658.025 40.8 652.067 35.5246 643.876 35.5246Z" fill="#F4F4F4"/>
<path d="M679.066 91.2311V24.6596H694.518V36.1526H694.828C696.876 28.1138 702.337 23.2779 709.908 23.2779C711.831 23.2779 713.631 23.592 714.81 23.906V38.0367C713.507 37.5343 711.149 37.1575 708.542 37.1575C699.793 37.1575 694.518 42.7469 694.518 52.6071V91.2311H679.066Z" fill="#F4F4F4"/>
<path d="M707.244 109.758L712.146 76.4723H727.102L718.042 109.758H707.244Z" fill="#F4F4F4"/>
<path d="M748.707 91.2311V24.6596H764.159V35.0849H764.469C767.882 27.9254 774.584 23.2779 784.575 23.2779C799.034 23.2779 807.287 32.6984 807.287 48.148V91.2311H791.835V51.2882C791.835 41.8049 787.491 36.4666 778.679 36.4666C769.806 36.4666 764.159 42.9982 764.159 52.6071V91.2311H748.707Z" fill="#F4F4F4"/>
<path d="M843.718 92.5499C824.357 92.5499 811.884 79.4869 811.884 57.9453V57.8197C811.884 36.4666 824.543 23.2779 843.656 23.2779C862.831 23.2779 875.552 36.341 875.552 57.8197V57.9453C875.552 79.5497 863.017 92.5499 843.718 92.5499ZM843.78 79.9265C853.523 79.9265 859.79 71.8877 859.79 57.9453V57.8197C859.79 43.9402 853.461 35.9642 843.656 35.9642C834.038 35.9642 827.646 44.003 827.646 57.8197V57.9453C827.646 71.9505 833.913 79.9265 843.78 79.9265Z" fill="#F4F4F4"/>
<path d="M904.847 92.5499C891.071 92.5499 884.555 86.8976 884.555 73.2065V36.7178H875.247V24.6596H884.555V7.76553H900.255V24.6596H912.48V36.7178H900.255V71.8877C900.255 78.4192 903.11 80.4917 908.757 80.4917C910.246 80.4917 911.425 80.3033 912.48 80.2405V91.9847C910.681 92.2359 907.95 92.5499 904.847 92.5499Z" fill="#F4F4F4"/>
<path d="M938.801 91.2311V0.605957H954.253V35.8386H954.625C958.039 27.8626 965.051 23.2779 974.918 23.2779C989.066 23.2779 998.126 33.7033 998.126 49.7809V91.2311H982.674V52.8583C982.674 42.6213 977.586 36.4666 968.712 36.4666C959.962 36.4666 954.253 43.1866 954.253 52.8583V91.2311H938.801Z" fill="#F4F4F4"/>
<path d="M1024.94 92.3615C1011.78 92.3615 1002.91 84.1343 1002.91 72.2645V72.1389C1002.91 60.3319 1011.97 53.2351 1027.92 52.2302L1045.11 51.1626V46.5779C1045.11 39.858 1040.76 35.7758 1032.94 35.7758C1025.62 35.7758 1021.15 39.23 1020.16 44.1286L1020.04 44.6938H1005.7L1005.76 43.9402C1006.69 32.1332 1016.81 23.2779 1033.5 23.2779C1049.95 23.2779 1060.56 32.0704 1060.56 45.4475V91.2311H1045.11V80.9941H1044.73C1040.95 87.9653 1033.63 92.3615 1024.94 92.3615ZM1018.3 71.6364C1018.3 77.1003 1022.77 80.4289 1029.53 80.4289C1038.4 80.4289 1045.11 74.4626 1045.11 66.5494V61.5251L1030.09 62.4672C1022.46 62.9696 1018.3 66.2982 1018.3 71.5736V71.6364Z" fill="#F4F4F4"/>
<path d="M1067.95 91.2311V24.6596H1083.4V36.1526H1083.71C1085.76 28.1138 1091.22 23.2779 1098.79 23.2779C1100.71 23.2779 1102.51 23.592 1103.69 23.906V38.0367C1102.39 37.5343 1100.03 37.1575 1097.42 37.1575C1088.67 37.1575 1083.4 42.7469 1083.4 52.6071V91.2311H1067.95Z" fill="#F4F4F4"/>
<path d="M1128.52 92.5499C1111.89 92.5499 1101.34 79.3613 1101.34 57.9453V57.8825C1101.34 36.4038 1111.95 23.2779 1128.46 23.2779C1137.76 23.2779 1145.27 28.1138 1149 36.0898H1149.37V0.605957H1164.82V91.2311H1149.37V79.9265H1149C1145.27 87.7769 1138.01 92.5499 1128.52 92.5499ZM1133.17 79.3613C1142.73 79.3613 1149.37 71.0084 1149.37 57.9453V57.8825C1149.37 44.8823 1142.67 36.4666 1133.17 36.4666C1123.31 36.4666 1117.1 44.631 1117.1 57.8825V57.9453C1117.1 71.1968 1123.24 79.3613 1133.17 79.3613Z" fill="#F4F4F4"/>
<path d="M1201.62 92.5499C1181.89 92.5499 1169.98 79.2984 1169.98 58.1337V58.0709C1169.98 37.0947 1182.08 23.2779 1200.88 23.2779C1219.68 23.2779 1231.35 36.655 1231.35 56.7521V61.7763H1185.3C1185.55 73.4577 1191.88 80.3661 1201.93 80.3661C1209.63 80.3661 1214.66 76.2211 1216.15 71.7621L1216.27 71.3224H1230.73L1230.54 72.0133C1228.49 82.2502 1218.81 92.5499 1201.62 92.5499ZM1201.07 35.5246C1192.87 35.5246 1186.73 41.1141 1185.49 51.351H1216.33C1215.21 40.8 1209.26 35.5246 1201.07 35.5246Z" fill="#F4F4F4"/>
<path d="M1236.26 91.2311V24.6596H1251.71V36.1526H1252.02C1254.07 28.1138 1259.53 23.2779 1267.1 23.2779C1269.02 23.2779 1270.82 23.592 1272 23.906V38.0367C1270.7 37.5343 1268.34 37.1575 1265.73 37.1575C1256.98 37.1575 1251.71 42.7469 1251.71 52.6071V91.2311H1236.26Z" fill="#F4F4F4"/>
</svg>
