<svg width="153" height="36" viewBox="0 0 153 36" fill="none" xmlns="http://www.w3.org/2000/svg">
<path fill-rule="evenodd" clip-rule="evenodd" d="M126.664 29.8433H131.01V12.6629H126.664V29.8433Z" fill="#A0A0A4"/>
<path fill-rule="evenodd" clip-rule="evenodd" d="M126.664 10.6992H131.01V6.2337H126.664V10.6992Z" fill="#A0A0A4"/>
<path fill-rule="evenodd" clip-rule="evenodd" d="M120.028 29.8418H124.374V25.3763H120.028V29.8418Z" fill="#A0A0A4"/>
<path fill-rule="evenodd" clip-rule="evenodd" d="M89.297 27.511C89.5507 28.2025 89.9369 28.7434 90.3969 29.1663C90.8624 29.5952 91.4091 29.9295 92.0566 30.1195C92.7152 30.3091 93.441 30.3834 94.2097 30.3834C95.0037 30.3834 95.7127 30.2985 96.3172 30.1308C96.8789 29.9759 97.4172 29.7565 97.9172 29.4782V26.3226C97.1205 26.6763 96.376 26.8047 95.527 26.8455C94.6305 26.8883 94.0997 26.6249 93.6575 26.193C93.1957 25.7401 92.9494 25.1496 92.9494 24.1592V14.615H97.9172V10.6992H92.9494V6.2337H88.9117V10.6992H86.4916V14.615H88.9117V24.8633C88.9117 25.9219 89.0404 26.8123 89.297 27.511Z" fill="#A0A0A4"/>
<path fill-rule="evenodd" clip-rule="evenodd" d="M63.1085 16.509H52.2892V21.1266H58.3646C58.0472 22.4457 57.4202 23.6281 56.5213 24.5727C55.1645 25.9974 53.2836 26.782 51.2248 26.782C46.9514 26.782 43.4751 23.2093 43.4751 18.8178C43.4751 14.4263 46.9514 10.8534 51.2248 10.8534C53.5134 10.8534 55.6174 11.8598 57.076 13.5962L60.5546 10.6751C58.2481 7.89767 54.8262 6.23591 51.2248 6.23591C44.4739 6.23591 38.9821 11.8802 38.9821 18.8178C38.9821 25.7554 44.4739 31.3995 51.2248 31.3995C54.502 31.3995 57.5233 30.1858 59.7322 27.8663C61.586 25.9194 62.8146 23.2031 63.0507 20.4822C63.166 19.1547 63.1762 17.8369 63.1085 16.509Z" fill="#A0A0A4"/>
<path fill-rule="evenodd" clip-rule="evenodd" d="M109.019 14.2617C111.512 14.2617 113.637 15.8721 114.468 18.1355H103.57C104.4 15.8721 106.526 14.2617 109.019 14.2617ZM118.771 21.7852C118.845 21.2833 118.885 20.7694 118.885 20.2465C118.885 14.648 114.467 10.1097 109.019 10.1097C103.573 10.1097 99.1552 14.648 99.1552 20.2465C99.1552 25.845 103.573 30.383 109.019 30.383C112.756 30.383 116.008 28.2472 117.682 25.0991L114.037 23.2818C113.024 25.0464 111.156 26.2311 109.019 26.2311C106.318 26.2311 104.047 24.3413 103.389 21.7784H114.648C114.648 21.7806 114.647 21.7828 114.647 21.7852H118.771Z" fill="#A0A0A4"/>
<path fill-rule="evenodd" clip-rule="evenodd" d="M74.422 26.2319C71.2057 26.2319 68.5981 23.5522 68.5981 20.2466C68.5981 16.9409 71.2057 14.2613 74.422 14.2613C77.6385 14.2613 80.2459 16.9409 80.2459 20.2466C80.2459 23.5522 77.6385 26.2319 74.422 26.2319ZM74.4216 10.1273C68.9749 10.1273 64.5597 14.6651 64.5597 20.2626C64.5597 25.8601 68.9749 30.3981 74.4216 30.3981C79.8683 30.3981 84.2835 25.8601 84.2835 20.2626C84.2835 14.6651 79.8683 10.1273 74.4216 10.1273Z" fill="#A0A0A4"/>
<path fill-rule="evenodd" clip-rule="evenodd" d="M80.246 29.8427H84.2833V10.6831H80.246V29.8427Z" fill="#A0A0A4"/>
<path fill-rule="evenodd" clip-rule="evenodd" d="M143.135 26.231C139.918 26.231 137.312 23.5517 137.312 20.2463C137.312 16.9411 139.918 14.2617 143.135 14.2617C146.351 14.2617 148.959 16.9411 148.959 20.2463C148.959 23.5517 146.351 26.231 143.135 26.231ZM143.135 10.1097C137.688 10.1097 133.27 14.6478 133.27 20.2463C133.27 25.8447 137.688 30.383 143.135 30.383C148.583 30.383 153 25.8447 153 20.2463C153 14.6478 148.583 10.1097 143.135 10.1097Z" fill="#A0A0A4"/>
<path fill-rule="evenodd" clip-rule="evenodd" d="M17.5146 27.9C12.1942 27.9 7.88155 23.4675 7.88155 18C7.88155 12.5322 12.1942 8.09995 17.5146 8.09995V0C7.84144 0 0 8.05876 0 18C0 27.9412 7.84144 36 17.5146 36C27.1876 36 35.029 27.9412 35.029 18H27.1475C27.1475 23.4675 22.8346 27.9 17.5146 27.9Z" fill="#A0A0A4"/>
<path fill-rule="evenodd" clip-rule="evenodd" d="M17.5135 17.9992L27.1475 18L27.1465 8.09918L17.5146 8.09995L17.5135 17.9992Z" fill="#A0A0A4"/>
</svg>
