<svg width="123" height="44" viewBox="0 0 123 44" fill="none" xmlns="http://www.w3.org/2000/svg">
<path d="M26.8248 30.0673V31.0907C26.8248 33.3163 26.0806 35.1682 24.5923 36.6465C23.104 38.1086 21.1328 38.8396 18.6787 38.8396C16.1454 38.8396 14.0475 37.9868 12.385 36.281C10.7384 34.559 9.91504 32.4634 9.91504 29.9942C9.91504 27.5249 10.7384 25.4374 12.385 23.7317C14.0475 22.0097 16.1295 21.1487 18.6312 21.1487C20.167 21.1487 21.5761 21.5305 22.8586 22.294C24.1411 23.0413 25.1306 24.0322 25.8273 25.2668L23.9273 26.4121C23.4523 25.4861 22.7319 24.747 21.7661 24.1947C20.8161 23.6261 19.7632 23.3418 18.6074 23.3418C16.7074 23.3418 15.1479 23.9835 13.9287 25.2668C12.7096 26.5339 12.1 28.1097 12.1 29.9942C12.1 31.8786 12.7096 33.4544 13.9287 34.7215C15.1637 35.9886 16.7549 36.6222 18.7024 36.6222C20.3649 36.6222 21.7107 36.2079 22.7398 35.3794C23.769 34.5347 24.3944 33.4462 24.6161 32.1141H18.5124V30.0673H26.8248Z" fill="#0C0B16"/>
<path d="M71.9982 21.2347C74.3448 21.2347 76.3405 22.0831 77.9853 23.78C79.652 25.4769 80.4854 27.5533 80.4854 30.0093C80.4854 32.4653 79.652 34.5417 77.9853 36.2386C76.3405 37.9355 74.3448 38.7839 71.9982 38.7839C69.0814 38.7839 66.8665 37.5559 65.3532 35.0999V38.382H63.1821V14.9384H65.3532V24.9187C66.8665 22.4627 69.0814 21.2347 71.9982 21.2347ZM67.2283 34.7315C68.4784 36.0042 70.0135 36.6405 71.8337 36.6405C73.654 36.6405 75.1891 36.0042 76.4392 34.7315C77.6892 33.4365 78.3143 31.8624 78.3143 30.0093C78.3143 28.1561 77.6892 26.5932 76.4392 25.3206C75.1891 24.0256 73.654 23.3781 71.8337 23.3781C70.0135 23.3781 68.4784 24.0256 67.2283 25.3206C65.9783 26.5932 65.3532 28.1561 65.3532 30.0093C65.3532 31.8624 65.9783 33.4365 67.2283 34.7315Z" fill="#0C0B16"/>
<path d="M98.3341 36.2927C96.6837 37.9535 94.6641 38.7839 92.2754 38.7839C89.8867 38.7839 87.8563 37.9535 86.1842 36.2927C84.5338 34.6097 83.7086 32.5392 83.7086 30.0812C83.7086 27.6231 84.5338 25.5637 86.1842 23.9029C87.8563 22.2199 89.8867 21.3784 92.2754 21.3784C94.6641 21.3784 96.6837 22.2199 98.3341 23.9029C100.006 25.5637 100.842 27.6231 100.842 30.0812C100.842 32.5392 100.006 34.6097 98.3341 36.2927ZM87.7151 34.7647C88.9529 36.0269 90.473 36.658 92.2754 36.658C94.0778 36.658 95.5979 36.0269 96.8357 34.7647C98.0735 33.4803 98.6924 31.9191 98.6924 30.0812C98.6924 28.2432 98.0735 26.6931 96.8357 25.4308C95.5979 24.1465 94.0778 23.5043 92.2754 23.5043C90.473 23.5043 88.9529 24.1465 87.7151 25.4308C86.4773 26.6931 85.8584 28.2432 85.8584 30.0812C85.8584 31.9191 86.4773 33.4803 87.7151 34.7647Z" fill="#0C0B16"/>
<path d="M112.038 24.0226H107.463V34.1544C107.463 35.0684 107.633 35.726 107.971 36.1273C108.31 36.5063 108.819 36.7069 109.497 36.7292C110.174 36.7292 111.022 36.7069 112.038 36.6623V38.6018C109.814 38.9584 108.141 38.7912 107.018 38.1002C105.917 37.4091 105.366 36.0939 105.366 34.1544V24.0226H102.03V21.8825H105.366V17.2011H107.463V21.8825H112.038V24.0226Z" fill="#0C0B16"/>
<path d="M37.8614 21.3784C40.2537 21.3784 42.1826 22.2531 43.6481 24.0025C45.1352 25.7298 45.8788 27.7781 45.8788 30.1476C45.8788 30.3912 45.8572 30.7344 45.8141 31.1773H31.622C31.8375 32.8603 32.5272 34.2 33.691 35.1965C34.8764 36.1709 36.3312 36.658 38.0553 36.658C39.2838 36.658 40.3399 36.4034 41.2235 35.8941C42.1287 35.3626 42.8076 34.6761 43.2602 33.8346L45.5395 33.8233C45.2707 34.5817 44.9494 35.3302 44.4361 35.9416C43.8276 36.6666 43.0907 37.2708 42.2257 37.7542C40.9972 38.4407 39.5963 38.7839 38.023 38.7839C35.4798 38.7839 33.4108 37.9646 31.816 36.3259C30.2211 34.6872 29.4237 32.6056 29.4237 30.0812C29.4237 27.601 30.2103 25.5305 31.7836 23.8697C33.357 22.2088 35.3829 21.3784 37.8614 21.3784ZM37.8614 23.5043C36.1803 23.5043 34.7686 24.0247 33.6264 25.0655C32.5056 26.0841 31.8375 27.4128 31.622 29.0514H43.6805C43.4649 27.302 42.8076 25.9402 41.7084 24.9658C40.6093 23.9915 39.3269 23.5043 37.8614 23.5043Z" fill="#0C0B16"/>
<path d="M39.248 9.00706V5.16047H54.145V38.8395H50.4636V9.00706H39.248Z" fill="#3FC7C8"/>
<path d="M70.7542 9.00706V5.16047H55.8573V38.8395H59.5387V9.00706H70.7542Z" fill="#3FC7C8"/>
</svg>
