<svg width="62" height="15" viewBox="0 0 62 15" fill="none" xmlns="http://www.w3.org/2000/svg">
<path d="M39 3H62L56 9L62 15L41.3373 13.6524C40.0225 13.5667 39 12.4753 39 11.1577V3Z" fill="#3AC1C2"/>
<path d="M23 3H0L6 9L0 15L20.6627 13.6524C21.9775 13.5667 23 12.4753 23 11.1577V3Z" fill="#3AC1C2"/>
<path d="M48 0H14C12.8954 0 12 0.895431 12 2V10C12 11.1046 12.8954 12 14 12H48C49.1046 12 50 11.1046 50 10V2C50 0.895431 49.1046 0 48 0Z" fill="#3DD3D4"/>
<path d="M20.0254 10V1.54492H21.7949V4.97852H25.6035V1.54492H27.373V10H25.6035V6.4375H21.7949V10H20.0254ZM30.5038 10V1.54492H32.2734V10H30.5038ZM37.4549 10V3.00391H34.9178V1.54492H41.7616V3.00391H39.2245V10H37.4549Z" fill="white"/>
</svg>
