<svg width="94" height="36" viewBox="0 0 94 36" fill="none" xmlns="http://www.w3.org/2000/svg">
<path d="M15.5849 11.0437C15.6927 5.74545 12.6709 1.12862 11.0971 0.0190132C11.09 0.0118768 10.9498 -0.0630457 10.9606 0.143891L10.957 0.151028C10.8025 10.1589 5.62131 12.8526 2.80433 16.524C-3.4476 24.6801 1.76954 33.9851 8.52809 35.7476C8.64307 35.7762 8.95568 35.8689 9.54852 35.9903C9.85753 36.0545 9.94736 35.794 9.72101 35.4052C8.91255 34.0031 7.47533 31.6483 7.19507 28.6262C6.54114 21.6047 15.4627 17.2126 15.5849 11.0437Z" fill="#A0A0A4"/>
<path d="M18.9949 14.4402C18.941 14.4009 18.8655 14.4045 18.8584 14.4723C18.7146 15.746 17.3888 18.3863 15.6425 20.8552C9.76429 29.1791 12.725 32.9538 15.0245 35.5727C15.4485 36.0578 15.6605 35.9509 15.8833 35.6049C16.0917 35.2766 16.4079 34.859 17.7661 34.2206C17.9781 34.1206 23.109 31.4162 23.6659 25.258C24.2014 19.296 20.3531 15.532 18.9949 14.4402Z" fill="#A0A0A4"/>
<path d="M49.5181 12.9203V34.8235H44.7859V25.9751H35.6919V34.8235H30.8412V12.9203H35.6919V21.7686H44.7859V12.9203H49.5181Z" fill="#A0A0A4"/>
<path d="M71.3924 12.9203V17.2517H64.5979V34.8235H59.7294V17.2553H53.057V12.9203H71.3924Z" fill="#A0A0A4"/>
<path fill-rule="evenodd" clip-rule="evenodd" d="M88.6283 34.8449L83.0664 27.2241L77.5473 34.8129L72.1507 34.8235L80.3319 23.6419L72.6106 12.9239H78.0036L94 34.8485H88.6283V34.8449Z" fill="#A0A0A4"/>
<path d="M84.579 17.8261L87.2486 21.5081L93.5725 12.9203H88.2081L84.579 17.8261Z" fill="#A0A0A4"/>
</svg>
