<svg width="8" height="12" viewBox="0 0 8 12" fill="none" xmlns="http://www.w3.org/2000/svg">
<path fill-rule="evenodd" clip-rule="evenodd" d="M0.576131 3.24238C0.341811 3.4767 0.341811 3.8566 0.576131 4.09092C0.810451 4.32522 1.19034 4.32522 1.42466 4.09092L4.0004 1.51517L6.57613 4.09092C6.81045 4.32522 7.19034 4.32522 7.42468 4.09092C7.65894 3.8566 7.65894 3.4767 7.42468 3.24238L4.42466 0.242384C4.31213 0.129864 4.15952 0.0666504 4.0004 0.0666504C3.84126 0.0666504 3.68865 0.129864 3.57613 0.242384L0.576131 3.24238ZM7.42468 8.75758C7.65894 8.52326 7.65894 8.14337 7.42468 7.90905C7.19034 7.67474 6.81045 7.67474 6.57613 7.90905L4.0004 10.4848L1.42466 7.90905C1.19034 7.67474 0.810451 7.67474 0.576131 7.90905C0.341811 8.14337 0.341811 8.52326 0.576131 8.75758L3.57613 11.7576C3.81045 11.9919 4.19034 11.9919 4.42466 11.7576L7.42468 8.75758Z" fill="#686E7E"/>
</svg>
