<svg width="14" height="14" viewBox="0 0 14 14" fill="none" xmlns="http://www.w3.org/2000/svg">
<path d="M1.66699 2.33333C1.66699 2.15652 1.73723 1.98695 1.86225 1.86193C1.98728 1.7369 2.15685 1.66666 2.33366 1.66666H5.00033C5.17714 1.66666 5.34671 1.7369 5.47173 1.86193C5.59675 1.98695 5.66699 2.15652 5.66699 2.33333V5C5.66699 5.17681 5.59675 5.34638 5.47173 5.4714C5.34671 5.59643 5.17714 5.66666 5.00033 5.66666H2.33366C2.15685 5.66666 1.98728 5.59643 1.86225 5.4714C1.73723 5.34638 1.66699 5.17681 1.66699 5V2.33333Z" stroke="#686E7E" stroke-width="1.5" stroke-linecap="round" stroke-linejoin="round"/>
<path d="M8.33366 2.33333C8.33366 2.15652 8.4039 1.98695 8.52892 1.86193C8.65394 1.7369 8.82351 1.66666 9.00033 1.66666H11.667C11.8438 1.66666 12.0134 1.7369 12.1384 1.86193C12.2634 1.98695 12.3337 2.15652 12.3337 2.33333V5C12.3337 5.17681 12.2634 5.34638 12.1384 5.4714C12.0134 5.59643 11.8438 5.66666 11.667 5.66666H9.00033C8.82351 5.66666 8.65394 5.59643 8.52892 5.4714C8.4039 5.34638 8.33366 5.17681 8.33366 5V2.33333Z" stroke="#686E7E" stroke-width="1.5" stroke-linecap="round" stroke-linejoin="round"/>
<path d="M1.66699 9C1.66699 8.82319 1.73723 8.65362 1.86225 8.52859C1.98728 8.40357 2.15685 8.33333 2.33366 8.33333H5.00033C5.17714 8.33333 5.34671 8.40357 5.47173 8.52859C5.59675 8.65362 5.66699 8.82319 5.66699 9V11.6667C5.66699 11.8435 5.59675 12.013 5.47173 12.1381C5.34671 12.2631 5.17714 12.3333 5.00033 12.3333H2.33366C2.15685 12.3333 1.98728 12.2631 1.86225 12.1381C1.73723 12.013 1.66699 11.8435 1.66699 11.6667V9Z" stroke="#686E7E" stroke-width="1.5" stroke-linecap="round" stroke-linejoin="round"/>
<path d="M8.33366 9C8.33366 8.82319 8.4039 8.65362 8.52892 8.52859C8.65394 8.40357 8.82351 8.33333 9.00033 8.33333H11.667C11.8438 8.33333 12.0134 8.40357 12.1384 8.52859C12.2634 8.65362 12.3337 8.82319 12.3337 9V11.6667C12.3337 11.8435 12.2634 12.013 12.1384 12.1381C12.0134 12.2631 11.8438 12.3333 11.667 12.3333H9.00033C8.82351 12.3333 8.65394 12.2631 8.52892 12.1381C8.4039 12.013 8.33366 11.8435 8.33366 11.6667V9Z" stroke="#686E7E" stroke-width="1.5" stroke-linecap="round" stroke-linejoin="round"/>
</svg>
