<svg width="16" height="17" viewBox="0 0 16 17" fill="none" xmlns="http://www.w3.org/2000/svg">
<path d="M8.21582 1.93994L8.42773 1.94287L8.83887 1.95361L9.03809 1.9624L9.42383 1.98486L9.79297 2.01611C12.9826 2.32549 14.2805 3.62332 14.5898 6.81299L14.6211 7.18213L14.6436 7.56787C14.6469 7.63314 14.6503 7.69982 14.6523 7.76709L14.6631 8.17822L14.667 8.60596L14.6631 9.03369L14.6523 9.44482L14.6436 9.64404L14.6211 10.0298L14.5898 10.3989C14.2805 13.5886 12.9826 14.8864 9.79297 15.1958L9.42383 15.2271L9.03809 15.2495C8.97281 15.2528 8.90614 15.2563 8.83887 15.2583L8.42773 15.269L8 15.2729L7.57227 15.269L7.16113 15.2583L6.96191 15.2495L6.57617 15.2271L6.20703 15.1958C3.01736 14.8864 1.71953 13.5886 1.41016 10.3989L1.37891 10.0298L1.35645 9.64404C1.35321 9.57768 1.35019 9.51122 1.34766 9.44482L1.33691 9.03369C1.33492 8.89378 1.33301 8.7512 1.33301 8.60596L1.33398 8.39014L1.33691 8.17822L1.34766 7.76709L1.35645 7.56787L1.37891 7.18213L1.41016 6.81299C1.71953 3.62332 3.01736 2.32549 6.20703 2.01611L6.57617 1.98486L6.96191 1.9624C7.02719 1.95907 7.09386 1.95561 7.16113 1.95361L7.57227 1.94287C7.71218 1.94087 7.85476 1.93896 8 1.93896L8.21582 1.93994ZM10.4717 6.13428C10.2113 5.87393 9.78867 5.87393 9.52832 6.13428L5.52832 10.1343C5.26797 10.3946 5.26797 10.8173 5.52832 11.0776C5.78867 11.338 6.21133 11.338 6.47168 11.0776L10.4717 7.07764C10.732 6.81729 10.732 6.39463 10.4717 6.13428ZM9.66699 9.27295C9.11471 9.27295 8.66699 9.72066 8.66699 10.2729C8.66717 10.8251 9.11482 11.2729 9.66699 11.2729C10.219 11.2728 10.6668 10.825 10.667 10.2729C10.667 9.72077 10.2191 9.27313 9.66699 9.27295ZM6.33301 5.93896C5.78098 5.93914 5.33318 6.38694 5.33301 6.93896C5.33301 7.49114 5.78087 7.93879 6.33301 7.93896C6.88529 7.93896 7.33301 7.49125 7.33301 6.93896C7.33283 6.38683 6.88518 5.93896 6.33301 5.93896Z" fill="#3FC7C8"/>
</svg>
