<svg width="16" height="16" viewBox="0 0 16 16" fill="none" xmlns="http://www.w3.org/2000/svg">
<path d="M8.21582 1.33398L8.42773 1.33691L8.83887 1.34766L9.03809 1.35645L9.42383 1.37891L9.79297 1.41016C12.9826 1.71953 14.2805 3.01736 14.5898 6.20703L14.6211 6.57617L14.6436 6.96191C14.6469 7.02719 14.6503 7.09386 14.6523 7.16113L14.6631 7.57227L14.667 8L14.6631 8.42773L14.6523 8.83887L14.6436 9.03809L14.6211 9.42383L14.5898 9.79297C14.2805 12.9826 12.9826 14.2805 9.79297 14.5898L9.42383 14.6211L9.03809 14.6436C8.97281 14.6469 8.90614 14.6503 8.83887 14.6523L8.42773 14.6631L8 14.667L7.57227 14.6631L7.16113 14.6523L6.96191 14.6436L6.57617 14.6211L6.20703 14.5898C3.01736 14.2805 1.71953 12.9826 1.41016 9.79297L1.37891 9.42383L1.35645 9.03809C1.35321 8.97172 1.35019 8.90526 1.34766 8.83887L1.33691 8.42773C1.33492 8.28782 1.33301 8.14524 1.33301 8L1.33398 7.78418L1.33691 7.57227L1.34766 7.16113L1.35645 6.96191L1.37891 6.57617L1.41016 6.20703C1.71953 3.01736 3.01736 1.71953 6.20703 1.41016L6.57617 1.37891L6.96191 1.35645C7.02719 1.35312 7.09386 1.34966 7.16113 1.34766L7.57227 1.33691C7.71218 1.33492 7.85476 1.33301 8 1.33301L8.21582 1.33398ZM10.4717 5.52832C10.2113 5.26797 9.78867 5.26797 9.52832 5.52832L5.52832 9.52832C5.26797 9.78867 5.26797 10.2113 5.52832 10.4717C5.78867 10.732 6.21133 10.732 6.47168 10.4717L10.4717 6.47168C10.732 6.21133 10.732 5.78867 10.4717 5.52832ZM9.66699 8.66699C9.11471 8.66699 8.66699 9.11471 8.66699 9.66699C8.66717 10.2191 9.11482 10.667 9.66699 10.667C10.219 10.6668 10.6668 10.219 10.667 9.66699C10.667 9.11482 10.2191 8.66717 9.66699 8.66699ZM6.33301 5.33301C5.78098 5.33318 5.33318 5.78098 5.33301 6.33301C5.33301 6.88518 5.78087 7.33283 6.33301 7.33301C6.88529 7.33301 7.33301 6.88529 7.33301 6.33301C7.33283 5.78087 6.88518 5.33301 6.33301 5.33301Z" fill="white"/>
</svg>
