<svg width="14" height="14" viewBox="0 0 14 14" fill="none" xmlns="http://www.w3.org/2000/svg">
<path d="M7.66667 2.33333H13M7.66667 5H11M7.66667 9H13M7.66667 11.6667H11M1 2.33333C1 2.15652 1.07024 1.98695 1.19526 1.86193C1.32029 1.7369 1.48986 1.66666 1.66667 1.66666H4.33333C4.51014 1.66666 4.67971 1.7369 4.80474 1.86193C4.92976 1.98695 5 2.15652 5 2.33333V5C5 5.17681 4.92976 5.34638 4.80474 5.4714C4.67971 5.59643 4.51014 5.66666 4.33333 5.66666H1.66667C1.48986 5.66666 1.32029 5.59643 1.19526 5.4714C1.07024 5.34638 1 5.17681 1 5V2.33333ZM1 9C1 8.82319 1.07024 8.65362 1.19526 8.52859C1.32029 8.40357 1.48986 8.33333 1.66667 8.33333H4.33333C4.51014 8.33333 4.67971 8.40357 4.80474 8.52859C4.92976 8.65362 5 8.82319 5 9V11.6667C5 11.8435 4.92976 12.013 4.80474 12.1381C4.67971 12.2631 4.51014 12.3333 4.33333 12.3333H1.66667C1.48986 12.3333 1.32029 12.2631 1.19526 12.1381C1.07024 12.013 1 11.8435 1 11.6667V9Z" stroke="#686E7E" stroke-width="1.5" stroke-linecap="round" stroke-linejoin="round"/>
</svg>
