<svg width="48" height="48" viewBox="0 0 48 48" fill="none" xmlns="http://www.w3.org/2000/svg">
<path fill-rule="evenodd" clip-rule="evenodd" d="M10.0426 12C7.81047 12 6.00098 13.8095 6.00098 16.0416V33.9584C6.00098 36.1905 7.81047 38 10.0426 38H37.9594C40.1915 38 42.001 36.1905 42.001 33.9584V16.0416C42.001 13.8095 40.1915 12 37.9594 12H10.0426ZM38.3219 16.2861C37.9291 15.5566 37.0195 15.2838 36.29 15.6765L24.0011 22.2936L11.7123 15.6765C10.9829 15.2838 10.0732 15.5566 9.68048 16.2861C9.28772 17.0155 9.56063 17.9251 10.29 18.318L23.29 25.3179C23.734 25.557 24.2683 25.557 24.7123 25.3179L37.7123 18.318C38.4418 17.9251 38.7146 17.0155 38.3219 16.2861Z" fill="#3FC7C8"/>
</svg>
