<svg width="48" height="49" viewBox="0 0 48 49" fill="none" xmlns="http://www.w3.org/2000/svg">
<path fill-rule="evenodd" clip-rule="evenodd" d="M10.0426 12.606C7.81047 12.606 6.00098 14.4155 6.00098 16.6476V34.5643C6.00098 36.7965 7.81047 38.6059 10.0426 38.6059H37.9594C40.1915 38.6059 42.001 36.7965 42.001 34.5643V16.6476C42.001 14.4155 40.1915 12.606 37.9594 12.606H10.0426ZM38.3219 16.8921C37.9291 16.1626 37.0195 15.8898 36.29 16.2825L24.0011 22.8996L11.7123 16.2825C10.9829 15.8898 10.0732 16.1626 9.68048 16.8921C9.28772 17.6215 9.56063 18.5311 10.29 18.924L23.29 25.9239C23.734 26.163 24.2683 26.163 24.7123 25.9239L37.7123 18.924C38.4418 18.5311 38.7146 17.6215 38.3219 16.8921Z" fill="#3FC7C8"/>
</svg>
