<svg width="93" height="33" viewBox="0 0 93 33" fill="none" xmlns="http://www.w3.org/2000/svg">
<path d="M27.1845 0.606079H0.813396C0.650762 0.606079 0.494783 0.671582 0.37983 0.788335C0.264755 0.904963 0.200195 1.06322 0.200195 1.22835V27.9839C0.200195 28.1489 0.264755 28.3072 0.37983 28.4238C0.494783 28.5406 0.650762 28.6061 0.813396 28.6061H27.1845C27.3473 28.6061 27.5033 28.5406 27.6182 28.4238C27.7333 28.3072 27.7978 28.1489 27.7978 27.9839V1.22835C27.7978 1.06322 27.7333 0.904963 27.6182 0.788335C27.5033 0.671582 27.3473 0.606079 27.1845 0.606079ZM18.5986 18.6506C18.5986 18.8156 18.534 18.9738 18.4189 19.0906C18.304 19.2072 18.148 19.2728 17.9854 19.2728H10.0127C9.85002 19.2728 9.69404 19.2072 9.57897 19.0906C9.46401 18.9738 9.39945 18.8156 9.39945 18.6506V10.5616C9.39945 10.3966 9.46401 10.2383 9.57897 10.1217C9.69404 10.005 9.85002 9.93945 10.0127 9.93945H17.9854C18.148 9.93945 18.304 10.005 18.4189 10.1217C18.534 10.2383 18.5986 10.3966 18.5986 10.5616V18.6506Z" fill="#0C0B16"/>
<path d="M82.395 9.94116H74.4224C74.0837 9.94116 73.809 10.2197 73.809 10.5633V18.6523C73.809 18.9959 74.0837 19.2745 74.4224 19.2745H82.395C82.7337 19.2745 83.0083 18.9959 83.0083 18.6523V10.5633C83.0083 10.2197 82.7337 9.94116 82.395 9.94116Z" fill="#0C0B16"/>
<path d="M73.1883 0.606079H65.2157C64.877 0.606079 64.6024 0.884586 64.6024 1.22835V9.31719C64.6024 9.66082 64.877 9.93945 65.2157 9.93945H73.1883C73.5272 9.93945 73.8017 9.66082 73.8017 9.31719V1.22835C73.8017 0.884586 73.5272 0.606079 73.1883 0.606079Z" fill="#0C0B16"/>
<path d="M91.587 0.606079H83.6143C83.2756 0.606079 83.0009 0.884586 83.0009 1.22835V9.31719C83.0009 9.66082 83.2756 9.93945 83.6143 9.93945H91.587C91.9257 9.93945 92.2002 9.66082 92.2002 9.31719V1.22835C92.2002 0.884586 91.9257 0.606079 91.587 0.606079Z" fill="#0C0B16"/>
<path d="M73.1883 19.2725H65.2157C64.877 19.2725 64.6024 19.551 64.6024 19.8946V27.9836C64.6024 28.3272 64.877 28.6058 65.2157 28.6058H73.1883C73.5272 28.6058 73.8017 28.3272 73.8017 27.9836V19.8946C73.8017 19.551 73.5272 19.2725 73.1883 19.2725Z" fill="#0C0B16"/>
<path d="M91.587 19.2725H83.6143C83.2756 19.2725 83.0009 19.551 83.0009 19.8946V27.9836C83.0009 28.3272 83.2756 28.6058 83.6143 28.6058H91.587C91.9257 28.6058 92.2002 28.3272 92.2002 27.9836V19.8946C92.2002 19.551 91.9257 19.2725 91.587 19.2725Z" fill="#0C0B16"/>
<path d="M59.3784 0.606079H51.4058C51.0671 0.606079 50.7925 0.884586 50.7925 1.22835V9.31719C50.7925 9.66082 51.0671 9.93945 51.4058 9.93945H59.3784C59.7171 9.93945 59.9917 9.66082 59.9917 9.31719V1.22835C59.9917 0.884586 59.7171 0.606079 59.3784 0.606079Z" fill="#0C0B16"/>
<path d="M59.3784 19.2725H51.4058C51.0671 19.2725 50.7925 19.551 50.7925 19.8946V27.9836C50.7925 28.3272 51.0671 28.6058 51.4058 28.6058H59.3784C59.7171 28.6058 59.9917 28.3272 59.9917 27.9836V19.8946C59.9917 19.551 59.7171 19.2725 59.3784 19.2725Z" fill="#0C0B16"/>
<path d="M50.7925 10.5546C50.7925 10.3896 50.7278 10.2313 50.6128 10.1147C50.4977 9.99795 50.3418 9.93246 50.1791 9.93246H41.5932V1.22835C41.5932 1.06322 41.5285 0.904963 41.4136 0.788335C41.2985 0.671582 41.1425 0.606079 40.9799 0.606079H33.0073C32.8445 0.606079 32.6885 0.671582 32.5736 0.788335C32.4585 0.904963 32.3939 1.06322 32.3939 1.22835V27.9699C32.3939 28.1349 32.4585 28.2932 32.5736 28.4098C32.6885 28.5266 32.8445 28.5921 33.0073 28.5921H40.9799C41.1425 28.5921 41.2985 28.5266 41.4136 28.4098C41.5285 28.2932 41.5932 28.1349 41.5932 27.9699V19.2658H50.1791C50.3418 19.2658 50.4977 19.2002 50.6128 19.0836C50.7278 18.9668 50.7925 18.8086 50.7925 18.6436V10.5546Z" fill="#0C0B16"/>
</svg>
