<svg width="22" height="22" viewBox="0 0 22 22" fill="none" xmlns="http://www.w3.org/2000/svg">
<path d="M6.84473 14.667C7.11473 14.6671 7.33301 14.8863 7.33301 15.1562V21.5117C7.33288 21.7815 7.11466 21.9999 6.84473 22H0.489258C0.219335 22 0.000127522 21.7816 0 21.5117V15.1562C0 14.8862 0.219256 14.667 0.489258 14.667H6.84473ZM21.5107 14.667C21.7807 14.667 22 14.8862 22 15.1562V21.5117C21.9999 21.7816 21.7807 22 21.5107 22H15.1553C14.8854 21.9999 14.6661 21.7816 14.666 21.5117V15.1562C14.666 14.8863 14.8853 14.6671 15.1553 14.667H21.5107ZM14.1787 7.33301C14.4486 7.33316 14.667 7.55236 14.667 7.82227V14.1777C14.667 14.4476 14.4486 14.6668 14.1787 14.667H7.82324C7.55324 14.667 7.33398 14.4477 7.33398 14.1777V7.82227C7.33398 7.55226 7.55324 7.33301 7.82324 7.33301H14.1787ZM6.84473 0C7.11473 0.000108142 7.33301 0.219225 7.33301 0.489258V6.84473C7.3329 7.11457 7.11467 7.3329 6.84473 7.33301H0.489258C0.219324 7.33301 0.00010957 7.11463 0 6.84473V0.489258C0 0.219158 0.219256 0 0.489258 0H6.84473ZM21.5107 0C21.7807 0 22 0.219158 22 0.489258V6.84473C21.9999 7.11463 21.7807 7.33301 21.5107 7.33301H15.1553C14.8854 7.33294 14.6661 7.1146 14.666 6.84473V0.489258C14.666 0.219197 14.8853 6.30444e-05 15.1553 0H21.5107Z" fill="black"/>
</svg>
