<svg width="239" height="35" viewBox="0 0 239 35" fill="none" xmlns="http://www.w3.org/2000/svg">
<rect y="0.605957" width="238.249" height="34.1751" rx="17.0875" fill="#3FC7C8"/>
<path d="M220.018 17.1406L226.479 24.316H223.189L217.587 18.1895H217.515V24.316H214.929V10.6565H217.515V16.5446H217.587L222.986 10.6565H225.966L220.018 17.1406Z" fill="white"/>
<path d="M205.87 10.418C209.958 10.418 212.509 13.1356 212.509 17.4861C212.509 21.8367 209.958 24.5424 205.87 24.5424C201.781 24.5424 199.219 21.8367 199.219 17.4861C199.219 13.1356 201.781 10.418 205.87 10.418ZM205.87 12.6469C203.426 12.6469 201.865 14.5182 201.865 17.4861C201.865 20.454 203.414 22.3254 205.87 22.3254C208.325 22.3254 209.875 20.454 209.875 17.4861C209.875 14.5182 208.313 12.6469 205.87 12.6469Z" fill="white"/>
<path d="M187.062 10.6565H192.723C195.524 10.6565 197.455 12.504 197.455 15.2812C197.455 18.0346 195.465 19.894 192.616 19.894H189.648V24.316H187.062V10.6565ZM189.648 12.7662V17.8081H192.032C193.808 17.8081 194.833 16.9022 194.833 15.2812C194.833 13.6721 193.808 12.7662 192.056 12.7662H189.648Z" fill="white"/>
<path d="M182.436 24.316L181.28 20.8833H176.179L175.022 24.316H172.353L177.287 10.6565H180.231L185.166 24.316H182.436ZM178.694 13.1596L176.775 18.8808H180.672L178.753 13.1596H178.694Z" fill="white"/>
<path d="M162.007 18.7259C161.912 20.2635 161.709 21.3124 161.077 22.0394V22.1229H167.073V12.8377H162.401L162.007 18.7259ZM159.576 24.316V27.0098H157.228V22.1229H158.217C159.194 21.4912 159.504 20.3946 159.623 18.559L160.124 10.6565H169.659V22.1229H171.4V27.0098H169.052V24.316H159.576Z" fill="white"/>
<path d="M149.421 10.418C153.509 10.418 156.06 13.1356 156.06 17.4861C156.06 21.8367 153.509 24.5424 149.421 24.5424C145.332 24.5424 142.77 21.8367 142.77 17.4861C142.77 13.1356 145.332 10.418 149.421 10.418ZM149.421 12.6469C146.977 12.6469 145.416 14.5182 145.416 17.4861C145.416 20.454 146.965 22.3254 149.421 22.3254C151.876 22.3254 153.425 20.454 153.425 17.4861C153.425 14.5182 151.864 12.6469 149.421 12.6469Z" fill="white"/>
<path d="M140.349 24.316H137.763V12.8496H131.255V24.316H128.656V10.6565H140.349V24.316Z" fill="white"/>
<path d="M116.726 24.316H110.683V10.6565H116.642C119.205 10.6565 120.838 11.9795 120.838 14.0654C120.838 15.5434 119.729 16.8069 118.275 17.0333V17.1048C120.17 17.2717 121.517 18.6067 121.517 20.4184C121.517 22.8261 119.694 24.316 116.726 24.316ZM113.269 12.6589V16.3778H115.629C117.334 16.3778 118.275 15.6745 118.275 14.4588C118.275 13.3145 117.453 12.6589 115.987 12.6589H113.269ZM113.269 22.3136H116.106C117.906 22.3136 118.871 21.5865 118.871 20.2158C118.871 18.8808 117.882 18.1776 116.011 18.1776H113.269V22.3136Z" fill="white"/>
<path d="M101.099 24.316L99.9432 20.8833H94.8417L93.6856 24.316H91.0156L95.9502 10.6565H98.8943L103.829 24.316H101.099ZM97.3567 13.1596L95.4377 18.8808H99.3353L97.4163 13.1596H97.3567Z" fill="white"/>
<path d="M87.4639 24.316H84.8774V12.8496H80.6699V10.6565H91.6715V12.8496H87.4639V24.316Z" fill="white"/>
<path d="M73.4459 10.418C77.5342 10.418 80.085 13.1356 80.085 17.4861C80.085 21.8367 77.5342 24.5424 73.4459 24.5424C69.3576 24.5424 66.7949 21.8367 66.7949 17.4861C66.7949 13.1356 69.3576 10.418 73.4459 10.418ZM73.4459 12.6469C71.0024 12.6469 69.441 14.5182 69.441 17.4861C69.441 20.454 70.9905 22.3254 73.4459 22.3254C75.9013 22.3254 77.4508 20.454 77.4508 17.4861C77.4508 14.5182 75.8894 12.6469 73.4459 12.6469Z" fill="white"/>
<path d="M64.793 20.0489C64.793 22.5997 62.8502 24.316 60.061 24.316H54.5186V10.6565H63.47V12.8377H57.105V15.8533H59.9776C62.8144 15.8533 64.793 17.5459 64.793 20.0489ZM57.105 22.1825H59.4055C61.1457 22.1825 62.1469 21.4316 62.1469 20.0489C62.1469 18.6544 61.1338 17.9034 59.4055 17.9034H57.105V22.1825Z" fill="white"/>
<path d="M37.1045 14.7328C37.1045 12.1821 39.1665 10.3704 42.0987 10.3704C44.8997 10.3704 46.9141 12.0271 46.9141 14.2799C46.9141 15.9486 45.8771 17.2001 44.1131 18.8688L40.6803 22.1467V22.2063H47.1167V24.316H37.2356V22.54L42.3967 17.5696C43.9343 16.0678 44.3872 15.3765 44.3872 14.3872C44.3872 13.3025 43.3741 12.4443 42.0153 12.4443C40.573 12.4443 39.5122 13.4217 39.5122 14.7328V14.7686H37.1045V14.7328Z" fill="white"/>
<mask id="mask0_82_5927" style="mask-type:luminance" maskUnits="userSpaceOnUse" x="5" y="5" width="26" height="25">
<path d="M5.8584 5.48804H30.2692V29.9026H5.8584V5.48804Z" fill="white"/>
</mask>
<g mask="url(#mask0_82_5927)">
<path d="M18.0664 29.8918C11.3361 29.8918 5.86035 24.416 5.86035 17.6849C5.86035 10.9543 11.3361 5.47852 18.0664 5.47852C24.7975 5.47852 30.2736 10.9543 30.2736 17.6849C30.2736 24.416 24.7975 29.8918 18.0664 29.8918ZM18.0664 6.68257C11.9998 6.68257 7.06398 11.6184 7.06398 17.6849C7.06398 23.7523 11.9998 28.6882 18.0664 28.6882C24.1333 28.6882 29.0696 23.7523 29.0696 17.6849C29.0696 11.6184 24.1333 6.68257 18.0664 6.68257Z" fill="white"/>
</g>
<path d="M17.6194 14.3149C17.6194 14.3149 16.1273 14.3149 15.298 14.3149C14.468 14.3149 13.7959 13.7449 13.7959 13.0424C13.7959 12.3395 14.4684 11.77 15.298 11.77C16.1277 11.77 17.6194 14.3149 17.6194 14.3149Z" fill="white"/>
<path d="M18.416 14.3149C18.416 14.3149 19.9082 14.3149 20.7374 14.3149C21.5675 14.3149 22.24 13.7449 22.24 13.0424C22.24 12.3395 21.5671 11.77 20.7374 11.77C19.9082 11.77 18.416 14.3149 18.416 14.3149Z" fill="white"/>
<path d="M17.4165 15.4641H12.6549C12.5202 15.4641 12.4102 15.5733 12.4102 15.7084V17.5887C12.4102 17.7234 12.5202 17.833 12.6549 17.833H17.4165V15.4641Z" fill="white"/>
<path d="M23.3817 15.4641H18.6201V17.833H23.3817C23.5164 17.833 23.6264 17.7234 23.6264 17.5887V15.7084C23.6264 15.5733 23.5164 15.4641 23.3817 15.4641Z" fill="white"/>
<path d="M12.6709 18.6355V22.9539C12.6709 23.3108 12.9598 23.6001 13.3167 23.6001H17.4162V18.6355H12.6709Z" fill="white"/>
<path d="M23.3817 18.6354H18.6201V23.6001H22.8076C23.1641 23.6001 23.4534 23.3111 23.4534 22.9538V18.6279C23.4292 18.63 23.4063 18.6354 23.3817 18.6354Z" fill="white"/>
</svg>
