<svg width="50" height="34" viewBox="0 0 50 34" fill="none" xmlns="http://www.w3.org/2000/svg">
<g filter="url(#filter0_d_120_29731)">
<path d="M1 16C1 7.16344 8.16344 0 17 0H33C41.8366 0 49 7.16344 49 16C49 24.8366 41.8366 32 33 32H17C8.16344 32 1 24.8366 1 16Z" fill="white" shape-rendering="crispEdges"/>
<path d="M17 0.5H33C41.5604 0.5 48.5 7.43959 48.5 16C48.5 24.5604 41.5604 31.5 33 31.5H17C8.43959 31.5 1.5 24.5604 1.5 16C1.5 7.43959 8.43959 0.5 17 0.5Z" stroke="#EDEFF2" shape-rendering="crispEdges"/>
<path d="M19.667 11.3333C19.667 11.1565 19.7372 10.987 19.8623 10.8619C19.9873 10.7369 20.1568 10.6667 20.3337 10.6667H23.0003C23.1771 10.6667 23.3467 10.7369 23.4717 10.8619C23.5968 10.987 23.667 11.1565 23.667 11.3333V14C23.667 14.1768 23.5968 14.3464 23.4717 14.4714C23.3467 14.5964 23.1771 14.6667 23.0003 14.6667H20.3337C20.1568 14.6667 19.9873 14.5964 19.8623 14.4714C19.7372 14.3464 19.667 14.1768 19.667 14V11.3333Z" stroke="#686E7E" stroke-width="1.5" stroke-linecap="round" stroke-linejoin="round"/>
<path d="M26.3337 11.3333C26.3337 11.1565 26.4039 10.987 26.5289 10.8619C26.6539 10.7369 26.8235 10.6667 27.0003 10.6667H29.667C29.8438 10.6667 30.0134 10.7369 30.1384 10.8619C30.2634 10.987 30.3337 11.1565 30.3337 11.3333V14C30.3337 14.1768 30.2634 14.3464 30.1384 14.4714C30.0134 14.5964 29.8438 14.6667 29.667 14.6667H27.0003C26.8235 14.6667 26.6539 14.5964 26.5289 14.4714C26.4039 14.3464 26.3337 14.1768 26.3337 14V11.3333Z" stroke="#686E7E" stroke-width="1.5" stroke-linecap="round" stroke-linejoin="round"/>
<path d="M19.667 18C19.667 17.8232 19.7372 17.6536 19.8623 17.5286C19.9873 17.4036 20.1568 17.3333 20.3337 17.3333H23.0003C23.1771 17.3333 23.3467 17.4036 23.4717 17.5286C23.5968 17.6536 23.667 17.8232 23.667 18V20.6667C23.667 20.8435 23.5968 21.013 23.4717 21.1381C23.3467 21.2631 23.1771 21.3333 23.0003 21.3333H20.3337C20.1568 21.3333 19.9873 21.2631 19.8623 21.1381C19.7372 21.013 19.667 20.8435 19.667 20.6667V18Z" stroke="#686E7E" stroke-width="1.5" stroke-linecap="round" stroke-linejoin="round"/>
<path d="M26.3337 18C26.3337 17.8232 26.4039 17.6536 26.5289 17.5286C26.6539 17.4036 26.8235 17.3333 27.0003 17.3333H29.667C29.8438 17.3333 30.0134 17.4036 30.1384 17.5286C30.2634 17.6536 30.3337 17.8232 30.3337 18V20.6667C30.3337 20.8435 30.2634 21.013 30.1384 21.1381C30.0134 21.2631 29.8438 21.3333 29.667 21.3333H27.0003C26.8235 21.3333 26.6539 21.2631 26.5289 21.1381C26.4039 21.013 26.3337 20.8435 26.3337 20.6667V18Z" stroke="#686E7E" stroke-width="1.5" stroke-linecap="round" stroke-linejoin="round"/>
</g>
<defs>
<filter id="filter0_d_120_29731" x="0" y="0" width="50" height="34" filterUnits="userSpaceOnUse" color-interpolation-filters="sRGB">
<feFlood flood-opacity="0" result="BackgroundImageFix"/>
<feColorMatrix in="SourceAlpha" type="matrix" values="0 0 0 0 0 0 0 0 0 0 0 0 0 0 0 0 0 0 127 0" result="hardAlpha"/>
<feOffset dy="1"/>
<feGaussianBlur stdDeviation="0.5"/>
<feComposite in2="hardAlpha" operator="out"/>
<feColorMatrix type="matrix" values="0 0 0 0 0 0 0 0 0 0 0 0 0 0 0 0 0 0 0.1 0"/>
<feBlend mode="normal" in2="BackgroundImageFix" result="effect1_dropShadow_120_29731"/>
<feBlend mode="normal" in="SourceGraphic" in2="effect1_dropShadow_120_29731" result="shape"/>
</filter>
</defs>
</svg>
