<svg width="28" height="21" viewBox="0 0 28 21" fill="none" xmlns="http://www.w3.org/2000/svg">
<path fill-rule="evenodd" clip-rule="evenodd" d="M24.9175 1.38232C26.1225 1.70774 27.0696 2.65726 27.3897 3.86088C27.9722 6.04523 27.9722 10.6056 27.9722 10.6056C27.9722 10.6056 27.9722 15.166 27.3897 17.3503C27.0651 18.5584 26.118 19.5079 24.9175 19.8289C22.7387 20.4129 13.9968 20.4129 13.9968 20.4129C13.9968 20.4129 5.25947 20.4129 3.07623 19.8289C1.87123 19.5035 0.924124 18.554 0.603976 17.3503C0.0214844 15.166 0.0214844 10.6056 0.0214844 10.6056C0.0214844 10.6056 0.0214844 6.04523 0.603976 3.86088C0.928571 2.6528 1.87568 1.70328 3.07623 1.38232C5.25947 0.79834 13.9968 0.79834 13.9968 0.79834C13.9968 0.79834 22.7387 0.79834 24.9175 1.38232ZM11.2069 14.8096L18.468 10.6026L11.2022 6.40024L11.2069 14.8096Z" fill="#3FC7C8"/>
</svg>
