<svg width="23" height="19" viewBox="0 0 23 19" fill="none" xmlns="http://www.w3.org/2000/svg">
<path d="M1.35369 8.39667C1.35369 8.39667 11.1191 4.28363 14.506 2.83532C15.8043 2.25605 20.2072 0.402212 20.2072 0.402212C20.2072 0.402212 22.2393 -0.40877 22.07 1.56084C22.0135 2.3719 21.5619 5.21046 21.1104 8.28081C20.433 12.6256 19.6992 17.3759 19.6992 17.3759C19.6992 17.3759 19.5863 18.7084 18.6267 18.9401C17.6671 19.1718 16.0865 18.1291 15.8043 17.8973C15.5784 17.7236 11.5707 15.1166 10.1031 13.8422C9.70792 13.4946 9.25636 12.7995 10.1595 11.9884C12.1916 10.0767 14.6189 7.70154 16.0865 6.19535C16.7639 5.50014 17.4412 3.87809 14.6188 5.8477C10.6111 8.68634 6.65977 11.3512 6.65977 11.3512C6.65977 11.3512 5.75658 11.9304 4.06317 11.409C2.36969 10.8877 0.394016 10.1925 0.394016 10.1925C0.394016 10.1925 -0.960648 9.32359 1.35369 8.39667Z" fill="#3FC7C8"/>
</svg>
