<svg width="26" height="25" viewBox="0 0 26 25" fill="none" xmlns="http://www.w3.org/2000/svg">
<mask id="mask0_82_5943" style="mask-type:luminance" maskUnits="userSpaceOnUse" x="0" y="0" width="26" height="25">
<path d="M0.858398 0.488037H25.2692V24.9026H0.858398V0.488037Z" fill="white"/>
</mask>
<g mask="url(#mask0_82_5943)">
<path d="M13.0664 24.8918C6.33611 24.8918 0.860352 19.416 0.860352 12.6849C0.860352 5.95427 6.33611 0.478516 13.0664 0.478516C19.7975 0.478516 25.2736 5.95427 25.2736 12.6849C25.2736 19.416 19.7975 24.8918 13.0664 24.8918ZM13.0664 1.68257C6.99984 1.68257 2.06398 6.61842 2.06398 12.6849C2.06398 18.7523 6.99984 23.6882 13.0664 23.6882C19.1333 23.6882 24.0696 18.7523 24.0696 12.6849C24.0696 6.61842 19.1333 1.68257 13.0664 1.68257Z" fill="white"/>
</g>
<path d="M12.6194 9.31487C12.6194 9.31487 11.1273 9.31487 10.298 9.31487C9.46796 9.31487 8.7959 8.74494 8.7959 8.04244C8.7959 7.33953 9.46838 6.77002 10.298 6.77002C11.1277 6.77002 12.6194 9.31487 12.6194 9.31487Z" fill="white"/>
<path d="M13.416 9.31487C13.416 9.31487 14.9082 9.31487 15.7374 9.31487C16.5675 9.31487 17.24 8.74494 17.24 8.04244C17.24 7.33953 16.5671 6.77002 15.7374 6.77002C14.9082 6.77002 13.416 9.31487 13.416 9.31487Z" fill="white"/>
<path d="M12.4165 10.4641H7.65489C7.52022 10.4641 7.41016 10.5733 7.41016 10.7084V12.5887C7.41016 12.7234 7.52022 12.833 7.65489 12.833H12.4165V10.4641Z" fill="white"/>
<path d="M18.3817 10.4641H13.6201V12.833H18.3817C18.5164 12.833 18.6264 12.7234 18.6264 12.5887V10.7084C18.6264 10.5733 18.5164 10.4641 18.3817 10.4641Z" fill="white"/>
<path d="M7.6709 13.6355V17.9539C7.6709 18.3108 7.95982 18.6001 8.3167 18.6001H12.4162V13.6355H7.6709Z" fill="white"/>
<path d="M18.3817 13.6354H13.6201V18.6001H17.8076C18.1641 18.6001 18.4534 18.3111 18.4534 17.9538V13.6279C18.4292 13.63 18.4063 13.6354 18.3817 13.6354Z" fill="white"/>
</svg>
