<svg width="26" height="26" viewBox="0 0 26 26" fill="none" xmlns="http://www.w3.org/2000/svg">
<g clip-path="url(#clip0_69_3999)">
<path d="M25.6136 16.1376C23.8789 23.0976 16.8295 27.3476 9.8567 25.6119C2.89665 23.8719 -1.34656 16.8225 0.388142 9.86245C2.12284 2.90242 9.16793 -1.34762 16.1237 0.388129C23.1008 2.10261 27.344 9.17326 25.6136 16.1376Z" fill="#F6F8FC"/>
<path fill-rule="evenodd" clip-rule="evenodd" d="M8.12832 7.54004H17.7424C17.9718 7.54004 18.1837 7.66039 18.2981 7.85565L21.0991 12.6362C21.2443 12.8841 21.2012 13.1971 20.994 13.3981L13.2842 20.8791C13.0345 21.1214 12.6327 21.1214 12.383 20.8791L4.6837 13.4082C4.47169 13.2025 4.43198 12.8804 4.58789 12.631L7.5819 7.84031C7.69851 7.65376 7.90542 7.54004 8.12832 7.54004ZM16.501 9.67441V11.0158H13.7624V11.9457C15.6858 12.0451 17.1289 12.4533 17.1396 12.9426L17.1396 13.9625C17.1288 14.4518 15.6858 14.86 13.7624 14.9593V17.2417H11.9439V14.9593C10.0204 14.86 8.57731 14.4518 8.56662 13.9625L8.56669 12.9426C8.57738 12.4533 10.0204 12.0451 11.9439 11.9457V11.0158H9.2052V9.67441H16.501ZM12.8531 14.2586C14.9058 14.2586 16.6215 13.9135 17.0413 13.4525C16.6853 13.0617 15.3974 12.7541 13.7624 12.6696V13.6433C13.4693 13.6584 13.1651 13.6664 12.8531 13.6664C12.5411 13.6664 12.2369 13.6584 11.9439 13.6433V12.6696C10.3088 12.7541 9.02095 13.0617 8.66491 13.4525C9.08479 13.9135 10.8004 14.2586 12.8531 14.2586Z" fill="#009393"/>
</g>
<rect x="0.75" y="0.75" width="24.5" height="24.5" rx="12.25" stroke="#EDEFF2" stroke-width="1.5"/>
<defs>
<clipPath id="clip0_69_3999">
<rect width="26" height="26" rx="13" fill="white"/>
</clipPath>
</defs>
</svg>
